G04 #@! TF.GenerationSoftware,KiCad,Pcbnew,5.0.1-33cea8e~68~ubuntu18.04.1*
G04 #@! TF.CreationDate,2018-11-24T23:55:32-08:00*
G04 #@! TF.ProjectId,big_battery,6269675F626174746572792E6B696361,rev?*
G04 #@! TF.SameCoordinates,Original*
G04 #@! TF.FileFunction,Legend,Bot*
G04 #@! TF.FilePolarity,Positive*
%FSLAX46Y46*%
G04 Gerber Fmt 4.6, Leading zero omitted, Abs format (unit mm)*
G04 Created by KiCad (PCBNEW 5.0.1-33cea8e~68~ubuntu18.04.1) date Sat 24 Nov 2018 11:55:32 PM PST*
%MOMM*%
%LPD*%
G01*
G04 APERTURE LIST*
%ADD10C,0.300000*%
%ADD11C,0.100000*%
%ADD12C,0.010000*%
G04 APERTURE END LIST*
D10*
X64507142Y-19042857D02*
X64292857Y-19114285D01*
X64221428Y-19185714D01*
X64150000Y-19328571D01*
X64150000Y-19542857D01*
X64221428Y-19685714D01*
X64292857Y-19757142D01*
X64435714Y-19828571D01*
X65007142Y-19828571D01*
X65007142Y-18328571D01*
X64507142Y-18328571D01*
X64364285Y-18400000D01*
X64292857Y-18471428D01*
X64221428Y-18614285D01*
X64221428Y-18757142D01*
X64292857Y-18900000D01*
X64364285Y-18971428D01*
X64507142Y-19042857D01*
X65007142Y-19042857D01*
X63507142Y-19828571D02*
X63507142Y-18328571D01*
X62007142Y-18400000D02*
X62150000Y-18328571D01*
X62364285Y-18328571D01*
X62578571Y-18400000D01*
X62721428Y-18542857D01*
X62792857Y-18685714D01*
X62864285Y-18971428D01*
X62864285Y-19185714D01*
X62792857Y-19471428D01*
X62721428Y-19614285D01*
X62578571Y-19757142D01*
X62364285Y-19828571D01*
X62221428Y-19828571D01*
X62007142Y-19757142D01*
X61935714Y-19685714D01*
X61935714Y-19185714D01*
X62221428Y-19185714D01*
X61650000Y-19971428D02*
X60507142Y-19971428D01*
X59650000Y-19042857D02*
X59435714Y-19114285D01*
X59364285Y-19185714D01*
X59292857Y-19328571D01*
X59292857Y-19542857D01*
X59364285Y-19685714D01*
X59435714Y-19757142D01*
X59578571Y-19828571D01*
X60150000Y-19828571D01*
X60150000Y-18328571D01*
X59650000Y-18328571D01*
X59507142Y-18400000D01*
X59435714Y-18471428D01*
X59364285Y-18614285D01*
X59364285Y-18757142D01*
X59435714Y-18900000D01*
X59507142Y-18971428D01*
X59650000Y-19042857D01*
X60150000Y-19042857D01*
X58721428Y-19400000D02*
X58007142Y-19400000D01*
X58864285Y-19828571D02*
X58364285Y-18328571D01*
X57864285Y-19828571D01*
X57578571Y-18328571D02*
X56721428Y-18328571D01*
X57150000Y-19828571D02*
X57150000Y-18328571D01*
X56435714Y-18328571D02*
X55578571Y-18328571D01*
X56007142Y-19828571D02*
X56007142Y-18328571D01*
X54150000Y-18328571D02*
X53650000Y-19828571D01*
X53150000Y-18328571D01*
X52721428Y-18471428D02*
X52650000Y-18400000D01*
X52507142Y-18328571D01*
X52150000Y-18328571D01*
X52007142Y-18400000D01*
X51935714Y-18471428D01*
X51864285Y-18614285D01*
X51864285Y-18757142D01*
X51935714Y-18971428D01*
X52792857Y-19828571D01*
X51864285Y-19828571D01*
X51221428Y-19685714D02*
X51150000Y-19757142D01*
X51221428Y-19828571D01*
X51292857Y-19757142D01*
X51221428Y-19685714D01*
X51221428Y-19828571D01*
X50221428Y-18328571D02*
X50078571Y-18328571D01*
X49935714Y-18400000D01*
X49864285Y-18471428D01*
X49792857Y-18614285D01*
X49721428Y-18900000D01*
X49721428Y-19257142D01*
X49792857Y-19542857D01*
X49864285Y-19685714D01*
X49935714Y-19757142D01*
X50078571Y-19828571D01*
X50221428Y-19828571D01*
X50364285Y-19757142D01*
X50435714Y-19685714D01*
X50507142Y-19542857D01*
X50578571Y-19257142D01*
X50578571Y-18900000D01*
X50507142Y-18614285D01*
X50435714Y-18471428D01*
X50364285Y-18400000D01*
X50221428Y-18328571D01*
X60542857Y-22378571D02*
X61400000Y-22378571D01*
X60971428Y-22378571D02*
X60971428Y-20878571D01*
X61114285Y-21092857D01*
X61257142Y-21235714D01*
X61400000Y-21307142D01*
X59685714Y-21521428D02*
X59828571Y-21450000D01*
X59900000Y-21378571D01*
X59971428Y-21235714D01*
X59971428Y-21164285D01*
X59900000Y-21021428D01*
X59828571Y-20950000D01*
X59685714Y-20878571D01*
X59400000Y-20878571D01*
X59257142Y-20950000D01*
X59185714Y-21021428D01*
X59114285Y-21164285D01*
X59114285Y-21235714D01*
X59185714Y-21378571D01*
X59257142Y-21450000D01*
X59400000Y-21521428D01*
X59685714Y-21521428D01*
X59828571Y-21592857D01*
X59900000Y-21664285D01*
X59971428Y-21807142D01*
X59971428Y-22092857D01*
X59900000Y-22235714D01*
X59828571Y-22307142D01*
X59685714Y-22378571D01*
X59400000Y-22378571D01*
X59257142Y-22307142D01*
X59185714Y-22235714D01*
X59114285Y-22092857D01*
X59114285Y-21807142D01*
X59185714Y-21664285D01*
X59257142Y-21592857D01*
X59400000Y-21521428D01*
X57685714Y-22378571D02*
X58542857Y-22378571D01*
X58114285Y-22378571D02*
X58114285Y-20878571D01*
X58257142Y-21092857D01*
X58400000Y-21235714D01*
X58542857Y-21307142D01*
X56257142Y-22378571D02*
X57114285Y-22378571D01*
X56685714Y-22378571D02*
X56685714Y-20878571D01*
X56828571Y-21092857D01*
X56971428Y-21235714D01*
X57114285Y-21307142D01*
X55685714Y-21021428D02*
X55614285Y-20950000D01*
X55471428Y-20878571D01*
X55114285Y-20878571D01*
X54971428Y-20950000D01*
X54900000Y-21021428D01*
X54828571Y-21164285D01*
X54828571Y-21307142D01*
X54900000Y-21521428D01*
X55757142Y-22378571D01*
X54828571Y-22378571D01*
X53900000Y-20878571D02*
X53757142Y-20878571D01*
X53614285Y-20950000D01*
X53542857Y-21021428D01*
X53471428Y-21164285D01*
X53400000Y-21450000D01*
X53400000Y-21807142D01*
X53471428Y-22092857D01*
X53542857Y-22235714D01*
X53614285Y-22307142D01*
X53757142Y-22378571D01*
X53900000Y-22378571D01*
X54042857Y-22307142D01*
X54114285Y-22235714D01*
X54185714Y-22092857D01*
X54257142Y-21807142D01*
X54257142Y-21450000D01*
X54185714Y-21164285D01*
X54114285Y-21021428D01*
X54042857Y-20950000D01*
X53900000Y-20878571D01*
X58828571Y-24142857D02*
X59328571Y-24142857D01*
X59328571Y-24928571D02*
X59328571Y-23428571D01*
X58614285Y-23428571D01*
X58042857Y-24928571D02*
X58042857Y-23428571D01*
X57542857Y-23428571D02*
X56685714Y-23428571D01*
X57114285Y-24928571D02*
X57114285Y-23428571D01*
X56328571Y-23428571D02*
X55328571Y-23428571D01*
X56328571Y-24928571D01*
X55328571Y-24928571D01*
D11*
X39673809Y-39711904D02*
X40173809Y-39711904D01*
X39626190Y-39592857D02*
X39626190Y-39211904D01*
X39673809Y-39092857D02*
X40173809Y-39092857D01*
X40173809Y-38902380D01*
X40150000Y-38854761D01*
X40126190Y-38830952D01*
X40078571Y-38807142D01*
X40007142Y-38807142D01*
X39959523Y-38830952D01*
X39935714Y-38854761D01*
X39911904Y-38902380D01*
X39911904Y-39092857D01*
X40173809Y-38640476D02*
X39673809Y-38521428D01*
X40030952Y-38426190D01*
X39673809Y-38330952D01*
X40173809Y-38211904D01*
X39673809Y-38021428D02*
X40173809Y-38021428D01*
X39816666Y-37854761D01*
X40173809Y-37688095D01*
X39673809Y-37688095D01*
X42673809Y-39778571D02*
X42173809Y-39611904D01*
X42673809Y-39445238D01*
X42126190Y-39397619D02*
X42126190Y-39016666D01*
X42173809Y-38897619D02*
X42673809Y-38897619D01*
X42673809Y-38707142D01*
X42650000Y-38659523D01*
X42626190Y-38635714D01*
X42578571Y-38611904D01*
X42507142Y-38611904D01*
X42459523Y-38635714D01*
X42435714Y-38659523D01*
X42411904Y-38707142D01*
X42411904Y-38897619D01*
X42673809Y-38445238D02*
X42173809Y-38326190D01*
X42530952Y-38230952D01*
X42173809Y-38135714D01*
X42673809Y-38016666D01*
X42173809Y-37826190D02*
X42673809Y-37826190D01*
X42316666Y-37659523D01*
X42673809Y-37492857D01*
X42173809Y-37492857D01*
X6405523Y-9624190D02*
X6691238Y-9624190D01*
X6548380Y-9624190D02*
X6548380Y-9124190D01*
X6596000Y-9195619D01*
X6643619Y-9243238D01*
X6691238Y-9267047D01*
X6215047Y-9171809D02*
X6191238Y-9148000D01*
X6143619Y-9124190D01*
X6024571Y-9124190D01*
X5976952Y-9148000D01*
X5953142Y-9171809D01*
X5929333Y-9219428D01*
X5929333Y-9267047D01*
X5953142Y-9338476D01*
X6238857Y-9624190D01*
X5929333Y-9624190D01*
X5786476Y-9124190D02*
X5619809Y-9624190D01*
X5453142Y-9124190D01*
X6476952Y-11688000D02*
X6524571Y-11664190D01*
X6596000Y-11664190D01*
X6667428Y-11688000D01*
X6715047Y-11735619D01*
X6738857Y-11783238D01*
X6762666Y-11878476D01*
X6762666Y-11949904D01*
X6738857Y-12045142D01*
X6715047Y-12092761D01*
X6667428Y-12140380D01*
X6596000Y-12164190D01*
X6548380Y-12164190D01*
X6476952Y-12140380D01*
X6453142Y-12116571D01*
X6453142Y-11949904D01*
X6548380Y-11949904D01*
X6238857Y-12164190D02*
X6238857Y-11664190D01*
X5953142Y-12164190D01*
X5953142Y-11664190D01*
X5715047Y-12164190D02*
X5715047Y-11664190D01*
X5596000Y-11664190D01*
X5524571Y-11688000D01*
X5476952Y-11735619D01*
X5453142Y-11783238D01*
X5429333Y-11878476D01*
X5429333Y-11949904D01*
X5453142Y-12045142D01*
X5476952Y-12092761D01*
X5524571Y-12140380D01*
X5596000Y-12164190D01*
X5715047Y-12164190D01*
X6429333Y-14726190D02*
X6596000Y-14488095D01*
X6715047Y-14726190D02*
X6715047Y-14226190D01*
X6524571Y-14226190D01*
X6476952Y-14250000D01*
X6453142Y-14273809D01*
X6429333Y-14321428D01*
X6429333Y-14392857D01*
X6453142Y-14440476D01*
X6476952Y-14464285D01*
X6524571Y-14488095D01*
X6715047Y-14488095D01*
X5929333Y-14678571D02*
X5953142Y-14702380D01*
X6024571Y-14726190D01*
X6072190Y-14726190D01*
X6143619Y-14702380D01*
X6191238Y-14654761D01*
X6215047Y-14607142D01*
X6238857Y-14511904D01*
X6238857Y-14440476D01*
X6215047Y-14345238D01*
X6191238Y-14297619D01*
X6143619Y-14250000D01*
X6072190Y-14226190D01*
X6024571Y-14226190D01*
X5953142Y-14250000D01*
X5929333Y-14273809D01*
X5453142Y-14726190D02*
X5738857Y-14726190D01*
X5596000Y-14726190D02*
X5596000Y-14226190D01*
X5643619Y-14297619D01*
X5691238Y-14345238D01*
X5738857Y-14369047D01*
X6333333Y-22726190D02*
X6500000Y-22488095D01*
X6619047Y-22726190D02*
X6619047Y-22226190D01*
X6428571Y-22226190D01*
X6380952Y-22250000D01*
X6357142Y-22273809D01*
X6333333Y-22321428D01*
X6333333Y-22392857D01*
X6357142Y-22440476D01*
X6380952Y-22464285D01*
X6428571Y-22488095D01*
X6619047Y-22488095D01*
X5833333Y-22678571D02*
X5857142Y-22702380D01*
X5928571Y-22726190D01*
X5976190Y-22726190D01*
X6047619Y-22702380D01*
X6095238Y-22654761D01*
X6119047Y-22607142D01*
X6142857Y-22511904D01*
X6142857Y-22440476D01*
X6119047Y-22345238D01*
X6095238Y-22297619D01*
X6047619Y-22250000D01*
X5976190Y-22226190D01*
X5928571Y-22226190D01*
X5857142Y-22250000D01*
X5833333Y-22273809D01*
X5357142Y-22726190D02*
X5642857Y-22726190D01*
X5500000Y-22726190D02*
X5500000Y-22226190D01*
X5547619Y-22297619D01*
X5595238Y-22345238D01*
X5642857Y-22369047D01*
X6345238Y-25226190D02*
X6511904Y-24988095D01*
X6630952Y-25226190D02*
X6630952Y-24726190D01*
X6440476Y-24726190D01*
X6392857Y-24750000D01*
X6369047Y-24773809D01*
X6345238Y-24821428D01*
X6345238Y-24892857D01*
X6369047Y-24940476D01*
X6392857Y-24964285D01*
X6440476Y-24988095D01*
X6630952Y-24988095D01*
X5845238Y-25178571D02*
X5869047Y-25202380D01*
X5940476Y-25226190D01*
X5988095Y-25226190D01*
X6059523Y-25202380D01*
X6107142Y-25154761D01*
X6130952Y-25107142D01*
X6154761Y-25011904D01*
X6154761Y-24940476D01*
X6130952Y-24845238D01*
X6107142Y-24797619D01*
X6059523Y-24750000D01*
X5988095Y-24726190D01*
X5940476Y-24726190D01*
X5869047Y-24750000D01*
X5845238Y-24773809D01*
X5369047Y-24750000D02*
X5416666Y-24726190D01*
X5488095Y-24726190D01*
X5559523Y-24750000D01*
X5607142Y-24797619D01*
X5630952Y-24845238D01*
X5654761Y-24940476D01*
X5654761Y-25011904D01*
X5630952Y-25107142D01*
X5607142Y-25154761D01*
X5559523Y-25202380D01*
X5488095Y-25226190D01*
X5440476Y-25226190D01*
X5369047Y-25202380D01*
X5345238Y-25178571D01*
X5345238Y-25011904D01*
X5440476Y-25011904D01*
X6452380Y-27702380D02*
X6380952Y-27726190D01*
X6261904Y-27726190D01*
X6214285Y-27702380D01*
X6190476Y-27678571D01*
X6166666Y-27630952D01*
X6166666Y-27583333D01*
X6190476Y-27535714D01*
X6214285Y-27511904D01*
X6261904Y-27488095D01*
X6357142Y-27464285D01*
X6404761Y-27440476D01*
X6428571Y-27416666D01*
X6452380Y-27369047D01*
X6452380Y-27321428D01*
X6428571Y-27273809D01*
X6404761Y-27250000D01*
X6357142Y-27226190D01*
X6238095Y-27226190D01*
X6166666Y-27250000D01*
X5952380Y-27535714D02*
X5571428Y-27535714D01*
X5761904Y-27726190D02*
X5761904Y-27345238D01*
X6778571Y-29826190D02*
X6492857Y-29826190D01*
X6635714Y-30326190D02*
X6635714Y-29826190D01*
X6040476Y-30326190D02*
X6207142Y-30088095D01*
X6326190Y-30326190D02*
X6326190Y-29826190D01*
X6135714Y-29826190D01*
X6088095Y-29850000D01*
X6064285Y-29873809D01*
X6040476Y-29921428D01*
X6040476Y-29992857D01*
X6064285Y-30040476D01*
X6088095Y-30064285D01*
X6135714Y-30088095D01*
X6326190Y-30088095D01*
X5826190Y-30326190D02*
X5826190Y-29826190D01*
X5659523Y-30183333D01*
X5492857Y-29826190D01*
X5492857Y-30326190D01*
X6095238Y-32678571D02*
X6119047Y-32702380D01*
X6190476Y-32726190D01*
X6238095Y-32726190D01*
X6309523Y-32702380D01*
X6357142Y-32654761D01*
X6380952Y-32607142D01*
X6404761Y-32511904D01*
X6404761Y-32440476D01*
X6380952Y-32345238D01*
X6357142Y-32297619D01*
X6309523Y-32250000D01*
X6238095Y-32226190D01*
X6190476Y-32226190D01*
X6119047Y-32250000D01*
X6095238Y-32273809D01*
X5714285Y-32464285D02*
X5642857Y-32488095D01*
X5619047Y-32511904D01*
X5595238Y-32559523D01*
X5595238Y-32630952D01*
X5619047Y-32678571D01*
X5642857Y-32702380D01*
X5690476Y-32726190D01*
X5880952Y-32726190D01*
X5880952Y-32226190D01*
X5714285Y-32226190D01*
X5666666Y-32250000D01*
X5642857Y-32273809D01*
X5619047Y-32321428D01*
X5619047Y-32369047D01*
X5642857Y-32416666D01*
X5666666Y-32440476D01*
X5714285Y-32464285D01*
X5880952Y-32464285D01*
X6280952Y-34750000D02*
X6328571Y-34726190D01*
X6400000Y-34726190D01*
X6471428Y-34750000D01*
X6519047Y-34797619D01*
X6542857Y-34845238D01*
X6566666Y-34940476D01*
X6566666Y-35011904D01*
X6542857Y-35107142D01*
X6519047Y-35154761D01*
X6471428Y-35202380D01*
X6400000Y-35226190D01*
X6352380Y-35226190D01*
X6280952Y-35202380D01*
X6257142Y-35178571D01*
X6257142Y-35011904D01*
X6352380Y-35011904D01*
X6042857Y-35226190D02*
X6042857Y-34726190D01*
X5757142Y-35226190D01*
X5757142Y-34726190D01*
X5519047Y-35226190D02*
X5519047Y-34726190D01*
X5400000Y-34726190D01*
X5328571Y-34750000D01*
X5280952Y-34797619D01*
X5257142Y-34845238D01*
X5233333Y-34940476D01*
X5233333Y-35011904D01*
X5257142Y-35107142D01*
X5280952Y-35154761D01*
X5328571Y-35202380D01*
X5400000Y-35226190D01*
X5519047Y-35226190D01*
X49073809Y-39419047D02*
X49073809Y-39109523D01*
X48883333Y-39276190D01*
X48883333Y-39204761D01*
X48859523Y-39157142D01*
X48835714Y-39133333D01*
X48788095Y-39109523D01*
X48669047Y-39109523D01*
X48621428Y-39133333D01*
X48597619Y-39157142D01*
X48573809Y-39204761D01*
X48573809Y-39347619D01*
X48597619Y-39395238D01*
X48621428Y-39419047D01*
X49073809Y-38966666D02*
X48573809Y-38800000D01*
X49073809Y-38633333D01*
X49073809Y-38514285D02*
X49073809Y-38204761D01*
X48883333Y-38371428D01*
X48883333Y-38300000D01*
X48859523Y-38252380D01*
X48835714Y-38228571D01*
X48788095Y-38204761D01*
X48669047Y-38204761D01*
X48621428Y-38228571D01*
X48597619Y-38252380D01*
X48573809Y-38300000D01*
X48573809Y-38442857D01*
X48597619Y-38490476D01*
X48621428Y-38514285D01*
X50921428Y-39383333D02*
X50897619Y-39407142D01*
X50873809Y-39478571D01*
X50873809Y-39526190D01*
X50897619Y-39597619D01*
X50945238Y-39645238D01*
X50992857Y-39669047D01*
X51088095Y-39692857D01*
X51159523Y-39692857D01*
X51254761Y-39669047D01*
X51302380Y-39645238D01*
X51350000Y-39597619D01*
X51373809Y-39526190D01*
X51373809Y-39478571D01*
X51350000Y-39407142D01*
X51326190Y-39383333D01*
X51326190Y-39192857D02*
X51350000Y-39169047D01*
X51373809Y-39121428D01*
X51373809Y-39002380D01*
X51350000Y-38954761D01*
X51326190Y-38930952D01*
X51278571Y-38907142D01*
X51230952Y-38907142D01*
X51159523Y-38930952D01*
X50873809Y-39216666D01*
X50873809Y-38907142D01*
X50921428Y-38407142D02*
X50897619Y-38430952D01*
X50873809Y-38502380D01*
X50873809Y-38550000D01*
X50897619Y-38621428D01*
X50945238Y-38669047D01*
X50992857Y-38692857D01*
X51088095Y-38716666D01*
X51159523Y-38716666D01*
X51254761Y-38692857D01*
X51302380Y-38669047D01*
X51350000Y-38621428D01*
X51373809Y-38550000D01*
X51373809Y-38502380D01*
X51350000Y-38430952D01*
X51326190Y-38407142D01*
X50873809Y-38192857D02*
X51373809Y-38192857D01*
X50873809Y-37907142D02*
X51159523Y-38121428D01*
X51373809Y-37907142D02*
X51088095Y-38192857D01*
X53421428Y-39233333D02*
X53397619Y-39257142D01*
X53373809Y-39328571D01*
X53373809Y-39376190D01*
X53397619Y-39447619D01*
X53445238Y-39495238D01*
X53492857Y-39519047D01*
X53588095Y-39542857D01*
X53659523Y-39542857D01*
X53754761Y-39519047D01*
X53802380Y-39495238D01*
X53850000Y-39447619D01*
X53873809Y-39376190D01*
X53873809Y-39328571D01*
X53850000Y-39257142D01*
X53826190Y-39233333D01*
X53826190Y-39042857D02*
X53850000Y-39019047D01*
X53873809Y-38971428D01*
X53873809Y-38852380D01*
X53850000Y-38804761D01*
X53826190Y-38780952D01*
X53778571Y-38757142D01*
X53730952Y-38757142D01*
X53659523Y-38780952D01*
X53373809Y-39066666D01*
X53373809Y-38757142D01*
X53373809Y-38542857D02*
X53873809Y-38542857D01*
X53873809Y-38423809D01*
X53850000Y-38352380D01*
X53802380Y-38304761D01*
X53754761Y-38280952D01*
X53659523Y-38257142D01*
X53588095Y-38257142D01*
X53492857Y-38280952D01*
X53445238Y-38304761D01*
X53397619Y-38352380D01*
X53373809Y-38423809D01*
X53373809Y-38542857D01*
X56450000Y-39280952D02*
X56473809Y-39328571D01*
X56473809Y-39400000D01*
X56450000Y-39471428D01*
X56402380Y-39519047D01*
X56354761Y-39542857D01*
X56259523Y-39566666D01*
X56188095Y-39566666D01*
X56092857Y-39542857D01*
X56045238Y-39519047D01*
X55997619Y-39471428D01*
X55973809Y-39400000D01*
X55973809Y-39352380D01*
X55997619Y-39280952D01*
X56021428Y-39257142D01*
X56188095Y-39257142D01*
X56188095Y-39352380D01*
X55973809Y-39042857D02*
X56473809Y-39042857D01*
X55973809Y-38757142D01*
X56473809Y-38757142D01*
X55973809Y-38519047D02*
X56473809Y-38519047D01*
X56473809Y-38400000D01*
X56450000Y-38328571D01*
X56402380Y-38280952D01*
X56354761Y-38257142D01*
X56259523Y-38233333D01*
X56188095Y-38233333D01*
X56092857Y-38257142D01*
X56045238Y-38280952D01*
X55997619Y-38328571D01*
X55973809Y-38400000D01*
X55973809Y-38519047D01*
X73380952Y-27750000D02*
X73428571Y-27726190D01*
X73500000Y-27726190D01*
X73571428Y-27750000D01*
X73619047Y-27797619D01*
X73642857Y-27845238D01*
X73666666Y-27940476D01*
X73666666Y-28011904D01*
X73642857Y-28107142D01*
X73619047Y-28154761D01*
X73571428Y-28202380D01*
X73500000Y-28226190D01*
X73452380Y-28226190D01*
X73380952Y-28202380D01*
X73357142Y-28178571D01*
X73357142Y-28011904D01*
X73452380Y-28011904D01*
X73142857Y-28226190D02*
X73142857Y-27726190D01*
X72857142Y-28226190D01*
X72857142Y-27726190D01*
X72619047Y-28226190D02*
X72619047Y-27726190D01*
X72500000Y-27726190D01*
X72428571Y-27750000D01*
X72380952Y-27797619D01*
X72357142Y-27845238D01*
X72333333Y-27940476D01*
X72333333Y-28011904D01*
X72357142Y-28107142D01*
X72380952Y-28154761D01*
X72428571Y-28202380D01*
X72500000Y-28226190D01*
X72619047Y-28226190D01*
X74026190Y-31126190D02*
X74026190Y-30626190D01*
X73835714Y-30626190D01*
X73788095Y-30650000D01*
X73764285Y-30673809D01*
X73740476Y-30721428D01*
X73740476Y-30792857D01*
X73764285Y-30840476D01*
X73788095Y-30864285D01*
X73835714Y-30888095D01*
X74026190Y-30888095D01*
X73264285Y-31126190D02*
X73550000Y-31126190D01*
X73407142Y-31126190D02*
X73407142Y-30626190D01*
X73454761Y-30697619D01*
X73502380Y-30745238D01*
X73550000Y-30769047D01*
X73050000Y-31078571D02*
X73026190Y-31102380D01*
X73050000Y-31126190D01*
X73073809Y-31102380D01*
X73050000Y-31078571D01*
X73050000Y-31126190D01*
X72550000Y-31126190D02*
X72835714Y-31126190D01*
X72692857Y-31126190D02*
X72692857Y-30626190D01*
X72740476Y-30697619D01*
X72788095Y-30745238D01*
X72835714Y-30769047D01*
X73726190Y-33326190D02*
X73726190Y-32826190D01*
X73535714Y-32826190D01*
X73488095Y-32850000D01*
X73464285Y-32873809D01*
X73440476Y-32921428D01*
X73440476Y-32992857D01*
X73464285Y-33040476D01*
X73488095Y-33064285D01*
X73535714Y-33088095D01*
X73726190Y-33088095D01*
X72964285Y-33326190D02*
X73250000Y-33326190D01*
X73107142Y-33326190D02*
X73107142Y-32826190D01*
X73154761Y-32897619D01*
X73202380Y-32945238D01*
X73250000Y-32969047D01*
X72750000Y-33278571D02*
X72726190Y-33302380D01*
X72750000Y-33326190D01*
X72773809Y-33302380D01*
X72750000Y-33278571D01*
X72750000Y-33326190D01*
X72559523Y-32826190D02*
X72250000Y-32826190D01*
X72416666Y-33016666D01*
X72345238Y-33016666D01*
X72297619Y-33040476D01*
X72273809Y-33064285D01*
X72250000Y-33111904D01*
X72250000Y-33230952D01*
X72273809Y-33278571D01*
X72297619Y-33302380D01*
X72345238Y-33326190D01*
X72488095Y-33326190D01*
X72535714Y-33302380D01*
X72559523Y-33278571D01*
X73926190Y-35826190D02*
X73926190Y-35326190D01*
X73735714Y-35326190D01*
X73688095Y-35350000D01*
X73664285Y-35373809D01*
X73640476Y-35421428D01*
X73640476Y-35492857D01*
X73664285Y-35540476D01*
X73688095Y-35564285D01*
X73735714Y-35588095D01*
X73926190Y-35588095D01*
X73164285Y-35826190D02*
X73450000Y-35826190D01*
X73307142Y-35826190D02*
X73307142Y-35326190D01*
X73354761Y-35397619D01*
X73402380Y-35445238D01*
X73450000Y-35469047D01*
X72950000Y-35778571D02*
X72926190Y-35802380D01*
X72950000Y-35826190D01*
X72973809Y-35802380D01*
X72950000Y-35778571D01*
X72950000Y-35826190D01*
X72473809Y-35326190D02*
X72711904Y-35326190D01*
X72735714Y-35564285D01*
X72711904Y-35540476D01*
X72664285Y-35516666D01*
X72545238Y-35516666D01*
X72497619Y-35540476D01*
X72473809Y-35564285D01*
X72450000Y-35611904D01*
X72450000Y-35730952D01*
X72473809Y-35778571D01*
X72497619Y-35802380D01*
X72545238Y-35826190D01*
X72664285Y-35826190D01*
X72711904Y-35802380D01*
X72735714Y-35778571D01*
X67026190Y-38426190D02*
X67026190Y-37926190D01*
X66835714Y-37926190D01*
X66788095Y-37950000D01*
X66764285Y-37973809D01*
X66740476Y-38021428D01*
X66740476Y-38092857D01*
X66764285Y-38140476D01*
X66788095Y-38164285D01*
X66835714Y-38188095D01*
X67026190Y-38188095D01*
X66264285Y-38426190D02*
X66550000Y-38426190D01*
X66407142Y-38426190D02*
X66407142Y-37926190D01*
X66454761Y-37997619D01*
X66502380Y-38045238D01*
X66550000Y-38069047D01*
X66050000Y-38378571D02*
X66026190Y-38402380D01*
X66050000Y-38426190D01*
X66073809Y-38402380D01*
X66050000Y-38378571D01*
X66050000Y-38426190D01*
X65597619Y-37926190D02*
X65692857Y-37926190D01*
X65740476Y-37950000D01*
X65764285Y-37973809D01*
X65811904Y-38045238D01*
X65835714Y-38140476D01*
X65835714Y-38330952D01*
X65811904Y-38378571D01*
X65788095Y-38402380D01*
X65740476Y-38426190D01*
X65645238Y-38426190D01*
X65597619Y-38402380D01*
X65573809Y-38378571D01*
X65550000Y-38330952D01*
X65550000Y-38211904D01*
X65573809Y-38164285D01*
X65597619Y-38140476D01*
X65645238Y-38116666D01*
X65740476Y-38116666D01*
X65788095Y-38140476D01*
X65811904Y-38164285D01*
X65835714Y-38211904D01*
X67026190Y-35826190D02*
X67026190Y-35326190D01*
X66835714Y-35326190D01*
X66788095Y-35350000D01*
X66764285Y-35373809D01*
X66740476Y-35421428D01*
X66740476Y-35492857D01*
X66764285Y-35540476D01*
X66788095Y-35564285D01*
X66835714Y-35588095D01*
X67026190Y-35588095D01*
X66264285Y-35826190D02*
X66550000Y-35826190D01*
X66407142Y-35826190D02*
X66407142Y-35326190D01*
X66454761Y-35397619D01*
X66502380Y-35445238D01*
X66550000Y-35469047D01*
X66050000Y-35778571D02*
X66026190Y-35802380D01*
X66050000Y-35826190D01*
X66073809Y-35802380D01*
X66050000Y-35778571D01*
X66050000Y-35826190D01*
X65597619Y-35492857D02*
X65597619Y-35826190D01*
X65716666Y-35302380D02*
X65835714Y-35659523D01*
X65526190Y-35659523D01*
X67026190Y-33226190D02*
X67026190Y-32726190D01*
X66835714Y-32726190D01*
X66788095Y-32750000D01*
X66764285Y-32773809D01*
X66740476Y-32821428D01*
X66740476Y-32892857D01*
X66764285Y-32940476D01*
X66788095Y-32964285D01*
X66835714Y-32988095D01*
X67026190Y-32988095D01*
X66264285Y-33226190D02*
X66550000Y-33226190D01*
X66407142Y-33226190D02*
X66407142Y-32726190D01*
X66454761Y-32797619D01*
X66502380Y-32845238D01*
X66550000Y-32869047D01*
X66050000Y-33178571D02*
X66026190Y-33202380D01*
X66050000Y-33226190D01*
X66073809Y-33202380D01*
X66050000Y-33178571D01*
X66050000Y-33226190D01*
X65835714Y-32773809D02*
X65811904Y-32750000D01*
X65764285Y-32726190D01*
X65645238Y-32726190D01*
X65597619Y-32750000D01*
X65573809Y-32773809D01*
X65550000Y-32821428D01*
X65550000Y-32869047D01*
X65573809Y-32940476D01*
X65859523Y-33226190D01*
X65550000Y-33226190D01*
X67026190Y-30726190D02*
X67026190Y-30226190D01*
X66835714Y-30226190D01*
X66788095Y-30250000D01*
X66764285Y-30273809D01*
X66740476Y-30321428D01*
X66740476Y-30392857D01*
X66764285Y-30440476D01*
X66788095Y-30464285D01*
X66835714Y-30488095D01*
X67026190Y-30488095D01*
X66264285Y-30726190D02*
X66550000Y-30726190D01*
X66407142Y-30726190D02*
X66407142Y-30226190D01*
X66454761Y-30297619D01*
X66502380Y-30345238D01*
X66550000Y-30369047D01*
X66050000Y-30678571D02*
X66026190Y-30702380D01*
X66050000Y-30726190D01*
X66073809Y-30702380D01*
X66050000Y-30678571D01*
X66050000Y-30726190D01*
X65716666Y-30226190D02*
X65669047Y-30226190D01*
X65621428Y-30250000D01*
X65597619Y-30273809D01*
X65573809Y-30321428D01*
X65550000Y-30416666D01*
X65550000Y-30535714D01*
X65573809Y-30630952D01*
X65597619Y-30678571D01*
X65621428Y-30702380D01*
X65669047Y-30726190D01*
X65716666Y-30726190D01*
X65764285Y-30702380D01*
X65788095Y-30678571D01*
X65811904Y-30630952D01*
X65835714Y-30535714D01*
X65835714Y-30416666D01*
X65811904Y-30321428D01*
X65788095Y-30273809D01*
X65764285Y-30250000D01*
X65716666Y-30226190D01*
X66680952Y-27650000D02*
X66728571Y-27626190D01*
X66800000Y-27626190D01*
X66871428Y-27650000D01*
X66919047Y-27697619D01*
X66942857Y-27745238D01*
X66966666Y-27840476D01*
X66966666Y-27911904D01*
X66942857Y-28007142D01*
X66919047Y-28054761D01*
X66871428Y-28102380D01*
X66800000Y-28126190D01*
X66752380Y-28126190D01*
X66680952Y-28102380D01*
X66657142Y-28078571D01*
X66657142Y-27911904D01*
X66752380Y-27911904D01*
X66442857Y-28126190D02*
X66442857Y-27626190D01*
X66157142Y-28126190D01*
X66157142Y-27626190D01*
X65919047Y-28126190D02*
X65919047Y-27626190D01*
X65800000Y-27626190D01*
X65728571Y-27650000D01*
X65680952Y-27697619D01*
X65657142Y-27745238D01*
X65633333Y-27840476D01*
X65633333Y-27911904D01*
X65657142Y-28007142D01*
X65680952Y-28054761D01*
X65728571Y-28102380D01*
X65800000Y-28126190D01*
X65919047Y-28126190D01*
X73580952Y-5650000D02*
X73628571Y-5626190D01*
X73700000Y-5626190D01*
X73771428Y-5650000D01*
X73819047Y-5697619D01*
X73842857Y-5745238D01*
X73866666Y-5840476D01*
X73866666Y-5911904D01*
X73842857Y-6007142D01*
X73819047Y-6054761D01*
X73771428Y-6102380D01*
X73700000Y-6126190D01*
X73652380Y-6126190D01*
X73580952Y-6102380D01*
X73557142Y-6078571D01*
X73557142Y-5911904D01*
X73652380Y-5911904D01*
X73342857Y-6126190D02*
X73342857Y-5626190D01*
X73057142Y-6126190D01*
X73057142Y-5626190D01*
X72819047Y-6126190D02*
X72819047Y-5626190D01*
X72700000Y-5626190D01*
X72628571Y-5650000D01*
X72580952Y-5697619D01*
X72557142Y-5745238D01*
X72533333Y-5840476D01*
X72533333Y-5911904D01*
X72557142Y-6007142D01*
X72580952Y-6054761D01*
X72628571Y-6102380D01*
X72700000Y-6126190D01*
X72819047Y-6126190D01*
X73926190Y-8726190D02*
X73926190Y-8226190D01*
X73735714Y-8226190D01*
X73688095Y-8250000D01*
X73664285Y-8273809D01*
X73640476Y-8321428D01*
X73640476Y-8392857D01*
X73664285Y-8440476D01*
X73688095Y-8464285D01*
X73735714Y-8488095D01*
X73926190Y-8488095D01*
X73330952Y-8226190D02*
X73283333Y-8226190D01*
X73235714Y-8250000D01*
X73211904Y-8273809D01*
X73188095Y-8321428D01*
X73164285Y-8416666D01*
X73164285Y-8535714D01*
X73188095Y-8630952D01*
X73211904Y-8678571D01*
X73235714Y-8702380D01*
X73283333Y-8726190D01*
X73330952Y-8726190D01*
X73378571Y-8702380D01*
X73402380Y-8678571D01*
X73426190Y-8630952D01*
X73450000Y-8535714D01*
X73450000Y-8416666D01*
X73426190Y-8321428D01*
X73402380Y-8273809D01*
X73378571Y-8250000D01*
X73330952Y-8226190D01*
X72950000Y-8678571D02*
X72926190Y-8702380D01*
X72950000Y-8726190D01*
X72973809Y-8702380D01*
X72950000Y-8678571D01*
X72950000Y-8726190D01*
X72450000Y-8726190D02*
X72735714Y-8726190D01*
X72592857Y-8726190D02*
X72592857Y-8226190D01*
X72640476Y-8297619D01*
X72688095Y-8345238D01*
X72735714Y-8369047D01*
X74026190Y-11226190D02*
X74026190Y-10726190D01*
X73835714Y-10726190D01*
X73788095Y-10750000D01*
X73764285Y-10773809D01*
X73740476Y-10821428D01*
X73740476Y-10892857D01*
X73764285Y-10940476D01*
X73788095Y-10964285D01*
X73835714Y-10988095D01*
X74026190Y-10988095D01*
X73430952Y-10726190D02*
X73383333Y-10726190D01*
X73335714Y-10750000D01*
X73311904Y-10773809D01*
X73288095Y-10821428D01*
X73264285Y-10916666D01*
X73264285Y-11035714D01*
X73288095Y-11130952D01*
X73311904Y-11178571D01*
X73335714Y-11202380D01*
X73383333Y-11226190D01*
X73430952Y-11226190D01*
X73478571Y-11202380D01*
X73502380Y-11178571D01*
X73526190Y-11130952D01*
X73550000Y-11035714D01*
X73550000Y-10916666D01*
X73526190Y-10821428D01*
X73502380Y-10773809D01*
X73478571Y-10750000D01*
X73430952Y-10726190D01*
X73050000Y-11178571D02*
X73026190Y-11202380D01*
X73050000Y-11226190D01*
X73073809Y-11202380D01*
X73050000Y-11178571D01*
X73050000Y-11226190D01*
X72859523Y-10726190D02*
X72550000Y-10726190D01*
X72716666Y-10916666D01*
X72645238Y-10916666D01*
X72597619Y-10940476D01*
X72573809Y-10964285D01*
X72550000Y-11011904D01*
X72550000Y-11130952D01*
X72573809Y-11178571D01*
X72597619Y-11202380D01*
X72645238Y-11226190D01*
X72788095Y-11226190D01*
X72835714Y-11202380D01*
X72859523Y-11178571D01*
X73926190Y-13926190D02*
X73926190Y-13426190D01*
X73735714Y-13426190D01*
X73688095Y-13450000D01*
X73664285Y-13473809D01*
X73640476Y-13521428D01*
X73640476Y-13592857D01*
X73664285Y-13640476D01*
X73688095Y-13664285D01*
X73735714Y-13688095D01*
X73926190Y-13688095D01*
X73330952Y-13426190D02*
X73283333Y-13426190D01*
X73235714Y-13450000D01*
X73211904Y-13473809D01*
X73188095Y-13521428D01*
X73164285Y-13616666D01*
X73164285Y-13735714D01*
X73188095Y-13830952D01*
X73211904Y-13878571D01*
X73235714Y-13902380D01*
X73283333Y-13926190D01*
X73330952Y-13926190D01*
X73378571Y-13902380D01*
X73402380Y-13878571D01*
X73426190Y-13830952D01*
X73450000Y-13735714D01*
X73450000Y-13616666D01*
X73426190Y-13521428D01*
X73402380Y-13473809D01*
X73378571Y-13450000D01*
X73330952Y-13426190D01*
X72950000Y-13878571D02*
X72926190Y-13902380D01*
X72950000Y-13926190D01*
X72973809Y-13902380D01*
X72950000Y-13878571D01*
X72950000Y-13926190D01*
X72473809Y-13426190D02*
X72711904Y-13426190D01*
X72735714Y-13664285D01*
X72711904Y-13640476D01*
X72664285Y-13616666D01*
X72545238Y-13616666D01*
X72497619Y-13640476D01*
X72473809Y-13664285D01*
X72450000Y-13711904D01*
X72450000Y-13830952D01*
X72473809Y-13878571D01*
X72497619Y-13902380D01*
X72545238Y-13926190D01*
X72664285Y-13926190D01*
X72711904Y-13902380D01*
X72735714Y-13878571D01*
X73926190Y-16426190D02*
X73926190Y-15926190D01*
X73735714Y-15926190D01*
X73688095Y-15950000D01*
X73664285Y-15973809D01*
X73640476Y-16021428D01*
X73640476Y-16092857D01*
X73664285Y-16140476D01*
X73688095Y-16164285D01*
X73735714Y-16188095D01*
X73926190Y-16188095D01*
X73330952Y-15926190D02*
X73283333Y-15926190D01*
X73235714Y-15950000D01*
X73211904Y-15973809D01*
X73188095Y-16021428D01*
X73164285Y-16116666D01*
X73164285Y-16235714D01*
X73188095Y-16330952D01*
X73211904Y-16378571D01*
X73235714Y-16402380D01*
X73283333Y-16426190D01*
X73330952Y-16426190D01*
X73378571Y-16402380D01*
X73402380Y-16378571D01*
X73426190Y-16330952D01*
X73450000Y-16235714D01*
X73450000Y-16116666D01*
X73426190Y-16021428D01*
X73402380Y-15973809D01*
X73378571Y-15950000D01*
X73330952Y-15926190D01*
X72950000Y-16378571D02*
X72926190Y-16402380D01*
X72950000Y-16426190D01*
X72973809Y-16402380D01*
X72950000Y-16378571D01*
X72950000Y-16426190D01*
X72759523Y-15926190D02*
X72426190Y-15926190D01*
X72640476Y-16426190D01*
X67020190Y-16482190D02*
X67020190Y-15982190D01*
X66829714Y-15982190D01*
X66782095Y-16006000D01*
X66758285Y-16029809D01*
X66734476Y-16077428D01*
X66734476Y-16148857D01*
X66758285Y-16196476D01*
X66782095Y-16220285D01*
X66829714Y-16244095D01*
X67020190Y-16244095D01*
X66424952Y-15982190D02*
X66377333Y-15982190D01*
X66329714Y-16006000D01*
X66305904Y-16029809D01*
X66282095Y-16077428D01*
X66258285Y-16172666D01*
X66258285Y-16291714D01*
X66282095Y-16386952D01*
X66305904Y-16434571D01*
X66329714Y-16458380D01*
X66377333Y-16482190D01*
X66424952Y-16482190D01*
X66472571Y-16458380D01*
X66496380Y-16434571D01*
X66520190Y-16386952D01*
X66544000Y-16291714D01*
X66544000Y-16172666D01*
X66520190Y-16077428D01*
X66496380Y-16029809D01*
X66472571Y-16006000D01*
X66424952Y-15982190D01*
X66044000Y-16434571D02*
X66020190Y-16458380D01*
X66044000Y-16482190D01*
X66067809Y-16458380D01*
X66044000Y-16434571D01*
X66044000Y-16482190D01*
X65591619Y-15982190D02*
X65686857Y-15982190D01*
X65734476Y-16006000D01*
X65758285Y-16029809D01*
X65805904Y-16101238D01*
X65829714Y-16196476D01*
X65829714Y-16386952D01*
X65805904Y-16434571D01*
X65782095Y-16458380D01*
X65734476Y-16482190D01*
X65639238Y-16482190D01*
X65591619Y-16458380D01*
X65567809Y-16434571D01*
X65544000Y-16386952D01*
X65544000Y-16267904D01*
X65567809Y-16220285D01*
X65591619Y-16196476D01*
X65639238Y-16172666D01*
X65734476Y-16172666D01*
X65782095Y-16196476D01*
X65805904Y-16220285D01*
X65829714Y-16267904D01*
X67020190Y-13826190D02*
X67020190Y-13326190D01*
X66829714Y-13326190D01*
X66782095Y-13350000D01*
X66758285Y-13373809D01*
X66734476Y-13421428D01*
X66734476Y-13492857D01*
X66758285Y-13540476D01*
X66782095Y-13564285D01*
X66829714Y-13588095D01*
X67020190Y-13588095D01*
X66424952Y-13326190D02*
X66377333Y-13326190D01*
X66329714Y-13350000D01*
X66305904Y-13373809D01*
X66282095Y-13421428D01*
X66258285Y-13516666D01*
X66258285Y-13635714D01*
X66282095Y-13730952D01*
X66305904Y-13778571D01*
X66329714Y-13802380D01*
X66377333Y-13826190D01*
X66424952Y-13826190D01*
X66472571Y-13802380D01*
X66496380Y-13778571D01*
X66520190Y-13730952D01*
X66544000Y-13635714D01*
X66544000Y-13516666D01*
X66520190Y-13421428D01*
X66496380Y-13373809D01*
X66472571Y-13350000D01*
X66424952Y-13326190D01*
X66044000Y-13778571D02*
X66020190Y-13802380D01*
X66044000Y-13826190D01*
X66067809Y-13802380D01*
X66044000Y-13778571D01*
X66044000Y-13826190D01*
X65591619Y-13492857D02*
X65591619Y-13826190D01*
X65710666Y-13302380D02*
X65829714Y-13659523D01*
X65520190Y-13659523D01*
X67020190Y-11326190D02*
X67020190Y-10826190D01*
X66829714Y-10826190D01*
X66782095Y-10850000D01*
X66758285Y-10873809D01*
X66734476Y-10921428D01*
X66734476Y-10992857D01*
X66758285Y-11040476D01*
X66782095Y-11064285D01*
X66829714Y-11088095D01*
X67020190Y-11088095D01*
X66424952Y-10826190D02*
X66377333Y-10826190D01*
X66329714Y-10850000D01*
X66305904Y-10873809D01*
X66282095Y-10921428D01*
X66258285Y-11016666D01*
X66258285Y-11135714D01*
X66282095Y-11230952D01*
X66305904Y-11278571D01*
X66329714Y-11302380D01*
X66377333Y-11326190D01*
X66424952Y-11326190D01*
X66472571Y-11302380D01*
X66496380Y-11278571D01*
X66520190Y-11230952D01*
X66544000Y-11135714D01*
X66544000Y-11016666D01*
X66520190Y-10921428D01*
X66496380Y-10873809D01*
X66472571Y-10850000D01*
X66424952Y-10826190D01*
X66044000Y-11278571D02*
X66020190Y-11302380D01*
X66044000Y-11326190D01*
X66067809Y-11302380D01*
X66044000Y-11278571D01*
X66044000Y-11326190D01*
X65829714Y-10873809D02*
X65805904Y-10850000D01*
X65758285Y-10826190D01*
X65639238Y-10826190D01*
X65591619Y-10850000D01*
X65567809Y-10873809D01*
X65544000Y-10921428D01*
X65544000Y-10969047D01*
X65567809Y-11040476D01*
X65853523Y-11326190D01*
X65544000Y-11326190D01*
X67020190Y-8726190D02*
X67020190Y-8226190D01*
X66829714Y-8226190D01*
X66782095Y-8250000D01*
X66758285Y-8273809D01*
X66734476Y-8321428D01*
X66734476Y-8392857D01*
X66758285Y-8440476D01*
X66782095Y-8464285D01*
X66829714Y-8488095D01*
X67020190Y-8488095D01*
X66424952Y-8226190D02*
X66377333Y-8226190D01*
X66329714Y-8250000D01*
X66305904Y-8273809D01*
X66282095Y-8321428D01*
X66258285Y-8416666D01*
X66258285Y-8535714D01*
X66282095Y-8630952D01*
X66305904Y-8678571D01*
X66329714Y-8702380D01*
X66377333Y-8726190D01*
X66424952Y-8726190D01*
X66472571Y-8702380D01*
X66496380Y-8678571D01*
X66520190Y-8630952D01*
X66544000Y-8535714D01*
X66544000Y-8416666D01*
X66520190Y-8321428D01*
X66496380Y-8273809D01*
X66472571Y-8250000D01*
X66424952Y-8226190D01*
X66044000Y-8678571D02*
X66020190Y-8702380D01*
X66044000Y-8726190D01*
X66067809Y-8702380D01*
X66044000Y-8678571D01*
X66044000Y-8726190D01*
X65710666Y-8226190D02*
X65663047Y-8226190D01*
X65615428Y-8250000D01*
X65591619Y-8273809D01*
X65567809Y-8321428D01*
X65544000Y-8416666D01*
X65544000Y-8535714D01*
X65567809Y-8630952D01*
X65591619Y-8678571D01*
X65615428Y-8702380D01*
X65663047Y-8726190D01*
X65710666Y-8726190D01*
X65758285Y-8702380D01*
X65782095Y-8678571D01*
X65805904Y-8630952D01*
X65829714Y-8535714D01*
X65829714Y-8416666D01*
X65805904Y-8321428D01*
X65782095Y-8273809D01*
X65758285Y-8250000D01*
X65710666Y-8226190D01*
X66819047Y-5626190D02*
X66509523Y-5626190D01*
X66676190Y-5816666D01*
X66604761Y-5816666D01*
X66557142Y-5840476D01*
X66533333Y-5864285D01*
X66509523Y-5911904D01*
X66509523Y-6030952D01*
X66533333Y-6078571D01*
X66557142Y-6102380D01*
X66604761Y-6126190D01*
X66747619Y-6126190D01*
X66795238Y-6102380D01*
X66819047Y-6078571D01*
X66366666Y-5626190D02*
X66200000Y-6126190D01*
X66033333Y-5626190D01*
X65914285Y-5626190D02*
X65604761Y-5626190D01*
X65771428Y-5816666D01*
X65700000Y-5816666D01*
X65652380Y-5840476D01*
X65628571Y-5864285D01*
X65604761Y-5911904D01*
X65604761Y-6030952D01*
X65628571Y-6078571D01*
X65652380Y-6102380D01*
X65700000Y-6126190D01*
X65842857Y-6126190D01*
X65890476Y-6102380D01*
X65914285Y-6078571D01*
X57916666Y-5226190D02*
X57916666Y-4726190D01*
X57797619Y-4726190D01*
X57726190Y-4750000D01*
X57678571Y-4797619D01*
X57654761Y-4845238D01*
X57630952Y-4940476D01*
X57630952Y-5011904D01*
X57654761Y-5107142D01*
X57678571Y-5154761D01*
X57726190Y-5202380D01*
X57797619Y-5226190D01*
X57916666Y-5226190D01*
X57416666Y-5226190D02*
X57416666Y-4726190D01*
X57297619Y-5273809D02*
X56916666Y-5273809D01*
X56821428Y-5083333D02*
X56583333Y-5083333D01*
X56869047Y-5226190D02*
X56702380Y-4726190D01*
X56535714Y-5226190D01*
X56369047Y-5226190D02*
X56369047Y-4726190D01*
X56083333Y-5226190D01*
X56083333Y-4726190D01*
X53595238Y-5326190D02*
X53595238Y-4826190D01*
X53476190Y-4826190D01*
X53404761Y-4850000D01*
X53357142Y-4897619D01*
X53333333Y-4945238D01*
X53309523Y-5040476D01*
X53309523Y-5111904D01*
X53333333Y-5207142D01*
X53357142Y-5254761D01*
X53404761Y-5302380D01*
X53476190Y-5326190D01*
X53595238Y-5326190D01*
X53095238Y-5326190D02*
X53095238Y-4826190D01*
X52976190Y-5373809D02*
X52595238Y-5373809D01*
X52190476Y-5278571D02*
X52214285Y-5302380D01*
X52285714Y-5326190D01*
X52333333Y-5326190D01*
X52404761Y-5302380D01*
X52452380Y-5254761D01*
X52476190Y-5207142D01*
X52500000Y-5111904D01*
X52500000Y-5040476D01*
X52476190Y-4945238D01*
X52452380Y-4897619D01*
X52404761Y-4850000D01*
X52333333Y-4826190D01*
X52285714Y-4826190D01*
X52214285Y-4850000D01*
X52190476Y-4873809D01*
X52000000Y-5183333D02*
X51761904Y-5183333D01*
X52047619Y-5326190D02*
X51880952Y-4826190D01*
X51714285Y-5326190D01*
X51619047Y-4826190D02*
X51333333Y-4826190D01*
X51476190Y-5326190D02*
X51476190Y-4826190D01*
X47326190Y-4928571D02*
X46826190Y-4928571D01*
X46826190Y-5047619D01*
X46850000Y-5119047D01*
X46897619Y-5166666D01*
X46945238Y-5190476D01*
X47040476Y-5214285D01*
X47111904Y-5214285D01*
X47207142Y-5190476D01*
X47254761Y-5166666D01*
X47302380Y-5119047D01*
X47326190Y-5047619D01*
X47326190Y-4928571D01*
X46826190Y-5523809D02*
X46826190Y-5619047D01*
X46850000Y-5666666D01*
X46897619Y-5714285D01*
X46992857Y-5738095D01*
X47159523Y-5738095D01*
X47254761Y-5714285D01*
X47302380Y-5666666D01*
X47326190Y-5619047D01*
X47326190Y-5523809D01*
X47302380Y-5476190D01*
X47254761Y-5428571D01*
X47159523Y-5404761D01*
X46992857Y-5404761D01*
X46897619Y-5428571D01*
X46850000Y-5476190D01*
X46826190Y-5523809D01*
X47373809Y-5833333D02*
X47373809Y-6214285D01*
X47064285Y-6333333D02*
X47064285Y-6500000D01*
X47326190Y-6571428D02*
X47326190Y-6333333D01*
X46826190Y-6333333D01*
X46826190Y-6571428D01*
X47326190Y-6785714D02*
X46826190Y-6785714D01*
X47183333Y-6952380D01*
X46826190Y-7119047D01*
X47326190Y-7119047D01*
X47326190Y-7357142D02*
X46826190Y-7357142D01*
X46826190Y-7523809D02*
X46826190Y-7809523D01*
X47326190Y-7666666D02*
X46826190Y-7666666D01*
X46826190Y-7904761D02*
X46826190Y-8190476D01*
X47326190Y-8047619D02*
X46826190Y-8047619D01*
X47064285Y-8357142D02*
X47064285Y-8523809D01*
X47326190Y-8595238D02*
X47326190Y-8357142D01*
X46826190Y-8357142D01*
X46826190Y-8595238D01*
X47326190Y-9095238D02*
X47088095Y-8928571D01*
X47326190Y-8809523D02*
X46826190Y-8809523D01*
X46826190Y-9000000D01*
X46850000Y-9047619D01*
X46873809Y-9071428D01*
X46921428Y-9095238D01*
X46992857Y-9095238D01*
X47040476Y-9071428D01*
X47064285Y-9047619D01*
X47088095Y-9000000D01*
X47088095Y-8809523D01*
X44726190Y-4821428D02*
X44226190Y-4821428D01*
X44226190Y-4940476D01*
X44250000Y-5011904D01*
X44297619Y-5059523D01*
X44345238Y-5083333D01*
X44440476Y-5107142D01*
X44511904Y-5107142D01*
X44607142Y-5083333D01*
X44654761Y-5059523D01*
X44702380Y-5011904D01*
X44726190Y-4940476D01*
X44726190Y-4821428D01*
X44226190Y-5416666D02*
X44226190Y-5511904D01*
X44250000Y-5559523D01*
X44297619Y-5607142D01*
X44392857Y-5630952D01*
X44559523Y-5630952D01*
X44654761Y-5607142D01*
X44702380Y-5559523D01*
X44726190Y-5511904D01*
X44726190Y-5416666D01*
X44702380Y-5369047D01*
X44654761Y-5321428D01*
X44559523Y-5297619D01*
X44392857Y-5297619D01*
X44297619Y-5321428D01*
X44250000Y-5369047D01*
X44226190Y-5416666D01*
X44773809Y-5726190D02*
X44773809Y-6107142D01*
X44678571Y-6511904D02*
X44702380Y-6488095D01*
X44726190Y-6416666D01*
X44726190Y-6369047D01*
X44702380Y-6297619D01*
X44654761Y-6250000D01*
X44607142Y-6226190D01*
X44511904Y-6202380D01*
X44440476Y-6202380D01*
X44345238Y-6226190D01*
X44297619Y-6250000D01*
X44250000Y-6297619D01*
X44226190Y-6369047D01*
X44226190Y-6416666D01*
X44250000Y-6488095D01*
X44273809Y-6511904D01*
X44226190Y-6821428D02*
X44226190Y-6916666D01*
X44250000Y-6964285D01*
X44297619Y-7011904D01*
X44392857Y-7035714D01*
X44559523Y-7035714D01*
X44654761Y-7011904D01*
X44702380Y-6964285D01*
X44726190Y-6916666D01*
X44726190Y-6821428D01*
X44702380Y-6773809D01*
X44654761Y-6726190D01*
X44559523Y-6702380D01*
X44392857Y-6702380D01*
X44297619Y-6726190D01*
X44250000Y-6773809D01*
X44226190Y-6821428D01*
X44726190Y-7488095D02*
X44726190Y-7250000D01*
X44226190Y-7250000D01*
X44726190Y-7892857D02*
X44726190Y-7654761D01*
X44226190Y-7654761D01*
X44464285Y-8059523D02*
X44464285Y-8226190D01*
X44726190Y-8297619D02*
X44726190Y-8059523D01*
X44226190Y-8059523D01*
X44226190Y-8297619D01*
X44678571Y-8797619D02*
X44702380Y-8773809D01*
X44726190Y-8702380D01*
X44726190Y-8654761D01*
X44702380Y-8583333D01*
X44654761Y-8535714D01*
X44607142Y-8511904D01*
X44511904Y-8488095D01*
X44440476Y-8488095D01*
X44345238Y-8511904D01*
X44297619Y-8535714D01*
X44250000Y-8583333D01*
X44226190Y-8654761D01*
X44226190Y-8702380D01*
X44250000Y-8773809D01*
X44273809Y-8797619D01*
X44226190Y-8940476D02*
X44226190Y-9226190D01*
X44726190Y-9083333D02*
X44226190Y-9083333D01*
X44226190Y-9488095D02*
X44226190Y-9583333D01*
X44250000Y-9630952D01*
X44297619Y-9678571D01*
X44392857Y-9702380D01*
X44559523Y-9702380D01*
X44654761Y-9678571D01*
X44702380Y-9630952D01*
X44726190Y-9583333D01*
X44726190Y-9488095D01*
X44702380Y-9440476D01*
X44654761Y-9392857D01*
X44559523Y-9369047D01*
X44392857Y-9369047D01*
X44297619Y-9392857D01*
X44250000Y-9440476D01*
X44226190Y-9488095D01*
X44726190Y-10202380D02*
X44488095Y-10035714D01*
X44726190Y-9916666D02*
X44226190Y-9916666D01*
X44226190Y-10107142D01*
X44250000Y-10154761D01*
X44273809Y-10178571D01*
X44321428Y-10202380D01*
X44392857Y-10202380D01*
X44440476Y-10178571D01*
X44464285Y-10154761D01*
X44488095Y-10107142D01*
X44488095Y-9916666D01*
X37826190Y-4988095D02*
X38326190Y-5154761D01*
X37826190Y-5321428D01*
X37826190Y-5583333D02*
X37826190Y-5678571D01*
X37850000Y-5726190D01*
X37897619Y-5773809D01*
X37992857Y-5797619D01*
X38159523Y-5797619D01*
X38254761Y-5773809D01*
X38302380Y-5726190D01*
X38326190Y-5678571D01*
X38326190Y-5583333D01*
X38302380Y-5535714D01*
X38254761Y-5488095D01*
X38159523Y-5464285D01*
X37992857Y-5464285D01*
X37897619Y-5488095D01*
X37850000Y-5535714D01*
X37826190Y-5583333D01*
X38326190Y-6250000D02*
X38326190Y-6011904D01*
X37826190Y-6011904D01*
X37826190Y-6345238D02*
X37826190Y-6630952D01*
X38326190Y-6488095D02*
X37826190Y-6488095D01*
X38183333Y-6773809D02*
X38183333Y-7011904D01*
X38326190Y-6726190D02*
X37826190Y-6892857D01*
X38326190Y-7059523D01*
X37850000Y-7488095D02*
X37826190Y-7440476D01*
X37826190Y-7369047D01*
X37850000Y-7297619D01*
X37897619Y-7250000D01*
X37945238Y-7226190D01*
X38040476Y-7202380D01*
X38111904Y-7202380D01*
X38207142Y-7226190D01*
X38254761Y-7250000D01*
X38302380Y-7297619D01*
X38326190Y-7369047D01*
X38326190Y-7416666D01*
X38302380Y-7488095D01*
X38278571Y-7511904D01*
X38111904Y-7511904D01*
X38111904Y-7416666D01*
X38064285Y-7726190D02*
X38064285Y-7892857D01*
X38326190Y-7964285D02*
X38326190Y-7726190D01*
X37826190Y-7726190D01*
X37826190Y-7964285D01*
X35778571Y-5214285D02*
X35802380Y-5190476D01*
X35826190Y-5119047D01*
X35826190Y-5071428D01*
X35802380Y-5000000D01*
X35754761Y-4952380D01*
X35707142Y-4928571D01*
X35611904Y-4904761D01*
X35540476Y-4904761D01*
X35445238Y-4928571D01*
X35397619Y-4952380D01*
X35350000Y-5000000D01*
X35326190Y-5071428D01*
X35326190Y-5119047D01*
X35350000Y-5190476D01*
X35373809Y-5214285D01*
X35326190Y-5428571D02*
X35730952Y-5428571D01*
X35778571Y-5452380D01*
X35802380Y-5476190D01*
X35826190Y-5523809D01*
X35826190Y-5619047D01*
X35802380Y-5666666D01*
X35778571Y-5690476D01*
X35730952Y-5714285D01*
X35326190Y-5714285D01*
X35826190Y-6238095D02*
X35588095Y-6071428D01*
X35826190Y-5952380D02*
X35326190Y-5952380D01*
X35326190Y-6142857D01*
X35350000Y-6190476D01*
X35373809Y-6214285D01*
X35421428Y-6238095D01*
X35492857Y-6238095D01*
X35540476Y-6214285D01*
X35564285Y-6190476D01*
X35588095Y-6142857D01*
X35588095Y-5952380D01*
X35826190Y-6738095D02*
X35588095Y-6571428D01*
X35826190Y-6452380D02*
X35326190Y-6452380D01*
X35326190Y-6642857D01*
X35350000Y-6690476D01*
X35373809Y-6714285D01*
X35421428Y-6738095D01*
X35492857Y-6738095D01*
X35540476Y-6714285D01*
X35564285Y-6690476D01*
X35588095Y-6642857D01*
X35588095Y-6452380D01*
X35564285Y-6952380D02*
X35564285Y-7119047D01*
X35826190Y-7190476D02*
X35826190Y-6952380D01*
X35326190Y-6952380D01*
X35326190Y-7190476D01*
X35826190Y-7404761D02*
X35326190Y-7404761D01*
X35826190Y-7690476D01*
X35326190Y-7690476D01*
X35326190Y-7857142D02*
X35326190Y-8142857D01*
X35826190Y-8000000D02*
X35326190Y-8000000D01*
X32826190Y-4761904D02*
X32826190Y-5047619D01*
X33326190Y-4904761D02*
X32826190Y-4904761D01*
X33326190Y-5500000D02*
X33088095Y-5333333D01*
X33326190Y-5214285D02*
X32826190Y-5214285D01*
X32826190Y-5404761D01*
X32850000Y-5452380D01*
X32873809Y-5476190D01*
X32921428Y-5500000D01*
X32992857Y-5500000D01*
X33040476Y-5476190D01*
X33064285Y-5452380D01*
X33088095Y-5404761D01*
X33088095Y-5214285D01*
X33326190Y-5714285D02*
X32826190Y-5714285D01*
X33278571Y-6238095D02*
X33302380Y-6214285D01*
X33326190Y-6142857D01*
X33326190Y-6095238D01*
X33302380Y-6023809D01*
X33254761Y-5976190D01*
X33207142Y-5952380D01*
X33111904Y-5928571D01*
X33040476Y-5928571D01*
X32945238Y-5952380D01*
X32897619Y-5976190D01*
X32850000Y-6023809D01*
X32826190Y-6095238D01*
X32826190Y-6142857D01*
X32850000Y-6214285D01*
X32873809Y-6238095D01*
X33326190Y-6452380D02*
X32826190Y-6452380D01*
X33326190Y-6738095D02*
X33040476Y-6523809D01*
X32826190Y-6738095D02*
X33111904Y-6452380D01*
X33326190Y-7190476D02*
X33326190Y-6952380D01*
X32826190Y-6952380D01*
X33064285Y-7357142D02*
X33064285Y-7523809D01*
X33326190Y-7595238D02*
X33326190Y-7357142D01*
X32826190Y-7357142D01*
X32826190Y-7595238D01*
X33373809Y-7690476D02*
X33373809Y-8071428D01*
X33326190Y-8190476D02*
X32826190Y-8190476D01*
X32826190Y-8309523D01*
X32850000Y-8380952D01*
X32897619Y-8428571D01*
X32945238Y-8452380D01*
X33040476Y-8476190D01*
X33111904Y-8476190D01*
X33207142Y-8452380D01*
X33254761Y-8428571D01*
X33302380Y-8380952D01*
X33326190Y-8309523D01*
X33326190Y-8190476D01*
X33326190Y-8690476D02*
X32826190Y-8690476D01*
X33302380Y-8904761D02*
X33326190Y-8976190D01*
X33326190Y-9095238D01*
X33302380Y-9142857D01*
X33278571Y-9166666D01*
X33230952Y-9190476D01*
X33183333Y-9190476D01*
X33135714Y-9166666D01*
X33111904Y-9142857D01*
X33088095Y-9095238D01*
X33064285Y-9000000D01*
X33040476Y-8952380D01*
X33016666Y-8928571D01*
X32969047Y-8904761D01*
X32921428Y-8904761D01*
X32873809Y-8928571D01*
X32850000Y-8952380D01*
X32826190Y-9000000D01*
X32826190Y-9119047D01*
X32850000Y-9190476D01*
X30250000Y-4819047D02*
X30226190Y-4771428D01*
X30226190Y-4700000D01*
X30250000Y-4628571D01*
X30297619Y-4580952D01*
X30345238Y-4557142D01*
X30440476Y-4533333D01*
X30511904Y-4533333D01*
X30607142Y-4557142D01*
X30654761Y-4580952D01*
X30702380Y-4628571D01*
X30726190Y-4700000D01*
X30726190Y-4747619D01*
X30702380Y-4819047D01*
X30678571Y-4842857D01*
X30511904Y-4842857D01*
X30511904Y-4747619D01*
X30726190Y-5057142D02*
X30226190Y-5057142D01*
X30726190Y-5342857D01*
X30226190Y-5342857D01*
X30726190Y-5580952D02*
X30226190Y-5580952D01*
X30226190Y-5700000D01*
X30250000Y-5771428D01*
X30297619Y-5819047D01*
X30345238Y-5842857D01*
X30440476Y-5866666D01*
X30511904Y-5866666D01*
X30607142Y-5842857D01*
X30654761Y-5819047D01*
X30702380Y-5771428D01*
X30726190Y-5700000D01*
X30726190Y-5580952D01*
D12*
G04 #@! TO.C,G\002A\002A\002A*
G36*
X56058408Y-28250537D02*
X55953142Y-28257538D01*
X55853385Y-28267871D01*
X55764380Y-28281205D01*
X55704600Y-28293771D01*
X55673496Y-28301128D01*
X55631786Y-28310527D01*
X55590662Y-28319467D01*
X55474107Y-28350374D01*
X55347959Y-28394797D01*
X55215919Y-28450883D01*
X55081686Y-28516777D01*
X54948961Y-28590628D01*
X54821443Y-28670580D01*
X54702831Y-28754780D01*
X54668280Y-28781588D01*
X54619298Y-28822819D01*
X54561913Y-28874897D01*
X54500061Y-28933905D01*
X54437675Y-28995923D01*
X54378691Y-29057034D01*
X54327041Y-29113319D01*
X54286660Y-29160859D01*
X54283504Y-29164840D01*
X54228315Y-29238713D01*
X54170943Y-29322165D01*
X54113398Y-29411726D01*
X54057690Y-29503928D01*
X54005829Y-29595301D01*
X53959825Y-29682378D01*
X53921687Y-29761689D01*
X53893425Y-29829766D01*
X53886120Y-29850661D01*
X53875554Y-29882438D01*
X53861386Y-29924427D01*
X53846651Y-29967637D01*
X53846400Y-29968367D01*
X53824999Y-30037598D01*
X53802806Y-30121583D01*
X53781020Y-30214850D01*
X53760839Y-30311931D01*
X53743464Y-30407356D01*
X53730093Y-30495655D01*
X53729064Y-30503560D01*
X53714796Y-30662591D01*
X53710684Y-30832539D01*
X53716589Y-31006803D01*
X53732370Y-31178779D01*
X53745311Y-31270640D01*
X53789050Y-31483362D01*
X53851160Y-31693059D01*
X53930558Y-31897796D01*
X54026162Y-32095635D01*
X54136888Y-32284640D01*
X54261655Y-32462876D01*
X54399378Y-32628405D01*
X54548976Y-32779293D01*
X54627777Y-32848546D01*
X54791274Y-32976085D01*
X54958519Y-33088250D01*
X55127335Y-33183761D01*
X55295549Y-33261336D01*
X55387658Y-33296115D01*
X55444105Y-33315631D01*
X55484161Y-33329047D01*
X55510636Y-33336909D01*
X55526342Y-33339761D01*
X55534091Y-33338149D01*
X55536694Y-33332617D01*
X55536960Y-33325053D01*
X55541887Y-33310640D01*
X55559701Y-33309692D01*
X55559820Y-33309714D01*
X55585022Y-33306264D01*
X55614168Y-33290573D01*
X55614428Y-33290381D01*
X55624661Y-33280975D01*
X55648588Y-33257904D01*
X55685518Y-33221854D01*
X55734759Y-33173509D01*
X55795618Y-33113556D01*
X55867405Y-33042680D01*
X55949427Y-32961566D01*
X56040993Y-32870900D01*
X56141411Y-32771368D01*
X56249990Y-32663655D01*
X56366036Y-32548446D01*
X56488859Y-32426428D01*
X56617767Y-32298286D01*
X56752069Y-32164704D01*
X56891071Y-32026370D01*
X57034083Y-31883967D01*
X57121841Y-31796547D01*
X57293407Y-31625601D01*
X57299734Y-31619295D01*
X54886720Y-31619295D01*
X54878764Y-31639087D01*
X54854036Y-31656142D01*
X54811244Y-31671128D01*
X54767571Y-31681206D01*
X54681605Y-31700637D01*
X54594436Y-31724402D01*
X54513564Y-31750308D01*
X54454920Y-31772566D01*
X54411766Y-31789275D01*
X54381216Y-31796978D01*
X54358025Y-31796382D01*
X54337366Y-31788417D01*
X54319896Y-31771100D01*
X54298122Y-31736767D01*
X54273324Y-31687939D01*
X54246784Y-31627137D01*
X54220060Y-31557648D01*
X54198987Y-31494714D01*
X54188482Y-31446585D01*
X54190020Y-31409895D01*
X54205073Y-31381277D01*
X54235116Y-31357364D01*
X54281620Y-31334792D01*
X54325004Y-31317895D01*
X54407168Y-31288984D01*
X54476919Y-31268210D01*
X54539797Y-31254191D01*
X54601343Y-31245545D01*
X54623005Y-31243579D01*
X54680637Y-31242074D01*
X54722179Y-31249083D01*
X54750556Y-31265959D01*
X54768697Y-31294055D01*
X54775143Y-31313887D01*
X54798794Y-31396047D01*
X54825800Y-31473464D01*
X54853615Y-31538939D01*
X54857662Y-31547210D01*
X54872854Y-31579673D01*
X54883371Y-31606109D01*
X54886720Y-31619295D01*
X57299734Y-31619295D01*
X57451148Y-31468401D01*
X57595643Y-31324355D01*
X57727467Y-31192875D01*
X57847200Y-31073370D01*
X57955418Y-30965251D01*
X58052699Y-30867927D01*
X58139620Y-30780809D01*
X58216760Y-30703307D01*
X58284694Y-30634831D01*
X58344002Y-30574791D01*
X58395260Y-30522598D01*
X58439046Y-30477662D01*
X58475937Y-30439392D01*
X58506512Y-30407199D01*
X58531346Y-30380494D01*
X58551019Y-30358686D01*
X58566107Y-30341185D01*
X58577188Y-30327402D01*
X58584840Y-30316747D01*
X58589640Y-30308630D01*
X58592165Y-30302461D01*
X58592993Y-30297651D01*
X58592794Y-30294192D01*
X58592191Y-30270214D01*
X58601427Y-30259039D01*
X58606841Y-30257175D01*
X58622383Y-30252155D01*
X58625600Y-30250106D01*
X58623069Y-30240077D01*
X58616148Y-30214195D01*
X58605845Y-30176199D01*
X58593169Y-30129825D01*
X58590954Y-30121751D01*
X58528069Y-29926661D01*
X58447881Y-29734207D01*
X58351986Y-29546813D01*
X58241978Y-29366902D01*
X58164023Y-29258740D01*
X54811168Y-29258740D01*
X54807942Y-29286665D01*
X54793180Y-29328996D01*
X54786988Y-29343689D01*
X54720371Y-29507101D01*
X54666052Y-29661506D01*
X54664377Y-29666724D01*
X54645683Y-29726080D01*
X54631595Y-29774114D01*
X54620735Y-29816917D01*
X54611731Y-29860582D01*
X54603206Y-29911199D01*
X54593786Y-29974859D01*
X54592005Y-29987355D01*
X54575074Y-30165430D01*
X54573467Y-30348396D01*
X54586823Y-30531334D01*
X54614781Y-30709325D01*
X54656978Y-30877450D01*
X54657598Y-30879480D01*
X54669721Y-30923796D01*
X54672802Y-30954847D01*
X54664529Y-30975425D01*
X54642590Y-30988320D01*
X54604670Y-30996327D01*
X54556520Y-31001520D01*
X54503251Y-31008523D01*
X54440080Y-31020226D01*
X54372967Y-31035196D01*
X54307868Y-31051994D01*
X54250742Y-31069186D01*
X54207545Y-31085334D01*
X54206000Y-31086023D01*
X54171051Y-31100690D01*
X54148325Y-31106065D01*
X54132083Y-31102359D01*
X54116586Y-31089784D01*
X54116125Y-31089324D01*
X54104357Y-31068297D01*
X54092447Y-31030491D01*
X54081096Y-30979426D01*
X54071005Y-30918626D01*
X54062877Y-30851612D01*
X54058558Y-30800384D01*
X54056988Y-30687845D01*
X54066033Y-30563684D01*
X54084887Y-30433084D01*
X54112744Y-30301229D01*
X54148798Y-30173303D01*
X54162397Y-30132720D01*
X54203877Y-30027225D01*
X54256395Y-29914284D01*
X54316930Y-29799310D01*
X54382463Y-29687720D01*
X54449972Y-29584927D01*
X54516436Y-29496346D01*
X54519470Y-29492640D01*
X54559620Y-29445701D01*
X54602961Y-29398241D01*
X54646923Y-29352738D01*
X54688937Y-29311674D01*
X54726432Y-29277527D01*
X54756838Y-29252779D01*
X54777584Y-29239908D01*
X54782709Y-29238640D01*
X54802782Y-29243354D01*
X54811168Y-29258740D01*
X58164023Y-29258740D01*
X58119451Y-29196897D01*
X57986001Y-29039223D01*
X57843222Y-28896302D01*
X57711200Y-28784718D01*
X57618753Y-28714927D01*
X57534442Y-28655789D01*
X57452170Y-28603456D01*
X57365841Y-28554079D01*
X57269358Y-28503810D01*
X57254202Y-28496237D01*
X57098661Y-28424994D01*
X56943963Y-28367065D01*
X56785729Y-28321266D01*
X56619579Y-28286411D01*
X56441133Y-28261315D01*
X56354840Y-28252820D01*
X56264500Y-28247847D01*
X56163942Y-28247196D01*
X56058408Y-28250537D01*
X56058408Y-28250537D01*
G37*
X56058408Y-28250537D02*
X55953142Y-28257538D01*
X55853385Y-28267871D01*
X55764380Y-28281205D01*
X55704600Y-28293771D01*
X55673496Y-28301128D01*
X55631786Y-28310527D01*
X55590662Y-28319467D01*
X55474107Y-28350374D01*
X55347959Y-28394797D01*
X55215919Y-28450883D01*
X55081686Y-28516777D01*
X54948961Y-28590628D01*
X54821443Y-28670580D01*
X54702831Y-28754780D01*
X54668280Y-28781588D01*
X54619298Y-28822819D01*
X54561913Y-28874897D01*
X54500061Y-28933905D01*
X54437675Y-28995923D01*
X54378691Y-29057034D01*
X54327041Y-29113319D01*
X54286660Y-29160859D01*
X54283504Y-29164840D01*
X54228315Y-29238713D01*
X54170943Y-29322165D01*
X54113398Y-29411726D01*
X54057690Y-29503928D01*
X54005829Y-29595301D01*
X53959825Y-29682378D01*
X53921687Y-29761689D01*
X53893425Y-29829766D01*
X53886120Y-29850661D01*
X53875554Y-29882438D01*
X53861386Y-29924427D01*
X53846651Y-29967637D01*
X53846400Y-29968367D01*
X53824999Y-30037598D01*
X53802806Y-30121583D01*
X53781020Y-30214850D01*
X53760839Y-30311931D01*
X53743464Y-30407356D01*
X53730093Y-30495655D01*
X53729064Y-30503560D01*
X53714796Y-30662591D01*
X53710684Y-30832539D01*
X53716589Y-31006803D01*
X53732370Y-31178779D01*
X53745311Y-31270640D01*
X53789050Y-31483362D01*
X53851160Y-31693059D01*
X53930558Y-31897796D01*
X54026162Y-32095635D01*
X54136888Y-32284640D01*
X54261655Y-32462876D01*
X54399378Y-32628405D01*
X54548976Y-32779293D01*
X54627777Y-32848546D01*
X54791274Y-32976085D01*
X54958519Y-33088250D01*
X55127335Y-33183761D01*
X55295549Y-33261336D01*
X55387658Y-33296115D01*
X55444105Y-33315631D01*
X55484161Y-33329047D01*
X55510636Y-33336909D01*
X55526342Y-33339761D01*
X55534091Y-33338149D01*
X55536694Y-33332617D01*
X55536960Y-33325053D01*
X55541887Y-33310640D01*
X55559701Y-33309692D01*
X55559820Y-33309714D01*
X55585022Y-33306264D01*
X55614168Y-33290573D01*
X55614428Y-33290381D01*
X55624661Y-33280975D01*
X55648588Y-33257904D01*
X55685518Y-33221854D01*
X55734759Y-33173509D01*
X55795618Y-33113556D01*
X55867405Y-33042680D01*
X55949427Y-32961566D01*
X56040993Y-32870900D01*
X56141411Y-32771368D01*
X56249990Y-32663655D01*
X56366036Y-32548446D01*
X56488859Y-32426428D01*
X56617767Y-32298286D01*
X56752069Y-32164704D01*
X56891071Y-32026370D01*
X57034083Y-31883967D01*
X57121841Y-31796547D01*
X57293407Y-31625601D01*
X57299734Y-31619295D01*
X54886720Y-31619295D01*
X54878764Y-31639087D01*
X54854036Y-31656142D01*
X54811244Y-31671128D01*
X54767571Y-31681206D01*
X54681605Y-31700637D01*
X54594436Y-31724402D01*
X54513564Y-31750308D01*
X54454920Y-31772566D01*
X54411766Y-31789275D01*
X54381216Y-31796978D01*
X54358025Y-31796382D01*
X54337366Y-31788417D01*
X54319896Y-31771100D01*
X54298122Y-31736767D01*
X54273324Y-31687939D01*
X54246784Y-31627137D01*
X54220060Y-31557648D01*
X54198987Y-31494714D01*
X54188482Y-31446585D01*
X54190020Y-31409895D01*
X54205073Y-31381277D01*
X54235116Y-31357364D01*
X54281620Y-31334792D01*
X54325004Y-31317895D01*
X54407168Y-31288984D01*
X54476919Y-31268210D01*
X54539797Y-31254191D01*
X54601343Y-31245545D01*
X54623005Y-31243579D01*
X54680637Y-31242074D01*
X54722179Y-31249083D01*
X54750556Y-31265959D01*
X54768697Y-31294055D01*
X54775143Y-31313887D01*
X54798794Y-31396047D01*
X54825800Y-31473464D01*
X54853615Y-31538939D01*
X54857662Y-31547210D01*
X54872854Y-31579673D01*
X54883371Y-31606109D01*
X54886720Y-31619295D01*
X57299734Y-31619295D01*
X57451148Y-31468401D01*
X57595643Y-31324355D01*
X57727467Y-31192875D01*
X57847200Y-31073370D01*
X57955418Y-30965251D01*
X58052699Y-30867927D01*
X58139620Y-30780809D01*
X58216760Y-30703307D01*
X58284694Y-30634831D01*
X58344002Y-30574791D01*
X58395260Y-30522598D01*
X58439046Y-30477662D01*
X58475937Y-30439392D01*
X58506512Y-30407199D01*
X58531346Y-30380494D01*
X58551019Y-30358686D01*
X58566107Y-30341185D01*
X58577188Y-30327402D01*
X58584840Y-30316747D01*
X58589640Y-30308630D01*
X58592165Y-30302461D01*
X58592993Y-30297651D01*
X58592794Y-30294192D01*
X58592191Y-30270214D01*
X58601427Y-30259039D01*
X58606841Y-30257175D01*
X58622383Y-30252155D01*
X58625600Y-30250106D01*
X58623069Y-30240077D01*
X58616148Y-30214195D01*
X58605845Y-30176199D01*
X58593169Y-30129825D01*
X58590954Y-30121751D01*
X58528069Y-29926661D01*
X58447881Y-29734207D01*
X58351986Y-29546813D01*
X58241978Y-29366902D01*
X58164023Y-29258740D01*
X54811168Y-29258740D01*
X54807942Y-29286665D01*
X54793180Y-29328996D01*
X54786988Y-29343689D01*
X54720371Y-29507101D01*
X54666052Y-29661506D01*
X54664377Y-29666724D01*
X54645683Y-29726080D01*
X54631595Y-29774114D01*
X54620735Y-29816917D01*
X54611731Y-29860582D01*
X54603206Y-29911199D01*
X54593786Y-29974859D01*
X54592005Y-29987355D01*
X54575074Y-30165430D01*
X54573467Y-30348396D01*
X54586823Y-30531334D01*
X54614781Y-30709325D01*
X54656978Y-30877450D01*
X54657598Y-30879480D01*
X54669721Y-30923796D01*
X54672802Y-30954847D01*
X54664529Y-30975425D01*
X54642590Y-30988320D01*
X54604670Y-30996327D01*
X54556520Y-31001520D01*
X54503251Y-31008523D01*
X54440080Y-31020226D01*
X54372967Y-31035196D01*
X54307868Y-31051994D01*
X54250742Y-31069186D01*
X54207545Y-31085334D01*
X54206000Y-31086023D01*
X54171051Y-31100690D01*
X54148325Y-31106065D01*
X54132083Y-31102359D01*
X54116586Y-31089784D01*
X54116125Y-31089324D01*
X54104357Y-31068297D01*
X54092447Y-31030491D01*
X54081096Y-30979426D01*
X54071005Y-30918626D01*
X54062877Y-30851612D01*
X54058558Y-30800384D01*
X54056988Y-30687845D01*
X54066033Y-30563684D01*
X54084887Y-30433084D01*
X54112744Y-30301229D01*
X54148798Y-30173303D01*
X54162397Y-30132720D01*
X54203877Y-30027225D01*
X54256395Y-29914284D01*
X54316930Y-29799310D01*
X54382463Y-29687720D01*
X54449972Y-29584927D01*
X54516436Y-29496346D01*
X54519470Y-29492640D01*
X54559620Y-29445701D01*
X54602961Y-29398241D01*
X54646923Y-29352738D01*
X54688937Y-29311674D01*
X54726432Y-29277527D01*
X54756838Y-29252779D01*
X54777584Y-29239908D01*
X54782709Y-29238640D01*
X54802782Y-29243354D01*
X54811168Y-29258740D01*
X58164023Y-29258740D01*
X58119451Y-29196897D01*
X57986001Y-29039223D01*
X57843222Y-28896302D01*
X57711200Y-28784718D01*
X57618753Y-28714927D01*
X57534442Y-28655789D01*
X57452170Y-28603456D01*
X57365841Y-28554079D01*
X57269358Y-28503810D01*
X57254202Y-28496237D01*
X57098661Y-28424994D01*
X56943963Y-28367065D01*
X56785729Y-28321266D01*
X56619579Y-28286411D01*
X56441133Y-28261315D01*
X56354840Y-28252820D01*
X56264500Y-28247847D01*
X56163942Y-28247196D01*
X56058408Y-28250537D01*
G36*
X60153046Y-30574430D02*
X60151434Y-30580289D01*
X60139972Y-30597025D01*
X60126034Y-30600229D01*
X60118301Y-30605182D01*
X60100686Y-30620192D01*
X60072899Y-30645542D01*
X60034653Y-30681515D01*
X59985659Y-30728395D01*
X59925629Y-30786464D01*
X59854275Y-30856006D01*
X59771309Y-30937303D01*
X59676443Y-31030640D01*
X59569389Y-31136300D01*
X59449857Y-31254565D01*
X59317561Y-31385718D01*
X59172212Y-31530044D01*
X59013522Y-31687825D01*
X58841203Y-31859344D01*
X58654966Y-32044885D01*
X58577340Y-32122263D01*
X58430137Y-32269091D01*
X58286797Y-32412207D01*
X58147983Y-32550944D01*
X58014359Y-32684635D01*
X57886586Y-32812613D01*
X57765326Y-32934210D01*
X57651243Y-33048760D01*
X57544999Y-33155594D01*
X57447256Y-33254047D01*
X57358677Y-33343450D01*
X57279924Y-33423136D01*
X57211659Y-33492439D01*
X57154546Y-33550690D01*
X57109246Y-33597224D01*
X57076423Y-33631371D01*
X57056738Y-33652466D01*
X57050800Y-33659763D01*
X57053966Y-33677382D01*
X57062159Y-33706864D01*
X57070735Y-33733319D01*
X57081404Y-33765492D01*
X57085335Y-33783597D01*
X57082626Y-33792701D01*
X57073374Y-33797873D01*
X57071985Y-33798410D01*
X57063080Y-33803423D01*
X57060662Y-33812192D01*
X57065515Y-33828953D01*
X57078423Y-33857944D01*
X57085925Y-33873719D01*
X57103391Y-33913675D01*
X57109645Y-33937266D01*
X57106162Y-33944839D01*
X57104101Y-33954705D01*
X57111644Y-33979057D01*
X57127432Y-34015275D01*
X57150100Y-34060741D01*
X57178288Y-34112834D01*
X57210632Y-34168935D01*
X57245772Y-34226425D01*
X57280068Y-34279291D01*
X57341419Y-34368930D01*
X57397090Y-34445419D01*
X57450965Y-34513533D01*
X57506931Y-34578049D01*
X57568872Y-34643743D01*
X57611474Y-34686657D01*
X57651494Y-34727123D01*
X57685857Y-34763324D01*
X57712153Y-34792602D01*
X57727972Y-34812300D01*
X57731520Y-34819017D01*
X57726116Y-34837403D01*
X57717757Y-34852319D01*
X57704683Y-34878404D01*
X57688544Y-34922206D01*
X57670019Y-34981471D01*
X57649785Y-35053942D01*
X57628523Y-35137366D01*
X57615400Y-35192400D01*
X57592500Y-35289368D01*
X57572184Y-35371386D01*
X57552981Y-35443412D01*
X57533419Y-35510408D01*
X57512029Y-35577334D01*
X57487337Y-35649149D01*
X57457874Y-35730814D01*
X57446635Y-35761360D01*
X57419877Y-35834280D01*
X57392266Y-35910311D01*
X57365707Y-35984152D01*
X57342104Y-36050502D01*
X57323362Y-36104063D01*
X57320671Y-36111880D01*
X57301000Y-36168655D01*
X57276847Y-36237512D01*
X57250687Y-36311438D01*
X57224996Y-36383424D01*
X57213035Y-36416680D01*
X57190058Y-36480491D01*
X57166769Y-36545404D01*
X57145154Y-36605867D01*
X57127199Y-36656331D01*
X57118536Y-36680840D01*
X57103694Y-36720191D01*
X57090161Y-36751050D01*
X57079883Y-36769215D01*
X57076200Y-36772280D01*
X57071190Y-36766922D01*
X57066527Y-36749960D01*
X57062092Y-36720060D01*
X57057764Y-36675887D01*
X57053424Y-36616108D01*
X57048953Y-36539388D01*
X57044231Y-36444394D01*
X57041587Y-36386200D01*
X57030314Y-36211287D01*
X57012549Y-36053024D01*
X56987904Y-35908680D01*
X56955991Y-35775522D01*
X56953443Y-35766440D01*
X56923227Y-35660311D01*
X56897641Y-35571696D01*
X56876062Y-35498479D01*
X56857864Y-35438545D01*
X56842424Y-35389778D01*
X56841009Y-35385440D01*
X56817857Y-35309573D01*
X56793240Y-35220166D01*
X56768612Y-35123243D01*
X56745421Y-35024833D01*
X56725120Y-34930961D01*
X56709158Y-34847655D01*
X56703830Y-34815559D01*
X56697326Y-34771687D01*
X56692160Y-34730788D01*
X56688176Y-34689683D01*
X56685220Y-34645187D01*
X56683136Y-34594120D01*
X56681770Y-34533300D01*
X56680966Y-34459544D01*
X56680569Y-34369671D01*
X56680503Y-34336936D01*
X56680143Y-34239322D01*
X56679374Y-34160450D01*
X56678135Y-34098741D01*
X56676367Y-34052622D01*
X56674010Y-34020514D01*
X56671003Y-34000843D01*
X56667362Y-33992105D01*
X56647793Y-33985196D01*
X56622528Y-33993447D01*
X56595626Y-34014193D01*
X56571150Y-34044771D01*
X56561862Y-34061324D01*
X56554947Y-34075872D01*
X56549503Y-34089885D01*
X56545363Y-34105884D01*
X56542358Y-34126390D01*
X56540317Y-34153923D01*
X56539074Y-34191006D01*
X56538458Y-34240159D01*
X56538301Y-34303903D01*
X56538434Y-34384759D01*
X56538498Y-34410080D01*
X56538838Y-34498391D01*
X56539495Y-34569858D01*
X56540686Y-34627953D01*
X56542627Y-34676150D01*
X56545535Y-34717925D01*
X56549626Y-34756750D01*
X56555116Y-34796101D01*
X56562224Y-34839451D01*
X56566953Y-34866554D01*
X56586747Y-34974287D01*
X56605592Y-35066894D01*
X56624651Y-35149457D01*
X56645087Y-35227060D01*
X56664739Y-35294000D01*
X56705814Y-35428569D01*
X56741285Y-35546475D01*
X56771645Y-35650439D01*
X56797386Y-35743183D01*
X56819003Y-35827425D01*
X56836987Y-35905888D01*
X56851832Y-35981292D01*
X56864031Y-36056358D01*
X56874077Y-36133806D01*
X56882463Y-36216358D01*
X56889682Y-36306734D01*
X56896226Y-36407656D01*
X56902590Y-36521843D01*
X56908671Y-36640200D01*
X56915239Y-36757828D01*
X56922793Y-36871050D01*
X56931130Y-36978012D01*
X56940047Y-37076860D01*
X56949341Y-37165742D01*
X56958811Y-37242802D01*
X56968252Y-37306188D01*
X56977463Y-37354045D01*
X56986241Y-37384521D01*
X56991033Y-37393476D01*
X57011827Y-37404788D01*
X57042013Y-37407191D01*
X57072985Y-37401212D01*
X57096138Y-37387377D01*
X57096460Y-37387027D01*
X57105337Y-37374387D01*
X57110106Y-37357742D01*
X57111317Y-37332152D01*
X57109522Y-37292681D01*
X57108566Y-37278612D01*
X57102345Y-37190450D01*
X57187680Y-36935645D01*
X57211718Y-36864067D01*
X57234752Y-36795846D01*
X57255659Y-36734282D01*
X57273317Y-36682672D01*
X57286600Y-36644314D01*
X57293480Y-36624960D01*
X57302602Y-36599600D01*
X57317194Y-36558493D01*
X57336042Y-36505083D01*
X57357932Y-36442811D01*
X57381651Y-36375121D01*
X57397311Y-36330320D01*
X57423809Y-36254896D01*
X57451432Y-36177101D01*
X57478425Y-36101810D01*
X57503039Y-36033900D01*
X57523519Y-35978247D01*
X57530551Y-35959480D01*
X57569017Y-35856713D01*
X57601057Y-35768765D01*
X57627948Y-35691650D01*
X57650968Y-35621384D01*
X57671396Y-35553983D01*
X57690509Y-35485462D01*
X57709585Y-35411836D01*
X57721161Y-35365120D01*
X57747379Y-35258551D01*
X57769536Y-35170127D01*
X57788173Y-35098199D01*
X57803827Y-35041119D01*
X57817037Y-34997239D01*
X57828344Y-34964911D01*
X57838284Y-34942486D01*
X57847399Y-34928317D01*
X57856225Y-34920754D01*
X57865303Y-34918151D01*
X57867340Y-34918080D01*
X57882013Y-34923307D01*
X57908105Y-34937076D01*
X57940222Y-34956516D01*
X57943305Y-34958498D01*
X57978487Y-34979684D01*
X57999028Y-34988160D01*
X58005838Y-34984296D01*
X58005840Y-34984103D01*
X58012865Y-34980495D01*
X58034310Y-34989436D01*
X58070732Y-35011164D01*
X58074420Y-35013533D01*
X58181017Y-35076104D01*
X58302531Y-35136782D01*
X58433561Y-35193409D01*
X58568706Y-35243823D01*
X58702566Y-35285866D01*
X58829739Y-35317377D01*
X58838884Y-35319261D01*
X58920169Y-35335287D01*
X58989197Y-35347533D01*
X59051053Y-35356475D01*
X59110823Y-35362587D01*
X59173590Y-35366343D01*
X59244441Y-35368218D01*
X59328459Y-35368687D01*
X59367280Y-35368586D01*
X59449130Y-35367991D01*
X59515329Y-35366740D01*
X59570540Y-35364500D01*
X59619432Y-35360942D01*
X59666668Y-35355733D01*
X59716914Y-35348542D01*
X59768583Y-35340100D01*
X59985934Y-35293231D01*
X60196289Y-35227671D01*
X60398607Y-35144074D01*
X60591844Y-35043092D01*
X60774957Y-34925379D01*
X60946904Y-34791588D01*
X61106642Y-34642373D01*
X61253128Y-34478387D01*
X61352576Y-34347639D01*
X61453740Y-34193045D01*
X61543667Y-34031404D01*
X61620486Y-33866689D01*
X61682326Y-33702869D01*
X61723082Y-33561720D01*
X61758296Y-33403281D01*
X61783303Y-33257424D01*
X61798719Y-33119531D01*
X61805162Y-32984988D01*
X61805440Y-32945888D01*
X61803323Y-32881971D01*
X61571555Y-32881971D01*
X61568157Y-32930197D01*
X61557484Y-32964840D01*
X61539299Y-32987785D01*
X61524682Y-32996719D01*
X61504974Y-33001164D01*
X61469665Y-33004839D01*
X61423470Y-33007385D01*
X61371106Y-33008442D01*
X61370862Y-33008443D01*
X61314781Y-33009748D01*
X61259657Y-33012959D01*
X61212122Y-33017580D01*
X61180840Y-33022642D01*
X61130081Y-33032869D01*
X61094719Y-33036549D01*
X61070892Y-33033623D01*
X61054742Y-33024035D01*
X61051547Y-33020700D01*
X61042197Y-33000181D01*
X61034975Y-32961754D01*
X61029669Y-32904275D01*
X61029478Y-32901320D01*
X61026029Y-32852306D01*
X61022188Y-32805830D01*
X61018565Y-32768996D01*
X61017030Y-32756441D01*
X61013844Y-32711666D01*
X61020866Y-32680427D01*
X61040851Y-32657358D01*
X61076554Y-32637090D01*
X61078824Y-32636043D01*
X61130639Y-32616505D01*
X61191971Y-32599948D01*
X61258155Y-32586970D01*
X61324528Y-32578166D01*
X61386425Y-32574130D01*
X61439183Y-32575459D01*
X61478136Y-32582749D01*
X61482697Y-32584475D01*
X61506258Y-32596617D01*
X61523414Y-32612723D01*
X61536053Y-32636654D01*
X61546065Y-32672269D01*
X61555340Y-32723429D01*
X61557482Y-32737240D01*
X61567918Y-32818280D01*
X61571555Y-32881971D01*
X61803323Y-32881971D01*
X61798576Y-32738728D01*
X61778227Y-32543349D01*
X61743618Y-32355679D01*
X61729295Y-32302579D01*
X61479269Y-32302579D01*
X61476377Y-32324557D01*
X61465420Y-32339589D01*
X61443655Y-32349297D01*
X61408337Y-32355297D01*
X61356721Y-32359208D01*
X61326407Y-32360769D01*
X61251671Y-32366341D01*
X61186374Y-32375094D01*
X61135870Y-32386307D01*
X61135120Y-32386529D01*
X61073588Y-32402053D01*
X61027566Y-32406903D01*
X60995297Y-32401113D01*
X60978851Y-32389577D01*
X60967292Y-32365778D01*
X60957559Y-32321899D01*
X60951393Y-32275277D01*
X60922345Y-32099953D01*
X60873651Y-31927596D01*
X60805905Y-31759352D01*
X60719700Y-31596368D01*
X60615628Y-31439788D01*
X60494281Y-31290758D01*
X60381882Y-31174588D01*
X60334347Y-31128019D01*
X60301213Y-31092760D01*
X60281333Y-31067037D01*
X60273559Y-31049076D01*
X60276746Y-31037105D01*
X60288327Y-31029872D01*
X60314446Y-31028555D01*
X60354674Y-31037797D01*
X60406558Y-31056378D01*
X60467648Y-31083079D01*
X60535492Y-31116684D01*
X60607641Y-31155971D01*
X60681642Y-31199724D01*
X60755045Y-31246723D01*
X60825398Y-31295749D01*
X60830320Y-31299355D01*
X60881445Y-31340369D01*
X60940831Y-31393567D01*
X61004519Y-31454896D01*
X61068553Y-31520303D01*
X61128976Y-31585735D01*
X61181830Y-31647140D01*
X61223158Y-31700465D01*
X61226267Y-31704859D01*
X61260389Y-31755946D01*
X61296574Y-31814006D01*
X61329072Y-31869673D01*
X61341675Y-31892796D01*
X61369311Y-31949733D01*
X61397192Y-32015158D01*
X61423522Y-32084035D01*
X61446508Y-32151330D01*
X61464354Y-32212008D01*
X61475267Y-32261036D01*
X61476842Y-32272038D01*
X61479269Y-32302579D01*
X61729295Y-32302579D01*
X61693977Y-32171645D01*
X61628527Y-31987175D01*
X61618416Y-31961961D01*
X61539571Y-31789694D01*
X61444939Y-31620386D01*
X61336732Y-31456900D01*
X61217163Y-31302099D01*
X61088445Y-31158846D01*
X60952792Y-31030002D01*
X60812415Y-30918431D01*
X60810800Y-30917272D01*
X60686906Y-30831691D01*
X60571616Y-30759060D01*
X60460428Y-30696802D01*
X60348842Y-30642339D01*
X60274756Y-30610223D01*
X60225327Y-30589989D01*
X60191505Y-30577036D01*
X60170225Y-30570620D01*
X60158427Y-30570000D01*
X60153046Y-30574430D01*
X60153046Y-30574430D01*
G37*
X60153046Y-30574430D02*
X60151434Y-30580289D01*
X60139972Y-30597025D01*
X60126034Y-30600229D01*
X60118301Y-30605182D01*
X60100686Y-30620192D01*
X60072899Y-30645542D01*
X60034653Y-30681515D01*
X59985659Y-30728395D01*
X59925629Y-30786464D01*
X59854275Y-30856006D01*
X59771309Y-30937303D01*
X59676443Y-31030640D01*
X59569389Y-31136300D01*
X59449857Y-31254565D01*
X59317561Y-31385718D01*
X59172212Y-31530044D01*
X59013522Y-31687825D01*
X58841203Y-31859344D01*
X58654966Y-32044885D01*
X58577340Y-32122263D01*
X58430137Y-32269091D01*
X58286797Y-32412207D01*
X58147983Y-32550944D01*
X58014359Y-32684635D01*
X57886586Y-32812613D01*
X57765326Y-32934210D01*
X57651243Y-33048760D01*
X57544999Y-33155594D01*
X57447256Y-33254047D01*
X57358677Y-33343450D01*
X57279924Y-33423136D01*
X57211659Y-33492439D01*
X57154546Y-33550690D01*
X57109246Y-33597224D01*
X57076423Y-33631371D01*
X57056738Y-33652466D01*
X57050800Y-33659763D01*
X57053966Y-33677382D01*
X57062159Y-33706864D01*
X57070735Y-33733319D01*
X57081404Y-33765492D01*
X57085335Y-33783597D01*
X57082626Y-33792701D01*
X57073374Y-33797873D01*
X57071985Y-33798410D01*
X57063080Y-33803423D01*
X57060662Y-33812192D01*
X57065515Y-33828953D01*
X57078423Y-33857944D01*
X57085925Y-33873719D01*
X57103391Y-33913675D01*
X57109645Y-33937266D01*
X57106162Y-33944839D01*
X57104101Y-33954705D01*
X57111644Y-33979057D01*
X57127432Y-34015275D01*
X57150100Y-34060741D01*
X57178288Y-34112834D01*
X57210632Y-34168935D01*
X57245772Y-34226425D01*
X57280068Y-34279291D01*
X57341419Y-34368930D01*
X57397090Y-34445419D01*
X57450965Y-34513533D01*
X57506931Y-34578049D01*
X57568872Y-34643743D01*
X57611474Y-34686657D01*
X57651494Y-34727123D01*
X57685857Y-34763324D01*
X57712153Y-34792602D01*
X57727972Y-34812300D01*
X57731520Y-34819017D01*
X57726116Y-34837403D01*
X57717757Y-34852319D01*
X57704683Y-34878404D01*
X57688544Y-34922206D01*
X57670019Y-34981471D01*
X57649785Y-35053942D01*
X57628523Y-35137366D01*
X57615400Y-35192400D01*
X57592500Y-35289368D01*
X57572184Y-35371386D01*
X57552981Y-35443412D01*
X57533419Y-35510408D01*
X57512029Y-35577334D01*
X57487337Y-35649149D01*
X57457874Y-35730814D01*
X57446635Y-35761360D01*
X57419877Y-35834280D01*
X57392266Y-35910311D01*
X57365707Y-35984152D01*
X57342104Y-36050502D01*
X57323362Y-36104063D01*
X57320671Y-36111880D01*
X57301000Y-36168655D01*
X57276847Y-36237512D01*
X57250687Y-36311438D01*
X57224996Y-36383424D01*
X57213035Y-36416680D01*
X57190058Y-36480491D01*
X57166769Y-36545404D01*
X57145154Y-36605867D01*
X57127199Y-36656331D01*
X57118536Y-36680840D01*
X57103694Y-36720191D01*
X57090161Y-36751050D01*
X57079883Y-36769215D01*
X57076200Y-36772280D01*
X57071190Y-36766922D01*
X57066527Y-36749960D01*
X57062092Y-36720060D01*
X57057764Y-36675887D01*
X57053424Y-36616108D01*
X57048953Y-36539388D01*
X57044231Y-36444394D01*
X57041587Y-36386200D01*
X57030314Y-36211287D01*
X57012549Y-36053024D01*
X56987904Y-35908680D01*
X56955991Y-35775522D01*
X56953443Y-35766440D01*
X56923227Y-35660311D01*
X56897641Y-35571696D01*
X56876062Y-35498479D01*
X56857864Y-35438545D01*
X56842424Y-35389778D01*
X56841009Y-35385440D01*
X56817857Y-35309573D01*
X56793240Y-35220166D01*
X56768612Y-35123243D01*
X56745421Y-35024833D01*
X56725120Y-34930961D01*
X56709158Y-34847655D01*
X56703830Y-34815559D01*
X56697326Y-34771687D01*
X56692160Y-34730788D01*
X56688176Y-34689683D01*
X56685220Y-34645187D01*
X56683136Y-34594120D01*
X56681770Y-34533300D01*
X56680966Y-34459544D01*
X56680569Y-34369671D01*
X56680503Y-34336936D01*
X56680143Y-34239322D01*
X56679374Y-34160450D01*
X56678135Y-34098741D01*
X56676367Y-34052622D01*
X56674010Y-34020514D01*
X56671003Y-34000843D01*
X56667362Y-33992105D01*
X56647793Y-33985196D01*
X56622528Y-33993447D01*
X56595626Y-34014193D01*
X56571150Y-34044771D01*
X56561862Y-34061324D01*
X56554947Y-34075872D01*
X56549503Y-34089885D01*
X56545363Y-34105884D01*
X56542358Y-34126390D01*
X56540317Y-34153923D01*
X56539074Y-34191006D01*
X56538458Y-34240159D01*
X56538301Y-34303903D01*
X56538434Y-34384759D01*
X56538498Y-34410080D01*
X56538838Y-34498391D01*
X56539495Y-34569858D01*
X56540686Y-34627953D01*
X56542627Y-34676150D01*
X56545535Y-34717925D01*
X56549626Y-34756750D01*
X56555116Y-34796101D01*
X56562224Y-34839451D01*
X56566953Y-34866554D01*
X56586747Y-34974287D01*
X56605592Y-35066894D01*
X56624651Y-35149457D01*
X56645087Y-35227060D01*
X56664739Y-35294000D01*
X56705814Y-35428569D01*
X56741285Y-35546475D01*
X56771645Y-35650439D01*
X56797386Y-35743183D01*
X56819003Y-35827425D01*
X56836987Y-35905888D01*
X56851832Y-35981292D01*
X56864031Y-36056358D01*
X56874077Y-36133806D01*
X56882463Y-36216358D01*
X56889682Y-36306734D01*
X56896226Y-36407656D01*
X56902590Y-36521843D01*
X56908671Y-36640200D01*
X56915239Y-36757828D01*
X56922793Y-36871050D01*
X56931130Y-36978012D01*
X56940047Y-37076860D01*
X56949341Y-37165742D01*
X56958811Y-37242802D01*
X56968252Y-37306188D01*
X56977463Y-37354045D01*
X56986241Y-37384521D01*
X56991033Y-37393476D01*
X57011827Y-37404788D01*
X57042013Y-37407191D01*
X57072985Y-37401212D01*
X57096138Y-37387377D01*
X57096460Y-37387027D01*
X57105337Y-37374387D01*
X57110106Y-37357742D01*
X57111317Y-37332152D01*
X57109522Y-37292681D01*
X57108566Y-37278612D01*
X57102345Y-37190450D01*
X57187680Y-36935645D01*
X57211718Y-36864067D01*
X57234752Y-36795846D01*
X57255659Y-36734282D01*
X57273317Y-36682672D01*
X57286600Y-36644314D01*
X57293480Y-36624960D01*
X57302602Y-36599600D01*
X57317194Y-36558493D01*
X57336042Y-36505083D01*
X57357932Y-36442811D01*
X57381651Y-36375121D01*
X57397311Y-36330320D01*
X57423809Y-36254896D01*
X57451432Y-36177101D01*
X57478425Y-36101810D01*
X57503039Y-36033900D01*
X57523519Y-35978247D01*
X57530551Y-35959480D01*
X57569017Y-35856713D01*
X57601057Y-35768765D01*
X57627948Y-35691650D01*
X57650968Y-35621384D01*
X57671396Y-35553983D01*
X57690509Y-35485462D01*
X57709585Y-35411836D01*
X57721161Y-35365120D01*
X57747379Y-35258551D01*
X57769536Y-35170127D01*
X57788173Y-35098199D01*
X57803827Y-35041119D01*
X57817037Y-34997239D01*
X57828344Y-34964911D01*
X57838284Y-34942486D01*
X57847399Y-34928317D01*
X57856225Y-34920754D01*
X57865303Y-34918151D01*
X57867340Y-34918080D01*
X57882013Y-34923307D01*
X57908105Y-34937076D01*
X57940222Y-34956516D01*
X57943305Y-34958498D01*
X57978487Y-34979684D01*
X57999028Y-34988160D01*
X58005838Y-34984296D01*
X58005840Y-34984103D01*
X58012865Y-34980495D01*
X58034310Y-34989436D01*
X58070732Y-35011164D01*
X58074420Y-35013533D01*
X58181017Y-35076104D01*
X58302531Y-35136782D01*
X58433561Y-35193409D01*
X58568706Y-35243823D01*
X58702566Y-35285866D01*
X58829739Y-35317377D01*
X58838884Y-35319261D01*
X58920169Y-35335287D01*
X58989197Y-35347533D01*
X59051053Y-35356475D01*
X59110823Y-35362587D01*
X59173590Y-35366343D01*
X59244441Y-35368218D01*
X59328459Y-35368687D01*
X59367280Y-35368586D01*
X59449130Y-35367991D01*
X59515329Y-35366740D01*
X59570540Y-35364500D01*
X59619432Y-35360942D01*
X59666668Y-35355733D01*
X59716914Y-35348542D01*
X59768583Y-35340100D01*
X59985934Y-35293231D01*
X60196289Y-35227671D01*
X60398607Y-35144074D01*
X60591844Y-35043092D01*
X60774957Y-34925379D01*
X60946904Y-34791588D01*
X61106642Y-34642373D01*
X61253128Y-34478387D01*
X61352576Y-34347639D01*
X61453740Y-34193045D01*
X61543667Y-34031404D01*
X61620486Y-33866689D01*
X61682326Y-33702869D01*
X61723082Y-33561720D01*
X61758296Y-33403281D01*
X61783303Y-33257424D01*
X61798719Y-33119531D01*
X61805162Y-32984988D01*
X61805440Y-32945888D01*
X61803323Y-32881971D01*
X61571555Y-32881971D01*
X61568157Y-32930197D01*
X61557484Y-32964840D01*
X61539299Y-32987785D01*
X61524682Y-32996719D01*
X61504974Y-33001164D01*
X61469665Y-33004839D01*
X61423470Y-33007385D01*
X61371106Y-33008442D01*
X61370862Y-33008443D01*
X61314781Y-33009748D01*
X61259657Y-33012959D01*
X61212122Y-33017580D01*
X61180840Y-33022642D01*
X61130081Y-33032869D01*
X61094719Y-33036549D01*
X61070892Y-33033623D01*
X61054742Y-33024035D01*
X61051547Y-33020700D01*
X61042197Y-33000181D01*
X61034975Y-32961754D01*
X61029669Y-32904275D01*
X61029478Y-32901320D01*
X61026029Y-32852306D01*
X61022188Y-32805830D01*
X61018565Y-32768996D01*
X61017030Y-32756441D01*
X61013844Y-32711666D01*
X61020866Y-32680427D01*
X61040851Y-32657358D01*
X61076554Y-32637090D01*
X61078824Y-32636043D01*
X61130639Y-32616505D01*
X61191971Y-32599948D01*
X61258155Y-32586970D01*
X61324528Y-32578166D01*
X61386425Y-32574130D01*
X61439183Y-32575459D01*
X61478136Y-32582749D01*
X61482697Y-32584475D01*
X61506258Y-32596617D01*
X61523414Y-32612723D01*
X61536053Y-32636654D01*
X61546065Y-32672269D01*
X61555340Y-32723429D01*
X61557482Y-32737240D01*
X61567918Y-32818280D01*
X61571555Y-32881971D01*
X61803323Y-32881971D01*
X61798576Y-32738728D01*
X61778227Y-32543349D01*
X61743618Y-32355679D01*
X61729295Y-32302579D01*
X61479269Y-32302579D01*
X61476377Y-32324557D01*
X61465420Y-32339589D01*
X61443655Y-32349297D01*
X61408337Y-32355297D01*
X61356721Y-32359208D01*
X61326407Y-32360769D01*
X61251671Y-32366341D01*
X61186374Y-32375094D01*
X61135870Y-32386307D01*
X61135120Y-32386529D01*
X61073588Y-32402053D01*
X61027566Y-32406903D01*
X60995297Y-32401113D01*
X60978851Y-32389577D01*
X60967292Y-32365778D01*
X60957559Y-32321899D01*
X60951393Y-32275277D01*
X60922345Y-32099953D01*
X60873651Y-31927596D01*
X60805905Y-31759352D01*
X60719700Y-31596368D01*
X60615628Y-31439788D01*
X60494281Y-31290758D01*
X60381882Y-31174588D01*
X60334347Y-31128019D01*
X60301213Y-31092760D01*
X60281333Y-31067037D01*
X60273559Y-31049076D01*
X60276746Y-31037105D01*
X60288327Y-31029872D01*
X60314446Y-31028555D01*
X60354674Y-31037797D01*
X60406558Y-31056378D01*
X60467648Y-31083079D01*
X60535492Y-31116684D01*
X60607641Y-31155971D01*
X60681642Y-31199724D01*
X60755045Y-31246723D01*
X60825398Y-31295749D01*
X60830320Y-31299355D01*
X60881445Y-31340369D01*
X60940831Y-31393567D01*
X61004519Y-31454896D01*
X61068553Y-31520303D01*
X61128976Y-31585735D01*
X61181830Y-31647140D01*
X61223158Y-31700465D01*
X61226267Y-31704859D01*
X61260389Y-31755946D01*
X61296574Y-31814006D01*
X61329072Y-31869673D01*
X61341675Y-31892796D01*
X61369311Y-31949733D01*
X61397192Y-32015158D01*
X61423522Y-32084035D01*
X61446508Y-32151330D01*
X61464354Y-32212008D01*
X61475267Y-32261036D01*
X61476842Y-32272038D01*
X61479269Y-32302579D01*
X61729295Y-32302579D01*
X61693977Y-32171645D01*
X61628527Y-31987175D01*
X61618416Y-31961961D01*
X61539571Y-31789694D01*
X61444939Y-31620386D01*
X61336732Y-31456900D01*
X61217163Y-31302099D01*
X61088445Y-31158846D01*
X60952792Y-31030002D01*
X60812415Y-30918431D01*
X60810800Y-30917272D01*
X60686906Y-30831691D01*
X60571616Y-30759060D01*
X60460428Y-30696802D01*
X60348842Y-30642339D01*
X60274756Y-30610223D01*
X60225327Y-30589989D01*
X60191505Y-30577036D01*
X60170225Y-30570620D01*
X60158427Y-30570000D01*
X60153046Y-30574430D01*
G36*
X57226479Y-26125954D02*
X56867526Y-26139718D01*
X56512306Y-26173023D01*
X56161534Y-26225707D01*
X55815926Y-26297608D01*
X55476199Y-26388563D01*
X55143070Y-26498409D01*
X54817253Y-26626984D01*
X54612400Y-26719261D01*
X54523946Y-26761372D01*
X54445831Y-26799305D01*
X54375048Y-26834739D01*
X54308591Y-26869351D01*
X54243454Y-26904817D01*
X54176631Y-26942817D01*
X54105115Y-26985027D01*
X54025900Y-27033124D01*
X53935979Y-27088786D01*
X53832346Y-27153691D01*
X53820850Y-27160920D01*
X53777701Y-27189230D01*
X53722196Y-27227412D01*
X53657981Y-27272806D01*
X53588698Y-27322757D01*
X53517993Y-27374607D01*
X53449508Y-27425701D01*
X53386889Y-27473380D01*
X53333779Y-27514988D01*
X53320097Y-27526010D01*
X53177977Y-27645731D01*
X53034282Y-27774877D01*
X52891389Y-27910929D01*
X52751676Y-28051369D01*
X52617521Y-28193677D01*
X52491300Y-28335335D01*
X52375391Y-28473824D01*
X52272172Y-28606626D01*
X52187810Y-28725560D01*
X52160655Y-28765079D01*
X52132993Y-28803817D01*
X52110255Y-28834186D01*
X52107788Y-28837320D01*
X52089748Y-28861960D01*
X52064532Y-28898963D01*
X52035491Y-28943306D01*
X52006128Y-28989720D01*
X51974989Y-29039694D01*
X51943019Y-29090681D01*
X51914195Y-29136356D01*
X51894341Y-29167520D01*
X51812224Y-29302611D01*
X51728933Y-29454126D01*
X51644071Y-29622867D01*
X51557244Y-29809638D01*
X51468059Y-30015241D01*
X51415321Y-30142880D01*
X51400190Y-30182174D01*
X51380334Y-30236775D01*
X51357136Y-30302609D01*
X51331979Y-30375601D01*
X51306247Y-30451678D01*
X51281324Y-30526765D01*
X51258592Y-30596790D01*
X51239435Y-30657678D01*
X51230734Y-30686440D01*
X51173184Y-30899338D01*
X51126644Y-31111209D01*
X51116814Y-31163960D01*
X51107670Y-31213289D01*
X51098694Y-31258783D01*
X51091080Y-31294535D01*
X51087016Y-31311280D01*
X51082067Y-31334129D01*
X51075212Y-31372365D01*
X51067247Y-31421235D01*
X51058969Y-31475986D01*
X51056357Y-31494160D01*
X51047969Y-31552701D01*
X51039641Y-31609736D01*
X51032222Y-31659512D01*
X51026562Y-31696276D01*
X51025574Y-31702440D01*
X51022405Y-31728634D01*
X51018453Y-31771814D01*
X51013965Y-31828672D01*
X51009186Y-31895901D01*
X51004363Y-31970193D01*
X50999743Y-32048239D01*
X50999478Y-32052960D01*
X50993888Y-32175262D01*
X50990228Y-32304856D01*
X50988458Y-32438034D01*
X50988539Y-32571093D01*
X50990432Y-32700326D01*
X50994098Y-32822029D01*
X50999498Y-32932496D01*
X51006591Y-33028021D01*
X51010186Y-33063880D01*
X51020398Y-33156121D01*
X51028791Y-33230944D01*
X51035698Y-33291135D01*
X51041454Y-33339481D01*
X51046390Y-33378769D01*
X51050842Y-33411784D01*
X51055141Y-33441315D01*
X51056068Y-33447420D01*
X51063579Y-33496495D01*
X51071771Y-33549997D01*
X51076674Y-33582001D01*
X51097800Y-33702132D01*
X51126300Y-33836860D01*
X51161121Y-33982293D01*
X51201215Y-34134534D01*
X51245529Y-34289691D01*
X51293015Y-34443868D01*
X51342620Y-34593171D01*
X51371311Y-34674240D01*
X51389836Y-34725378D01*
X51407744Y-34774902D01*
X51422829Y-34816704D01*
X51431882Y-34841880D01*
X51449197Y-34887200D01*
X51472788Y-34944863D01*
X51500078Y-35008920D01*
X51528491Y-35073423D01*
X51555452Y-35132425D01*
X51577810Y-35178832D01*
X51599202Y-35222689D01*
X51620718Y-35268787D01*
X51636405Y-35304160D01*
X51653345Y-35340654D01*
X51678800Y-35391123D01*
X51710855Y-35452101D01*
X51747594Y-35520124D01*
X51787103Y-35591726D01*
X51827465Y-35663443D01*
X51866765Y-35731811D01*
X51903089Y-35793364D01*
X51934520Y-35844638D01*
X51939696Y-35852800D01*
X52061398Y-36038097D01*
X52183808Y-36214171D01*
X52304226Y-36377209D01*
X52378687Y-36472560D01*
X52567810Y-36700040D01*
X52758309Y-36910776D01*
X52953662Y-37108234D01*
X53157350Y-37295881D01*
X53372851Y-37477184D01*
X53442780Y-37532783D01*
X53732384Y-37747564D01*
X54031275Y-37944705D01*
X54338826Y-38123919D01*
X54654408Y-38284919D01*
X54977392Y-38427417D01*
X55307150Y-38551124D01*
X55643053Y-38655755D01*
X55984473Y-38741020D01*
X56161800Y-38777198D01*
X56252234Y-38794189D01*
X56325944Y-38807820D01*
X56386157Y-38818603D01*
X56436097Y-38827049D01*
X56478988Y-38833671D01*
X56518056Y-38838979D01*
X56556526Y-38843487D01*
X56597623Y-38847704D01*
X56619000Y-38849755D01*
X56675731Y-38855422D01*
X56735481Y-38861890D01*
X56789074Y-38868145D01*
X56812040Y-38871054D01*
X56845297Y-38874039D01*
X56895987Y-38876750D01*
X56961226Y-38879160D01*
X57038129Y-38881244D01*
X57123811Y-38882978D01*
X57215387Y-38884336D01*
X57309973Y-38885292D01*
X57404683Y-38885823D01*
X57496633Y-38885902D01*
X57582937Y-38885504D01*
X57660712Y-38884604D01*
X57727072Y-38883177D01*
X57779132Y-38881198D01*
X57802640Y-38879708D01*
X57923544Y-38869020D01*
X58048719Y-38855999D01*
X58174595Y-38841139D01*
X58297601Y-38824933D01*
X58414166Y-38807873D01*
X58520719Y-38790452D01*
X58613690Y-38773162D01*
X58681370Y-38758462D01*
X58731858Y-38746564D01*
X58790677Y-38732886D01*
X58846331Y-38720100D01*
X58854200Y-38718310D01*
X59083520Y-38659978D01*
X59322025Y-38587402D01*
X59565892Y-38501949D01*
X59811298Y-38404982D01*
X60054417Y-38297867D01*
X60124200Y-38264979D01*
X60409083Y-38118577D01*
X60691075Y-37953767D01*
X60967479Y-37772459D01*
X61235597Y-37576562D01*
X61492732Y-37367989D01*
X61736185Y-37148648D01*
X61831408Y-37056061D01*
X61926811Y-36960112D01*
X62010409Y-36873442D01*
X62085734Y-36792000D01*
X62156315Y-36711733D01*
X62225685Y-36628590D01*
X62297375Y-36538520D01*
X62374916Y-36437471D01*
X62402882Y-36400370D01*
X62462570Y-36320734D01*
X62511579Y-36254919D01*
X62551574Y-36200607D01*
X62584219Y-36155477D01*
X62611180Y-36117210D01*
X62634120Y-36083487D01*
X62654705Y-36051987D01*
X62668156Y-36030735D01*
X62695228Y-35987706D01*
X62723901Y-35942492D01*
X62748113Y-35904648D01*
X62748789Y-35903600D01*
X62819643Y-35788453D01*
X62894005Y-35657947D01*
X62969800Y-35516256D01*
X63044952Y-35367558D01*
X63117386Y-35216030D01*
X63185027Y-35065848D01*
X63245798Y-34921191D01*
X63278855Y-34836800D01*
X63299411Y-34782627D01*
X63319151Y-34730605D01*
X63336094Y-34685949D01*
X63348262Y-34653878D01*
X63350173Y-34648840D01*
X63365753Y-34605029D01*
X63384886Y-34547011D01*
X63405880Y-34480207D01*
X63427039Y-34410040D01*
X63446671Y-34341932D01*
X63451732Y-34323720D01*
X63465420Y-34274240D01*
X63480043Y-34221774D01*
X63492499Y-34177452D01*
X63492797Y-34176400D01*
X63525522Y-34051841D01*
X63557741Y-33912149D01*
X63588407Y-33762504D01*
X63616473Y-33608085D01*
X63640891Y-33454072D01*
X63645849Y-33419480D01*
X63652070Y-33369688D01*
X63659042Y-33304943D01*
X63666295Y-33230572D01*
X63673359Y-33151906D01*
X63679764Y-33074272D01*
X63685041Y-33003001D01*
X63688720Y-32943421D01*
X63689737Y-32921640D01*
X63691792Y-32871626D01*
X63694465Y-32809048D01*
X63697421Y-32741639D01*
X63700324Y-32677134D01*
X63700526Y-32672720D01*
X63702692Y-32588126D01*
X63702480Y-32528661D01*
X62456001Y-32528661D01*
X62448896Y-32799647D01*
X62428739Y-33065865D01*
X62395500Y-33323221D01*
X62369538Y-33470280D01*
X62335937Y-33626659D01*
X62295064Y-33791533D01*
X62248729Y-33958558D01*
X62198742Y-34121389D01*
X62146912Y-34273683D01*
X62118867Y-34349120D01*
X61993510Y-34647968D01*
X61852090Y-34934466D01*
X61694319Y-35209073D01*
X61519908Y-35472246D01*
X61328568Y-35724445D01*
X61120012Y-35966127D01*
X61064289Y-36025867D01*
X60851280Y-36239716D01*
X60634115Y-36435381D01*
X60410288Y-36614652D01*
X60177290Y-36779320D01*
X59932614Y-36931175D01*
X59673752Y-37072009D01*
X59444422Y-37182685D01*
X59347233Y-37226184D01*
X59257389Y-37264114D01*
X59169048Y-37298706D01*
X59076367Y-37332189D01*
X58973502Y-37366792D01*
X58899920Y-37390463D01*
X58830385Y-37412428D01*
X58771853Y-37430545D01*
X58720458Y-37445809D01*
X58672333Y-37459216D01*
X58623612Y-37471763D01*
X58570428Y-37484445D01*
X58508915Y-37498259D01*
X58435205Y-37514200D01*
X58346200Y-37533103D01*
X58283109Y-37545222D01*
X58204583Y-37558392D01*
X58115437Y-37571953D01*
X58020484Y-37585248D01*
X57924538Y-37597617D01*
X57832413Y-37608401D01*
X57748922Y-37616941D01*
X57707830Y-37620490D01*
X57660371Y-37623029D01*
X57596363Y-37624685D01*
X57519554Y-37625504D01*
X57433694Y-37625535D01*
X57342532Y-37624823D01*
X57249817Y-37623417D01*
X57159297Y-37621362D01*
X57074722Y-37618708D01*
X56999842Y-37615499D01*
X56938404Y-37611785D01*
X56923800Y-37610634D01*
X56822208Y-37600993D01*
X56719875Y-37589323D01*
X56622644Y-37576378D01*
X56536353Y-37562912D01*
X56492000Y-37554847D01*
X56441144Y-37544911D01*
X56380938Y-37533117D01*
X56321968Y-37521541D01*
X56304040Y-37518016D01*
X56205924Y-37496513D01*
X56093778Y-37468151D01*
X55972171Y-37434265D01*
X55845668Y-37396188D01*
X55718836Y-37355256D01*
X55596240Y-37312803D01*
X55572520Y-37304207D01*
X55473156Y-37265555D01*
X55361568Y-37218099D01*
X55242553Y-37164137D01*
X55120907Y-37105964D01*
X55001428Y-37045877D01*
X54888911Y-36986173D01*
X54788154Y-36929147D01*
X54783763Y-36926557D01*
X54710724Y-36882172D01*
X54633823Y-36833285D01*
X54555162Y-36781419D01*
X54476839Y-36728095D01*
X54400955Y-36674836D01*
X54329609Y-36623162D01*
X54264902Y-36574596D01*
X54208932Y-36530659D01*
X54163799Y-36492874D01*
X54131604Y-36462763D01*
X54114446Y-36441846D01*
X54114087Y-36441195D01*
X54109532Y-36415304D01*
X54115365Y-36398900D01*
X54123730Y-36389315D01*
X54145721Y-36366151D01*
X54180577Y-36330179D01*
X54227534Y-36282166D01*
X54285829Y-36222882D01*
X54354701Y-36153097D01*
X54433387Y-36073579D01*
X54521123Y-35985098D01*
X54617148Y-35888423D01*
X54720698Y-35784323D01*
X54831012Y-35673567D01*
X54947326Y-35556924D01*
X55068879Y-35435164D01*
X55194906Y-35309056D01*
X55305465Y-35198534D01*
X55466829Y-35037365D01*
X55614361Y-34890163D01*
X55748538Y-34756463D01*
X55869831Y-34635800D01*
X55978717Y-34527709D01*
X56075669Y-34431726D01*
X56161162Y-34347387D01*
X56235669Y-34274226D01*
X56299666Y-34211779D01*
X56353627Y-34159582D01*
X56398026Y-34117169D01*
X56433337Y-34084076D01*
X56460034Y-34059839D01*
X56478593Y-34043992D01*
X56489487Y-34036072D01*
X56493069Y-34035214D01*
X56501161Y-34039634D01*
X56514607Y-34032070D01*
X56536175Y-34010642D01*
X56546964Y-33998600D01*
X56570744Y-33969865D01*
X56580996Y-33952377D01*
X56579081Y-33943557D01*
X56576649Y-33942324D01*
X56574622Y-33934681D01*
X56586996Y-33917621D01*
X56614589Y-33890157D01*
X56635454Y-33871232D01*
X56670607Y-33838748D01*
X56690432Y-33817191D01*
X56695909Y-33805366D01*
X56692082Y-33802302D01*
X56677327Y-33795601D01*
X56674880Y-33791072D01*
X56681959Y-33783241D01*
X56702690Y-33761841D01*
X56736314Y-33727628D01*
X56782072Y-33681360D01*
X56839205Y-33623792D01*
X56906955Y-33555683D01*
X56984561Y-33477788D01*
X57071265Y-33390864D01*
X57166308Y-33295668D01*
X57268932Y-33192957D01*
X57378376Y-33083487D01*
X57493883Y-32968015D01*
X57614693Y-32847298D01*
X57740047Y-32722092D01*
X57869186Y-32593154D01*
X58001352Y-32461242D01*
X58135784Y-32327110D01*
X58271725Y-32191517D01*
X58408416Y-32055219D01*
X58545096Y-31918972D01*
X58681008Y-31783534D01*
X58815392Y-31649660D01*
X58947490Y-31518109D01*
X59076542Y-31389636D01*
X59201789Y-31264998D01*
X59322473Y-31144952D01*
X59437834Y-31030254D01*
X59547113Y-30921662D01*
X59649552Y-30819931D01*
X59744391Y-30725820D01*
X59830872Y-30640083D01*
X59908235Y-30563479D01*
X59975722Y-30496763D01*
X60032574Y-30440693D01*
X60078030Y-30396025D01*
X60111334Y-30363516D01*
X60131725Y-30343923D01*
X60138399Y-30337960D01*
X60148117Y-30342596D01*
X60149600Y-30349846D01*
X60156603Y-30345378D01*
X60176878Y-30327606D01*
X60209324Y-30297592D01*
X60252841Y-30256399D01*
X60306329Y-30205087D01*
X60368688Y-30144717D01*
X60438817Y-30076352D01*
X60515616Y-30001053D01*
X60597984Y-29919881D01*
X60684822Y-29833898D01*
X60698989Y-29819833D01*
X60786937Y-29732563D01*
X60870889Y-29649406D01*
X60949705Y-29571483D01*
X61022244Y-29499916D01*
X61087365Y-29435824D01*
X61143928Y-29380328D01*
X61190792Y-29334550D01*
X61226816Y-29299611D01*
X61250859Y-29276630D01*
X61261781Y-29266730D01*
X61262158Y-29266473D01*
X61278888Y-29263671D01*
X61300230Y-29272463D01*
X61327137Y-29293842D01*
X61360564Y-29328804D01*
X61401466Y-29378343D01*
X61450798Y-29443453D01*
X61506788Y-29521268D01*
X61683362Y-29787406D01*
X61841541Y-30060406D01*
X61981763Y-30341281D01*
X62104469Y-30631049D01*
X62210099Y-30930721D01*
X62299090Y-31241315D01*
X62354520Y-31478920D01*
X62399313Y-31728037D01*
X62431178Y-31988762D01*
X62450084Y-32257002D01*
X62456001Y-32528661D01*
X63702480Y-32528661D01*
X63702339Y-32489327D01*
X63699696Y-32379661D01*
X63694993Y-32262462D01*
X63688459Y-32141066D01*
X63680323Y-32018811D01*
X63670815Y-31899033D01*
X63660164Y-31785066D01*
X63648600Y-31680249D01*
X63636351Y-31587917D01*
X63623648Y-31511405D01*
X63619158Y-31489083D01*
X63611491Y-31449522D01*
X63606040Y-31414549D01*
X63604000Y-31392025D01*
X63601773Y-31372776D01*
X63595674Y-31338284D01*
X63586574Y-31293062D01*
X63575348Y-31241627D01*
X63572572Y-31229461D01*
X63560194Y-31174887D01*
X63548797Y-31123250D01*
X63539538Y-31079893D01*
X63533577Y-31050154D01*
X63533025Y-31047120D01*
X63525184Y-31009651D01*
X63511986Y-30955610D01*
X63493255Y-30884330D01*
X63468815Y-30795146D01*
X63438491Y-30687391D01*
X63430988Y-30661040D01*
X63418431Y-30620035D01*
X63399639Y-30562801D01*
X63375570Y-30492110D01*
X63347185Y-30410736D01*
X63315444Y-30321453D01*
X63281307Y-30227032D01*
X63270977Y-30198760D01*
X63245509Y-30132680D01*
X63212076Y-30051418D01*
X63171936Y-29957898D01*
X63126346Y-29855043D01*
X63076564Y-29745776D01*
X63069917Y-29731400D01*
X63052340Y-29695426D01*
X63026849Y-29645874D01*
X62995642Y-29586795D01*
X62960913Y-29522236D01*
X62924859Y-29456248D01*
X62889676Y-29392881D01*
X62857560Y-29336182D01*
X62830707Y-29290203D01*
X62830250Y-29289440D01*
X62804868Y-29246692D01*
X62779401Y-29203207D01*
X62758723Y-29167316D01*
X62755962Y-29162440D01*
X62740755Y-29137067D01*
X62716709Y-29098825D01*
X62686365Y-29051676D01*
X62652269Y-28999583D01*
X62625490Y-28959240D01*
X62417419Y-28665997D01*
X62300935Y-28520035D01*
X60551795Y-28520035D01*
X60550972Y-28542020D01*
X60542372Y-28561966D01*
X60533300Y-28572072D01*
X60510748Y-28595590D01*
X60475632Y-28631598D01*
X60428871Y-28679170D01*
X60371382Y-28737382D01*
X60304082Y-28805310D01*
X60227890Y-28882028D01*
X60143722Y-28966612D01*
X60052498Y-29058138D01*
X59955134Y-29155682D01*
X59852548Y-29258318D01*
X59745657Y-29365122D01*
X59693238Y-29417449D01*
X59568706Y-29541883D01*
X59452535Y-29658275D01*
X59345294Y-29766047D01*
X59247550Y-29864620D01*
X59159871Y-29953415D01*
X59082824Y-30031852D01*
X59016975Y-30099353D01*
X58962894Y-30155338D01*
X58921147Y-30199229D01*
X58892302Y-30230447D01*
X58876925Y-30248412D01*
X58874590Y-30252844D01*
X58888085Y-30259805D01*
X58889760Y-30263545D01*
X58882829Y-30272727D01*
X58863620Y-30293523D01*
X58834516Y-30323473D01*
X58797897Y-30360119D01*
X58765300Y-30392106D01*
X58746066Y-30411003D01*
X58713178Y-30443529D01*
X58667366Y-30488956D01*
X58609358Y-30546560D01*
X58539884Y-30615615D01*
X58459673Y-30695394D01*
X58369453Y-30785171D01*
X58269954Y-30884221D01*
X58161905Y-30991817D01*
X58046035Y-31107234D01*
X57923073Y-31229745D01*
X57793748Y-31358625D01*
X57658789Y-31493148D01*
X57518925Y-31632587D01*
X57374885Y-31776217D01*
X57227398Y-31923311D01*
X57095115Y-32055266D01*
X56947030Y-32202970D01*
X56802752Y-32346827D01*
X56662941Y-32486183D01*
X56528256Y-32620382D01*
X56399356Y-32748767D01*
X56276902Y-32870683D01*
X56161552Y-32985474D01*
X56053967Y-33092485D01*
X55954806Y-33191060D01*
X55864729Y-33280543D01*
X55784395Y-33360279D01*
X55714464Y-33429611D01*
X55655596Y-33487884D01*
X55608450Y-33534443D01*
X55573686Y-33568631D01*
X55551963Y-33589793D01*
X55543941Y-33597273D01*
X55543920Y-33597280D01*
X55537318Y-33589027D01*
X55535165Y-33581882D01*
X55533030Y-33581687D01*
X55527132Y-33585410D01*
X55516959Y-33593553D01*
X55502000Y-33606620D01*
X55481744Y-33625112D01*
X55455680Y-33649532D01*
X55423296Y-33680382D01*
X55384081Y-33718165D01*
X55337523Y-33763383D01*
X55283112Y-33816538D01*
X55220337Y-33878132D01*
X55148685Y-33948669D01*
X55067645Y-34028650D01*
X54976708Y-34118577D01*
X54875360Y-34218954D01*
X54763090Y-34330282D01*
X54639389Y-34453064D01*
X54503743Y-34587802D01*
X54355642Y-34734999D01*
X54194575Y-34895156D01*
X54020030Y-35068777D01*
X53875800Y-35212278D01*
X53778959Y-35308535D01*
X53695461Y-35391282D01*
X53624343Y-35461440D01*
X53564641Y-35519927D01*
X53515392Y-35567664D01*
X53475631Y-35605570D01*
X53444396Y-35634565D01*
X53420723Y-35655569D01*
X53403649Y-35669502D01*
X53392209Y-35677284D01*
X53386059Y-35679771D01*
X53376452Y-35676315D01*
X53360659Y-35669389D01*
X53342959Y-35655324D01*
X53316155Y-35626149D01*
X53281812Y-35584045D01*
X53241498Y-35531194D01*
X53196779Y-35469777D01*
X53149222Y-35401977D01*
X53100393Y-35329976D01*
X53051860Y-35255953D01*
X53005189Y-35182093D01*
X52974338Y-35131440D01*
X52946306Y-35082965D01*
X52911779Y-35020692D01*
X52872819Y-34948577D01*
X52831487Y-34870576D01*
X52789845Y-34790645D01*
X52749954Y-34712740D01*
X52713876Y-34640817D01*
X52683673Y-34578833D01*
X52661962Y-34532000D01*
X52594398Y-34368908D01*
X52529180Y-34190491D01*
X52467755Y-34001720D01*
X52411569Y-33807571D01*
X52362069Y-33613015D01*
X52320701Y-33423029D01*
X52291125Y-33256920D01*
X52255837Y-32982844D01*
X52234825Y-32705219D01*
X52228104Y-32427792D01*
X52235689Y-32154310D01*
X52257594Y-31888521D01*
X52284913Y-31687200D01*
X52292224Y-31641359D01*
X52300631Y-31587992D01*
X52307334Y-31544960D01*
X52321465Y-31465937D01*
X52341424Y-31371993D01*
X52366116Y-31267309D01*
X52394444Y-31156068D01*
X52425310Y-31042452D01*
X52457619Y-30930642D01*
X52490273Y-30824821D01*
X52518482Y-30739803D01*
X52552226Y-30648057D01*
X52593882Y-30544399D01*
X52641621Y-30432723D01*
X52693617Y-30316927D01*
X52748044Y-30200906D01*
X52803073Y-30088555D01*
X52856879Y-29983770D01*
X52907634Y-29890448D01*
X52952834Y-29813575D01*
X53117566Y-29561205D01*
X53288629Y-29326200D01*
X53468156Y-29106046D01*
X53658282Y-28898227D01*
X53861138Y-28700226D01*
X54007880Y-28569533D01*
X54245949Y-28376819D01*
X54491871Y-28201423D01*
X54747961Y-28041879D01*
X55016533Y-27896719D01*
X55227080Y-27796614D01*
X55433198Y-27710148D01*
X55650658Y-27630512D01*
X55874691Y-27559077D01*
X56100523Y-27497211D01*
X56323382Y-27446285D01*
X56538497Y-27407669D01*
X56624080Y-27395619D01*
X56723753Y-27383319D01*
X56812620Y-27373657D01*
X56895567Y-27366339D01*
X56977483Y-27361073D01*
X57063253Y-27357567D01*
X57157765Y-27355529D01*
X57265906Y-27354665D01*
X57309880Y-27354585D01*
X57461997Y-27355661D01*
X57599287Y-27359403D01*
X57726753Y-27366316D01*
X57849396Y-27376903D01*
X57972221Y-27391666D01*
X58100229Y-27411107D01*
X58238424Y-27435731D01*
X58365719Y-27460723D01*
X58668142Y-27532375D01*
X58967105Y-27623963D01*
X59262238Y-27735337D01*
X59553174Y-27866350D01*
X59839543Y-28016854D01*
X60032760Y-28131046D01*
X60113641Y-28182203D01*
X60193246Y-28234711D01*
X60269620Y-28287105D01*
X60340810Y-28337922D01*
X60404861Y-28385695D01*
X60459818Y-28428960D01*
X60503726Y-28466253D01*
X60534631Y-28496108D01*
X60550579Y-28517061D01*
X60551795Y-28520035D01*
X62300935Y-28520035D01*
X62193798Y-28385787D01*
X61954961Y-28118967D01*
X61701239Y-27865895D01*
X61432967Y-27626930D01*
X61244530Y-27474332D01*
X60978495Y-27277102D01*
X60708063Y-27096907D01*
X60430825Y-26932449D01*
X60144374Y-26782433D01*
X59846302Y-26645560D01*
X59534200Y-26520535D01*
X59352040Y-26455090D01*
X59265771Y-26426754D01*
X59166487Y-26396598D01*
X59058727Y-26365814D01*
X58947029Y-26335593D01*
X58835929Y-26307128D01*
X58729965Y-26281610D01*
X58633674Y-26260231D01*
X58551595Y-26244184D01*
X58544320Y-26242914D01*
X58505577Y-26236075D01*
X58454718Y-26226868D01*
X58399590Y-26216720D01*
X58366520Y-26210548D01*
X58324942Y-26202934D01*
X58286120Y-26196366D01*
X58246751Y-26190437D01*
X58203535Y-26184737D01*
X58153171Y-26178855D01*
X58092358Y-26172384D01*
X58017794Y-26164913D01*
X57929640Y-26156365D01*
X57767144Y-26142292D01*
X57616123Y-26132686D01*
X57468310Y-26127190D01*
X57315442Y-26125446D01*
X57226479Y-26125954D01*
X57226479Y-26125954D01*
G37*
X57226479Y-26125954D02*
X56867526Y-26139718D01*
X56512306Y-26173023D01*
X56161534Y-26225707D01*
X55815926Y-26297608D01*
X55476199Y-26388563D01*
X55143070Y-26498409D01*
X54817253Y-26626984D01*
X54612400Y-26719261D01*
X54523946Y-26761372D01*
X54445831Y-26799305D01*
X54375048Y-26834739D01*
X54308591Y-26869351D01*
X54243454Y-26904817D01*
X54176631Y-26942817D01*
X54105115Y-26985027D01*
X54025900Y-27033124D01*
X53935979Y-27088786D01*
X53832346Y-27153691D01*
X53820850Y-27160920D01*
X53777701Y-27189230D01*
X53722196Y-27227412D01*
X53657981Y-27272806D01*
X53588698Y-27322757D01*
X53517993Y-27374607D01*
X53449508Y-27425701D01*
X53386889Y-27473380D01*
X53333779Y-27514988D01*
X53320097Y-27526010D01*
X53177977Y-27645731D01*
X53034282Y-27774877D01*
X52891389Y-27910929D01*
X52751676Y-28051369D01*
X52617521Y-28193677D01*
X52491300Y-28335335D01*
X52375391Y-28473824D01*
X52272172Y-28606626D01*
X52187810Y-28725560D01*
X52160655Y-28765079D01*
X52132993Y-28803817D01*
X52110255Y-28834186D01*
X52107788Y-28837320D01*
X52089748Y-28861960D01*
X52064532Y-28898963D01*
X52035491Y-28943306D01*
X52006128Y-28989720D01*
X51974989Y-29039694D01*
X51943019Y-29090681D01*
X51914195Y-29136356D01*
X51894341Y-29167520D01*
X51812224Y-29302611D01*
X51728933Y-29454126D01*
X51644071Y-29622867D01*
X51557244Y-29809638D01*
X51468059Y-30015241D01*
X51415321Y-30142880D01*
X51400190Y-30182174D01*
X51380334Y-30236775D01*
X51357136Y-30302609D01*
X51331979Y-30375601D01*
X51306247Y-30451678D01*
X51281324Y-30526765D01*
X51258592Y-30596790D01*
X51239435Y-30657678D01*
X51230734Y-30686440D01*
X51173184Y-30899338D01*
X51126644Y-31111209D01*
X51116814Y-31163960D01*
X51107670Y-31213289D01*
X51098694Y-31258783D01*
X51091080Y-31294535D01*
X51087016Y-31311280D01*
X51082067Y-31334129D01*
X51075212Y-31372365D01*
X51067247Y-31421235D01*
X51058969Y-31475986D01*
X51056357Y-31494160D01*
X51047969Y-31552701D01*
X51039641Y-31609736D01*
X51032222Y-31659512D01*
X51026562Y-31696276D01*
X51025574Y-31702440D01*
X51022405Y-31728634D01*
X51018453Y-31771814D01*
X51013965Y-31828672D01*
X51009186Y-31895901D01*
X51004363Y-31970193D01*
X50999743Y-32048239D01*
X50999478Y-32052960D01*
X50993888Y-32175262D01*
X50990228Y-32304856D01*
X50988458Y-32438034D01*
X50988539Y-32571093D01*
X50990432Y-32700326D01*
X50994098Y-32822029D01*
X50999498Y-32932496D01*
X51006591Y-33028021D01*
X51010186Y-33063880D01*
X51020398Y-33156121D01*
X51028791Y-33230944D01*
X51035698Y-33291135D01*
X51041454Y-33339481D01*
X51046390Y-33378769D01*
X51050842Y-33411784D01*
X51055141Y-33441315D01*
X51056068Y-33447420D01*
X51063579Y-33496495D01*
X51071771Y-33549997D01*
X51076674Y-33582001D01*
X51097800Y-33702132D01*
X51126300Y-33836860D01*
X51161121Y-33982293D01*
X51201215Y-34134534D01*
X51245529Y-34289691D01*
X51293015Y-34443868D01*
X51342620Y-34593171D01*
X51371311Y-34674240D01*
X51389836Y-34725378D01*
X51407744Y-34774902D01*
X51422829Y-34816704D01*
X51431882Y-34841880D01*
X51449197Y-34887200D01*
X51472788Y-34944863D01*
X51500078Y-35008920D01*
X51528491Y-35073423D01*
X51555452Y-35132425D01*
X51577810Y-35178832D01*
X51599202Y-35222689D01*
X51620718Y-35268787D01*
X51636405Y-35304160D01*
X51653345Y-35340654D01*
X51678800Y-35391123D01*
X51710855Y-35452101D01*
X51747594Y-35520124D01*
X51787103Y-35591726D01*
X51827465Y-35663443D01*
X51866765Y-35731811D01*
X51903089Y-35793364D01*
X51934520Y-35844638D01*
X51939696Y-35852800D01*
X52061398Y-36038097D01*
X52183808Y-36214171D01*
X52304226Y-36377209D01*
X52378687Y-36472560D01*
X52567810Y-36700040D01*
X52758309Y-36910776D01*
X52953662Y-37108234D01*
X53157350Y-37295881D01*
X53372851Y-37477184D01*
X53442780Y-37532783D01*
X53732384Y-37747564D01*
X54031275Y-37944705D01*
X54338826Y-38123919D01*
X54654408Y-38284919D01*
X54977392Y-38427417D01*
X55307150Y-38551124D01*
X55643053Y-38655755D01*
X55984473Y-38741020D01*
X56161800Y-38777198D01*
X56252234Y-38794189D01*
X56325944Y-38807820D01*
X56386157Y-38818603D01*
X56436097Y-38827049D01*
X56478988Y-38833671D01*
X56518056Y-38838979D01*
X56556526Y-38843487D01*
X56597623Y-38847704D01*
X56619000Y-38849755D01*
X56675731Y-38855422D01*
X56735481Y-38861890D01*
X56789074Y-38868145D01*
X56812040Y-38871054D01*
X56845297Y-38874039D01*
X56895987Y-38876750D01*
X56961226Y-38879160D01*
X57038129Y-38881244D01*
X57123811Y-38882978D01*
X57215387Y-38884336D01*
X57309973Y-38885292D01*
X57404683Y-38885823D01*
X57496633Y-38885902D01*
X57582937Y-38885504D01*
X57660712Y-38884604D01*
X57727072Y-38883177D01*
X57779132Y-38881198D01*
X57802640Y-38879708D01*
X57923544Y-38869020D01*
X58048719Y-38855999D01*
X58174595Y-38841139D01*
X58297601Y-38824933D01*
X58414166Y-38807873D01*
X58520719Y-38790452D01*
X58613690Y-38773162D01*
X58681370Y-38758462D01*
X58731858Y-38746564D01*
X58790677Y-38732886D01*
X58846331Y-38720100D01*
X58854200Y-38718310D01*
X59083520Y-38659978D01*
X59322025Y-38587402D01*
X59565892Y-38501949D01*
X59811298Y-38404982D01*
X60054417Y-38297867D01*
X60124200Y-38264979D01*
X60409083Y-38118577D01*
X60691075Y-37953767D01*
X60967479Y-37772459D01*
X61235597Y-37576562D01*
X61492732Y-37367989D01*
X61736185Y-37148648D01*
X61831408Y-37056061D01*
X61926811Y-36960112D01*
X62010409Y-36873442D01*
X62085734Y-36792000D01*
X62156315Y-36711733D01*
X62225685Y-36628590D01*
X62297375Y-36538520D01*
X62374916Y-36437471D01*
X62402882Y-36400370D01*
X62462570Y-36320734D01*
X62511579Y-36254919D01*
X62551574Y-36200607D01*
X62584219Y-36155477D01*
X62611180Y-36117210D01*
X62634120Y-36083487D01*
X62654705Y-36051987D01*
X62668156Y-36030735D01*
X62695228Y-35987706D01*
X62723901Y-35942492D01*
X62748113Y-35904648D01*
X62748789Y-35903600D01*
X62819643Y-35788453D01*
X62894005Y-35657947D01*
X62969800Y-35516256D01*
X63044952Y-35367558D01*
X63117386Y-35216030D01*
X63185027Y-35065848D01*
X63245798Y-34921191D01*
X63278855Y-34836800D01*
X63299411Y-34782627D01*
X63319151Y-34730605D01*
X63336094Y-34685949D01*
X63348262Y-34653878D01*
X63350173Y-34648840D01*
X63365753Y-34605029D01*
X63384886Y-34547011D01*
X63405880Y-34480207D01*
X63427039Y-34410040D01*
X63446671Y-34341932D01*
X63451732Y-34323720D01*
X63465420Y-34274240D01*
X63480043Y-34221774D01*
X63492499Y-34177452D01*
X63492797Y-34176400D01*
X63525522Y-34051841D01*
X63557741Y-33912149D01*
X63588407Y-33762504D01*
X63616473Y-33608085D01*
X63640891Y-33454072D01*
X63645849Y-33419480D01*
X63652070Y-33369688D01*
X63659042Y-33304943D01*
X63666295Y-33230572D01*
X63673359Y-33151906D01*
X63679764Y-33074272D01*
X63685041Y-33003001D01*
X63688720Y-32943421D01*
X63689737Y-32921640D01*
X63691792Y-32871626D01*
X63694465Y-32809048D01*
X63697421Y-32741639D01*
X63700324Y-32677134D01*
X63700526Y-32672720D01*
X63702692Y-32588126D01*
X63702480Y-32528661D01*
X62456001Y-32528661D01*
X62448896Y-32799647D01*
X62428739Y-33065865D01*
X62395500Y-33323221D01*
X62369538Y-33470280D01*
X62335937Y-33626659D01*
X62295064Y-33791533D01*
X62248729Y-33958558D01*
X62198742Y-34121389D01*
X62146912Y-34273683D01*
X62118867Y-34349120D01*
X61993510Y-34647968D01*
X61852090Y-34934466D01*
X61694319Y-35209073D01*
X61519908Y-35472246D01*
X61328568Y-35724445D01*
X61120012Y-35966127D01*
X61064289Y-36025867D01*
X60851280Y-36239716D01*
X60634115Y-36435381D01*
X60410288Y-36614652D01*
X60177290Y-36779320D01*
X59932614Y-36931175D01*
X59673752Y-37072009D01*
X59444422Y-37182685D01*
X59347233Y-37226184D01*
X59257389Y-37264114D01*
X59169048Y-37298706D01*
X59076367Y-37332189D01*
X58973502Y-37366792D01*
X58899920Y-37390463D01*
X58830385Y-37412428D01*
X58771853Y-37430545D01*
X58720458Y-37445809D01*
X58672333Y-37459216D01*
X58623612Y-37471763D01*
X58570428Y-37484445D01*
X58508915Y-37498259D01*
X58435205Y-37514200D01*
X58346200Y-37533103D01*
X58283109Y-37545222D01*
X58204583Y-37558392D01*
X58115437Y-37571953D01*
X58020484Y-37585248D01*
X57924538Y-37597617D01*
X57832413Y-37608401D01*
X57748922Y-37616941D01*
X57707830Y-37620490D01*
X57660371Y-37623029D01*
X57596363Y-37624685D01*
X57519554Y-37625504D01*
X57433694Y-37625535D01*
X57342532Y-37624823D01*
X57249817Y-37623417D01*
X57159297Y-37621362D01*
X57074722Y-37618708D01*
X56999842Y-37615499D01*
X56938404Y-37611785D01*
X56923800Y-37610634D01*
X56822208Y-37600993D01*
X56719875Y-37589323D01*
X56622644Y-37576378D01*
X56536353Y-37562912D01*
X56492000Y-37554847D01*
X56441144Y-37544911D01*
X56380938Y-37533117D01*
X56321968Y-37521541D01*
X56304040Y-37518016D01*
X56205924Y-37496513D01*
X56093778Y-37468151D01*
X55972171Y-37434265D01*
X55845668Y-37396188D01*
X55718836Y-37355256D01*
X55596240Y-37312803D01*
X55572520Y-37304207D01*
X55473156Y-37265555D01*
X55361568Y-37218099D01*
X55242553Y-37164137D01*
X55120907Y-37105964D01*
X55001428Y-37045877D01*
X54888911Y-36986173D01*
X54788154Y-36929147D01*
X54783763Y-36926557D01*
X54710724Y-36882172D01*
X54633823Y-36833285D01*
X54555162Y-36781419D01*
X54476839Y-36728095D01*
X54400955Y-36674836D01*
X54329609Y-36623162D01*
X54264902Y-36574596D01*
X54208932Y-36530659D01*
X54163799Y-36492874D01*
X54131604Y-36462763D01*
X54114446Y-36441846D01*
X54114087Y-36441195D01*
X54109532Y-36415304D01*
X54115365Y-36398900D01*
X54123730Y-36389315D01*
X54145721Y-36366151D01*
X54180577Y-36330179D01*
X54227534Y-36282166D01*
X54285829Y-36222882D01*
X54354701Y-36153097D01*
X54433387Y-36073579D01*
X54521123Y-35985098D01*
X54617148Y-35888423D01*
X54720698Y-35784323D01*
X54831012Y-35673567D01*
X54947326Y-35556924D01*
X55068879Y-35435164D01*
X55194906Y-35309056D01*
X55305465Y-35198534D01*
X55466829Y-35037365D01*
X55614361Y-34890163D01*
X55748538Y-34756463D01*
X55869831Y-34635800D01*
X55978717Y-34527709D01*
X56075669Y-34431726D01*
X56161162Y-34347387D01*
X56235669Y-34274226D01*
X56299666Y-34211779D01*
X56353627Y-34159582D01*
X56398026Y-34117169D01*
X56433337Y-34084076D01*
X56460034Y-34059839D01*
X56478593Y-34043992D01*
X56489487Y-34036072D01*
X56493069Y-34035214D01*
X56501161Y-34039634D01*
X56514607Y-34032070D01*
X56536175Y-34010642D01*
X56546964Y-33998600D01*
X56570744Y-33969865D01*
X56580996Y-33952377D01*
X56579081Y-33943557D01*
X56576649Y-33942324D01*
X56574622Y-33934681D01*
X56586996Y-33917621D01*
X56614589Y-33890157D01*
X56635454Y-33871232D01*
X56670607Y-33838748D01*
X56690432Y-33817191D01*
X56695909Y-33805366D01*
X56692082Y-33802302D01*
X56677327Y-33795601D01*
X56674880Y-33791072D01*
X56681959Y-33783241D01*
X56702690Y-33761841D01*
X56736314Y-33727628D01*
X56782072Y-33681360D01*
X56839205Y-33623792D01*
X56906955Y-33555683D01*
X56984561Y-33477788D01*
X57071265Y-33390864D01*
X57166308Y-33295668D01*
X57268932Y-33192957D01*
X57378376Y-33083487D01*
X57493883Y-32968015D01*
X57614693Y-32847298D01*
X57740047Y-32722092D01*
X57869186Y-32593154D01*
X58001352Y-32461242D01*
X58135784Y-32327110D01*
X58271725Y-32191517D01*
X58408416Y-32055219D01*
X58545096Y-31918972D01*
X58681008Y-31783534D01*
X58815392Y-31649660D01*
X58947490Y-31518109D01*
X59076542Y-31389636D01*
X59201789Y-31264998D01*
X59322473Y-31144952D01*
X59437834Y-31030254D01*
X59547113Y-30921662D01*
X59649552Y-30819931D01*
X59744391Y-30725820D01*
X59830872Y-30640083D01*
X59908235Y-30563479D01*
X59975722Y-30496763D01*
X60032574Y-30440693D01*
X60078030Y-30396025D01*
X60111334Y-30363516D01*
X60131725Y-30343923D01*
X60138399Y-30337960D01*
X60148117Y-30342596D01*
X60149600Y-30349846D01*
X60156603Y-30345378D01*
X60176878Y-30327606D01*
X60209324Y-30297592D01*
X60252841Y-30256399D01*
X60306329Y-30205087D01*
X60368688Y-30144717D01*
X60438817Y-30076352D01*
X60515616Y-30001053D01*
X60597984Y-29919881D01*
X60684822Y-29833898D01*
X60698989Y-29819833D01*
X60786937Y-29732563D01*
X60870889Y-29649406D01*
X60949705Y-29571483D01*
X61022244Y-29499916D01*
X61087365Y-29435824D01*
X61143928Y-29380328D01*
X61190792Y-29334550D01*
X61226816Y-29299611D01*
X61250859Y-29276630D01*
X61261781Y-29266730D01*
X61262158Y-29266473D01*
X61278888Y-29263671D01*
X61300230Y-29272463D01*
X61327137Y-29293842D01*
X61360564Y-29328804D01*
X61401466Y-29378343D01*
X61450798Y-29443453D01*
X61506788Y-29521268D01*
X61683362Y-29787406D01*
X61841541Y-30060406D01*
X61981763Y-30341281D01*
X62104469Y-30631049D01*
X62210099Y-30930721D01*
X62299090Y-31241315D01*
X62354520Y-31478920D01*
X62399313Y-31728037D01*
X62431178Y-31988762D01*
X62450084Y-32257002D01*
X62456001Y-32528661D01*
X63702480Y-32528661D01*
X63702339Y-32489327D01*
X63699696Y-32379661D01*
X63694993Y-32262462D01*
X63688459Y-32141066D01*
X63680323Y-32018811D01*
X63670815Y-31899033D01*
X63660164Y-31785066D01*
X63648600Y-31680249D01*
X63636351Y-31587917D01*
X63623648Y-31511405D01*
X63619158Y-31489083D01*
X63611491Y-31449522D01*
X63606040Y-31414549D01*
X63604000Y-31392025D01*
X63601773Y-31372776D01*
X63595674Y-31338284D01*
X63586574Y-31293062D01*
X63575348Y-31241627D01*
X63572572Y-31229461D01*
X63560194Y-31174887D01*
X63548797Y-31123250D01*
X63539538Y-31079893D01*
X63533577Y-31050154D01*
X63533025Y-31047120D01*
X63525184Y-31009651D01*
X63511986Y-30955610D01*
X63493255Y-30884330D01*
X63468815Y-30795146D01*
X63438491Y-30687391D01*
X63430988Y-30661040D01*
X63418431Y-30620035D01*
X63399639Y-30562801D01*
X63375570Y-30492110D01*
X63347185Y-30410736D01*
X63315444Y-30321453D01*
X63281307Y-30227032D01*
X63270977Y-30198760D01*
X63245509Y-30132680D01*
X63212076Y-30051418D01*
X63171936Y-29957898D01*
X63126346Y-29855043D01*
X63076564Y-29745776D01*
X63069917Y-29731400D01*
X63052340Y-29695426D01*
X63026849Y-29645874D01*
X62995642Y-29586795D01*
X62960913Y-29522236D01*
X62924859Y-29456248D01*
X62889676Y-29392881D01*
X62857560Y-29336182D01*
X62830707Y-29290203D01*
X62830250Y-29289440D01*
X62804868Y-29246692D01*
X62779401Y-29203207D01*
X62758723Y-29167316D01*
X62755962Y-29162440D01*
X62740755Y-29137067D01*
X62716709Y-29098825D01*
X62686365Y-29051676D01*
X62652269Y-28999583D01*
X62625490Y-28959240D01*
X62417419Y-28665997D01*
X62300935Y-28520035D01*
X60551795Y-28520035D01*
X60550972Y-28542020D01*
X60542372Y-28561966D01*
X60533300Y-28572072D01*
X60510748Y-28595590D01*
X60475632Y-28631598D01*
X60428871Y-28679170D01*
X60371382Y-28737382D01*
X60304082Y-28805310D01*
X60227890Y-28882028D01*
X60143722Y-28966612D01*
X60052498Y-29058138D01*
X59955134Y-29155682D01*
X59852548Y-29258318D01*
X59745657Y-29365122D01*
X59693238Y-29417449D01*
X59568706Y-29541883D01*
X59452535Y-29658275D01*
X59345294Y-29766047D01*
X59247550Y-29864620D01*
X59159871Y-29953415D01*
X59082824Y-30031852D01*
X59016975Y-30099353D01*
X58962894Y-30155338D01*
X58921147Y-30199229D01*
X58892302Y-30230447D01*
X58876925Y-30248412D01*
X58874590Y-30252844D01*
X58888085Y-30259805D01*
X58889760Y-30263545D01*
X58882829Y-30272727D01*
X58863620Y-30293523D01*
X58834516Y-30323473D01*
X58797897Y-30360119D01*
X58765300Y-30392106D01*
X58746066Y-30411003D01*
X58713178Y-30443529D01*
X58667366Y-30488956D01*
X58609358Y-30546560D01*
X58539884Y-30615615D01*
X58459673Y-30695394D01*
X58369453Y-30785171D01*
X58269954Y-30884221D01*
X58161905Y-30991817D01*
X58046035Y-31107234D01*
X57923073Y-31229745D01*
X57793748Y-31358625D01*
X57658789Y-31493148D01*
X57518925Y-31632587D01*
X57374885Y-31776217D01*
X57227398Y-31923311D01*
X57095115Y-32055266D01*
X56947030Y-32202970D01*
X56802752Y-32346827D01*
X56662941Y-32486183D01*
X56528256Y-32620382D01*
X56399356Y-32748767D01*
X56276902Y-32870683D01*
X56161552Y-32985474D01*
X56053967Y-33092485D01*
X55954806Y-33191060D01*
X55864729Y-33280543D01*
X55784395Y-33360279D01*
X55714464Y-33429611D01*
X55655596Y-33487884D01*
X55608450Y-33534443D01*
X55573686Y-33568631D01*
X55551963Y-33589793D01*
X55543941Y-33597273D01*
X55543920Y-33597280D01*
X55537318Y-33589027D01*
X55535165Y-33581882D01*
X55533030Y-33581687D01*
X55527132Y-33585410D01*
X55516959Y-33593553D01*
X55502000Y-33606620D01*
X55481744Y-33625112D01*
X55455680Y-33649532D01*
X55423296Y-33680382D01*
X55384081Y-33718165D01*
X55337523Y-33763383D01*
X55283112Y-33816538D01*
X55220337Y-33878132D01*
X55148685Y-33948669D01*
X55067645Y-34028650D01*
X54976708Y-34118577D01*
X54875360Y-34218954D01*
X54763090Y-34330282D01*
X54639389Y-34453064D01*
X54503743Y-34587802D01*
X54355642Y-34734999D01*
X54194575Y-34895156D01*
X54020030Y-35068777D01*
X53875800Y-35212278D01*
X53778959Y-35308535D01*
X53695461Y-35391282D01*
X53624343Y-35461440D01*
X53564641Y-35519927D01*
X53515392Y-35567664D01*
X53475631Y-35605570D01*
X53444396Y-35634565D01*
X53420723Y-35655569D01*
X53403649Y-35669502D01*
X53392209Y-35677284D01*
X53386059Y-35679771D01*
X53376452Y-35676315D01*
X53360659Y-35669389D01*
X53342959Y-35655324D01*
X53316155Y-35626149D01*
X53281812Y-35584045D01*
X53241498Y-35531194D01*
X53196779Y-35469777D01*
X53149222Y-35401977D01*
X53100393Y-35329976D01*
X53051860Y-35255953D01*
X53005189Y-35182093D01*
X52974338Y-35131440D01*
X52946306Y-35082965D01*
X52911779Y-35020692D01*
X52872819Y-34948577D01*
X52831487Y-34870576D01*
X52789845Y-34790645D01*
X52749954Y-34712740D01*
X52713876Y-34640817D01*
X52683673Y-34578833D01*
X52661962Y-34532000D01*
X52594398Y-34368908D01*
X52529180Y-34190491D01*
X52467755Y-34001720D01*
X52411569Y-33807571D01*
X52362069Y-33613015D01*
X52320701Y-33423029D01*
X52291125Y-33256920D01*
X52255837Y-32982844D01*
X52234825Y-32705219D01*
X52228104Y-32427792D01*
X52235689Y-32154310D01*
X52257594Y-31888521D01*
X52284913Y-31687200D01*
X52292224Y-31641359D01*
X52300631Y-31587992D01*
X52307334Y-31544960D01*
X52321465Y-31465937D01*
X52341424Y-31371993D01*
X52366116Y-31267309D01*
X52394444Y-31156068D01*
X52425310Y-31042452D01*
X52457619Y-30930642D01*
X52490273Y-30824821D01*
X52518482Y-30739803D01*
X52552226Y-30648057D01*
X52593882Y-30544399D01*
X52641621Y-30432723D01*
X52693617Y-30316927D01*
X52748044Y-30200906D01*
X52803073Y-30088555D01*
X52856879Y-29983770D01*
X52907634Y-29890448D01*
X52952834Y-29813575D01*
X53117566Y-29561205D01*
X53288629Y-29326200D01*
X53468156Y-29106046D01*
X53658282Y-28898227D01*
X53861138Y-28700226D01*
X54007880Y-28569533D01*
X54245949Y-28376819D01*
X54491871Y-28201423D01*
X54747961Y-28041879D01*
X55016533Y-27896719D01*
X55227080Y-27796614D01*
X55433198Y-27710148D01*
X55650658Y-27630512D01*
X55874691Y-27559077D01*
X56100523Y-27497211D01*
X56323382Y-27446285D01*
X56538497Y-27407669D01*
X56624080Y-27395619D01*
X56723753Y-27383319D01*
X56812620Y-27373657D01*
X56895567Y-27366339D01*
X56977483Y-27361073D01*
X57063253Y-27357567D01*
X57157765Y-27355529D01*
X57265906Y-27354665D01*
X57309880Y-27354585D01*
X57461997Y-27355661D01*
X57599287Y-27359403D01*
X57726753Y-27366316D01*
X57849396Y-27376903D01*
X57972221Y-27391666D01*
X58100229Y-27411107D01*
X58238424Y-27435731D01*
X58365719Y-27460723D01*
X58668142Y-27532375D01*
X58967105Y-27623963D01*
X59262238Y-27735337D01*
X59553174Y-27866350D01*
X59839543Y-28016854D01*
X60032760Y-28131046D01*
X60113641Y-28182203D01*
X60193246Y-28234711D01*
X60269620Y-28287105D01*
X60340810Y-28337922D01*
X60404861Y-28385695D01*
X60459818Y-28428960D01*
X60503726Y-28466253D01*
X60534631Y-28496108D01*
X60550579Y-28517061D01*
X60551795Y-28520035D01*
X62300935Y-28520035D01*
X62193798Y-28385787D01*
X61954961Y-28118967D01*
X61701239Y-27865895D01*
X61432967Y-27626930D01*
X61244530Y-27474332D01*
X60978495Y-27277102D01*
X60708063Y-27096907D01*
X60430825Y-26932449D01*
X60144374Y-26782433D01*
X59846302Y-26645560D01*
X59534200Y-26520535D01*
X59352040Y-26455090D01*
X59265771Y-26426754D01*
X59166487Y-26396598D01*
X59058727Y-26365814D01*
X58947029Y-26335593D01*
X58835929Y-26307128D01*
X58729965Y-26281610D01*
X58633674Y-26260231D01*
X58551595Y-26244184D01*
X58544320Y-26242914D01*
X58505577Y-26236075D01*
X58454718Y-26226868D01*
X58399590Y-26216720D01*
X58366520Y-26210548D01*
X58324942Y-26202934D01*
X58286120Y-26196366D01*
X58246751Y-26190437D01*
X58203535Y-26184737D01*
X58153171Y-26178855D01*
X58092358Y-26172384D01*
X58017794Y-26164913D01*
X57929640Y-26156365D01*
X57767144Y-26142292D01*
X57616123Y-26132686D01*
X57468310Y-26127190D01*
X57315442Y-26125446D01*
X57226479Y-26125954D01*
G04 #@! TD*
M02*
