M48
;DRILL file {KiCad 5.0.1-33cea8e~68~ubuntu18.04.1} date Sat 24 Nov 2018 11:55:27 PM PST
;FORMAT={-:-/ absolute / inch / decimal}
FMAT,2
INCH,TZ
T1C0.0118
T2C0.0197
T3C0.0315
T4C0.0374
T5C0.0394
T6C0.0866
%
G90
G05
M72
T1
X2.3681Y-1.2638
X2.3858Y-1.2461
X2.3858Y-1.2638
X2.3858Y-1.2815
X2.4035Y-1.2638
T2
X0.2165Y-0.185
X0.2165Y-1.5236
X0.2559Y-0.4567
X0.3701Y-1.437
X0.3897Y-1.2539
X0.4331Y-0.8268
X0.437Y-0.9724
X0.4921Y-0.3858
X0.5118Y-0.9055
X0.621Y-0.5724
X0.6255Y-0.8396
X0.6496Y-0.0669
X0.6732Y-1.3346
X0.6978Y-1.0763
X0.7035Y-0.9488
X0.7087Y-0.3661
X0.7953Y-1.3583
X0.8228Y-0.7527
X0.8622Y-0.9528
X0.8661Y-0.8701
X0.8819Y-0.6535
X0.8911Y-0.5394
X0.9134Y-1.3071
X0.9243Y-1.2264
X0.9422Y-0.5237
X0.9528Y-0.626
X0.9567Y-1.0591
X0.9823Y-0.9587
X1.0236Y-0.3701
X1.0472Y-0.8661
X1.0827Y-1.1811
X1.0975Y-1.3178
X1.2008Y-0.6299
X1.2165Y-1.1732
X1.3267Y-1.4891
X1.4724Y-0.9528
X1.5354Y-1.1732
X1.5472Y-0.6535
X1.5501Y-1.2284
X1.5581Y-1.4446
X1.567Y-1.3779
X1.6063Y-1.2244
X1.6102Y-0.437
X1.626Y-1.374
X1.6485Y-0.893
X1.6654Y-1.1102
X1.6918Y-0.9272
X1.7126Y-1.252
X1.7229Y-1.1065
X1.7457Y-0.9158
X1.7756Y-0.5591
X1.7863Y-1.0663
X1.7876Y-1.5541
X1.8622Y-0.3583
X1.8701Y-0.2795
X1.9843Y-1.
X2.0236Y-1.1654
X2.0315Y-1.3553
X2.0517Y-0.9884
X2.0661Y-1.138
X2.0686Y-1.0909
X2.0805Y-1.0259
X2.1417Y-0.8504
X2.1902Y-1.0079
X2.2717Y-1.0197
X2.2756Y-1.248
X2.2784Y-1.5303
X2.3307Y-0.9843
X2.3563Y-1.0276
X2.4173Y-0.4213
X2.4388Y-1.0661
X2.4421Y-0.9897
X2.4777Y-0.9541
X2.4921Y-1.3041
X2.508Y-1.0679
X2.7008Y-0.0551
X2.7717Y-1.6732
T3
X2.3803Y-0.2906
X2.3803Y-0.5906
X2.4803Y-0.2906
X2.4803Y-0.5906
X1.1457Y-1.6535
X1.2457Y-1.6535
X1.3457Y-1.6535
X0.3276Y-1.6535
X0.4276Y-1.6535
X0.5276Y-1.6535
X2.126Y-0.2906
X2.126Y-0.5906
X2.226Y-0.2906
X2.226Y-0.5906
X0.7362Y-1.6535
X0.8362Y-1.6535
X0.9362Y-1.6535
T4
X1.9173Y-1.6535
X2.0157Y-1.6535
X2.1142Y-1.6535
X2.2126Y-1.6535
X0.1181Y-0.374
X0.1181Y-0.4724
X0.1181Y-0.5709
X0.1181Y-0.8858
X0.1181Y-0.9843
X0.1181Y-1.0827
X0.1181Y-1.1811
X0.1181Y-1.2795
X0.1181Y-1.378
X1.2008Y-0.1181
X1.2992Y-0.1181
X1.3976Y-0.1181
X1.4961Y-0.1181
T5
X2.6969Y-1.1024
X2.6969Y-1.2024
X2.6969Y-1.3024
X2.6969Y-1.4024
X2.6969Y-1.5024
X2.7969Y-1.1024
X2.7969Y-1.2024
X2.7969Y-1.3024
X2.7969Y-1.4024
X2.7969Y-1.5024
X1.752Y-0.1181
X1.8504Y-0.1181
X2.6969Y-0.2346
X2.6969Y-0.3346
X2.6969Y-0.4346
X2.6969Y-0.5346
X2.6969Y-0.6346
X2.7969Y-0.2346
X2.7969Y-0.3346
X2.7969Y-0.4346
X2.7969Y-0.5346
X2.7969Y-0.6346
X2.1063Y-0.1181
X2.2047Y-0.1181
X1.5709Y-1.6535
X1.6693Y-1.6535
T6
X0.1181Y-1.6535
X0.1181Y-0.1181
X2.4409Y-0.1181
X2.4409Y-1.6535
T0
M30
