M48
;DRILL file {KiCad 5.0.1-33cea8e~67~ubuntu18.04.1} date Tue 23 Oct 2018 05:06:27 PM PDT
;FORMAT={-:-/ absolute / inch / decimal}
FMAT,2
INCH,TZ
T1C0.0197
T2C0.0394
%
G90
G05
M72
T1
X0.3228Y-0.9016
X0.4155Y-0.701
X0.4646Y-0.5512
X0.5079Y-1.2864
X0.5709Y-1.0472
X0.6299Y-0.685
X0.689Y-1.1496
X0.8268Y-1.2864
X0.9016Y-0.3504
X0.9321Y-0.6614
X1.0551Y-0.4803
X1.1476Y-1.2874
T2
X1.2205Y-0.6693
X1.2205Y-0.7693
X1.2205Y-0.8693
X1.2205Y-0.9693
X0.1575Y-0.1969
X0.1575Y-0.2969
X0.1575Y-0.6693
X0.1575Y-0.7693
X0.1575Y-0.8693
X0.1575Y-0.9693
T0
M30
