G04 #@! TF.GenerationSoftware,KiCad,Pcbnew,6.0.0-rc1-unknown-179dfa0~84~ubuntu18.04.1*
G04 #@! TF.CreationDate,2019-04-16T21:03:25-07:00
G04 #@! TF.ProjectId,big_battery_v3,6269675f-6261-4747-9465-72795f76332e,rev?*
G04 #@! TF.SameCoordinates,Original*
G04 #@! TF.FileFunction,Copper,L2,Bot*
G04 #@! TF.FilePolarity,Positive*
%FSLAX46Y46*%
G04 Gerber Fmt 4.6, Leading zero omitted, Abs format (unit mm)*
G04 Created by KiCad (PCBNEW 6.0.0-rc1-unknown-179dfa0~84~ubuntu18.04.1) date Tue 16 Apr 2019 09:03:25 PM PDT*
%MOMM*%
%LPD*%
G04 APERTURE LIST*
%ADD10R,2.800000X2.800000*%
%ADD11C,0.600000*%
%ADD12C,0.100000*%
%ADD13C,1.700000*%
%ADD14O,1.700000X2.000000*%
%ADD15O,1.600000X1.600000*%
%ADD16R,1.600000X1.600000*%
%ADD17O,1.950000X1.700000*%
%ADD18O,1.700000X1.950000*%
%ADD19R,1.700000X1.700000*%
%ADD20C,1.440000*%
%ADD21C,1.000000*%
%ADD22C,0.250000*%
%ADD23C,0.254000*%
G04 APERTURE END LIST*
D10*
X60600000Y-32100000D03*
D11*
X60150000Y-32100000D03*
X60600000Y-31650000D03*
X60600000Y-32100000D03*
X60600000Y-32550000D03*
X61050000Y-32100000D03*
D12*
G36*
X40524504Y-41001204D02*
G01*
X40548773Y-41004804D01*
X40572571Y-41010765D01*
X40595671Y-41019030D01*
X40617849Y-41029520D01*
X40638893Y-41042133D01*
X40658598Y-41056747D01*
X40676777Y-41073223D01*
X40693253Y-41091402D01*
X40707867Y-41111107D01*
X40720480Y-41132151D01*
X40730970Y-41154329D01*
X40739235Y-41177429D01*
X40745196Y-41201227D01*
X40748796Y-41225496D01*
X40750000Y-41250000D01*
X40750000Y-42750000D01*
X40748796Y-42774504D01*
X40745196Y-42798773D01*
X40739235Y-42822571D01*
X40730970Y-42845671D01*
X40720480Y-42867849D01*
X40707867Y-42888893D01*
X40693253Y-42908598D01*
X40676777Y-42926777D01*
X40658598Y-42943253D01*
X40638893Y-42957867D01*
X40617849Y-42970480D01*
X40595671Y-42980970D01*
X40572571Y-42989235D01*
X40548773Y-42995196D01*
X40524504Y-42998796D01*
X40500000Y-43000000D01*
X39300000Y-43000000D01*
X39275496Y-42998796D01*
X39251227Y-42995196D01*
X39227429Y-42989235D01*
X39204329Y-42980970D01*
X39182151Y-42970480D01*
X39161107Y-42957867D01*
X39141402Y-42943253D01*
X39123223Y-42926777D01*
X39106747Y-42908598D01*
X39092133Y-42888893D01*
X39079520Y-42867849D01*
X39069030Y-42845671D01*
X39060765Y-42822571D01*
X39054804Y-42798773D01*
X39051204Y-42774504D01*
X39050000Y-42750000D01*
X39050000Y-41250000D01*
X39051204Y-41225496D01*
X39054804Y-41201227D01*
X39060765Y-41177429D01*
X39069030Y-41154329D01*
X39079520Y-41132151D01*
X39092133Y-41111107D01*
X39106747Y-41091402D01*
X39123223Y-41073223D01*
X39141402Y-41056747D01*
X39161107Y-41042133D01*
X39182151Y-41029520D01*
X39204329Y-41019030D01*
X39227429Y-41010765D01*
X39251227Y-41004804D01*
X39275496Y-41001204D01*
X39300000Y-41000000D01*
X40500000Y-41000000D01*
X40524504Y-41001204D01*
X40524504Y-41001204D01*
G37*
D13*
X39900000Y-42000000D03*
D14*
X42400000Y-42000000D03*
X53500000Y-3000000D03*
D12*
G36*
X56624504Y-2001204D02*
G01*
X56648773Y-2004804D01*
X56672571Y-2010765D01*
X56695671Y-2019030D01*
X56717849Y-2029520D01*
X56738893Y-2042133D01*
X56758598Y-2056747D01*
X56776777Y-2073223D01*
X56793253Y-2091402D01*
X56807867Y-2111107D01*
X56820480Y-2132151D01*
X56830970Y-2154329D01*
X56839235Y-2177429D01*
X56845196Y-2201227D01*
X56848796Y-2225496D01*
X56850000Y-2250000D01*
X56850000Y-3750000D01*
X56848796Y-3774504D01*
X56845196Y-3798773D01*
X56839235Y-3822571D01*
X56830970Y-3845671D01*
X56820480Y-3867849D01*
X56807867Y-3888893D01*
X56793253Y-3908598D01*
X56776777Y-3926777D01*
X56758598Y-3943253D01*
X56738893Y-3957867D01*
X56717849Y-3970480D01*
X56695671Y-3980970D01*
X56672571Y-3989235D01*
X56648773Y-3995196D01*
X56624504Y-3998796D01*
X56600000Y-4000000D01*
X55400000Y-4000000D01*
X55375496Y-3998796D01*
X55351227Y-3995196D01*
X55327429Y-3989235D01*
X55304329Y-3980970D01*
X55282151Y-3970480D01*
X55261107Y-3957867D01*
X55241402Y-3943253D01*
X55223223Y-3926777D01*
X55206747Y-3908598D01*
X55192133Y-3888893D01*
X55179520Y-3867849D01*
X55169030Y-3845671D01*
X55160765Y-3822571D01*
X55154804Y-3798773D01*
X55151204Y-3774504D01*
X55150000Y-3750000D01*
X55150000Y-2250000D01*
X55151204Y-2225496D01*
X55154804Y-2201227D01*
X55160765Y-2177429D01*
X55169030Y-2154329D01*
X55179520Y-2132151D01*
X55192133Y-2111107D01*
X55206747Y-2091402D01*
X55223223Y-2073223D01*
X55241402Y-2056747D01*
X55261107Y-2042133D01*
X55282151Y-2029520D01*
X55304329Y-2019030D01*
X55327429Y-2010765D01*
X55351227Y-2004804D01*
X55375496Y-2001204D01*
X55400000Y-2000000D01*
X56600000Y-2000000D01*
X56624504Y-2001204D01*
X56624504Y-2001204D01*
G37*
D13*
X56000000Y-3000000D03*
D12*
G36*
X47624504Y-2001204D02*
G01*
X47648773Y-2004804D01*
X47672571Y-2010765D01*
X47695671Y-2019030D01*
X47717849Y-2029520D01*
X47738893Y-2042133D01*
X47758598Y-2056747D01*
X47776777Y-2073223D01*
X47793253Y-2091402D01*
X47807867Y-2111107D01*
X47820480Y-2132151D01*
X47830970Y-2154329D01*
X47839235Y-2177429D01*
X47845196Y-2201227D01*
X47848796Y-2225496D01*
X47850000Y-2250000D01*
X47850000Y-3750000D01*
X47848796Y-3774504D01*
X47845196Y-3798773D01*
X47839235Y-3822571D01*
X47830970Y-3845671D01*
X47820480Y-3867849D01*
X47807867Y-3888893D01*
X47793253Y-3908598D01*
X47776777Y-3926777D01*
X47758598Y-3943253D01*
X47738893Y-3957867D01*
X47717849Y-3970480D01*
X47695671Y-3980970D01*
X47672571Y-3989235D01*
X47648773Y-3995196D01*
X47624504Y-3998796D01*
X47600000Y-4000000D01*
X46400000Y-4000000D01*
X46375496Y-3998796D01*
X46351227Y-3995196D01*
X46327429Y-3989235D01*
X46304329Y-3980970D01*
X46282151Y-3970480D01*
X46261107Y-3957867D01*
X46241402Y-3943253D01*
X46223223Y-3926777D01*
X46206747Y-3908598D01*
X46192133Y-3888893D01*
X46179520Y-3867849D01*
X46169030Y-3845671D01*
X46160765Y-3822571D01*
X46154804Y-3798773D01*
X46151204Y-3774504D01*
X46150000Y-3750000D01*
X46150000Y-2250000D01*
X46151204Y-2225496D01*
X46154804Y-2201227D01*
X46160765Y-2177429D01*
X46169030Y-2154329D01*
X46179520Y-2132151D01*
X46192133Y-2111107D01*
X46206747Y-2091402D01*
X46223223Y-2073223D01*
X46241402Y-2056747D01*
X46261107Y-2042133D01*
X46282151Y-2029520D01*
X46304329Y-2019030D01*
X46327429Y-2010765D01*
X46351227Y-2004804D01*
X46375496Y-2001204D01*
X46400000Y-2000000D01*
X47600000Y-2000000D01*
X47624504Y-2001204D01*
X47624504Y-2001204D01*
G37*
D13*
X47000000Y-3000000D03*
D14*
X44500000Y-3000000D03*
D15*
X63000000Y-15000000D03*
X60460000Y-7380000D03*
X60460000Y-15000000D03*
D16*
X63000000Y-7380000D03*
X54000000Y-15000000D03*
D15*
X56540000Y-7380000D03*
X56540000Y-15000000D03*
X54000000Y-7380000D03*
D12*
G36*
X3749504Y-8651204D02*
G01*
X3773773Y-8654804D01*
X3797571Y-8660765D01*
X3820671Y-8669030D01*
X3842849Y-8679520D01*
X3863893Y-8692133D01*
X3883598Y-8706747D01*
X3901777Y-8723223D01*
X3918253Y-8741402D01*
X3932867Y-8761107D01*
X3945480Y-8782151D01*
X3955970Y-8804329D01*
X3964235Y-8827429D01*
X3970196Y-8851227D01*
X3973796Y-8875496D01*
X3975000Y-8900000D01*
X3975000Y-10100000D01*
X3973796Y-10124504D01*
X3970196Y-10148773D01*
X3964235Y-10172571D01*
X3955970Y-10195671D01*
X3945480Y-10217849D01*
X3932867Y-10238893D01*
X3918253Y-10258598D01*
X3901777Y-10276777D01*
X3883598Y-10293253D01*
X3863893Y-10307867D01*
X3842849Y-10320480D01*
X3820671Y-10330970D01*
X3797571Y-10339235D01*
X3773773Y-10345196D01*
X3749504Y-10348796D01*
X3725000Y-10350000D01*
X2275000Y-10350000D01*
X2250496Y-10348796D01*
X2226227Y-10345196D01*
X2202429Y-10339235D01*
X2179329Y-10330970D01*
X2157151Y-10320480D01*
X2136107Y-10307867D01*
X2116402Y-10293253D01*
X2098223Y-10276777D01*
X2081747Y-10258598D01*
X2067133Y-10238893D01*
X2054520Y-10217849D01*
X2044030Y-10195671D01*
X2035765Y-10172571D01*
X2029804Y-10148773D01*
X2026204Y-10124504D01*
X2025000Y-10100000D01*
X2025000Y-8900000D01*
X2026204Y-8875496D01*
X2029804Y-8851227D01*
X2035765Y-8827429D01*
X2044030Y-8804329D01*
X2054520Y-8782151D01*
X2067133Y-8761107D01*
X2081747Y-8741402D01*
X2098223Y-8723223D01*
X2116402Y-8706747D01*
X2136107Y-8692133D01*
X2157151Y-8679520D01*
X2179329Y-8669030D01*
X2202429Y-8660765D01*
X2226227Y-8654804D01*
X2250496Y-8651204D01*
X2275000Y-8650000D01*
X3725000Y-8650000D01*
X3749504Y-8651204D01*
X3749504Y-8651204D01*
G37*
D13*
X3000000Y-9500000D03*
D17*
X3000000Y-12000000D03*
X3000000Y-14500000D03*
D18*
X56200000Y-42000000D03*
X53700000Y-42000000D03*
X51200000Y-42000000D03*
D12*
G36*
X49324504Y-41026204D02*
G01*
X49348773Y-41029804D01*
X49372571Y-41035765D01*
X49395671Y-41044030D01*
X49417849Y-41054520D01*
X49438893Y-41067133D01*
X49458598Y-41081747D01*
X49476777Y-41098223D01*
X49493253Y-41116402D01*
X49507867Y-41136107D01*
X49520480Y-41157151D01*
X49530970Y-41179329D01*
X49539235Y-41202429D01*
X49545196Y-41226227D01*
X49548796Y-41250496D01*
X49550000Y-41275000D01*
X49550000Y-42725000D01*
X49548796Y-42749504D01*
X49545196Y-42773773D01*
X49539235Y-42797571D01*
X49530970Y-42820671D01*
X49520480Y-42842849D01*
X49507867Y-42863893D01*
X49493253Y-42883598D01*
X49476777Y-42901777D01*
X49458598Y-42918253D01*
X49438893Y-42932867D01*
X49417849Y-42945480D01*
X49395671Y-42955970D01*
X49372571Y-42964235D01*
X49348773Y-42970196D01*
X49324504Y-42973796D01*
X49300000Y-42975000D01*
X48100000Y-42975000D01*
X48075496Y-42973796D01*
X48051227Y-42970196D01*
X48027429Y-42964235D01*
X48004329Y-42955970D01*
X47982151Y-42945480D01*
X47961107Y-42932867D01*
X47941402Y-42918253D01*
X47923223Y-42901777D01*
X47906747Y-42883598D01*
X47892133Y-42863893D01*
X47879520Y-42842849D01*
X47869030Y-42820671D01*
X47860765Y-42797571D01*
X47854804Y-42773773D01*
X47851204Y-42749504D01*
X47850000Y-42725000D01*
X47850000Y-41275000D01*
X47851204Y-41250496D01*
X47854804Y-41226227D01*
X47860765Y-41202429D01*
X47869030Y-41179329D01*
X47879520Y-41157151D01*
X47892133Y-41136107D01*
X47906747Y-41116402D01*
X47923223Y-41098223D01*
X47941402Y-41081747D01*
X47961107Y-41067133D01*
X47982151Y-41054520D01*
X48004329Y-41044030D01*
X48027429Y-41035765D01*
X48051227Y-41029804D01*
X48075496Y-41026204D01*
X48100000Y-41025000D01*
X49300000Y-41025000D01*
X49324504Y-41026204D01*
X49324504Y-41026204D01*
G37*
D13*
X48700000Y-42000000D03*
D12*
G36*
X38624504Y-2026204D02*
G01*
X38648773Y-2029804D01*
X38672571Y-2035765D01*
X38695671Y-2044030D01*
X38717849Y-2054520D01*
X38738893Y-2067133D01*
X38758598Y-2081747D01*
X38776777Y-2098223D01*
X38793253Y-2116402D01*
X38807867Y-2136107D01*
X38820480Y-2157151D01*
X38830970Y-2179329D01*
X38839235Y-2202429D01*
X38845196Y-2226227D01*
X38848796Y-2250496D01*
X38850000Y-2275000D01*
X38850000Y-3725000D01*
X38848796Y-3749504D01*
X38845196Y-3773773D01*
X38839235Y-3797571D01*
X38830970Y-3820671D01*
X38820480Y-3842849D01*
X38807867Y-3863893D01*
X38793253Y-3883598D01*
X38776777Y-3901777D01*
X38758598Y-3918253D01*
X38738893Y-3932867D01*
X38717849Y-3945480D01*
X38695671Y-3955970D01*
X38672571Y-3964235D01*
X38648773Y-3970196D01*
X38624504Y-3973796D01*
X38600000Y-3975000D01*
X37400000Y-3975000D01*
X37375496Y-3973796D01*
X37351227Y-3970196D01*
X37327429Y-3964235D01*
X37304329Y-3955970D01*
X37282151Y-3945480D01*
X37261107Y-3932867D01*
X37241402Y-3918253D01*
X37223223Y-3901777D01*
X37206747Y-3883598D01*
X37192133Y-3863893D01*
X37179520Y-3842849D01*
X37169030Y-3820671D01*
X37160765Y-3797571D01*
X37154804Y-3773773D01*
X37151204Y-3749504D01*
X37150000Y-3725000D01*
X37150000Y-2275000D01*
X37151204Y-2250496D01*
X37154804Y-2226227D01*
X37160765Y-2202429D01*
X37169030Y-2179329D01*
X37179520Y-2157151D01*
X37192133Y-2136107D01*
X37206747Y-2116402D01*
X37223223Y-2098223D01*
X37241402Y-2081747D01*
X37261107Y-2067133D01*
X37282151Y-2054520D01*
X37304329Y-2044030D01*
X37327429Y-2035765D01*
X37351227Y-2029804D01*
X37375496Y-2026204D01*
X37400000Y-2025000D01*
X38600000Y-2025000D01*
X38624504Y-2026204D01*
X38624504Y-2026204D01*
G37*
D13*
X38000000Y-3000000D03*
D18*
X35500000Y-3000000D03*
X33000000Y-3000000D03*
X30500000Y-3000000D03*
D12*
G36*
X3749504Y-21651204D02*
G01*
X3773773Y-21654804D01*
X3797571Y-21660765D01*
X3820671Y-21669030D01*
X3842849Y-21679520D01*
X3863893Y-21692133D01*
X3883598Y-21706747D01*
X3901777Y-21723223D01*
X3918253Y-21741402D01*
X3932867Y-21761107D01*
X3945480Y-21782151D01*
X3955970Y-21804329D01*
X3964235Y-21827429D01*
X3970196Y-21851227D01*
X3973796Y-21875496D01*
X3975000Y-21900000D01*
X3975000Y-23100000D01*
X3973796Y-23124504D01*
X3970196Y-23148773D01*
X3964235Y-23172571D01*
X3955970Y-23195671D01*
X3945480Y-23217849D01*
X3932867Y-23238893D01*
X3918253Y-23258598D01*
X3901777Y-23276777D01*
X3883598Y-23293253D01*
X3863893Y-23307867D01*
X3842849Y-23320480D01*
X3820671Y-23330970D01*
X3797571Y-23339235D01*
X3773773Y-23345196D01*
X3749504Y-23348796D01*
X3725000Y-23350000D01*
X2275000Y-23350000D01*
X2250496Y-23348796D01*
X2226227Y-23345196D01*
X2202429Y-23339235D01*
X2179329Y-23330970D01*
X2157151Y-23320480D01*
X2136107Y-23307867D01*
X2116402Y-23293253D01*
X2098223Y-23276777D01*
X2081747Y-23258598D01*
X2067133Y-23238893D01*
X2054520Y-23217849D01*
X2044030Y-23195671D01*
X2035765Y-23172571D01*
X2029804Y-23148773D01*
X2026204Y-23124504D01*
X2025000Y-23100000D01*
X2025000Y-21900000D01*
X2026204Y-21875496D01*
X2029804Y-21851227D01*
X2035765Y-21827429D01*
X2044030Y-21804329D01*
X2054520Y-21782151D01*
X2067133Y-21761107D01*
X2081747Y-21741402D01*
X2098223Y-21723223D01*
X2116402Y-21706747D01*
X2136107Y-21692133D01*
X2157151Y-21679520D01*
X2179329Y-21669030D01*
X2202429Y-21660765D01*
X2226227Y-21654804D01*
X2250496Y-21651204D01*
X2275000Y-21650000D01*
X3725000Y-21650000D01*
X3749504Y-21651204D01*
X3749504Y-21651204D01*
G37*
D13*
X3000000Y-22500000D03*
D17*
X3000000Y-25000000D03*
X3000000Y-27500000D03*
X3000000Y-30000000D03*
X3000000Y-32500000D03*
X3000000Y-35000000D03*
D13*
X71040000Y-38160000D03*
X68500000Y-38160000D03*
X71040000Y-35620000D03*
X68500000Y-35620000D03*
X71040000Y-33080000D03*
X68500000Y-33080000D03*
X71040000Y-30540000D03*
X68500000Y-30540000D03*
X71040000Y-28000000D03*
D19*
X68500000Y-28000000D03*
X68500000Y-5960000D03*
D13*
X71040000Y-5960000D03*
X68500000Y-8500000D03*
X71040000Y-8500000D03*
X68500000Y-11040000D03*
X71040000Y-11040000D03*
X68500000Y-13580000D03*
X71040000Y-13580000D03*
X68500000Y-16120000D03*
X71040000Y-16120000D03*
D20*
X34180000Y-42000000D03*
X31640000Y-42000000D03*
X29100000Y-42000000D03*
X8320000Y-42000000D03*
X10860000Y-42000000D03*
X13400000Y-42000000D03*
X23780000Y-42000000D03*
X21240000Y-42000000D03*
X18700000Y-42000000D03*
D21*
X43761802Y-28104207D03*
X42970540Y-23549946D03*
X11100000Y-24700000D03*
X17870000Y-24100000D03*
X15772341Y-14539252D03*
X26600000Y-22000000D03*
X18000000Y-9300000D03*
X26000000Y-9400000D03*
X16500000Y-1700000D03*
X6500000Y-11600000D03*
X12500000Y-9800000D03*
X17723708Y-27336779D03*
X37400000Y-24200000D03*
X9400000Y-36500000D03*
X30500000Y-16000000D03*
X39300000Y-16600000D03*
X39576846Y-36692241D03*
X39000000Y-29800000D03*
X27877521Y-33472606D03*
X15886975Y-21324984D03*
X20900000Y-19118838D03*
X63300000Y-33125012D03*
X57800000Y-31700000D03*
X30900000Y-29800000D03*
X40900000Y-11100000D03*
X45100000Y-14200000D03*
X61400000Y-10700000D03*
X43500000Y-31800000D03*
X20200000Y-34500000D03*
X17100000Y-33900000D03*
X5500000Y-38700000D03*
X70400000Y-42500000D03*
X68600000Y-1400000D03*
X5500000Y-4700000D03*
X33698585Y-37823264D03*
X57870871Y-38870871D03*
X51600000Y-34425010D03*
X45405200Y-39474880D03*
X9000000Y-31600000D03*
X39372852Y-31201341D03*
X39800928Y-34999072D03*
X24300000Y-26900000D03*
X24950034Y-24349966D03*
X56200000Y-22000000D03*
X56000008Y-25450056D03*
X24600000Y-16800000D03*
X24284017Y-12588495D03*
X22000000Y-22099977D03*
X21900000Y-24200000D03*
X22800008Y-17000000D03*
X23341267Y-13700001D03*
X27500044Y-29999971D03*
X23200000Y-33200000D03*
X23477408Y-31149989D03*
X42300000Y-28200000D03*
X41872489Y-22681432D03*
X40800000Y-31100000D03*
X41300000Y-34900000D03*
X50400000Y-29000000D03*
X50200000Y-25999955D03*
X11000000Y-21000000D03*
X45372323Y-27084356D03*
X44340565Y-23261737D03*
X13000000Y-23000000D03*
X58724998Y-25525000D03*
X52614783Y-28162290D03*
X52644854Y-26488107D03*
X57176709Y-26964662D03*
X48800003Y-13599997D03*
X48599995Y-16800005D03*
X57413397Y-19725422D03*
X58440598Y-22825010D03*
X63782647Y-27205099D03*
X65427725Y-27691201D03*
X62916629Y-21116629D03*
X62074989Y-24444369D03*
X62400000Y-26200000D03*
X59752731Y-26172495D03*
X53825010Y-23899977D03*
X54400000Y-26000000D03*
D22*
X42970540Y-24257052D02*
X42970540Y-23549946D01*
X42970540Y-27312945D02*
X42970540Y-24257052D01*
X43761802Y-28104207D02*
X42970540Y-27312945D01*
X17870000Y-24100000D02*
X11700000Y-24100000D01*
X11700000Y-24100000D02*
X11100000Y-24700000D01*
X39372852Y-31201341D02*
X39372852Y-34570996D01*
X39372852Y-34570996D02*
X39800928Y-34999072D01*
X24300000Y-26192894D02*
X24300000Y-26900000D01*
X24300000Y-25000000D02*
X24300000Y-26192894D01*
X24950034Y-24349966D02*
X24300000Y-25000000D01*
X56000008Y-22199992D02*
X56200000Y-22000000D01*
X56000008Y-25450056D02*
X56000008Y-22199992D01*
X24600000Y-12904478D02*
X24284017Y-12588495D01*
X24600000Y-16800000D02*
X24600000Y-12904478D01*
X21900000Y-24200000D02*
X21900000Y-22199977D01*
X21900000Y-22199977D02*
X22000000Y-22099977D01*
X22800008Y-14241260D02*
X22841268Y-14200000D01*
X22841268Y-14200000D02*
X23341267Y-13700001D01*
X22800008Y-17000000D02*
X22800008Y-14241260D01*
X23400000Y-33000000D02*
X23200000Y-33200000D01*
X26350026Y-31149989D02*
X24184514Y-31149989D01*
X24184514Y-31149989D02*
X23477408Y-31149989D01*
X27500044Y-29999971D02*
X26350026Y-31149989D01*
X23477408Y-32922592D02*
X23200000Y-33200000D01*
X23477408Y-31149989D02*
X23477408Y-32922592D01*
X42300000Y-27492894D02*
X41872489Y-27065383D01*
X42300000Y-28200000D02*
X42300000Y-27492894D01*
X41872489Y-23388538D02*
X41872489Y-22681432D01*
X41872489Y-27065383D02*
X41872489Y-23388538D01*
X40800000Y-31100000D02*
X40800000Y-34500000D01*
X40800000Y-34500000D02*
X41200000Y-34900000D01*
X41200000Y-34900000D02*
X41300000Y-34900000D01*
X50400000Y-26199955D02*
X50200000Y-25999955D01*
X50400000Y-29000000D02*
X50400000Y-26199955D01*
X44340565Y-23968843D02*
X44340565Y-23261737D01*
X45372323Y-27084356D02*
X44340565Y-26052598D01*
X44340565Y-26052598D02*
X44340565Y-23968843D01*
X13000000Y-23000000D02*
X11000000Y-21000000D01*
X58724998Y-24398025D02*
X58724998Y-24817894D01*
X66424977Y-14738613D02*
X59715611Y-21447979D01*
X66424977Y-12478612D02*
X66424977Y-14738613D01*
X59715611Y-21447979D02*
X59715611Y-23407412D01*
X59715611Y-23407412D02*
X58724998Y-24398025D01*
X69864999Y-9675001D02*
X68125997Y-9675001D01*
X66424978Y-11376020D02*
X66424977Y-12478612D01*
X68125997Y-9675001D02*
X66424978Y-11376020D01*
X58724998Y-24817894D02*
X58724998Y-25525000D01*
X71040000Y-8500000D02*
X69864999Y-9675001D01*
X52614783Y-28162290D02*
X52614783Y-26518178D01*
X52614783Y-26518178D02*
X52644854Y-26488107D01*
X57176709Y-25309903D02*
X57176709Y-26257556D01*
X65974967Y-11025033D02*
X65974966Y-14552214D01*
X57176709Y-26257556D02*
X57176709Y-26964662D01*
X59265600Y-23221012D02*
X57176709Y-25309903D01*
X68500000Y-8500000D02*
X65974967Y-11025033D01*
X65974966Y-14552214D02*
X59265600Y-21261580D01*
X59265600Y-21261580D02*
X59265600Y-23221012D01*
X48800003Y-13599997D02*
X48800003Y-16599997D01*
X48800003Y-16599997D02*
X48599995Y-16800005D01*
X57413397Y-19725422D02*
X58440598Y-20752623D01*
X58440598Y-22117904D02*
X58440598Y-22825010D01*
X58440598Y-20752623D02*
X58440598Y-22117904D01*
X64941623Y-27205099D02*
X65427725Y-27691201D01*
X63782647Y-27205099D02*
X64941623Y-27205099D01*
X62074989Y-21958269D02*
X62416630Y-21616628D01*
X67324999Y-14755001D02*
X67324999Y-16708259D01*
X68500000Y-13580000D02*
X67324999Y-14755001D01*
X67324999Y-16708259D02*
X63416628Y-20616630D01*
X63416628Y-20616630D02*
X62916629Y-21116629D01*
X62074989Y-24444369D02*
X62074989Y-21958269D01*
X62416630Y-21616628D02*
X62916629Y-21116629D01*
X67920499Y-17279501D02*
X62899999Y-22300001D01*
X67935999Y-17295001D02*
X67920499Y-17279501D01*
X69064001Y-17295001D02*
X67935999Y-17295001D01*
X69675001Y-16684001D02*
X69064001Y-17295001D01*
X69864999Y-15335001D02*
X69659501Y-15540499D01*
X69864999Y-12215001D02*
X69864999Y-15335001D01*
X71040000Y-11040000D02*
X69864999Y-12215001D01*
X69675001Y-15555999D02*
X69675001Y-16684001D01*
X62899999Y-22300001D02*
X62899999Y-25700001D01*
X62899999Y-25700001D02*
X62400000Y-26200000D01*
X69659501Y-15540499D02*
X69675001Y-15555999D01*
X59889903Y-25328217D02*
X59752731Y-25465389D01*
X66874988Y-12665012D02*
X66874988Y-15219339D01*
X66874988Y-15219339D02*
X60165622Y-21928705D01*
X59752731Y-25465389D02*
X59752731Y-26172495D01*
X68500000Y-11040000D02*
X66874988Y-12665012D01*
X59889903Y-23869530D02*
X59889903Y-25328217D01*
X60165622Y-23593812D02*
X59889903Y-23869530D01*
X60165622Y-21928705D02*
X60165622Y-23593812D01*
X54400000Y-25292894D02*
X54400000Y-26000000D01*
X54400000Y-24474967D02*
X54400000Y-25292894D01*
X53825010Y-23899977D02*
X54400000Y-24474967D01*
D23*
G36*
X74523000Y-44523000D02*
G01*
X477000Y-44523000D01*
X477000Y-41854528D01*
X1523000Y-41854528D01*
X1523000Y-42145472D01*
X1579760Y-42430825D01*
X1691099Y-42699622D01*
X1852739Y-42941533D01*
X2058467Y-43147261D01*
X2300378Y-43308901D01*
X2569175Y-43420240D01*
X2854528Y-43477000D01*
X3145472Y-43477000D01*
X3430825Y-43420240D01*
X3699622Y-43308901D01*
X3941533Y-43147261D01*
X4147261Y-42941533D01*
X4308901Y-42699622D01*
X4420240Y-42430825D01*
X4477000Y-42145472D01*
X4477000Y-41891955D01*
X7223000Y-41891955D01*
X7223000Y-42108045D01*
X7265157Y-42319983D01*
X7347851Y-42519624D01*
X7467904Y-42699297D01*
X7620703Y-42852096D01*
X7800376Y-42972149D01*
X8000017Y-43054843D01*
X8211955Y-43097000D01*
X8428045Y-43097000D01*
X8639983Y-43054843D01*
X8839624Y-42972149D01*
X9019297Y-42852096D01*
X9172096Y-42699297D01*
X9292149Y-42519624D01*
X9374843Y-42319983D01*
X9417000Y-42108045D01*
X9417000Y-41891955D01*
X9763000Y-41891955D01*
X9763000Y-42108045D01*
X9805157Y-42319983D01*
X9887851Y-42519624D01*
X10007904Y-42699297D01*
X10160703Y-42852096D01*
X10340376Y-42972149D01*
X10540017Y-43054843D01*
X10751955Y-43097000D01*
X10968045Y-43097000D01*
X11179983Y-43054843D01*
X11379624Y-42972149D01*
X11559297Y-42852096D01*
X11712096Y-42699297D01*
X11832149Y-42519624D01*
X11914843Y-42319983D01*
X11957000Y-42108045D01*
X11957000Y-41891955D01*
X12303000Y-41891955D01*
X12303000Y-42108045D01*
X12345157Y-42319983D01*
X12427851Y-42519624D01*
X12547904Y-42699297D01*
X12700703Y-42852096D01*
X12880376Y-42972149D01*
X13080017Y-43054843D01*
X13291955Y-43097000D01*
X13508045Y-43097000D01*
X13719983Y-43054843D01*
X13919624Y-42972149D01*
X14099297Y-42852096D01*
X14252096Y-42699297D01*
X14372149Y-42519624D01*
X14454843Y-42319983D01*
X14497000Y-42108045D01*
X14497000Y-41891955D01*
X17603000Y-41891955D01*
X17603000Y-42108045D01*
X17645157Y-42319983D01*
X17727851Y-42519624D01*
X17847904Y-42699297D01*
X18000703Y-42852096D01*
X18180376Y-42972149D01*
X18380017Y-43054843D01*
X18591955Y-43097000D01*
X18808045Y-43097000D01*
X19019983Y-43054843D01*
X19219624Y-42972149D01*
X19399297Y-42852096D01*
X19552096Y-42699297D01*
X19672149Y-42519624D01*
X19754843Y-42319983D01*
X19797000Y-42108045D01*
X19797000Y-41891955D01*
X20143000Y-41891955D01*
X20143000Y-42108045D01*
X20185157Y-42319983D01*
X20267851Y-42519624D01*
X20387904Y-42699297D01*
X20540703Y-42852096D01*
X20720376Y-42972149D01*
X20920017Y-43054843D01*
X21131955Y-43097000D01*
X21348045Y-43097000D01*
X21559983Y-43054843D01*
X21759624Y-42972149D01*
X21939297Y-42852096D01*
X22092096Y-42699297D01*
X22212149Y-42519624D01*
X22294843Y-42319983D01*
X22337000Y-42108045D01*
X22337000Y-41891955D01*
X22683000Y-41891955D01*
X22683000Y-42108045D01*
X22725157Y-42319983D01*
X22807851Y-42519624D01*
X22927904Y-42699297D01*
X23080703Y-42852096D01*
X23260376Y-42972149D01*
X23460017Y-43054843D01*
X23671955Y-43097000D01*
X23888045Y-43097000D01*
X24099983Y-43054843D01*
X24299624Y-42972149D01*
X24479297Y-42852096D01*
X24632096Y-42699297D01*
X24752149Y-42519624D01*
X24834843Y-42319983D01*
X24877000Y-42108045D01*
X24877000Y-41891955D01*
X28003000Y-41891955D01*
X28003000Y-42108045D01*
X28045157Y-42319983D01*
X28127851Y-42519624D01*
X28247904Y-42699297D01*
X28400703Y-42852096D01*
X28580376Y-42972149D01*
X28780017Y-43054843D01*
X28991955Y-43097000D01*
X29208045Y-43097000D01*
X29419983Y-43054843D01*
X29619624Y-42972149D01*
X29799297Y-42852096D01*
X29952096Y-42699297D01*
X30072149Y-42519624D01*
X30154843Y-42319983D01*
X30197000Y-42108045D01*
X30197000Y-41891955D01*
X30543000Y-41891955D01*
X30543000Y-42108045D01*
X30585157Y-42319983D01*
X30667851Y-42519624D01*
X30787904Y-42699297D01*
X30940703Y-42852096D01*
X31120376Y-42972149D01*
X31320017Y-43054843D01*
X31531955Y-43097000D01*
X31748045Y-43097000D01*
X31959983Y-43054843D01*
X32159624Y-42972149D01*
X32339297Y-42852096D01*
X32492096Y-42699297D01*
X32612149Y-42519624D01*
X32694843Y-42319983D01*
X32737000Y-42108045D01*
X32737000Y-41891955D01*
X33083000Y-41891955D01*
X33083000Y-42108045D01*
X33125157Y-42319983D01*
X33207851Y-42519624D01*
X33327904Y-42699297D01*
X33480703Y-42852096D01*
X33660376Y-42972149D01*
X33860017Y-43054843D01*
X34071955Y-43097000D01*
X34288045Y-43097000D01*
X34499983Y-43054843D01*
X34699624Y-42972149D01*
X34879297Y-42852096D01*
X35032096Y-42699297D01*
X35152149Y-42519624D01*
X35234843Y-42319983D01*
X35277000Y-42108045D01*
X35277000Y-41891955D01*
X35234843Y-41680017D01*
X35152149Y-41480376D01*
X35032096Y-41300703D01*
X34981393Y-41250000D01*
X38671176Y-41250000D01*
X38671176Y-42750000D01*
X38683259Y-42872677D01*
X38719042Y-42990641D01*
X38777152Y-43099356D01*
X38855354Y-43194646D01*
X38950644Y-43272848D01*
X39059359Y-43330958D01*
X39177323Y-43366741D01*
X39300000Y-43378824D01*
X40500000Y-43378824D01*
X40622677Y-43366741D01*
X40740641Y-43330958D01*
X40849356Y-43272848D01*
X40944646Y-43194646D01*
X41022848Y-43099356D01*
X41080958Y-42990641D01*
X41116741Y-42872677D01*
X41128824Y-42750000D01*
X41128824Y-41789733D01*
X41173000Y-41789733D01*
X41173000Y-42210268D01*
X41190755Y-42390534D01*
X41260916Y-42621824D01*
X41374852Y-42834983D01*
X41528184Y-43021817D01*
X41715018Y-43175149D01*
X41928177Y-43289084D01*
X42159467Y-43359245D01*
X42400000Y-43382936D01*
X42640534Y-43359245D01*
X42871824Y-43289084D01*
X43084983Y-43175149D01*
X43271817Y-43021817D01*
X43425149Y-42834982D01*
X43539084Y-42621823D01*
X43609245Y-42390533D01*
X43627000Y-42210267D01*
X43627000Y-41789732D01*
X43609245Y-41609466D01*
X43539084Y-41378176D01*
X43483936Y-41275000D01*
X47471176Y-41275000D01*
X47471176Y-42725000D01*
X47483259Y-42847677D01*
X47519042Y-42965641D01*
X47577152Y-43074356D01*
X47655354Y-43169646D01*
X47750644Y-43247848D01*
X47859359Y-43305958D01*
X47977323Y-43341741D01*
X48100000Y-43353824D01*
X49300000Y-43353824D01*
X49422677Y-43341741D01*
X49540641Y-43305958D01*
X49649356Y-43247848D01*
X49744646Y-43169646D01*
X49822848Y-43074356D01*
X49880958Y-42965641D01*
X49916741Y-42847677D01*
X49928824Y-42725000D01*
X49928824Y-41814733D01*
X49973000Y-41814733D01*
X49973000Y-42185268D01*
X49990755Y-42365534D01*
X50060916Y-42596824D01*
X50174851Y-42809983D01*
X50328184Y-42996817D01*
X50515018Y-43150149D01*
X50728177Y-43264084D01*
X50959467Y-43334245D01*
X51200000Y-43357936D01*
X51440534Y-43334245D01*
X51671824Y-43264084D01*
X51884983Y-43150149D01*
X52071817Y-42996817D01*
X52225149Y-42809982D01*
X52339084Y-42596823D01*
X52409245Y-42365533D01*
X52427000Y-42185267D01*
X52427000Y-41814733D01*
X52473000Y-41814733D01*
X52473000Y-42185268D01*
X52490755Y-42365534D01*
X52560916Y-42596824D01*
X52674851Y-42809983D01*
X52828184Y-42996817D01*
X53015018Y-43150149D01*
X53228177Y-43264084D01*
X53459467Y-43334245D01*
X53700000Y-43357936D01*
X53940534Y-43334245D01*
X54171824Y-43264084D01*
X54384983Y-43150149D01*
X54571817Y-42996817D01*
X54725149Y-42809982D01*
X54811373Y-42648668D01*
X54934947Y-42902570D01*
X55110951Y-43134429D01*
X55328807Y-43327496D01*
X55580142Y-43474352D01*
X55843110Y-43566476D01*
X56073000Y-43445155D01*
X56073000Y-42127000D01*
X56327000Y-42127000D01*
X56327000Y-43445155D01*
X56556890Y-43566476D01*
X56819858Y-43474352D01*
X57071193Y-43327496D01*
X57289049Y-43134429D01*
X57465053Y-42902570D01*
X57592442Y-42640830D01*
X57666320Y-42359267D01*
X57526165Y-42127000D01*
X56327000Y-42127000D01*
X56073000Y-42127000D01*
X56053000Y-42127000D01*
X56053000Y-41873000D01*
X56073000Y-41873000D01*
X56073000Y-40554845D01*
X56327000Y-40554845D01*
X56327000Y-41873000D01*
X57526165Y-41873000D01*
X57537311Y-41854528D01*
X60523000Y-41854528D01*
X60523000Y-42145472D01*
X60579760Y-42430825D01*
X60691099Y-42699622D01*
X60852739Y-42941533D01*
X61058467Y-43147261D01*
X61300378Y-43308901D01*
X61569175Y-43420240D01*
X61854528Y-43477000D01*
X62145472Y-43477000D01*
X62430825Y-43420240D01*
X62699622Y-43308901D01*
X62941533Y-43147261D01*
X63147261Y-42941533D01*
X63308901Y-42699622D01*
X63420240Y-42430825D01*
X63477000Y-42145472D01*
X63477000Y-41854528D01*
X63420240Y-41569175D01*
X63308901Y-41300378D01*
X63147261Y-41058467D01*
X62941533Y-40852739D01*
X62699622Y-40691099D01*
X62430825Y-40579760D01*
X62145472Y-40523000D01*
X61854528Y-40523000D01*
X61569175Y-40579760D01*
X61300378Y-40691099D01*
X61058467Y-40852739D01*
X60852739Y-41058467D01*
X60691099Y-41300378D01*
X60579760Y-41569175D01*
X60523000Y-41854528D01*
X57537311Y-41854528D01*
X57666320Y-41640733D01*
X57592442Y-41359170D01*
X57465053Y-41097430D01*
X57289049Y-40865571D01*
X57071193Y-40672504D01*
X56819858Y-40525648D01*
X56556890Y-40433524D01*
X56327000Y-40554845D01*
X56073000Y-40554845D01*
X55843110Y-40433524D01*
X55580142Y-40525648D01*
X55328807Y-40672504D01*
X55110951Y-40865571D01*
X54934947Y-41097430D01*
X54811373Y-41351332D01*
X54725149Y-41190017D01*
X54571817Y-41003183D01*
X54384982Y-40849851D01*
X54171823Y-40735916D01*
X53940533Y-40665755D01*
X53700000Y-40642064D01*
X53459466Y-40665755D01*
X53228176Y-40735916D01*
X53015017Y-40849851D01*
X52828183Y-41003183D01*
X52674851Y-41190018D01*
X52560916Y-41403177D01*
X52490755Y-41634467D01*
X52473000Y-41814733D01*
X52427000Y-41814733D01*
X52427000Y-41814732D01*
X52409245Y-41634466D01*
X52339084Y-41403176D01*
X52225149Y-41190017D01*
X52071817Y-41003183D01*
X51884982Y-40849851D01*
X51671823Y-40735916D01*
X51440533Y-40665755D01*
X51200000Y-40642064D01*
X50959466Y-40665755D01*
X50728176Y-40735916D01*
X50515017Y-40849851D01*
X50328183Y-41003183D01*
X50174851Y-41190018D01*
X50060916Y-41403177D01*
X49990755Y-41634467D01*
X49973000Y-41814733D01*
X49928824Y-41814733D01*
X49928824Y-41275000D01*
X49916741Y-41152323D01*
X49880958Y-41034359D01*
X49822848Y-40925644D01*
X49744646Y-40830354D01*
X49649356Y-40752152D01*
X49540641Y-40694042D01*
X49422677Y-40658259D01*
X49300000Y-40646176D01*
X48100000Y-40646176D01*
X47977323Y-40658259D01*
X47859359Y-40694042D01*
X47750644Y-40752152D01*
X47655354Y-40830354D01*
X47577152Y-40925644D01*
X47519042Y-41034359D01*
X47483259Y-41152323D01*
X47471176Y-41275000D01*
X43483936Y-41275000D01*
X43425149Y-41165017D01*
X43271817Y-40978183D01*
X43084982Y-40824851D01*
X42871823Y-40710916D01*
X42640533Y-40640755D01*
X42400000Y-40617064D01*
X42159466Y-40640755D01*
X41928176Y-40710916D01*
X41715017Y-40824851D01*
X41528183Y-40978183D01*
X41374851Y-41165018D01*
X41260916Y-41378177D01*
X41190755Y-41609467D01*
X41173000Y-41789733D01*
X41128824Y-41789733D01*
X41128824Y-41250000D01*
X41116741Y-41127323D01*
X41080958Y-41009359D01*
X41022848Y-40900644D01*
X40944646Y-40805354D01*
X40849356Y-40727152D01*
X40740641Y-40669042D01*
X40622677Y-40633259D01*
X40500000Y-40621176D01*
X39300000Y-40621176D01*
X39177323Y-40633259D01*
X39059359Y-40669042D01*
X38950644Y-40727152D01*
X38855354Y-40805354D01*
X38777152Y-40900644D01*
X38719042Y-41009359D01*
X38683259Y-41127323D01*
X38671176Y-41250000D01*
X34981393Y-41250000D01*
X34879297Y-41147904D01*
X34699624Y-41027851D01*
X34499983Y-40945157D01*
X34288045Y-40903000D01*
X34071955Y-40903000D01*
X33860017Y-40945157D01*
X33660376Y-41027851D01*
X33480703Y-41147904D01*
X33327904Y-41300703D01*
X33207851Y-41480376D01*
X33125157Y-41680017D01*
X33083000Y-41891955D01*
X32737000Y-41891955D01*
X32694843Y-41680017D01*
X32612149Y-41480376D01*
X32492096Y-41300703D01*
X32339297Y-41147904D01*
X32159624Y-41027851D01*
X31959983Y-40945157D01*
X31748045Y-40903000D01*
X31531955Y-40903000D01*
X31320017Y-40945157D01*
X31120376Y-41027851D01*
X30940703Y-41147904D01*
X30787904Y-41300703D01*
X30667851Y-41480376D01*
X30585157Y-41680017D01*
X30543000Y-41891955D01*
X30197000Y-41891955D01*
X30154843Y-41680017D01*
X30072149Y-41480376D01*
X29952096Y-41300703D01*
X29799297Y-41147904D01*
X29619624Y-41027851D01*
X29419983Y-40945157D01*
X29208045Y-40903000D01*
X28991955Y-40903000D01*
X28780017Y-40945157D01*
X28580376Y-41027851D01*
X28400703Y-41147904D01*
X28247904Y-41300703D01*
X28127851Y-41480376D01*
X28045157Y-41680017D01*
X28003000Y-41891955D01*
X24877000Y-41891955D01*
X24834843Y-41680017D01*
X24752149Y-41480376D01*
X24632096Y-41300703D01*
X24479297Y-41147904D01*
X24299624Y-41027851D01*
X24099983Y-40945157D01*
X23888045Y-40903000D01*
X23671955Y-40903000D01*
X23460017Y-40945157D01*
X23260376Y-41027851D01*
X23080703Y-41147904D01*
X22927904Y-41300703D01*
X22807851Y-41480376D01*
X22725157Y-41680017D01*
X22683000Y-41891955D01*
X22337000Y-41891955D01*
X22294843Y-41680017D01*
X22212149Y-41480376D01*
X22092096Y-41300703D01*
X21939297Y-41147904D01*
X21759624Y-41027851D01*
X21559983Y-40945157D01*
X21348045Y-40903000D01*
X21131955Y-40903000D01*
X20920017Y-40945157D01*
X20720376Y-41027851D01*
X20540703Y-41147904D01*
X20387904Y-41300703D01*
X20267851Y-41480376D01*
X20185157Y-41680017D01*
X20143000Y-41891955D01*
X19797000Y-41891955D01*
X19754843Y-41680017D01*
X19672149Y-41480376D01*
X19552096Y-41300703D01*
X19399297Y-41147904D01*
X19219624Y-41027851D01*
X19019983Y-40945157D01*
X18808045Y-40903000D01*
X18591955Y-40903000D01*
X18380017Y-40945157D01*
X18180376Y-41027851D01*
X18000703Y-41147904D01*
X17847904Y-41300703D01*
X17727851Y-41480376D01*
X17645157Y-41680017D01*
X17603000Y-41891955D01*
X14497000Y-41891955D01*
X14454843Y-41680017D01*
X14372149Y-41480376D01*
X14252096Y-41300703D01*
X14099297Y-41147904D01*
X13919624Y-41027851D01*
X13719983Y-40945157D01*
X13508045Y-40903000D01*
X13291955Y-40903000D01*
X13080017Y-40945157D01*
X12880376Y-41027851D01*
X12700703Y-41147904D01*
X12547904Y-41300703D01*
X12427851Y-41480376D01*
X12345157Y-41680017D01*
X12303000Y-41891955D01*
X11957000Y-41891955D01*
X11914843Y-41680017D01*
X11832149Y-41480376D01*
X11712096Y-41300703D01*
X11559297Y-41147904D01*
X11379624Y-41027851D01*
X11179983Y-40945157D01*
X10968045Y-40903000D01*
X10751955Y-40903000D01*
X10540017Y-40945157D01*
X10340376Y-41027851D01*
X10160703Y-41147904D01*
X10007904Y-41300703D01*
X9887851Y-41480376D01*
X9805157Y-41680017D01*
X9763000Y-41891955D01*
X9417000Y-41891955D01*
X9374843Y-41680017D01*
X9292149Y-41480376D01*
X9172096Y-41300703D01*
X9019297Y-41147904D01*
X8839624Y-41027851D01*
X8639983Y-40945157D01*
X8428045Y-40903000D01*
X8211955Y-40903000D01*
X8000017Y-40945157D01*
X7800376Y-41027851D01*
X7620703Y-41147904D01*
X7467904Y-41300703D01*
X7347851Y-41480376D01*
X7265157Y-41680017D01*
X7223000Y-41891955D01*
X4477000Y-41891955D01*
X4477000Y-41854528D01*
X4420240Y-41569175D01*
X4308901Y-41300378D01*
X4147261Y-41058467D01*
X3941533Y-40852739D01*
X3699622Y-40691099D01*
X3430825Y-40579760D01*
X3145472Y-40523000D01*
X2854528Y-40523000D01*
X2569175Y-40579760D01*
X2300378Y-40691099D01*
X2058467Y-40852739D01*
X1852739Y-41058467D01*
X1691099Y-41300378D01*
X1579760Y-41569175D01*
X1523000Y-41854528D01*
X477000Y-41854528D01*
X477000Y-38039151D01*
X67273000Y-38039151D01*
X67273000Y-38280849D01*
X67320153Y-38517903D01*
X67412647Y-38741202D01*
X67546927Y-38942167D01*
X67717833Y-39113073D01*
X67918798Y-39247353D01*
X68142097Y-39339847D01*
X68379151Y-39387000D01*
X68620849Y-39387000D01*
X68857903Y-39339847D01*
X69081202Y-39247353D01*
X69282167Y-39113073D01*
X69453073Y-38942167D01*
X69587353Y-38741202D01*
X69679847Y-38517903D01*
X69727000Y-38280849D01*
X69727000Y-38039151D01*
X69813000Y-38039151D01*
X69813000Y-38280849D01*
X69860153Y-38517903D01*
X69952647Y-38741202D01*
X70086927Y-38942167D01*
X70257833Y-39113073D01*
X70458798Y-39247353D01*
X70682097Y-39339847D01*
X70919151Y-39387000D01*
X71160849Y-39387000D01*
X71397903Y-39339847D01*
X71621202Y-39247353D01*
X71822167Y-39113073D01*
X71993073Y-38942167D01*
X72127353Y-38741202D01*
X72219847Y-38517903D01*
X72267000Y-38280849D01*
X72267000Y-38039151D01*
X72219847Y-37802097D01*
X72127353Y-37578798D01*
X71993073Y-37377833D01*
X71822167Y-37206927D01*
X71621202Y-37072647D01*
X71397903Y-36980153D01*
X71160849Y-36933000D01*
X70919151Y-36933000D01*
X70682097Y-36980153D01*
X70458798Y-37072647D01*
X70257833Y-37206927D01*
X70086927Y-37377833D01*
X69952647Y-37578798D01*
X69860153Y-37802097D01*
X69813000Y-38039151D01*
X69727000Y-38039151D01*
X69679847Y-37802097D01*
X69587353Y-37578798D01*
X69453073Y-37377833D01*
X69282167Y-37206927D01*
X69081202Y-37072647D01*
X68857903Y-36980153D01*
X68620849Y-36933000D01*
X68379151Y-36933000D01*
X68142097Y-36980153D01*
X67918798Y-37072647D01*
X67717833Y-37206927D01*
X67546927Y-37377833D01*
X67412647Y-37578798D01*
X67320153Y-37802097D01*
X67273000Y-38039151D01*
X477000Y-38039151D01*
X477000Y-35356890D01*
X1433524Y-35356890D01*
X1525648Y-35619858D01*
X1672504Y-35871193D01*
X1865571Y-36089049D01*
X2097430Y-36265053D01*
X2359170Y-36392442D01*
X2640733Y-36466320D01*
X2873000Y-36326165D01*
X2873000Y-35127000D01*
X3127000Y-35127000D01*
X3127000Y-36326165D01*
X3359267Y-36466320D01*
X3640830Y-36392442D01*
X3902570Y-36265053D01*
X4134429Y-36089049D01*
X4327496Y-35871193D01*
X4474352Y-35619858D01*
X4566476Y-35356890D01*
X4445155Y-35127000D01*
X3127000Y-35127000D01*
X2873000Y-35127000D01*
X1554845Y-35127000D01*
X1433524Y-35356890D01*
X477000Y-35356890D01*
X477000Y-34643110D01*
X1433524Y-34643110D01*
X1554845Y-34873000D01*
X2873000Y-34873000D01*
X2873000Y-34853000D01*
X3127000Y-34853000D01*
X3127000Y-34873000D01*
X4445155Y-34873000D01*
X4566476Y-34643110D01*
X4474352Y-34380142D01*
X4327496Y-34128807D01*
X4134429Y-33910951D01*
X3902570Y-33734947D01*
X3648668Y-33611373D01*
X3809983Y-33525149D01*
X3996817Y-33371817D01*
X4150149Y-33184983D01*
X4188291Y-33113623D01*
X22323000Y-33113623D01*
X22323000Y-33286377D01*
X22356703Y-33455811D01*
X22422813Y-33615415D01*
X22518790Y-33759055D01*
X22640945Y-33881210D01*
X22784585Y-33977187D01*
X22944189Y-34043297D01*
X23113623Y-34077000D01*
X23286377Y-34077000D01*
X23455811Y-34043297D01*
X23615415Y-33977187D01*
X23759055Y-33881210D01*
X23881210Y-33759055D01*
X23977187Y-33615415D01*
X24043297Y-33455811D01*
X24077000Y-33286377D01*
X24077000Y-33113623D01*
X24043297Y-32944189D01*
X23979408Y-32789947D01*
X23979408Y-31869322D01*
X24036463Y-31831199D01*
X24158618Y-31709044D01*
X24196741Y-31651989D01*
X26325383Y-31651989D01*
X26350026Y-31654416D01*
X26374669Y-31651989D01*
X26374679Y-31651989D01*
X26448435Y-31644725D01*
X26543062Y-31616020D01*
X26630271Y-31569406D01*
X26706710Y-31506673D01*
X26722427Y-31487522D01*
X27094985Y-31114964D01*
X38495852Y-31114964D01*
X38495852Y-31287718D01*
X38529555Y-31457152D01*
X38595665Y-31616756D01*
X38691642Y-31760396D01*
X38813797Y-31882551D01*
X38870852Y-31920674D01*
X38870853Y-34546343D01*
X38868425Y-34570996D01*
X38878117Y-34669405D01*
X38906822Y-34764032D01*
X38940840Y-34827675D01*
X38923928Y-34912695D01*
X38923928Y-35085449D01*
X38957631Y-35254883D01*
X39023741Y-35414487D01*
X39119718Y-35558127D01*
X39241873Y-35680282D01*
X39385513Y-35776259D01*
X39545117Y-35842369D01*
X39714551Y-35876072D01*
X39887305Y-35876072D01*
X40056739Y-35842369D01*
X40216343Y-35776259D01*
X40359983Y-35680282D01*
X40482138Y-35558127D01*
X40578115Y-35414487D01*
X40582285Y-35404421D01*
X40618790Y-35459055D01*
X40740945Y-35581210D01*
X40884585Y-35677187D01*
X41044189Y-35743297D01*
X41213623Y-35777000D01*
X41386377Y-35777000D01*
X41555811Y-35743297D01*
X41715415Y-35677187D01*
X41859055Y-35581210D01*
X41941114Y-35499151D01*
X67273000Y-35499151D01*
X67273000Y-35740849D01*
X67320153Y-35977903D01*
X67412647Y-36201202D01*
X67546927Y-36402167D01*
X67717833Y-36573073D01*
X67918798Y-36707353D01*
X68142097Y-36799847D01*
X68379151Y-36847000D01*
X68620849Y-36847000D01*
X68857903Y-36799847D01*
X69081202Y-36707353D01*
X69282167Y-36573073D01*
X69453073Y-36402167D01*
X69587353Y-36201202D01*
X69679847Y-35977903D01*
X69727000Y-35740849D01*
X69727000Y-35499151D01*
X69813000Y-35499151D01*
X69813000Y-35740849D01*
X69860153Y-35977903D01*
X69952647Y-36201202D01*
X70086927Y-36402167D01*
X70257833Y-36573073D01*
X70458798Y-36707353D01*
X70682097Y-36799847D01*
X70919151Y-36847000D01*
X71160849Y-36847000D01*
X71397903Y-36799847D01*
X71621202Y-36707353D01*
X71822167Y-36573073D01*
X71993073Y-36402167D01*
X72127353Y-36201202D01*
X72219847Y-35977903D01*
X72267000Y-35740849D01*
X72267000Y-35499151D01*
X72219847Y-35262097D01*
X72127353Y-35038798D01*
X71993073Y-34837833D01*
X71822167Y-34666927D01*
X71621202Y-34532647D01*
X71397903Y-34440153D01*
X71160849Y-34393000D01*
X70919151Y-34393000D01*
X70682097Y-34440153D01*
X70458798Y-34532647D01*
X70257833Y-34666927D01*
X70086927Y-34837833D01*
X69952647Y-35038798D01*
X69860153Y-35262097D01*
X69813000Y-35499151D01*
X69727000Y-35499151D01*
X69679847Y-35262097D01*
X69587353Y-35038798D01*
X69453073Y-34837833D01*
X69282167Y-34666927D01*
X69081202Y-34532647D01*
X68857903Y-34440153D01*
X68620849Y-34393000D01*
X68379151Y-34393000D01*
X68142097Y-34440153D01*
X67918798Y-34532647D01*
X67717833Y-34666927D01*
X67546927Y-34837833D01*
X67412647Y-35038798D01*
X67320153Y-35262097D01*
X67273000Y-35499151D01*
X41941114Y-35499151D01*
X41981210Y-35459055D01*
X42077187Y-35315415D01*
X42143297Y-35155811D01*
X42177000Y-34986377D01*
X42177000Y-34813623D01*
X42143297Y-34644189D01*
X42077187Y-34484585D01*
X41981210Y-34340945D01*
X41859055Y-34218790D01*
X41715415Y-34122813D01*
X41555811Y-34056703D01*
X41386377Y-34023000D01*
X41302000Y-34023000D01*
X41302000Y-31819333D01*
X41359055Y-31781210D01*
X41481210Y-31659055D01*
X41577187Y-31515415D01*
X41643297Y-31355811D01*
X41677000Y-31186377D01*
X41677000Y-31013623D01*
X41643297Y-30844189D01*
X41577187Y-30684585D01*
X41545698Y-30637458D01*
X58565000Y-30637458D01*
X58565000Y-31814250D01*
X58723750Y-31973000D01*
X59221835Y-31973000D01*
X59215172Y-32006176D01*
X59214829Y-32190355D01*
X59222048Y-32227000D01*
X58723750Y-32227000D01*
X58565000Y-32385750D01*
X58565000Y-33562542D01*
X58589403Y-33685223D01*
X58637270Y-33800785D01*
X58706763Y-33904789D01*
X58795211Y-33993237D01*
X58899215Y-34062730D01*
X59014777Y-34110597D01*
X59137458Y-34135000D01*
X60314250Y-34135000D01*
X60473000Y-33976250D01*
X60473000Y-33478165D01*
X60506176Y-33484828D01*
X60690355Y-33485171D01*
X60727000Y-33477952D01*
X60727000Y-33976250D01*
X60885750Y-34135000D01*
X62062542Y-34135000D01*
X62185223Y-34110597D01*
X62300785Y-34062730D01*
X62404789Y-33993237D01*
X62493237Y-33904789D01*
X62562730Y-33800785D01*
X62610597Y-33685223D01*
X62635000Y-33562542D01*
X62635000Y-32959151D01*
X67273000Y-32959151D01*
X67273000Y-33200849D01*
X67320153Y-33437903D01*
X67412647Y-33661202D01*
X67546927Y-33862167D01*
X67717833Y-34033073D01*
X67918798Y-34167353D01*
X68142097Y-34259847D01*
X68379151Y-34307000D01*
X68620849Y-34307000D01*
X68857903Y-34259847D01*
X69081202Y-34167353D01*
X69282167Y-34033073D01*
X69453073Y-33862167D01*
X69587353Y-33661202D01*
X69679847Y-33437903D01*
X69727000Y-33200849D01*
X69727000Y-32959151D01*
X69813000Y-32959151D01*
X69813000Y-33200849D01*
X69860153Y-33437903D01*
X69952647Y-33661202D01*
X70086927Y-33862167D01*
X70257833Y-34033073D01*
X70458798Y-34167353D01*
X70682097Y-34259847D01*
X70919151Y-34307000D01*
X71160849Y-34307000D01*
X71397903Y-34259847D01*
X71621202Y-34167353D01*
X71822167Y-34033073D01*
X71993073Y-33862167D01*
X72127353Y-33661202D01*
X72219847Y-33437903D01*
X72267000Y-33200849D01*
X72267000Y-32959151D01*
X72219847Y-32722097D01*
X72127353Y-32498798D01*
X71993073Y-32297833D01*
X71822167Y-32126927D01*
X71621202Y-31992647D01*
X71397903Y-31900153D01*
X71160849Y-31853000D01*
X70919151Y-31853000D01*
X70682097Y-31900153D01*
X70458798Y-31992647D01*
X70257833Y-32126927D01*
X70086927Y-32297833D01*
X69952647Y-32498798D01*
X69860153Y-32722097D01*
X69813000Y-32959151D01*
X69727000Y-32959151D01*
X69679847Y-32722097D01*
X69587353Y-32498798D01*
X69453073Y-32297833D01*
X69282167Y-32126927D01*
X69081202Y-31992647D01*
X68857903Y-31900153D01*
X68620849Y-31853000D01*
X68379151Y-31853000D01*
X68142097Y-31900153D01*
X67918798Y-31992647D01*
X67717833Y-32126927D01*
X67546927Y-32297833D01*
X67412647Y-32498798D01*
X67320153Y-32722097D01*
X67273000Y-32959151D01*
X62635000Y-32959151D01*
X62635000Y-32385750D01*
X62476250Y-32227000D01*
X61978165Y-32227000D01*
X61984828Y-32193824D01*
X61985171Y-32009645D01*
X61977952Y-31973000D01*
X62476250Y-31973000D01*
X62635000Y-31814250D01*
X62635000Y-30637458D01*
X62610597Y-30514777D01*
X62570988Y-30419151D01*
X67273000Y-30419151D01*
X67273000Y-30660849D01*
X67320153Y-30897903D01*
X67412647Y-31121202D01*
X67546927Y-31322167D01*
X67717833Y-31493073D01*
X67918798Y-31627353D01*
X68142097Y-31719847D01*
X68379151Y-31767000D01*
X68620849Y-31767000D01*
X68857903Y-31719847D01*
X69081202Y-31627353D01*
X69282167Y-31493073D01*
X69453073Y-31322167D01*
X69587353Y-31121202D01*
X69679847Y-30897903D01*
X69727000Y-30660849D01*
X69727000Y-30419151D01*
X69813000Y-30419151D01*
X69813000Y-30660849D01*
X69860153Y-30897903D01*
X69952647Y-31121202D01*
X70086927Y-31322167D01*
X70257833Y-31493073D01*
X70458798Y-31627353D01*
X70682097Y-31719847D01*
X70919151Y-31767000D01*
X71160849Y-31767000D01*
X71397903Y-31719847D01*
X71621202Y-31627353D01*
X71822167Y-31493073D01*
X71993073Y-31322167D01*
X72127353Y-31121202D01*
X72219847Y-30897903D01*
X72267000Y-30660849D01*
X72267000Y-30419151D01*
X72219847Y-30182097D01*
X72127353Y-29958798D01*
X71993073Y-29757833D01*
X71822167Y-29586927D01*
X71621202Y-29452647D01*
X71513049Y-29407848D01*
X71673747Y-29350919D01*
X71811157Y-29277472D01*
X71888792Y-29028397D01*
X71040000Y-28179605D01*
X70191208Y-29028397D01*
X70268843Y-29277472D01*
X70532883Y-29403371D01*
X70560709Y-29410434D01*
X70458798Y-29452647D01*
X70257833Y-29586927D01*
X70086927Y-29757833D01*
X69952647Y-29958798D01*
X69860153Y-30182097D01*
X69813000Y-30419151D01*
X69727000Y-30419151D01*
X69679847Y-30182097D01*
X69587353Y-29958798D01*
X69453073Y-29757833D01*
X69282167Y-29586927D01*
X69081202Y-29452647D01*
X68857903Y-29360153D01*
X68620849Y-29313000D01*
X68379151Y-29313000D01*
X68142097Y-29360153D01*
X67918798Y-29452647D01*
X67717833Y-29586927D01*
X67546927Y-29757833D01*
X67412647Y-29958798D01*
X67320153Y-30182097D01*
X67273000Y-30419151D01*
X62570988Y-30419151D01*
X62562730Y-30399215D01*
X62493237Y-30295211D01*
X62404789Y-30206763D01*
X62300785Y-30137270D01*
X62185223Y-30089403D01*
X62062542Y-30065000D01*
X60885750Y-30065000D01*
X60727000Y-30223750D01*
X60727000Y-30721835D01*
X60693824Y-30715172D01*
X60509645Y-30714829D01*
X60473000Y-30722048D01*
X60473000Y-30223750D01*
X60314250Y-30065000D01*
X59137458Y-30065000D01*
X59014777Y-30089403D01*
X58899215Y-30137270D01*
X58795211Y-30206763D01*
X58706763Y-30295211D01*
X58637270Y-30399215D01*
X58589403Y-30514777D01*
X58565000Y-30637458D01*
X41545698Y-30637458D01*
X41481210Y-30540945D01*
X41359055Y-30418790D01*
X41215415Y-30322813D01*
X41055811Y-30256703D01*
X40886377Y-30223000D01*
X40713623Y-30223000D01*
X40544189Y-30256703D01*
X40384585Y-30322813D01*
X40240945Y-30418790D01*
X40118790Y-30540945D01*
X40052272Y-30640496D01*
X39931907Y-30520131D01*
X39788267Y-30424154D01*
X39628663Y-30358044D01*
X39459229Y-30324341D01*
X39286475Y-30324341D01*
X39117041Y-30358044D01*
X38957437Y-30424154D01*
X38813797Y-30520131D01*
X38691642Y-30642286D01*
X38595665Y-30785926D01*
X38529555Y-30945530D01*
X38495852Y-31114964D01*
X27094985Y-31114964D01*
X27346366Y-30863584D01*
X27413667Y-30876971D01*
X27586421Y-30876971D01*
X27755855Y-30843268D01*
X27915459Y-30777158D01*
X28059099Y-30681181D01*
X28181254Y-30559026D01*
X28277231Y-30415386D01*
X28343341Y-30255782D01*
X28377044Y-30086348D01*
X28377044Y-29913594D01*
X28343341Y-29744160D01*
X28277231Y-29584556D01*
X28181254Y-29440916D01*
X28059099Y-29318761D01*
X27915459Y-29222784D01*
X27755855Y-29156674D01*
X27586421Y-29122971D01*
X27413667Y-29122971D01*
X27244233Y-29156674D01*
X27084629Y-29222784D01*
X26940989Y-29318761D01*
X26818834Y-29440916D01*
X26722857Y-29584556D01*
X26656747Y-29744160D01*
X26623044Y-29913594D01*
X26623044Y-30086348D01*
X26636431Y-30153649D01*
X26142092Y-30647989D01*
X24196741Y-30647989D01*
X24158618Y-30590934D01*
X24036463Y-30468779D01*
X23892823Y-30372802D01*
X23733219Y-30306692D01*
X23563785Y-30272989D01*
X23391031Y-30272989D01*
X23221597Y-30306692D01*
X23061993Y-30372802D01*
X22918353Y-30468779D01*
X22796198Y-30590934D01*
X22700221Y-30734574D01*
X22634111Y-30894178D01*
X22600408Y-31063612D01*
X22600408Y-31236366D01*
X22634111Y-31405800D01*
X22700221Y-31565404D01*
X22796198Y-31709044D01*
X22918353Y-31831199D01*
X22975408Y-31869322D01*
X22975409Y-32350493D01*
X22944189Y-32356703D01*
X22784585Y-32422813D01*
X22640945Y-32518790D01*
X22518790Y-32640945D01*
X22422813Y-32784585D01*
X22356703Y-32944189D01*
X22323000Y-33113623D01*
X4188291Y-33113623D01*
X4264084Y-32971824D01*
X4334245Y-32740534D01*
X4357936Y-32500000D01*
X4334245Y-32259466D01*
X4264084Y-32028176D01*
X4150149Y-31815017D01*
X3996817Y-31628183D01*
X3809983Y-31474851D01*
X3596824Y-31360916D01*
X3365534Y-31290755D01*
X3185268Y-31273000D01*
X2814732Y-31273000D01*
X2634466Y-31290755D01*
X2403176Y-31360916D01*
X2190017Y-31474851D01*
X2003183Y-31628183D01*
X1849851Y-31815017D01*
X1735916Y-32028176D01*
X1665755Y-32259466D01*
X1642064Y-32500000D01*
X1665755Y-32740534D01*
X1735916Y-32971824D01*
X1849851Y-33184983D01*
X2003183Y-33371817D01*
X2190017Y-33525149D01*
X2351332Y-33611373D01*
X2097430Y-33734947D01*
X1865571Y-33910951D01*
X1672504Y-34128807D01*
X1525648Y-34380142D01*
X1433524Y-34643110D01*
X477000Y-34643110D01*
X477000Y-30000000D01*
X1642064Y-30000000D01*
X1665755Y-30240534D01*
X1735916Y-30471824D01*
X1849851Y-30684983D01*
X2003183Y-30871817D01*
X2190017Y-31025149D01*
X2403176Y-31139084D01*
X2634466Y-31209245D01*
X2814732Y-31227000D01*
X3185268Y-31227000D01*
X3365534Y-31209245D01*
X3596824Y-31139084D01*
X3809983Y-31025149D01*
X3996817Y-30871817D01*
X4150149Y-30684983D01*
X4264084Y-30471824D01*
X4334245Y-30240534D01*
X4357936Y-30000000D01*
X4334245Y-29759466D01*
X4264084Y-29528176D01*
X4150149Y-29315017D01*
X3996817Y-29128183D01*
X3809983Y-28974851D01*
X3596824Y-28860916D01*
X3365534Y-28790755D01*
X3185268Y-28773000D01*
X2814732Y-28773000D01*
X2634466Y-28790755D01*
X2403176Y-28860916D01*
X2190017Y-28974851D01*
X2003183Y-29128183D01*
X1849851Y-29315017D01*
X1735916Y-29528176D01*
X1665755Y-29759466D01*
X1642064Y-30000000D01*
X477000Y-30000000D01*
X477000Y-27500000D01*
X1642064Y-27500000D01*
X1665755Y-27740534D01*
X1735916Y-27971824D01*
X1849851Y-28184983D01*
X2003183Y-28371817D01*
X2190017Y-28525149D01*
X2403176Y-28639084D01*
X2634466Y-28709245D01*
X2814732Y-28727000D01*
X3185268Y-28727000D01*
X3365534Y-28709245D01*
X3596824Y-28639084D01*
X3809983Y-28525149D01*
X3996817Y-28371817D01*
X4150149Y-28184983D01*
X4264084Y-27971824D01*
X4334245Y-27740534D01*
X4357936Y-27500000D01*
X4334245Y-27259466D01*
X4264084Y-27028176D01*
X4150149Y-26815017D01*
X4149005Y-26813623D01*
X23423000Y-26813623D01*
X23423000Y-26986377D01*
X23456703Y-27155811D01*
X23522813Y-27315415D01*
X23618790Y-27459055D01*
X23740945Y-27581210D01*
X23884585Y-27677187D01*
X24044189Y-27743297D01*
X24213623Y-27777000D01*
X24386377Y-27777000D01*
X24555811Y-27743297D01*
X24715415Y-27677187D01*
X24859055Y-27581210D01*
X24981210Y-27459055D01*
X25077187Y-27315415D01*
X25143297Y-27155811D01*
X25177000Y-26986377D01*
X25177000Y-26813623D01*
X25143297Y-26644189D01*
X25077187Y-26484585D01*
X24981210Y-26340945D01*
X24859055Y-26218790D01*
X24802000Y-26180667D01*
X24802000Y-25214701D01*
X24863657Y-25226966D01*
X25036411Y-25226966D01*
X25205845Y-25193263D01*
X25365449Y-25127153D01*
X25509089Y-25031176D01*
X25631244Y-24909021D01*
X25727221Y-24765381D01*
X25793331Y-24605777D01*
X25827034Y-24436343D01*
X25827034Y-24263589D01*
X25793331Y-24094155D01*
X25727221Y-23934551D01*
X25631244Y-23790911D01*
X25509089Y-23668756D01*
X25365449Y-23572779D01*
X25205845Y-23506669D01*
X25036411Y-23472966D01*
X24863657Y-23472966D01*
X24694223Y-23506669D01*
X24534619Y-23572779D01*
X24390979Y-23668756D01*
X24268824Y-23790911D01*
X24172847Y-23934551D01*
X24106737Y-24094155D01*
X24073034Y-24263589D01*
X24073034Y-24436343D01*
X24086421Y-24503644D01*
X23962467Y-24627599D01*
X23943316Y-24643316D01*
X23880583Y-24719755D01*
X23833969Y-24806965D01*
X23805264Y-24901592D01*
X23798000Y-24975348D01*
X23798000Y-24975357D01*
X23795573Y-25000000D01*
X23798000Y-25024643D01*
X23798001Y-26168232D01*
X23798000Y-26168242D01*
X23798000Y-26180667D01*
X23740945Y-26218790D01*
X23618790Y-26340945D01*
X23522813Y-26484585D01*
X23456703Y-26644189D01*
X23423000Y-26813623D01*
X4149005Y-26813623D01*
X3996817Y-26628183D01*
X3809983Y-26474851D01*
X3596824Y-26360916D01*
X3365534Y-26290755D01*
X3185268Y-26273000D01*
X2814732Y-26273000D01*
X2634466Y-26290755D01*
X2403176Y-26360916D01*
X2190017Y-26474851D01*
X2003183Y-26628183D01*
X1849851Y-26815017D01*
X1735916Y-27028176D01*
X1665755Y-27259466D01*
X1642064Y-27500000D01*
X477000Y-27500000D01*
X477000Y-25000000D01*
X1642064Y-25000000D01*
X1665755Y-25240534D01*
X1735916Y-25471824D01*
X1849851Y-25684983D01*
X2003183Y-25871817D01*
X2190017Y-26025149D01*
X2403176Y-26139084D01*
X2634466Y-26209245D01*
X2814732Y-26227000D01*
X3185268Y-26227000D01*
X3365534Y-26209245D01*
X3596824Y-26139084D01*
X3809983Y-26025149D01*
X3996817Y-25871817D01*
X4150149Y-25684983D01*
X4264084Y-25471824D01*
X4334245Y-25240534D01*
X4357936Y-25000000D01*
X4334245Y-24759466D01*
X4264084Y-24528176D01*
X4150149Y-24315017D01*
X3996817Y-24128183D01*
X3809983Y-23974851D01*
X3596824Y-23860916D01*
X3365534Y-23790755D01*
X3185268Y-23773000D01*
X2814732Y-23773000D01*
X2634466Y-23790755D01*
X2403176Y-23860916D01*
X2190017Y-23974851D01*
X2003183Y-24128183D01*
X1849851Y-24315017D01*
X1735916Y-24528176D01*
X1665755Y-24759466D01*
X1642064Y-25000000D01*
X477000Y-25000000D01*
X477000Y-21900000D01*
X1646176Y-21900000D01*
X1646176Y-23100000D01*
X1658259Y-23222677D01*
X1694042Y-23340641D01*
X1752152Y-23449356D01*
X1830354Y-23544646D01*
X1925644Y-23622848D01*
X2034359Y-23680958D01*
X2152323Y-23716741D01*
X2275000Y-23728824D01*
X3725000Y-23728824D01*
X3847677Y-23716741D01*
X3965641Y-23680958D01*
X4074356Y-23622848D01*
X4169646Y-23544646D01*
X4247848Y-23449356D01*
X4305958Y-23340641D01*
X4341741Y-23222677D01*
X4353824Y-23100000D01*
X4353824Y-21900000D01*
X4341741Y-21777323D01*
X4305958Y-21659359D01*
X4247848Y-21550644D01*
X4169646Y-21455354D01*
X4074356Y-21377152D01*
X3965641Y-21319042D01*
X3847677Y-21283259D01*
X3725000Y-21271176D01*
X2275000Y-21271176D01*
X2152323Y-21283259D01*
X2034359Y-21319042D01*
X1925644Y-21377152D01*
X1830354Y-21455354D01*
X1752152Y-21550644D01*
X1694042Y-21659359D01*
X1658259Y-21777323D01*
X1646176Y-21900000D01*
X477000Y-21900000D01*
X477000Y-20913623D01*
X10123000Y-20913623D01*
X10123000Y-21086377D01*
X10156703Y-21255811D01*
X10222813Y-21415415D01*
X10318790Y-21559055D01*
X10440945Y-21681210D01*
X10584585Y-21777187D01*
X10744189Y-21843297D01*
X10913623Y-21877000D01*
X11086377Y-21877000D01*
X11153678Y-21863613D01*
X12136387Y-22846322D01*
X12123000Y-22913623D01*
X12123000Y-23086377D01*
X12156703Y-23255811D01*
X12222813Y-23415415D01*
X12318790Y-23559055D01*
X12357735Y-23598000D01*
X11724642Y-23598000D01*
X11699999Y-23595573D01*
X11675356Y-23598000D01*
X11675347Y-23598000D01*
X11601591Y-23605264D01*
X11506964Y-23633969D01*
X11419755Y-23680583D01*
X11411134Y-23687658D01*
X11365098Y-23725440D01*
X11343316Y-23743316D01*
X11327603Y-23762462D01*
X11253678Y-23836387D01*
X11186377Y-23823000D01*
X11013623Y-23823000D01*
X10844189Y-23856703D01*
X10684585Y-23922813D01*
X10540945Y-24018790D01*
X10418790Y-24140945D01*
X10322813Y-24284585D01*
X10256703Y-24444189D01*
X10223000Y-24613623D01*
X10223000Y-24786377D01*
X10256703Y-24955811D01*
X10322813Y-25115415D01*
X10418790Y-25259055D01*
X10540945Y-25381210D01*
X10684585Y-25477187D01*
X10844189Y-25543297D01*
X11013623Y-25577000D01*
X11186377Y-25577000D01*
X11355811Y-25543297D01*
X11515415Y-25477187D01*
X11659055Y-25381210D01*
X11781210Y-25259055D01*
X11877187Y-25115415D01*
X11943297Y-24955811D01*
X11977000Y-24786377D01*
X11977000Y-24613623D01*
X11974688Y-24602000D01*
X17150667Y-24602000D01*
X17188790Y-24659055D01*
X17310945Y-24781210D01*
X17454585Y-24877187D01*
X17614189Y-24943297D01*
X17783623Y-24977000D01*
X17956377Y-24977000D01*
X18125811Y-24943297D01*
X18285415Y-24877187D01*
X18429055Y-24781210D01*
X18551210Y-24659055D01*
X18647187Y-24515415D01*
X18713297Y-24355811D01*
X18747000Y-24186377D01*
X18747000Y-24113623D01*
X21023000Y-24113623D01*
X21023000Y-24286377D01*
X21056703Y-24455811D01*
X21122813Y-24615415D01*
X21218790Y-24759055D01*
X21340945Y-24881210D01*
X21484585Y-24977187D01*
X21644189Y-25043297D01*
X21813623Y-25077000D01*
X21986377Y-25077000D01*
X22155811Y-25043297D01*
X22315415Y-24977187D01*
X22459055Y-24881210D01*
X22581210Y-24759055D01*
X22677187Y-24615415D01*
X22743297Y-24455811D01*
X22777000Y-24286377D01*
X22777000Y-24113623D01*
X22743297Y-23944189D01*
X22677187Y-23784585D01*
X22581210Y-23640945D01*
X22459055Y-23518790D01*
X22402000Y-23480667D01*
X22402000Y-22882721D01*
X22415415Y-22877164D01*
X22559055Y-22781187D01*
X22681210Y-22659032D01*
X22723957Y-22595055D01*
X40995489Y-22595055D01*
X40995489Y-22767809D01*
X41029192Y-22937243D01*
X41095302Y-23096847D01*
X41191279Y-23240487D01*
X41313434Y-23362642D01*
X41370489Y-23400765D01*
X41370489Y-23413190D01*
X41370490Y-23413200D01*
X41370489Y-27040740D01*
X41368062Y-27065383D01*
X41370489Y-27090026D01*
X41370489Y-27090035D01*
X41377753Y-27163791D01*
X41406458Y-27258418D01*
X41453072Y-27345628D01*
X41515805Y-27422067D01*
X41534956Y-27437784D01*
X41678453Y-27581282D01*
X41618790Y-27640945D01*
X41522813Y-27784585D01*
X41456703Y-27944189D01*
X41423000Y-28113623D01*
X41423000Y-28286377D01*
X41456703Y-28455811D01*
X41522813Y-28615415D01*
X41618790Y-28759055D01*
X41740945Y-28881210D01*
X41884585Y-28977187D01*
X42044189Y-29043297D01*
X42213623Y-29077000D01*
X42386377Y-29077000D01*
X42555811Y-29043297D01*
X42715415Y-28977187D01*
X42859055Y-28881210D01*
X42981210Y-28759055D01*
X43062904Y-28636791D01*
X43080592Y-28663262D01*
X43202747Y-28785417D01*
X43346387Y-28881394D01*
X43505991Y-28947504D01*
X43675425Y-28981207D01*
X43848179Y-28981207D01*
X44017613Y-28947504D01*
X44177217Y-28881394D01*
X44320857Y-28785417D01*
X44443012Y-28663262D01*
X44538989Y-28519622D01*
X44605099Y-28360018D01*
X44638802Y-28190584D01*
X44638802Y-28017830D01*
X44605099Y-27848396D01*
X44538989Y-27688792D01*
X44443012Y-27545152D01*
X44320857Y-27422997D01*
X44177217Y-27327020D01*
X44017613Y-27260910D01*
X43848179Y-27227207D01*
X43675425Y-27227207D01*
X43608124Y-27240594D01*
X43472540Y-27105011D01*
X43472540Y-24269279D01*
X43529595Y-24231156D01*
X43651750Y-24109001D01*
X43747727Y-23965361D01*
X43764187Y-23925624D01*
X43781510Y-23942947D01*
X43838565Y-23981070D01*
X43838565Y-23993495D01*
X43838566Y-23993505D01*
X43838565Y-26027955D01*
X43836138Y-26052598D01*
X43838565Y-26077241D01*
X43838565Y-26077250D01*
X43845829Y-26151006D01*
X43874534Y-26245633D01*
X43921148Y-26332843D01*
X43983881Y-26409282D01*
X44003032Y-26424999D01*
X44508710Y-26930678D01*
X44495323Y-26997979D01*
X44495323Y-27170733D01*
X44529026Y-27340167D01*
X44595136Y-27499771D01*
X44691113Y-27643411D01*
X44813268Y-27765566D01*
X44956908Y-27861543D01*
X45116512Y-27927653D01*
X45285946Y-27961356D01*
X45458700Y-27961356D01*
X45628134Y-27927653D01*
X45787738Y-27861543D01*
X45931378Y-27765566D01*
X46053533Y-27643411D01*
X46149510Y-27499771D01*
X46215620Y-27340167D01*
X46249323Y-27170733D01*
X46249323Y-26997979D01*
X46215620Y-26828545D01*
X46149510Y-26668941D01*
X46053533Y-26525301D01*
X45931378Y-26403146D01*
X45787738Y-26307169D01*
X45628134Y-26241059D01*
X45458700Y-26207356D01*
X45285946Y-26207356D01*
X45218645Y-26220743D01*
X44911480Y-25913578D01*
X49323000Y-25913578D01*
X49323000Y-26086332D01*
X49356703Y-26255766D01*
X49422813Y-26415370D01*
X49518790Y-26559010D01*
X49640945Y-26681165D01*
X49784585Y-26777142D01*
X49898001Y-26824120D01*
X49898000Y-28280667D01*
X49840945Y-28318790D01*
X49718790Y-28440945D01*
X49622813Y-28584585D01*
X49556703Y-28744189D01*
X49523000Y-28913623D01*
X49523000Y-29086377D01*
X49556703Y-29255811D01*
X49622813Y-29415415D01*
X49718790Y-29559055D01*
X49840945Y-29681210D01*
X49984585Y-29777187D01*
X50144189Y-29843297D01*
X50313623Y-29877000D01*
X50486377Y-29877000D01*
X50655811Y-29843297D01*
X50815415Y-29777187D01*
X50959055Y-29681210D01*
X51081210Y-29559055D01*
X51177187Y-29415415D01*
X51243297Y-29255811D01*
X51277000Y-29086377D01*
X51277000Y-28913623D01*
X51243297Y-28744189D01*
X51177187Y-28584585D01*
X51081210Y-28440945D01*
X50959055Y-28318790D01*
X50902000Y-28280667D01*
X50902000Y-28075913D01*
X51737783Y-28075913D01*
X51737783Y-28248667D01*
X51771486Y-28418101D01*
X51837596Y-28577705D01*
X51933573Y-28721345D01*
X52055728Y-28843500D01*
X52199368Y-28939477D01*
X52358972Y-29005587D01*
X52528406Y-29039290D01*
X52701160Y-29039290D01*
X52870594Y-29005587D01*
X53030198Y-28939477D01*
X53173838Y-28843500D01*
X53295993Y-28721345D01*
X53391970Y-28577705D01*
X53458080Y-28418101D01*
X53491783Y-28248667D01*
X53491783Y-28075913D01*
X53458080Y-27906479D01*
X53391970Y-27746875D01*
X53295993Y-27603235D01*
X53173838Y-27481080D01*
X53116783Y-27442957D01*
X53116783Y-27227533D01*
X53203909Y-27169317D01*
X53326064Y-27047162D01*
X53422041Y-26903522D01*
X53488151Y-26743918D01*
X53521854Y-26574484D01*
X53521854Y-26401730D01*
X53488151Y-26232296D01*
X53422041Y-26072692D01*
X53326064Y-25929052D01*
X53203909Y-25806897D01*
X53060269Y-25710920D01*
X52900665Y-25644810D01*
X52731231Y-25611107D01*
X52558477Y-25611107D01*
X52389043Y-25644810D01*
X52229439Y-25710920D01*
X52085799Y-25806897D01*
X51963644Y-25929052D01*
X51867667Y-26072692D01*
X51801557Y-26232296D01*
X51767854Y-26401730D01*
X51767854Y-26574484D01*
X51801557Y-26743918D01*
X51867667Y-26903522D01*
X51963644Y-27047162D01*
X52085799Y-27169317D01*
X52112784Y-27187347D01*
X52112783Y-27442957D01*
X52055728Y-27481080D01*
X51933573Y-27603235D01*
X51837596Y-27746875D01*
X51771486Y-27906479D01*
X51737783Y-28075913D01*
X50902000Y-28075913D01*
X50902000Y-26527896D01*
X50977187Y-26415370D01*
X51043297Y-26255766D01*
X51077000Y-26086332D01*
X51077000Y-25913578D01*
X51043297Y-25744144D01*
X50977187Y-25584540D01*
X50881210Y-25440900D01*
X50759055Y-25318745D01*
X50615415Y-25222768D01*
X50455811Y-25156658D01*
X50286377Y-25122955D01*
X50113623Y-25122955D01*
X49944189Y-25156658D01*
X49784585Y-25222768D01*
X49640945Y-25318745D01*
X49518790Y-25440900D01*
X49422813Y-25584540D01*
X49356703Y-25744144D01*
X49323000Y-25913578D01*
X44911480Y-25913578D01*
X44842565Y-25844664D01*
X44842565Y-23981070D01*
X44899620Y-23942947D01*
X45021775Y-23820792D01*
X45026580Y-23813600D01*
X52948010Y-23813600D01*
X52948010Y-23986354D01*
X52981713Y-24155788D01*
X53047823Y-24315392D01*
X53143800Y-24459032D01*
X53265955Y-24581187D01*
X53409595Y-24677164D01*
X53569199Y-24743274D01*
X53738633Y-24776977D01*
X53898000Y-24776977D01*
X53898001Y-25268232D01*
X53898000Y-25268242D01*
X53898000Y-25280667D01*
X53840945Y-25318790D01*
X53718790Y-25440945D01*
X53622813Y-25584585D01*
X53556703Y-25744189D01*
X53523000Y-25913623D01*
X53523000Y-26086377D01*
X53556703Y-26255811D01*
X53622813Y-26415415D01*
X53718790Y-26559055D01*
X53840945Y-26681210D01*
X53984585Y-26777187D01*
X54144189Y-26843297D01*
X54313623Y-26877000D01*
X54486377Y-26877000D01*
X54655811Y-26843297D01*
X54815415Y-26777187D01*
X54959055Y-26681210D01*
X55081210Y-26559055D01*
X55177187Y-26415415D01*
X55243297Y-26255811D01*
X55277000Y-26086377D01*
X55277000Y-25946556D01*
X55318798Y-26009111D01*
X55440953Y-26131266D01*
X55584593Y-26227243D01*
X55744197Y-26293353D01*
X55913631Y-26327056D01*
X56086385Y-26327056D01*
X56255819Y-26293353D01*
X56415423Y-26227243D01*
X56559063Y-26131266D01*
X56674710Y-26015619D01*
X56674710Y-26232894D01*
X56674709Y-26232904D01*
X56674709Y-26245329D01*
X56617654Y-26283452D01*
X56495499Y-26405607D01*
X56399522Y-26549247D01*
X56333412Y-26708851D01*
X56299709Y-26878285D01*
X56299709Y-27051039D01*
X56333412Y-27220473D01*
X56399522Y-27380077D01*
X56495499Y-27523717D01*
X56617654Y-27645872D01*
X56761294Y-27741849D01*
X56920898Y-27807959D01*
X57090332Y-27841662D01*
X57263086Y-27841662D01*
X57432520Y-27807959D01*
X57592124Y-27741849D01*
X57735764Y-27645872D01*
X57857919Y-27523717D01*
X57953896Y-27380077D01*
X58020006Y-27220473D01*
X58053709Y-27051039D01*
X58053709Y-26878285D01*
X58020006Y-26708851D01*
X57953896Y-26549247D01*
X57857919Y-26405607D01*
X57735764Y-26283452D01*
X57678709Y-26245329D01*
X57678709Y-25517837D01*
X57870364Y-25326182D01*
X57847998Y-25438623D01*
X57847998Y-25611377D01*
X57881701Y-25780811D01*
X57947811Y-25940415D01*
X58043788Y-26084055D01*
X58165943Y-26206210D01*
X58309583Y-26302187D01*
X58469187Y-26368297D01*
X58638621Y-26402000D01*
X58811375Y-26402000D01*
X58900668Y-26384238D01*
X58909434Y-26428306D01*
X58975544Y-26587910D01*
X59071521Y-26731550D01*
X59193676Y-26853705D01*
X59337316Y-26949682D01*
X59496920Y-27015792D01*
X59666354Y-27049495D01*
X59839108Y-27049495D01*
X60008542Y-27015792D01*
X60168146Y-26949682D01*
X60311786Y-26853705D01*
X60433941Y-26731550D01*
X60529918Y-26587910D01*
X60596028Y-26428306D01*
X60629731Y-26258872D01*
X60629731Y-26086118D01*
X60596028Y-25916684D01*
X60529918Y-25757080D01*
X60433941Y-25613440D01*
X60350995Y-25530494D01*
X60355934Y-25521253D01*
X60366649Y-25485930D01*
X60384639Y-25426627D01*
X60388118Y-25391303D01*
X60391903Y-25352870D01*
X60391903Y-25352863D01*
X60394330Y-25328217D01*
X60391903Y-25303572D01*
X60391903Y-24077465D01*
X60503154Y-23966214D01*
X60522306Y-23950496D01*
X60585039Y-23874057D01*
X60625633Y-23798111D01*
X60631652Y-23786850D01*
X60632339Y-23784585D01*
X60660358Y-23692221D01*
X60667622Y-23618465D01*
X60667622Y-23618456D01*
X60670049Y-23593813D01*
X60667622Y-23569168D01*
X60667622Y-22136639D01*
X62212729Y-20591533D01*
X62139442Y-20701214D01*
X62073332Y-20860818D01*
X62039629Y-21030252D01*
X62039629Y-21203006D01*
X62053016Y-21270307D01*
X61737451Y-21585872D01*
X61718306Y-21601585D01*
X61702593Y-21620731D01*
X61702590Y-21620734D01*
X61655573Y-21678024D01*
X61608959Y-21765233D01*
X61580254Y-21859860D01*
X61570562Y-21958269D01*
X61572990Y-21982922D01*
X61572989Y-23725036D01*
X61515934Y-23763159D01*
X61393779Y-23885314D01*
X61297802Y-24028954D01*
X61231692Y-24188558D01*
X61197989Y-24357992D01*
X61197989Y-24530746D01*
X61231692Y-24700180D01*
X61297802Y-24859784D01*
X61393779Y-25003424D01*
X61515934Y-25125579D01*
X61659574Y-25221556D01*
X61819178Y-25287666D01*
X61988612Y-25321369D01*
X62161366Y-25321369D01*
X62330800Y-25287666D01*
X62398000Y-25259831D01*
X62398000Y-25323000D01*
X62313623Y-25323000D01*
X62144189Y-25356703D01*
X61984585Y-25422813D01*
X61840945Y-25518790D01*
X61718790Y-25640945D01*
X61622813Y-25784585D01*
X61556703Y-25944189D01*
X61523000Y-26113623D01*
X61523000Y-26286377D01*
X61556703Y-26455811D01*
X61622813Y-26615415D01*
X61718790Y-26759055D01*
X61840945Y-26881210D01*
X61984585Y-26977187D01*
X62144189Y-27043297D01*
X62313623Y-27077000D01*
X62486377Y-27077000D01*
X62655811Y-27043297D01*
X62815415Y-26977187D01*
X62959055Y-26881210D01*
X62973555Y-26866710D01*
X62939350Y-26949288D01*
X62905647Y-27118722D01*
X62905647Y-27291476D01*
X62939350Y-27460910D01*
X63005460Y-27620514D01*
X63101437Y-27764154D01*
X63223592Y-27886309D01*
X63367232Y-27982286D01*
X63526836Y-28048396D01*
X63696270Y-28082099D01*
X63869024Y-28082099D01*
X64038458Y-28048396D01*
X64198062Y-27982286D01*
X64341702Y-27886309D01*
X64463857Y-27764154D01*
X64501980Y-27707099D01*
X64550725Y-27707099D01*
X64550725Y-27777578D01*
X64584428Y-27947012D01*
X64650538Y-28106616D01*
X64746515Y-28250256D01*
X64868670Y-28372411D01*
X65012310Y-28468388D01*
X65171914Y-28534498D01*
X65341348Y-28568201D01*
X65514102Y-28568201D01*
X65683536Y-28534498D01*
X65843140Y-28468388D01*
X65986780Y-28372411D01*
X66108935Y-28250256D01*
X66204912Y-28106616D01*
X66271022Y-27947012D01*
X66304725Y-27777578D01*
X66304725Y-27604824D01*
X66271022Y-27435390D01*
X66204912Y-27275786D01*
X66120865Y-27150000D01*
X67271176Y-27150000D01*
X67271176Y-28850000D01*
X67278455Y-28923905D01*
X67300012Y-28994970D01*
X67335019Y-29060463D01*
X67382131Y-29117869D01*
X67439537Y-29164981D01*
X67505030Y-29199988D01*
X67576095Y-29221545D01*
X67650000Y-29228824D01*
X69350000Y-29228824D01*
X69423905Y-29221545D01*
X69494970Y-29199988D01*
X69560463Y-29164981D01*
X69617869Y-29117869D01*
X69664981Y-29060463D01*
X69699988Y-28994970D01*
X69721545Y-28923905D01*
X69728824Y-28850000D01*
X69728824Y-28708101D01*
X69762528Y-28771157D01*
X70011603Y-28848792D01*
X70860395Y-28000000D01*
X71219605Y-28000000D01*
X72068397Y-28848792D01*
X72317472Y-28771157D01*
X72443371Y-28507117D01*
X72515339Y-28223589D01*
X72530611Y-27931469D01*
X72488599Y-27641981D01*
X72390919Y-27366253D01*
X72317472Y-27228843D01*
X72068397Y-27151208D01*
X71219605Y-28000000D01*
X70860395Y-28000000D01*
X70011603Y-27151208D01*
X69762528Y-27228843D01*
X69728824Y-27299528D01*
X69728824Y-27150000D01*
X69721545Y-27076095D01*
X69699988Y-27005030D01*
X69682121Y-26971603D01*
X70191208Y-26971603D01*
X71040000Y-27820395D01*
X71888792Y-26971603D01*
X71811157Y-26722528D01*
X71547117Y-26596629D01*
X71263589Y-26524661D01*
X70971469Y-26509389D01*
X70681981Y-26551401D01*
X70406253Y-26649081D01*
X70268843Y-26722528D01*
X70191208Y-26971603D01*
X69682121Y-26971603D01*
X69664981Y-26939537D01*
X69617869Y-26882131D01*
X69560463Y-26835019D01*
X69494970Y-26800012D01*
X69423905Y-26778455D01*
X69350000Y-26771176D01*
X67650000Y-26771176D01*
X67576095Y-26778455D01*
X67505030Y-26800012D01*
X67439537Y-26835019D01*
X67382131Y-26882131D01*
X67335019Y-26939537D01*
X67300012Y-27005030D01*
X67278455Y-27076095D01*
X67271176Y-27150000D01*
X66120865Y-27150000D01*
X66108935Y-27132146D01*
X65986780Y-27009991D01*
X65843140Y-26914014D01*
X65683536Y-26847904D01*
X65514102Y-26814201D01*
X65341348Y-26814201D01*
X65273148Y-26827767D01*
X65221868Y-26785682D01*
X65134659Y-26739068D01*
X65040032Y-26710363D01*
X64966276Y-26703099D01*
X64966266Y-26703099D01*
X64941623Y-26700672D01*
X64916980Y-26703099D01*
X64501980Y-26703099D01*
X64463857Y-26646044D01*
X64341702Y-26523889D01*
X64198062Y-26427912D01*
X64038458Y-26361802D01*
X63869024Y-26328099D01*
X63696270Y-26328099D01*
X63526836Y-26361802D01*
X63367232Y-26427912D01*
X63223592Y-26523889D01*
X63209092Y-26538389D01*
X63243297Y-26455811D01*
X63277000Y-26286377D01*
X63277000Y-26113623D01*
X63263920Y-26047867D01*
X63282565Y-26025149D01*
X63319415Y-25980247D01*
X63319416Y-25980246D01*
X63366030Y-25893037D01*
X63394735Y-25798410D01*
X63401999Y-25724654D01*
X63401999Y-25724645D01*
X63404426Y-25700002D01*
X63401999Y-25675359D01*
X63401999Y-22507935D01*
X68112934Y-17797001D01*
X69039358Y-17797001D01*
X69064001Y-17799428D01*
X69088644Y-17797001D01*
X69088654Y-17797001D01*
X69162410Y-17789737D01*
X69257037Y-17761032D01*
X69344246Y-17714418D01*
X69420685Y-17651685D01*
X69436402Y-17632534D01*
X70012539Y-17056398D01*
X70031685Y-17040685D01*
X70094418Y-16964246D01*
X70113432Y-16928672D01*
X70257833Y-17073073D01*
X70458798Y-17207353D01*
X70682097Y-17299847D01*
X70919151Y-17347000D01*
X71160849Y-17347000D01*
X71397903Y-17299847D01*
X71621202Y-17207353D01*
X71822167Y-17073073D01*
X71993073Y-16902167D01*
X72127353Y-16701202D01*
X72219847Y-16477903D01*
X72267000Y-16240849D01*
X72267000Y-15999151D01*
X72219847Y-15762097D01*
X72127353Y-15538798D01*
X71993073Y-15337833D01*
X71822167Y-15166927D01*
X71621202Y-15032647D01*
X71397903Y-14940153D01*
X71160849Y-14893000D01*
X70919151Y-14893000D01*
X70682097Y-14940153D01*
X70458798Y-15032647D01*
X70366999Y-15093985D01*
X70366999Y-14606015D01*
X70458798Y-14667353D01*
X70682097Y-14759847D01*
X70919151Y-14807000D01*
X71160849Y-14807000D01*
X71397903Y-14759847D01*
X71621202Y-14667353D01*
X71822167Y-14533073D01*
X71993073Y-14362167D01*
X72127353Y-14161202D01*
X72219847Y-13937903D01*
X72267000Y-13700849D01*
X72267000Y-13459151D01*
X72219847Y-13222097D01*
X72127353Y-12998798D01*
X71993073Y-12797833D01*
X71822167Y-12626927D01*
X71621202Y-12492647D01*
X71397903Y-12400153D01*
X71160849Y-12353000D01*
X70919151Y-12353000D01*
X70682097Y-12400153D01*
X70458798Y-12492647D01*
X70366999Y-12553985D01*
X70366999Y-12422935D01*
X70602894Y-12187040D01*
X70682097Y-12219847D01*
X70919151Y-12267000D01*
X71160849Y-12267000D01*
X71397903Y-12219847D01*
X71621202Y-12127353D01*
X71822167Y-11993073D01*
X71993073Y-11822167D01*
X72127353Y-11621202D01*
X72219847Y-11397903D01*
X72267000Y-11160849D01*
X72267000Y-10919151D01*
X72219847Y-10682097D01*
X72127353Y-10458798D01*
X71993073Y-10257833D01*
X71822167Y-10086927D01*
X71621202Y-9952647D01*
X71397903Y-9860153D01*
X71160849Y-9813000D01*
X70919151Y-9813000D01*
X70682097Y-9860153D01*
X70458798Y-9952647D01*
X70257833Y-10086927D01*
X70086927Y-10257833D01*
X69952647Y-10458798D01*
X69860153Y-10682097D01*
X69813000Y-10919151D01*
X69813000Y-11160849D01*
X69860153Y-11397903D01*
X69892960Y-11477106D01*
X69527466Y-11842600D01*
X69508315Y-11858317D01*
X69445582Y-11934756D01*
X69398968Y-12021966D01*
X69370263Y-12116593D01*
X69362999Y-12190349D01*
X69362999Y-12190358D01*
X69360572Y-12215001D01*
X69362999Y-12239644D01*
X69362999Y-12707759D01*
X69282167Y-12626927D01*
X69081202Y-12492647D01*
X68857903Y-12400153D01*
X68620849Y-12353000D01*
X68379151Y-12353000D01*
X68142097Y-12400153D01*
X67918798Y-12492647D01*
X67717833Y-12626927D01*
X67546927Y-12797833D01*
X67412647Y-12998798D01*
X67376988Y-13084886D01*
X67376988Y-12872946D01*
X68062894Y-12187040D01*
X68142097Y-12219847D01*
X68379151Y-12267000D01*
X68620849Y-12267000D01*
X68857903Y-12219847D01*
X69081202Y-12127353D01*
X69282167Y-11993073D01*
X69453073Y-11822167D01*
X69587353Y-11621202D01*
X69679847Y-11397903D01*
X69727000Y-11160849D01*
X69727000Y-10919151D01*
X69679847Y-10682097D01*
X69587353Y-10458798D01*
X69453073Y-10257833D01*
X69372241Y-10177001D01*
X69840356Y-10177001D01*
X69864999Y-10179428D01*
X69889642Y-10177001D01*
X69889652Y-10177001D01*
X69963408Y-10169737D01*
X70058035Y-10141032D01*
X70145244Y-10094418D01*
X70221683Y-10031685D01*
X70237400Y-10012534D01*
X70602894Y-9647040D01*
X70682097Y-9679847D01*
X70919151Y-9727000D01*
X71160849Y-9727000D01*
X71397903Y-9679847D01*
X71621202Y-9587353D01*
X71822167Y-9453073D01*
X71993073Y-9282167D01*
X72127353Y-9081202D01*
X72219847Y-8857903D01*
X72267000Y-8620849D01*
X72267000Y-8379151D01*
X72219847Y-8142097D01*
X72127353Y-7918798D01*
X71993073Y-7717833D01*
X71822167Y-7546927D01*
X71621202Y-7412647D01*
X71513049Y-7367848D01*
X71673747Y-7310919D01*
X71811157Y-7237472D01*
X71888792Y-6988397D01*
X71040000Y-6139605D01*
X70191208Y-6988397D01*
X70268843Y-7237472D01*
X70532883Y-7363371D01*
X70560709Y-7370434D01*
X70458798Y-7412647D01*
X70257833Y-7546927D01*
X70086927Y-7717833D01*
X69952647Y-7918798D01*
X69860153Y-8142097D01*
X69813000Y-8379151D01*
X69813000Y-8620849D01*
X69860153Y-8857903D01*
X69892960Y-8937106D01*
X69657065Y-9173001D01*
X69526015Y-9173001D01*
X69587353Y-9081202D01*
X69679847Y-8857903D01*
X69727000Y-8620849D01*
X69727000Y-8379151D01*
X69679847Y-8142097D01*
X69587353Y-7918798D01*
X69453073Y-7717833D01*
X69282167Y-7546927D01*
X69081202Y-7412647D01*
X68857903Y-7320153D01*
X68620849Y-7273000D01*
X68379151Y-7273000D01*
X68142097Y-7320153D01*
X67918798Y-7412647D01*
X67717833Y-7546927D01*
X67546927Y-7717833D01*
X67412647Y-7918798D01*
X67320153Y-8142097D01*
X67273000Y-8379151D01*
X67273000Y-8620849D01*
X67320153Y-8857903D01*
X67352960Y-8937105D01*
X65637430Y-10652636D01*
X65618284Y-10668349D01*
X65602571Y-10687495D01*
X65602568Y-10687498D01*
X65555551Y-10744788D01*
X65508937Y-10831997D01*
X65480232Y-10926624D01*
X65470540Y-11025033D01*
X65472968Y-11049686D01*
X65472966Y-14344279D01*
X58942598Y-20874648D01*
X58942598Y-20777268D01*
X58945025Y-20752623D01*
X58942598Y-20727977D01*
X58942598Y-20727970D01*
X58935334Y-20654214D01*
X58935334Y-20654213D01*
X58906629Y-20559586D01*
X58860015Y-20472377D01*
X58812998Y-20415087D01*
X58812990Y-20415079D01*
X58797282Y-20395939D01*
X58778141Y-20380230D01*
X58277010Y-19879100D01*
X58290397Y-19811799D01*
X58290397Y-19639045D01*
X58256694Y-19469611D01*
X58190584Y-19310007D01*
X58094607Y-19166367D01*
X57972452Y-19044212D01*
X57828812Y-18948235D01*
X57669208Y-18882125D01*
X57499774Y-18848422D01*
X57327020Y-18848422D01*
X57157586Y-18882125D01*
X56997982Y-18948235D01*
X56854342Y-19044212D01*
X56732187Y-19166367D01*
X56636210Y-19310007D01*
X56570100Y-19469611D01*
X56536397Y-19639045D01*
X56536397Y-19811799D01*
X56570100Y-19981233D01*
X56636210Y-20140837D01*
X56732187Y-20284477D01*
X56854342Y-20406632D01*
X56997982Y-20502609D01*
X57157586Y-20568719D01*
X57327020Y-20602422D01*
X57499774Y-20602422D01*
X57567075Y-20589035D01*
X57938598Y-20960559D01*
X57938599Y-22093242D01*
X57938598Y-22093252D01*
X57938598Y-22105677D01*
X57881543Y-22143800D01*
X57759388Y-22265955D01*
X57663411Y-22409595D01*
X57597301Y-22569199D01*
X57563598Y-22738633D01*
X57563598Y-22911387D01*
X57597301Y-23080821D01*
X57663411Y-23240425D01*
X57759388Y-23384065D01*
X57881543Y-23506220D01*
X58025183Y-23602197D01*
X58130752Y-23645925D01*
X56839176Y-24937501D01*
X56820025Y-24953219D01*
X56766428Y-25018526D01*
X56681218Y-24891001D01*
X56559063Y-24768846D01*
X56502008Y-24730723D01*
X56502008Y-22824162D01*
X56615415Y-22777187D01*
X56759055Y-22681210D01*
X56881210Y-22559055D01*
X56977187Y-22415415D01*
X57043297Y-22255811D01*
X57077000Y-22086377D01*
X57077000Y-21913623D01*
X57043297Y-21744189D01*
X56977187Y-21584585D01*
X56881210Y-21440945D01*
X56759055Y-21318790D01*
X56615415Y-21222813D01*
X56455811Y-21156703D01*
X56286377Y-21123000D01*
X56113623Y-21123000D01*
X55944189Y-21156703D01*
X55784585Y-21222813D01*
X55640945Y-21318790D01*
X55518790Y-21440945D01*
X55422813Y-21584585D01*
X55356703Y-21744189D01*
X55323000Y-21913623D01*
X55323000Y-22086377D01*
X55356703Y-22255811D01*
X55422813Y-22415415D01*
X55498009Y-22527954D01*
X55498008Y-24730723D01*
X55440953Y-24768846D01*
X55318798Y-24891001D01*
X55222821Y-25034641D01*
X55156711Y-25194245D01*
X55123008Y-25363679D01*
X55123008Y-25503500D01*
X55081210Y-25440945D01*
X54959055Y-25318790D01*
X54902000Y-25280667D01*
X54902000Y-24499610D01*
X54904427Y-24474967D01*
X54902000Y-24450324D01*
X54902000Y-24450314D01*
X54894736Y-24376558D01*
X54866031Y-24281931D01*
X54836249Y-24226213D01*
X54819417Y-24194721D01*
X54772400Y-24137431D01*
X54772392Y-24137423D01*
X54756684Y-24118283D01*
X54737543Y-24102574D01*
X54688623Y-24053654D01*
X54702010Y-23986354D01*
X54702010Y-23813600D01*
X54668307Y-23644166D01*
X54602197Y-23484562D01*
X54506220Y-23340922D01*
X54384065Y-23218767D01*
X54240425Y-23122790D01*
X54080821Y-23056680D01*
X53911387Y-23022977D01*
X53738633Y-23022977D01*
X53569199Y-23056680D01*
X53409595Y-23122790D01*
X53265955Y-23218767D01*
X53143800Y-23340922D01*
X53047823Y-23484562D01*
X52981713Y-23644166D01*
X52948010Y-23813600D01*
X45026580Y-23813600D01*
X45117752Y-23677152D01*
X45183862Y-23517548D01*
X45217565Y-23348114D01*
X45217565Y-23175360D01*
X45183862Y-23005926D01*
X45117752Y-22846322D01*
X45021775Y-22702682D01*
X44899620Y-22580527D01*
X44755980Y-22484550D01*
X44596376Y-22418440D01*
X44426942Y-22384737D01*
X44254188Y-22384737D01*
X44084754Y-22418440D01*
X43925150Y-22484550D01*
X43781510Y-22580527D01*
X43659355Y-22702682D01*
X43563378Y-22846322D01*
X43546918Y-22886059D01*
X43529595Y-22868736D01*
X43385955Y-22772759D01*
X43226351Y-22706649D01*
X43056917Y-22672946D01*
X42884163Y-22672946D01*
X42749489Y-22699735D01*
X42749489Y-22595055D01*
X42715786Y-22425621D01*
X42649676Y-22266017D01*
X42553699Y-22122377D01*
X42431544Y-22000222D01*
X42287904Y-21904245D01*
X42128300Y-21838135D01*
X41958866Y-21804432D01*
X41786112Y-21804432D01*
X41616678Y-21838135D01*
X41457074Y-21904245D01*
X41313434Y-22000222D01*
X41191279Y-22122377D01*
X41095302Y-22266017D01*
X41029192Y-22425621D01*
X40995489Y-22595055D01*
X22723957Y-22595055D01*
X22777187Y-22515392D01*
X22843297Y-22355788D01*
X22877000Y-22186354D01*
X22877000Y-22013600D01*
X22843297Y-21844166D01*
X22777187Y-21684562D01*
X22681210Y-21540922D01*
X22559055Y-21418767D01*
X22415415Y-21322790D01*
X22255811Y-21256680D01*
X22086377Y-21222977D01*
X21913623Y-21222977D01*
X21744189Y-21256680D01*
X21584585Y-21322790D01*
X21440945Y-21418767D01*
X21318790Y-21540922D01*
X21222813Y-21684562D01*
X21156703Y-21844166D01*
X21123000Y-22013600D01*
X21123000Y-22186354D01*
X21156703Y-22355788D01*
X21222813Y-22515392D01*
X21318790Y-22659032D01*
X21398001Y-22738243D01*
X21398000Y-23480667D01*
X21340945Y-23518790D01*
X21218790Y-23640945D01*
X21122813Y-23784585D01*
X21056703Y-23944189D01*
X21023000Y-24113623D01*
X18747000Y-24113623D01*
X18747000Y-24013623D01*
X18713297Y-23844189D01*
X18647187Y-23684585D01*
X18551210Y-23540945D01*
X18429055Y-23418790D01*
X18285415Y-23322813D01*
X18125811Y-23256703D01*
X17956377Y-23223000D01*
X17783623Y-23223000D01*
X17614189Y-23256703D01*
X17454585Y-23322813D01*
X17310945Y-23418790D01*
X17188790Y-23540945D01*
X17150667Y-23598000D01*
X13642265Y-23598000D01*
X13681210Y-23559055D01*
X13777187Y-23415415D01*
X13843297Y-23255811D01*
X13877000Y-23086377D01*
X13877000Y-22913623D01*
X13843297Y-22744189D01*
X13777187Y-22584585D01*
X13681210Y-22440945D01*
X13559055Y-22318790D01*
X13415415Y-22222813D01*
X13255811Y-22156703D01*
X13086377Y-22123000D01*
X12913623Y-22123000D01*
X12846322Y-22136387D01*
X11863613Y-21153678D01*
X11877000Y-21086377D01*
X11877000Y-20913623D01*
X11843297Y-20744189D01*
X11777187Y-20584585D01*
X11681210Y-20440945D01*
X11559055Y-20318790D01*
X11415415Y-20222813D01*
X11255811Y-20156703D01*
X11086377Y-20123000D01*
X10913623Y-20123000D01*
X10744189Y-20156703D01*
X10584585Y-20222813D01*
X10440945Y-20318790D01*
X10318790Y-20440945D01*
X10222813Y-20584585D01*
X10156703Y-20744189D01*
X10123000Y-20913623D01*
X477000Y-20913623D01*
X477000Y-16913623D01*
X21923008Y-16913623D01*
X21923008Y-17086377D01*
X21956711Y-17255811D01*
X22022821Y-17415415D01*
X22118798Y-17559055D01*
X22240953Y-17681210D01*
X22384593Y-17777187D01*
X22544197Y-17843297D01*
X22713631Y-17877000D01*
X22886385Y-17877000D01*
X23055819Y-17843297D01*
X23215423Y-17777187D01*
X23359063Y-17681210D01*
X23481218Y-17559055D01*
X23577195Y-17415415D01*
X23643305Y-17255811D01*
X23677008Y-17086377D01*
X23677008Y-16913623D01*
X23643305Y-16744189D01*
X23577195Y-16584585D01*
X23481218Y-16440945D01*
X23359063Y-16318790D01*
X23302008Y-16280667D01*
X23302008Y-14577001D01*
X23427644Y-14577001D01*
X23597078Y-14543298D01*
X23756682Y-14477188D01*
X23900322Y-14381211D01*
X24022477Y-14259056D01*
X24098001Y-14146027D01*
X24098000Y-16080667D01*
X24040945Y-16118790D01*
X23918790Y-16240945D01*
X23822813Y-16384585D01*
X23756703Y-16544189D01*
X23723000Y-16713623D01*
X23723000Y-16886377D01*
X23756703Y-17055811D01*
X23822813Y-17215415D01*
X23918790Y-17359055D01*
X24040945Y-17481210D01*
X24184585Y-17577187D01*
X24344189Y-17643297D01*
X24513623Y-17677000D01*
X24686377Y-17677000D01*
X24855811Y-17643297D01*
X25015415Y-17577187D01*
X25159055Y-17481210D01*
X25281210Y-17359055D01*
X25377187Y-17215415D01*
X25443297Y-17055811D01*
X25477000Y-16886377D01*
X25477000Y-16713628D01*
X47722995Y-16713628D01*
X47722995Y-16886382D01*
X47756698Y-17055816D01*
X47822808Y-17215420D01*
X47918785Y-17359060D01*
X48040940Y-17481215D01*
X48184580Y-17577192D01*
X48344184Y-17643302D01*
X48513618Y-17677005D01*
X48686372Y-17677005D01*
X48855806Y-17643302D01*
X49015410Y-17577192D01*
X49159050Y-17481215D01*
X49281205Y-17359060D01*
X49377182Y-17215420D01*
X49443292Y-17055816D01*
X49476995Y-16886382D01*
X49476995Y-16713628D01*
X49443292Y-16544194D01*
X49377182Y-16384590D01*
X49302003Y-16272076D01*
X49302003Y-14319330D01*
X49359058Y-14281207D01*
X49440265Y-14200000D01*
X52821176Y-14200000D01*
X52821176Y-15800000D01*
X52828455Y-15873905D01*
X52850012Y-15944970D01*
X52885019Y-16010463D01*
X52932131Y-16067869D01*
X52989537Y-16114981D01*
X53055030Y-16149988D01*
X53126095Y-16171545D01*
X53200000Y-16178824D01*
X54800000Y-16178824D01*
X54873905Y-16171545D01*
X54944970Y-16149988D01*
X55010463Y-16114981D01*
X55067869Y-16067869D01*
X55114981Y-16010463D01*
X55149988Y-15944970D01*
X55171545Y-15873905D01*
X55178824Y-15800000D01*
X55178824Y-15000000D01*
X55357306Y-15000000D01*
X55380031Y-15230732D01*
X55447333Y-15452597D01*
X55556626Y-15657070D01*
X55703709Y-15836291D01*
X55882930Y-15983374D01*
X56087403Y-16092667D01*
X56309268Y-16159969D01*
X56482188Y-16177000D01*
X56597812Y-16177000D01*
X56770732Y-16159969D01*
X56992597Y-16092667D01*
X57197070Y-15983374D01*
X57376291Y-15836291D01*
X57523374Y-15657070D01*
X57632667Y-15452597D01*
X57664080Y-15349040D01*
X59068091Y-15349040D01*
X59162930Y-15613881D01*
X59307615Y-15855131D01*
X59496586Y-16063519D01*
X59722580Y-16231037D01*
X59976913Y-16351246D01*
X60110961Y-16391904D01*
X60333000Y-16269915D01*
X60333000Y-15127000D01*
X59189376Y-15127000D01*
X59068091Y-15349040D01*
X57664080Y-15349040D01*
X57699969Y-15230732D01*
X57722694Y-15000000D01*
X57699969Y-14769268D01*
X57664081Y-14650960D01*
X59068091Y-14650960D01*
X59189376Y-14873000D01*
X60333000Y-14873000D01*
X60333000Y-13730085D01*
X60587000Y-13730085D01*
X60587000Y-14873000D01*
X60607000Y-14873000D01*
X60607000Y-15127000D01*
X60587000Y-15127000D01*
X60587000Y-16269915D01*
X60809039Y-16391904D01*
X60943087Y-16351246D01*
X61197420Y-16231037D01*
X61423414Y-16063519D01*
X61612385Y-15855131D01*
X61757070Y-15613881D01*
X61851909Y-15349040D01*
X61730625Y-15127002D01*
X61829815Y-15127002D01*
X61840031Y-15230732D01*
X61907333Y-15452597D01*
X62016626Y-15657070D01*
X62163709Y-15836291D01*
X62342930Y-15983374D01*
X62547403Y-16092667D01*
X62769268Y-16159969D01*
X62942188Y-16177000D01*
X63057812Y-16177000D01*
X63230732Y-16159969D01*
X63452597Y-16092667D01*
X63657070Y-15983374D01*
X63836291Y-15836291D01*
X63983374Y-15657070D01*
X64092667Y-15452597D01*
X64159969Y-15230732D01*
X64182694Y-15000000D01*
X64159969Y-14769268D01*
X64092667Y-14547403D01*
X63983374Y-14342930D01*
X63836291Y-14163709D01*
X63657070Y-14016626D01*
X63452597Y-13907333D01*
X63230732Y-13840031D01*
X63057812Y-13823000D01*
X62942188Y-13823000D01*
X62769268Y-13840031D01*
X62547403Y-13907333D01*
X62342930Y-14016626D01*
X62163709Y-14163709D01*
X62016626Y-14342930D01*
X61907333Y-14547403D01*
X61840031Y-14769268D01*
X61829815Y-14872998D01*
X61730625Y-14872998D01*
X61851909Y-14650960D01*
X61757070Y-14386119D01*
X61612385Y-14144869D01*
X61423414Y-13936481D01*
X61197420Y-13768963D01*
X60943087Y-13648754D01*
X60809039Y-13608096D01*
X60587000Y-13730085D01*
X60333000Y-13730085D01*
X60110961Y-13608096D01*
X59976913Y-13648754D01*
X59722580Y-13768963D01*
X59496586Y-13936481D01*
X59307615Y-14144869D01*
X59162930Y-14386119D01*
X59068091Y-14650960D01*
X57664081Y-14650960D01*
X57632667Y-14547403D01*
X57523374Y-14342930D01*
X57376291Y-14163709D01*
X57197070Y-14016626D01*
X56992597Y-13907333D01*
X56770732Y-13840031D01*
X56597812Y-13823000D01*
X56482188Y-13823000D01*
X56309268Y-13840031D01*
X56087403Y-13907333D01*
X55882930Y-14016626D01*
X55703709Y-14163709D01*
X55556626Y-14342930D01*
X55447333Y-14547403D01*
X55380031Y-14769268D01*
X55357306Y-15000000D01*
X55178824Y-15000000D01*
X55178824Y-14200000D01*
X55171545Y-14126095D01*
X55149988Y-14055030D01*
X55114981Y-13989537D01*
X55067869Y-13932131D01*
X55010463Y-13885019D01*
X54944970Y-13850012D01*
X54873905Y-13828455D01*
X54800000Y-13821176D01*
X53200000Y-13821176D01*
X53126095Y-13828455D01*
X53055030Y-13850012D01*
X52989537Y-13885019D01*
X52932131Y-13932131D01*
X52885019Y-13989537D01*
X52850012Y-14055030D01*
X52828455Y-14126095D01*
X52821176Y-14200000D01*
X49440265Y-14200000D01*
X49481213Y-14159052D01*
X49577190Y-14015412D01*
X49643300Y-13855808D01*
X49677003Y-13686374D01*
X49677003Y-13513620D01*
X49643300Y-13344186D01*
X49577190Y-13184582D01*
X49481213Y-13040942D01*
X49359058Y-12918787D01*
X49215418Y-12822810D01*
X49055814Y-12756700D01*
X48886380Y-12722997D01*
X48713626Y-12722997D01*
X48544192Y-12756700D01*
X48384588Y-12822810D01*
X48240948Y-12918787D01*
X48118793Y-13040942D01*
X48022816Y-13184582D01*
X47956706Y-13344186D01*
X47923003Y-13513620D01*
X47923003Y-13686374D01*
X47956706Y-13855808D01*
X48022816Y-14015412D01*
X48118793Y-14159052D01*
X48240948Y-14281207D01*
X48298003Y-14319330D01*
X48298004Y-15975836D01*
X48184580Y-16022818D01*
X48040940Y-16118795D01*
X47918785Y-16240950D01*
X47822808Y-16384590D01*
X47756698Y-16544194D01*
X47722995Y-16713628D01*
X25477000Y-16713628D01*
X25477000Y-16713623D01*
X25443297Y-16544189D01*
X25377187Y-16384585D01*
X25281210Y-16240945D01*
X25159055Y-16118790D01*
X25102000Y-16080667D01*
X25102000Y-12929120D01*
X25104427Y-12904477D01*
X25104036Y-12900505D01*
X25127314Y-12844306D01*
X25161017Y-12674872D01*
X25161017Y-12502118D01*
X25127314Y-12332684D01*
X25061204Y-12173080D01*
X24965227Y-12029440D01*
X24843072Y-11907285D01*
X24699432Y-11811308D01*
X24539828Y-11745198D01*
X24370394Y-11711495D01*
X24197640Y-11711495D01*
X24028206Y-11745198D01*
X23868602Y-11811308D01*
X23724962Y-11907285D01*
X23602807Y-12029440D01*
X23506830Y-12173080D01*
X23440720Y-12332684D01*
X23407017Y-12502118D01*
X23407017Y-12674872D01*
X23436846Y-12824831D01*
X23427644Y-12823001D01*
X23254890Y-12823001D01*
X23085456Y-12856704D01*
X22925852Y-12922814D01*
X22782212Y-13018791D01*
X22660057Y-13140946D01*
X22564080Y-13284586D01*
X22497970Y-13444190D01*
X22464267Y-13613624D01*
X22464267Y-13786378D01*
X22477654Y-13853680D01*
X22462471Y-13868863D01*
X22443325Y-13884576D01*
X22427612Y-13903722D01*
X22427609Y-13903725D01*
X22380592Y-13961015D01*
X22333978Y-14048224D01*
X22305273Y-14142851D01*
X22295581Y-14241260D01*
X22298009Y-14265913D01*
X22298008Y-16280667D01*
X22240953Y-16318790D01*
X22118798Y-16440945D01*
X22022821Y-16584585D01*
X21956711Y-16744189D01*
X21923008Y-16913623D01*
X477000Y-16913623D01*
X477000Y-12356890D01*
X1433524Y-12356890D01*
X1525648Y-12619858D01*
X1672504Y-12871193D01*
X1865571Y-13089049D01*
X2097430Y-13265053D01*
X2351332Y-13388627D01*
X2190017Y-13474851D01*
X2003183Y-13628183D01*
X1849851Y-13815017D01*
X1735916Y-14028176D01*
X1665755Y-14259466D01*
X1642064Y-14500000D01*
X1665755Y-14740534D01*
X1735916Y-14971824D01*
X1849851Y-15184983D01*
X2003183Y-15371817D01*
X2190017Y-15525149D01*
X2403176Y-15639084D01*
X2634466Y-15709245D01*
X2814732Y-15727000D01*
X3185268Y-15727000D01*
X3365534Y-15709245D01*
X3596824Y-15639084D01*
X3809983Y-15525149D01*
X3996817Y-15371817D01*
X4150149Y-15184983D01*
X4264084Y-14971824D01*
X4334245Y-14740534D01*
X4357936Y-14500000D01*
X4334245Y-14259466D01*
X4264084Y-14028176D01*
X4150149Y-13815017D01*
X3996817Y-13628183D01*
X3809983Y-13474851D01*
X3648668Y-13388627D01*
X3902570Y-13265053D01*
X4134429Y-13089049D01*
X4327496Y-12871193D01*
X4474352Y-12619858D01*
X4566476Y-12356890D01*
X4445155Y-12127000D01*
X3127000Y-12127000D01*
X3127000Y-12147000D01*
X2873000Y-12147000D01*
X2873000Y-12127000D01*
X1554845Y-12127000D01*
X1433524Y-12356890D01*
X477000Y-12356890D01*
X477000Y-11643110D01*
X1433524Y-11643110D01*
X1554845Y-11873000D01*
X2873000Y-11873000D01*
X2873000Y-11853000D01*
X3127000Y-11853000D01*
X3127000Y-11873000D01*
X4445155Y-11873000D01*
X4566476Y-11643110D01*
X4474352Y-11380142D01*
X4327496Y-11128807D01*
X4134429Y-10910951D01*
X3902570Y-10734947D01*
X3858449Y-10713473D01*
X3965641Y-10680958D01*
X4074356Y-10622848D01*
X4169646Y-10544646D01*
X4247848Y-10449356D01*
X4305958Y-10340641D01*
X4341741Y-10222677D01*
X4353824Y-10100000D01*
X4353824Y-8900000D01*
X4341741Y-8777323D01*
X4305958Y-8659359D01*
X4247848Y-8550644D01*
X4169646Y-8455354D01*
X4074356Y-8377152D01*
X3965641Y-8319042D01*
X3847677Y-8283259D01*
X3725000Y-8271176D01*
X2275000Y-8271176D01*
X2152323Y-8283259D01*
X2034359Y-8319042D01*
X1925644Y-8377152D01*
X1830354Y-8455354D01*
X1752152Y-8550644D01*
X1694042Y-8659359D01*
X1658259Y-8777323D01*
X1646176Y-8900000D01*
X1646176Y-10100000D01*
X1658259Y-10222677D01*
X1694042Y-10340641D01*
X1752152Y-10449356D01*
X1830354Y-10544646D01*
X1925644Y-10622848D01*
X2034359Y-10680958D01*
X2141551Y-10713473D01*
X2097430Y-10734947D01*
X1865571Y-10910951D01*
X1672504Y-11128807D01*
X1525648Y-11380142D01*
X1433524Y-11643110D01*
X477000Y-11643110D01*
X477000Y-7380000D01*
X52817306Y-7380000D01*
X52840031Y-7610732D01*
X52907333Y-7832597D01*
X53016626Y-8037070D01*
X53163709Y-8216291D01*
X53342930Y-8363374D01*
X53547403Y-8472667D01*
X53769268Y-8539969D01*
X53942188Y-8557000D01*
X54057812Y-8557000D01*
X54230732Y-8539969D01*
X54452597Y-8472667D01*
X54657070Y-8363374D01*
X54836291Y-8216291D01*
X54983374Y-8037070D01*
X55092667Y-7832597D01*
X55159969Y-7610732D01*
X55182694Y-7380000D01*
X55357306Y-7380000D01*
X55380031Y-7610732D01*
X55447333Y-7832597D01*
X55556626Y-8037070D01*
X55703709Y-8216291D01*
X55882930Y-8363374D01*
X56087403Y-8472667D01*
X56309268Y-8539969D01*
X56482188Y-8557000D01*
X56597812Y-8557000D01*
X56770732Y-8539969D01*
X56992597Y-8472667D01*
X57197070Y-8363374D01*
X57376291Y-8216291D01*
X57523374Y-8037070D01*
X57632667Y-7832597D01*
X57699969Y-7610732D01*
X57722694Y-7380000D01*
X59277306Y-7380000D01*
X59300031Y-7610732D01*
X59367333Y-7832597D01*
X59476626Y-8037070D01*
X59623709Y-8216291D01*
X59802930Y-8363374D01*
X60007403Y-8472667D01*
X60229268Y-8539969D01*
X60402188Y-8557000D01*
X60517812Y-8557000D01*
X60690732Y-8539969D01*
X60912597Y-8472667D01*
X61117070Y-8363374D01*
X61296291Y-8216291D01*
X61443374Y-8037070D01*
X61552667Y-7832597D01*
X61619969Y-7610732D01*
X61642694Y-7380000D01*
X61619969Y-7149268D01*
X61552667Y-6927403D01*
X61443374Y-6722930D01*
X61326075Y-6580000D01*
X61821176Y-6580000D01*
X61821176Y-8180000D01*
X61828455Y-8253905D01*
X61850012Y-8324970D01*
X61885019Y-8390463D01*
X61932131Y-8447869D01*
X61989537Y-8494981D01*
X62055030Y-8529988D01*
X62126095Y-8551545D01*
X62200000Y-8558824D01*
X63800000Y-8558824D01*
X63873905Y-8551545D01*
X63944970Y-8529988D01*
X64010463Y-8494981D01*
X64067869Y-8447869D01*
X64114981Y-8390463D01*
X64149988Y-8324970D01*
X64171545Y-8253905D01*
X64178824Y-8180000D01*
X64178824Y-6580000D01*
X64171545Y-6506095D01*
X64149988Y-6435030D01*
X64114981Y-6369537D01*
X64067869Y-6312131D01*
X64010463Y-6265019D01*
X63944970Y-6230012D01*
X63873905Y-6208455D01*
X63800000Y-6201176D01*
X62200000Y-6201176D01*
X62126095Y-6208455D01*
X62055030Y-6230012D01*
X61989537Y-6265019D01*
X61932131Y-6312131D01*
X61885019Y-6369537D01*
X61850012Y-6435030D01*
X61828455Y-6506095D01*
X61821176Y-6580000D01*
X61326075Y-6580000D01*
X61296291Y-6543709D01*
X61117070Y-6396626D01*
X60912597Y-6287333D01*
X60690732Y-6220031D01*
X60517812Y-6203000D01*
X60402188Y-6203000D01*
X60229268Y-6220031D01*
X60007403Y-6287333D01*
X59802930Y-6396626D01*
X59623709Y-6543709D01*
X59476626Y-6722930D01*
X59367333Y-6927403D01*
X59300031Y-7149268D01*
X59277306Y-7380000D01*
X57722694Y-7380000D01*
X57699969Y-7149268D01*
X57632667Y-6927403D01*
X57523374Y-6722930D01*
X57376291Y-6543709D01*
X57197070Y-6396626D01*
X56992597Y-6287333D01*
X56770732Y-6220031D01*
X56597812Y-6203000D01*
X56482188Y-6203000D01*
X56309268Y-6220031D01*
X56087403Y-6287333D01*
X55882930Y-6396626D01*
X55703709Y-6543709D01*
X55556626Y-6722930D01*
X55447333Y-6927403D01*
X55380031Y-7149268D01*
X55357306Y-7380000D01*
X55182694Y-7380000D01*
X55159969Y-7149268D01*
X55092667Y-6927403D01*
X54983374Y-6722930D01*
X54836291Y-6543709D01*
X54657070Y-6396626D01*
X54452597Y-6287333D01*
X54230732Y-6220031D01*
X54057812Y-6203000D01*
X53942188Y-6203000D01*
X53769268Y-6220031D01*
X53547403Y-6287333D01*
X53342930Y-6396626D01*
X53163709Y-6543709D01*
X53016626Y-6722930D01*
X52907333Y-6927403D01*
X52840031Y-7149268D01*
X52817306Y-7380000D01*
X477000Y-7380000D01*
X477000Y-5110000D01*
X67271176Y-5110000D01*
X67271176Y-6810000D01*
X67278455Y-6883905D01*
X67300012Y-6954970D01*
X67335019Y-7020463D01*
X67382131Y-7077869D01*
X67439537Y-7124981D01*
X67505030Y-7159988D01*
X67576095Y-7181545D01*
X67650000Y-7188824D01*
X69350000Y-7188824D01*
X69423905Y-7181545D01*
X69494970Y-7159988D01*
X69560463Y-7124981D01*
X69617869Y-7077869D01*
X69664981Y-7020463D01*
X69699988Y-6954970D01*
X69721545Y-6883905D01*
X69728824Y-6810000D01*
X69728824Y-6668101D01*
X69762528Y-6731157D01*
X70011603Y-6808792D01*
X70860395Y-5960000D01*
X71219605Y-5960000D01*
X72068397Y-6808792D01*
X72317472Y-6731157D01*
X72443371Y-6467117D01*
X72515339Y-6183589D01*
X72530611Y-5891469D01*
X72488599Y-5601981D01*
X72390919Y-5326253D01*
X72317472Y-5188843D01*
X72068397Y-5111208D01*
X71219605Y-5960000D01*
X70860395Y-5960000D01*
X70011603Y-5111208D01*
X69762528Y-5188843D01*
X69728824Y-5259528D01*
X69728824Y-5110000D01*
X69721545Y-5036095D01*
X69699988Y-4965030D01*
X69682121Y-4931603D01*
X70191208Y-4931603D01*
X71040000Y-5780395D01*
X71888792Y-4931603D01*
X71811157Y-4682528D01*
X71547117Y-4556629D01*
X71263589Y-4484661D01*
X70971469Y-4469389D01*
X70681981Y-4511401D01*
X70406253Y-4609081D01*
X70268843Y-4682528D01*
X70191208Y-4931603D01*
X69682121Y-4931603D01*
X69664981Y-4899537D01*
X69617869Y-4842131D01*
X69560463Y-4795019D01*
X69494970Y-4760012D01*
X69423905Y-4738455D01*
X69350000Y-4731176D01*
X67650000Y-4731176D01*
X67576095Y-4738455D01*
X67505030Y-4760012D01*
X67439537Y-4795019D01*
X67382131Y-4842131D01*
X67335019Y-4899537D01*
X67300012Y-4965030D01*
X67278455Y-5036095D01*
X67271176Y-5110000D01*
X477000Y-5110000D01*
X477000Y-2854528D01*
X1523000Y-2854528D01*
X1523000Y-3145472D01*
X1579760Y-3430825D01*
X1691099Y-3699622D01*
X1852739Y-3941533D01*
X2058467Y-4147261D01*
X2300378Y-4308901D01*
X2569175Y-4420240D01*
X2854528Y-4477000D01*
X3145472Y-4477000D01*
X3430825Y-4420240D01*
X3699622Y-4308901D01*
X3941533Y-4147261D01*
X4147261Y-3941533D01*
X4308901Y-3699622D01*
X4420240Y-3430825D01*
X4434473Y-3359267D01*
X29033680Y-3359267D01*
X29107558Y-3640830D01*
X29234947Y-3902570D01*
X29410951Y-4134429D01*
X29628807Y-4327496D01*
X29880142Y-4474352D01*
X30143110Y-4566476D01*
X30373000Y-4445155D01*
X30373000Y-3127000D01*
X29173835Y-3127000D01*
X29033680Y-3359267D01*
X4434473Y-3359267D01*
X4477000Y-3145472D01*
X4477000Y-2854528D01*
X4434474Y-2640733D01*
X29033680Y-2640733D01*
X29173835Y-2873000D01*
X30373000Y-2873000D01*
X30373000Y-1554845D01*
X30627000Y-1554845D01*
X30627000Y-2873000D01*
X30647000Y-2873000D01*
X30647000Y-3127000D01*
X30627000Y-3127000D01*
X30627000Y-4445155D01*
X30856890Y-4566476D01*
X31119858Y-4474352D01*
X31371193Y-4327496D01*
X31589049Y-4134429D01*
X31765053Y-3902570D01*
X31888627Y-3648668D01*
X31974851Y-3809982D01*
X32128183Y-3996817D01*
X32315017Y-4150149D01*
X32528176Y-4264084D01*
X32759466Y-4334245D01*
X33000000Y-4357936D01*
X33240533Y-4334245D01*
X33471823Y-4264084D01*
X33684982Y-4150149D01*
X33871817Y-3996817D01*
X34025149Y-3809983D01*
X34139084Y-3596824D01*
X34209245Y-3365534D01*
X34227000Y-3185268D01*
X34227000Y-2814733D01*
X34227000Y-2814732D01*
X34273000Y-2814732D01*
X34273000Y-3185267D01*
X34290755Y-3365533D01*
X34360916Y-3596823D01*
X34474851Y-3809982D01*
X34628183Y-3996817D01*
X34815017Y-4150149D01*
X35028176Y-4264084D01*
X35259466Y-4334245D01*
X35500000Y-4357936D01*
X35740533Y-4334245D01*
X35971823Y-4264084D01*
X36184982Y-4150149D01*
X36371817Y-3996817D01*
X36525149Y-3809983D01*
X36639084Y-3596824D01*
X36709245Y-3365534D01*
X36727000Y-3185268D01*
X36727000Y-2814733D01*
X36709245Y-2634467D01*
X36639084Y-2403177D01*
X36570573Y-2275000D01*
X36771176Y-2275000D01*
X36771176Y-3725000D01*
X36783259Y-3847677D01*
X36819042Y-3965641D01*
X36877152Y-4074356D01*
X36955354Y-4169646D01*
X37050644Y-4247848D01*
X37159359Y-4305958D01*
X37277323Y-4341741D01*
X37400000Y-4353824D01*
X38600000Y-4353824D01*
X38722677Y-4341741D01*
X38840641Y-4305958D01*
X38949356Y-4247848D01*
X39044646Y-4169646D01*
X39122848Y-4074356D01*
X39180958Y-3965641D01*
X39216741Y-3847677D01*
X39228824Y-3725000D01*
X39228824Y-2789732D01*
X43273000Y-2789732D01*
X43273000Y-3210267D01*
X43290755Y-3390533D01*
X43360916Y-3621823D01*
X43474851Y-3834982D01*
X43628183Y-4021817D01*
X43815017Y-4175149D01*
X44028176Y-4289084D01*
X44259466Y-4359245D01*
X44500000Y-4382936D01*
X44740533Y-4359245D01*
X44971823Y-4289084D01*
X45184982Y-4175149D01*
X45371817Y-4021817D01*
X45525149Y-3834983D01*
X45639084Y-3621824D01*
X45709245Y-3390534D01*
X45727000Y-3210268D01*
X45727000Y-2789733D01*
X45709245Y-2609467D01*
X45639084Y-2378177D01*
X45570573Y-2250000D01*
X45771176Y-2250000D01*
X45771176Y-3750000D01*
X45783259Y-3872677D01*
X45819042Y-3990641D01*
X45877152Y-4099356D01*
X45955354Y-4194646D01*
X46050644Y-4272848D01*
X46159359Y-4330958D01*
X46277323Y-4366741D01*
X46400000Y-4378824D01*
X47600000Y-4378824D01*
X47722677Y-4366741D01*
X47840641Y-4330958D01*
X47949356Y-4272848D01*
X48044646Y-4194646D01*
X48122848Y-4099356D01*
X48180958Y-3990641D01*
X48216741Y-3872677D01*
X48228824Y-3750000D01*
X48228824Y-2789732D01*
X52273000Y-2789732D01*
X52273000Y-3210267D01*
X52290755Y-3390533D01*
X52360916Y-3621823D01*
X52474851Y-3834982D01*
X52628183Y-4021817D01*
X52815017Y-4175149D01*
X53028176Y-4289084D01*
X53259466Y-4359245D01*
X53500000Y-4382936D01*
X53740533Y-4359245D01*
X53971823Y-4289084D01*
X54184982Y-4175149D01*
X54371817Y-4021817D01*
X54525149Y-3834983D01*
X54639084Y-3621824D01*
X54709245Y-3390534D01*
X54727000Y-3210268D01*
X54727000Y-2789733D01*
X54709245Y-2609467D01*
X54639084Y-2378177D01*
X54570573Y-2250000D01*
X54771176Y-2250000D01*
X54771176Y-3750000D01*
X54783259Y-3872677D01*
X54819042Y-3990641D01*
X54877152Y-4099356D01*
X54955354Y-4194646D01*
X55050644Y-4272848D01*
X55159359Y-4330958D01*
X55277323Y-4366741D01*
X55400000Y-4378824D01*
X56600000Y-4378824D01*
X56722677Y-4366741D01*
X56840641Y-4330958D01*
X56949356Y-4272848D01*
X57044646Y-4194646D01*
X57122848Y-4099356D01*
X57180958Y-3990641D01*
X57216741Y-3872677D01*
X57228824Y-3750000D01*
X57228824Y-2854528D01*
X60523000Y-2854528D01*
X60523000Y-3145472D01*
X60579760Y-3430825D01*
X60691099Y-3699622D01*
X60852739Y-3941533D01*
X61058467Y-4147261D01*
X61300378Y-4308901D01*
X61569175Y-4420240D01*
X61854528Y-4477000D01*
X62145472Y-4477000D01*
X62430825Y-4420240D01*
X62699622Y-4308901D01*
X62941533Y-4147261D01*
X63147261Y-3941533D01*
X63308901Y-3699622D01*
X63420240Y-3430825D01*
X63477000Y-3145472D01*
X63477000Y-2854528D01*
X63420240Y-2569175D01*
X63308901Y-2300378D01*
X63147261Y-2058467D01*
X62941533Y-1852739D01*
X62699622Y-1691099D01*
X62430825Y-1579760D01*
X62145472Y-1523000D01*
X61854528Y-1523000D01*
X61569175Y-1579760D01*
X61300378Y-1691099D01*
X61058467Y-1852739D01*
X60852739Y-2058467D01*
X60691099Y-2300378D01*
X60579760Y-2569175D01*
X60523000Y-2854528D01*
X57228824Y-2854528D01*
X57228824Y-2250000D01*
X57216741Y-2127323D01*
X57180958Y-2009359D01*
X57122848Y-1900644D01*
X57044646Y-1805354D01*
X56949356Y-1727152D01*
X56840641Y-1669042D01*
X56722677Y-1633259D01*
X56600000Y-1621176D01*
X55400000Y-1621176D01*
X55277323Y-1633259D01*
X55159359Y-1669042D01*
X55050644Y-1727152D01*
X54955354Y-1805354D01*
X54877152Y-1900644D01*
X54819042Y-2009359D01*
X54783259Y-2127323D01*
X54771176Y-2250000D01*
X54570573Y-2250000D01*
X54525149Y-2165018D01*
X54371817Y-1978183D01*
X54184983Y-1824851D01*
X53971824Y-1710916D01*
X53740534Y-1640755D01*
X53500000Y-1617064D01*
X53259467Y-1640755D01*
X53028177Y-1710916D01*
X52815018Y-1824851D01*
X52628184Y-1978183D01*
X52474852Y-2165017D01*
X52360916Y-2378176D01*
X52290755Y-2609466D01*
X52273000Y-2789732D01*
X48228824Y-2789732D01*
X48228824Y-2250000D01*
X48216741Y-2127323D01*
X48180958Y-2009359D01*
X48122848Y-1900644D01*
X48044646Y-1805354D01*
X47949356Y-1727152D01*
X47840641Y-1669042D01*
X47722677Y-1633259D01*
X47600000Y-1621176D01*
X46400000Y-1621176D01*
X46277323Y-1633259D01*
X46159359Y-1669042D01*
X46050644Y-1727152D01*
X45955354Y-1805354D01*
X45877152Y-1900644D01*
X45819042Y-2009359D01*
X45783259Y-2127323D01*
X45771176Y-2250000D01*
X45570573Y-2250000D01*
X45525149Y-2165018D01*
X45371817Y-1978183D01*
X45184983Y-1824851D01*
X44971824Y-1710916D01*
X44740534Y-1640755D01*
X44500000Y-1617064D01*
X44259467Y-1640755D01*
X44028177Y-1710916D01*
X43815018Y-1824851D01*
X43628184Y-1978183D01*
X43474852Y-2165017D01*
X43360916Y-2378176D01*
X43290755Y-2609466D01*
X43273000Y-2789732D01*
X39228824Y-2789732D01*
X39228824Y-2275000D01*
X39216741Y-2152323D01*
X39180958Y-2034359D01*
X39122848Y-1925644D01*
X39044646Y-1830354D01*
X38949356Y-1752152D01*
X38840641Y-1694042D01*
X38722677Y-1658259D01*
X38600000Y-1646176D01*
X37400000Y-1646176D01*
X37277323Y-1658259D01*
X37159359Y-1694042D01*
X37050644Y-1752152D01*
X36955354Y-1830354D01*
X36877152Y-1925644D01*
X36819042Y-2034359D01*
X36783259Y-2152323D01*
X36771176Y-2275000D01*
X36570573Y-2275000D01*
X36525149Y-2190018D01*
X36371817Y-2003183D01*
X36184983Y-1849851D01*
X35971824Y-1735916D01*
X35740534Y-1665755D01*
X35500000Y-1642064D01*
X35259467Y-1665755D01*
X35028177Y-1735916D01*
X34815018Y-1849851D01*
X34628184Y-2003183D01*
X34474851Y-2190017D01*
X34360916Y-2403176D01*
X34290755Y-2634466D01*
X34273000Y-2814732D01*
X34227000Y-2814732D01*
X34209245Y-2634467D01*
X34139084Y-2403177D01*
X34025149Y-2190018D01*
X33871817Y-2003183D01*
X33684983Y-1849851D01*
X33471824Y-1735916D01*
X33240534Y-1665755D01*
X33000000Y-1642064D01*
X32759467Y-1665755D01*
X32528177Y-1735916D01*
X32315018Y-1849851D01*
X32128184Y-2003183D01*
X31974851Y-2190017D01*
X31888627Y-2351332D01*
X31765053Y-2097430D01*
X31589049Y-1865571D01*
X31371193Y-1672504D01*
X31119858Y-1525648D01*
X30856890Y-1433524D01*
X30627000Y-1554845D01*
X30373000Y-1554845D01*
X30143110Y-1433524D01*
X29880142Y-1525648D01*
X29628807Y-1672504D01*
X29410951Y-1865571D01*
X29234947Y-2097430D01*
X29107558Y-2359170D01*
X29033680Y-2640733D01*
X4434474Y-2640733D01*
X4420240Y-2569175D01*
X4308901Y-2300378D01*
X4147261Y-2058467D01*
X3941533Y-1852739D01*
X3699622Y-1691099D01*
X3430825Y-1579760D01*
X3145472Y-1523000D01*
X2854528Y-1523000D01*
X2569175Y-1579760D01*
X2300378Y-1691099D01*
X2058467Y-1852739D01*
X1852739Y-2058467D01*
X1691099Y-2300378D01*
X1579760Y-2569175D01*
X1523000Y-2854528D01*
X477000Y-2854528D01*
X477000Y-477000D01*
X74523001Y-477000D01*
X74523000Y-44523000D01*
X74523000Y-44523000D01*
G37*
X74523000Y-44523000D02*
X477000Y-44523000D01*
X477000Y-41854528D01*
X1523000Y-41854528D01*
X1523000Y-42145472D01*
X1579760Y-42430825D01*
X1691099Y-42699622D01*
X1852739Y-42941533D01*
X2058467Y-43147261D01*
X2300378Y-43308901D01*
X2569175Y-43420240D01*
X2854528Y-43477000D01*
X3145472Y-43477000D01*
X3430825Y-43420240D01*
X3699622Y-43308901D01*
X3941533Y-43147261D01*
X4147261Y-42941533D01*
X4308901Y-42699622D01*
X4420240Y-42430825D01*
X4477000Y-42145472D01*
X4477000Y-41891955D01*
X7223000Y-41891955D01*
X7223000Y-42108045D01*
X7265157Y-42319983D01*
X7347851Y-42519624D01*
X7467904Y-42699297D01*
X7620703Y-42852096D01*
X7800376Y-42972149D01*
X8000017Y-43054843D01*
X8211955Y-43097000D01*
X8428045Y-43097000D01*
X8639983Y-43054843D01*
X8839624Y-42972149D01*
X9019297Y-42852096D01*
X9172096Y-42699297D01*
X9292149Y-42519624D01*
X9374843Y-42319983D01*
X9417000Y-42108045D01*
X9417000Y-41891955D01*
X9763000Y-41891955D01*
X9763000Y-42108045D01*
X9805157Y-42319983D01*
X9887851Y-42519624D01*
X10007904Y-42699297D01*
X10160703Y-42852096D01*
X10340376Y-42972149D01*
X10540017Y-43054843D01*
X10751955Y-43097000D01*
X10968045Y-43097000D01*
X11179983Y-43054843D01*
X11379624Y-42972149D01*
X11559297Y-42852096D01*
X11712096Y-42699297D01*
X11832149Y-42519624D01*
X11914843Y-42319983D01*
X11957000Y-42108045D01*
X11957000Y-41891955D01*
X12303000Y-41891955D01*
X12303000Y-42108045D01*
X12345157Y-42319983D01*
X12427851Y-42519624D01*
X12547904Y-42699297D01*
X12700703Y-42852096D01*
X12880376Y-42972149D01*
X13080017Y-43054843D01*
X13291955Y-43097000D01*
X13508045Y-43097000D01*
X13719983Y-43054843D01*
X13919624Y-42972149D01*
X14099297Y-42852096D01*
X14252096Y-42699297D01*
X14372149Y-42519624D01*
X14454843Y-42319983D01*
X14497000Y-42108045D01*
X14497000Y-41891955D01*
X17603000Y-41891955D01*
X17603000Y-42108045D01*
X17645157Y-42319983D01*
X17727851Y-42519624D01*
X17847904Y-42699297D01*
X18000703Y-42852096D01*
X18180376Y-42972149D01*
X18380017Y-43054843D01*
X18591955Y-43097000D01*
X18808045Y-43097000D01*
X19019983Y-43054843D01*
X19219624Y-42972149D01*
X19399297Y-42852096D01*
X19552096Y-42699297D01*
X19672149Y-42519624D01*
X19754843Y-42319983D01*
X19797000Y-42108045D01*
X19797000Y-41891955D01*
X20143000Y-41891955D01*
X20143000Y-42108045D01*
X20185157Y-42319983D01*
X20267851Y-42519624D01*
X20387904Y-42699297D01*
X20540703Y-42852096D01*
X20720376Y-42972149D01*
X20920017Y-43054843D01*
X21131955Y-43097000D01*
X21348045Y-43097000D01*
X21559983Y-43054843D01*
X21759624Y-42972149D01*
X21939297Y-42852096D01*
X22092096Y-42699297D01*
X22212149Y-42519624D01*
X22294843Y-42319983D01*
X22337000Y-42108045D01*
X22337000Y-41891955D01*
X22683000Y-41891955D01*
X22683000Y-42108045D01*
X22725157Y-42319983D01*
X22807851Y-42519624D01*
X22927904Y-42699297D01*
X23080703Y-42852096D01*
X23260376Y-42972149D01*
X23460017Y-43054843D01*
X23671955Y-43097000D01*
X23888045Y-43097000D01*
X24099983Y-43054843D01*
X24299624Y-42972149D01*
X24479297Y-42852096D01*
X24632096Y-42699297D01*
X24752149Y-42519624D01*
X24834843Y-42319983D01*
X24877000Y-42108045D01*
X24877000Y-41891955D01*
X28003000Y-41891955D01*
X28003000Y-42108045D01*
X28045157Y-42319983D01*
X28127851Y-42519624D01*
X28247904Y-42699297D01*
X28400703Y-42852096D01*
X28580376Y-42972149D01*
X28780017Y-43054843D01*
X28991955Y-43097000D01*
X29208045Y-43097000D01*
X29419983Y-43054843D01*
X29619624Y-42972149D01*
X29799297Y-42852096D01*
X29952096Y-42699297D01*
X30072149Y-42519624D01*
X30154843Y-42319983D01*
X30197000Y-42108045D01*
X30197000Y-41891955D01*
X30543000Y-41891955D01*
X30543000Y-42108045D01*
X30585157Y-42319983D01*
X30667851Y-42519624D01*
X30787904Y-42699297D01*
X30940703Y-42852096D01*
X31120376Y-42972149D01*
X31320017Y-43054843D01*
X31531955Y-43097000D01*
X31748045Y-43097000D01*
X31959983Y-43054843D01*
X32159624Y-42972149D01*
X32339297Y-42852096D01*
X32492096Y-42699297D01*
X32612149Y-42519624D01*
X32694843Y-42319983D01*
X32737000Y-42108045D01*
X32737000Y-41891955D01*
X33083000Y-41891955D01*
X33083000Y-42108045D01*
X33125157Y-42319983D01*
X33207851Y-42519624D01*
X33327904Y-42699297D01*
X33480703Y-42852096D01*
X33660376Y-42972149D01*
X33860017Y-43054843D01*
X34071955Y-43097000D01*
X34288045Y-43097000D01*
X34499983Y-43054843D01*
X34699624Y-42972149D01*
X34879297Y-42852096D01*
X35032096Y-42699297D01*
X35152149Y-42519624D01*
X35234843Y-42319983D01*
X35277000Y-42108045D01*
X35277000Y-41891955D01*
X35234843Y-41680017D01*
X35152149Y-41480376D01*
X35032096Y-41300703D01*
X34981393Y-41250000D01*
X38671176Y-41250000D01*
X38671176Y-42750000D01*
X38683259Y-42872677D01*
X38719042Y-42990641D01*
X38777152Y-43099356D01*
X38855354Y-43194646D01*
X38950644Y-43272848D01*
X39059359Y-43330958D01*
X39177323Y-43366741D01*
X39300000Y-43378824D01*
X40500000Y-43378824D01*
X40622677Y-43366741D01*
X40740641Y-43330958D01*
X40849356Y-43272848D01*
X40944646Y-43194646D01*
X41022848Y-43099356D01*
X41080958Y-42990641D01*
X41116741Y-42872677D01*
X41128824Y-42750000D01*
X41128824Y-41789733D01*
X41173000Y-41789733D01*
X41173000Y-42210268D01*
X41190755Y-42390534D01*
X41260916Y-42621824D01*
X41374852Y-42834983D01*
X41528184Y-43021817D01*
X41715018Y-43175149D01*
X41928177Y-43289084D01*
X42159467Y-43359245D01*
X42400000Y-43382936D01*
X42640534Y-43359245D01*
X42871824Y-43289084D01*
X43084983Y-43175149D01*
X43271817Y-43021817D01*
X43425149Y-42834982D01*
X43539084Y-42621823D01*
X43609245Y-42390533D01*
X43627000Y-42210267D01*
X43627000Y-41789732D01*
X43609245Y-41609466D01*
X43539084Y-41378176D01*
X43483936Y-41275000D01*
X47471176Y-41275000D01*
X47471176Y-42725000D01*
X47483259Y-42847677D01*
X47519042Y-42965641D01*
X47577152Y-43074356D01*
X47655354Y-43169646D01*
X47750644Y-43247848D01*
X47859359Y-43305958D01*
X47977323Y-43341741D01*
X48100000Y-43353824D01*
X49300000Y-43353824D01*
X49422677Y-43341741D01*
X49540641Y-43305958D01*
X49649356Y-43247848D01*
X49744646Y-43169646D01*
X49822848Y-43074356D01*
X49880958Y-42965641D01*
X49916741Y-42847677D01*
X49928824Y-42725000D01*
X49928824Y-41814733D01*
X49973000Y-41814733D01*
X49973000Y-42185268D01*
X49990755Y-42365534D01*
X50060916Y-42596824D01*
X50174851Y-42809983D01*
X50328184Y-42996817D01*
X50515018Y-43150149D01*
X50728177Y-43264084D01*
X50959467Y-43334245D01*
X51200000Y-43357936D01*
X51440534Y-43334245D01*
X51671824Y-43264084D01*
X51884983Y-43150149D01*
X52071817Y-42996817D01*
X52225149Y-42809982D01*
X52339084Y-42596823D01*
X52409245Y-42365533D01*
X52427000Y-42185267D01*
X52427000Y-41814733D01*
X52473000Y-41814733D01*
X52473000Y-42185268D01*
X52490755Y-42365534D01*
X52560916Y-42596824D01*
X52674851Y-42809983D01*
X52828184Y-42996817D01*
X53015018Y-43150149D01*
X53228177Y-43264084D01*
X53459467Y-43334245D01*
X53700000Y-43357936D01*
X53940534Y-43334245D01*
X54171824Y-43264084D01*
X54384983Y-43150149D01*
X54571817Y-42996817D01*
X54725149Y-42809982D01*
X54811373Y-42648668D01*
X54934947Y-42902570D01*
X55110951Y-43134429D01*
X55328807Y-43327496D01*
X55580142Y-43474352D01*
X55843110Y-43566476D01*
X56073000Y-43445155D01*
X56073000Y-42127000D01*
X56327000Y-42127000D01*
X56327000Y-43445155D01*
X56556890Y-43566476D01*
X56819858Y-43474352D01*
X57071193Y-43327496D01*
X57289049Y-43134429D01*
X57465053Y-42902570D01*
X57592442Y-42640830D01*
X57666320Y-42359267D01*
X57526165Y-42127000D01*
X56327000Y-42127000D01*
X56073000Y-42127000D01*
X56053000Y-42127000D01*
X56053000Y-41873000D01*
X56073000Y-41873000D01*
X56073000Y-40554845D01*
X56327000Y-40554845D01*
X56327000Y-41873000D01*
X57526165Y-41873000D01*
X57537311Y-41854528D01*
X60523000Y-41854528D01*
X60523000Y-42145472D01*
X60579760Y-42430825D01*
X60691099Y-42699622D01*
X60852739Y-42941533D01*
X61058467Y-43147261D01*
X61300378Y-43308901D01*
X61569175Y-43420240D01*
X61854528Y-43477000D01*
X62145472Y-43477000D01*
X62430825Y-43420240D01*
X62699622Y-43308901D01*
X62941533Y-43147261D01*
X63147261Y-42941533D01*
X63308901Y-42699622D01*
X63420240Y-42430825D01*
X63477000Y-42145472D01*
X63477000Y-41854528D01*
X63420240Y-41569175D01*
X63308901Y-41300378D01*
X63147261Y-41058467D01*
X62941533Y-40852739D01*
X62699622Y-40691099D01*
X62430825Y-40579760D01*
X62145472Y-40523000D01*
X61854528Y-40523000D01*
X61569175Y-40579760D01*
X61300378Y-40691099D01*
X61058467Y-40852739D01*
X60852739Y-41058467D01*
X60691099Y-41300378D01*
X60579760Y-41569175D01*
X60523000Y-41854528D01*
X57537311Y-41854528D01*
X57666320Y-41640733D01*
X57592442Y-41359170D01*
X57465053Y-41097430D01*
X57289049Y-40865571D01*
X57071193Y-40672504D01*
X56819858Y-40525648D01*
X56556890Y-40433524D01*
X56327000Y-40554845D01*
X56073000Y-40554845D01*
X55843110Y-40433524D01*
X55580142Y-40525648D01*
X55328807Y-40672504D01*
X55110951Y-40865571D01*
X54934947Y-41097430D01*
X54811373Y-41351332D01*
X54725149Y-41190017D01*
X54571817Y-41003183D01*
X54384982Y-40849851D01*
X54171823Y-40735916D01*
X53940533Y-40665755D01*
X53700000Y-40642064D01*
X53459466Y-40665755D01*
X53228176Y-40735916D01*
X53015017Y-40849851D01*
X52828183Y-41003183D01*
X52674851Y-41190018D01*
X52560916Y-41403177D01*
X52490755Y-41634467D01*
X52473000Y-41814733D01*
X52427000Y-41814733D01*
X52427000Y-41814732D01*
X52409245Y-41634466D01*
X52339084Y-41403176D01*
X52225149Y-41190017D01*
X52071817Y-41003183D01*
X51884982Y-40849851D01*
X51671823Y-40735916D01*
X51440533Y-40665755D01*
X51200000Y-40642064D01*
X50959466Y-40665755D01*
X50728176Y-40735916D01*
X50515017Y-40849851D01*
X50328183Y-41003183D01*
X50174851Y-41190018D01*
X50060916Y-41403177D01*
X49990755Y-41634467D01*
X49973000Y-41814733D01*
X49928824Y-41814733D01*
X49928824Y-41275000D01*
X49916741Y-41152323D01*
X49880958Y-41034359D01*
X49822848Y-40925644D01*
X49744646Y-40830354D01*
X49649356Y-40752152D01*
X49540641Y-40694042D01*
X49422677Y-40658259D01*
X49300000Y-40646176D01*
X48100000Y-40646176D01*
X47977323Y-40658259D01*
X47859359Y-40694042D01*
X47750644Y-40752152D01*
X47655354Y-40830354D01*
X47577152Y-40925644D01*
X47519042Y-41034359D01*
X47483259Y-41152323D01*
X47471176Y-41275000D01*
X43483936Y-41275000D01*
X43425149Y-41165017D01*
X43271817Y-40978183D01*
X43084982Y-40824851D01*
X42871823Y-40710916D01*
X42640533Y-40640755D01*
X42400000Y-40617064D01*
X42159466Y-40640755D01*
X41928176Y-40710916D01*
X41715017Y-40824851D01*
X41528183Y-40978183D01*
X41374851Y-41165018D01*
X41260916Y-41378177D01*
X41190755Y-41609467D01*
X41173000Y-41789733D01*
X41128824Y-41789733D01*
X41128824Y-41250000D01*
X41116741Y-41127323D01*
X41080958Y-41009359D01*
X41022848Y-40900644D01*
X40944646Y-40805354D01*
X40849356Y-40727152D01*
X40740641Y-40669042D01*
X40622677Y-40633259D01*
X40500000Y-40621176D01*
X39300000Y-40621176D01*
X39177323Y-40633259D01*
X39059359Y-40669042D01*
X38950644Y-40727152D01*
X38855354Y-40805354D01*
X38777152Y-40900644D01*
X38719042Y-41009359D01*
X38683259Y-41127323D01*
X38671176Y-41250000D01*
X34981393Y-41250000D01*
X34879297Y-41147904D01*
X34699624Y-41027851D01*
X34499983Y-40945157D01*
X34288045Y-40903000D01*
X34071955Y-40903000D01*
X33860017Y-40945157D01*
X33660376Y-41027851D01*
X33480703Y-41147904D01*
X33327904Y-41300703D01*
X33207851Y-41480376D01*
X33125157Y-41680017D01*
X33083000Y-41891955D01*
X32737000Y-41891955D01*
X32694843Y-41680017D01*
X32612149Y-41480376D01*
X32492096Y-41300703D01*
X32339297Y-41147904D01*
X32159624Y-41027851D01*
X31959983Y-40945157D01*
X31748045Y-40903000D01*
X31531955Y-40903000D01*
X31320017Y-40945157D01*
X31120376Y-41027851D01*
X30940703Y-41147904D01*
X30787904Y-41300703D01*
X30667851Y-41480376D01*
X30585157Y-41680017D01*
X30543000Y-41891955D01*
X30197000Y-41891955D01*
X30154843Y-41680017D01*
X30072149Y-41480376D01*
X29952096Y-41300703D01*
X29799297Y-41147904D01*
X29619624Y-41027851D01*
X29419983Y-40945157D01*
X29208045Y-40903000D01*
X28991955Y-40903000D01*
X28780017Y-40945157D01*
X28580376Y-41027851D01*
X28400703Y-41147904D01*
X28247904Y-41300703D01*
X28127851Y-41480376D01*
X28045157Y-41680017D01*
X28003000Y-41891955D01*
X24877000Y-41891955D01*
X24834843Y-41680017D01*
X24752149Y-41480376D01*
X24632096Y-41300703D01*
X24479297Y-41147904D01*
X24299624Y-41027851D01*
X24099983Y-40945157D01*
X23888045Y-40903000D01*
X23671955Y-40903000D01*
X23460017Y-40945157D01*
X23260376Y-41027851D01*
X23080703Y-41147904D01*
X22927904Y-41300703D01*
X22807851Y-41480376D01*
X22725157Y-41680017D01*
X22683000Y-41891955D01*
X22337000Y-41891955D01*
X22294843Y-41680017D01*
X22212149Y-41480376D01*
X22092096Y-41300703D01*
X21939297Y-41147904D01*
X21759624Y-41027851D01*
X21559983Y-40945157D01*
X21348045Y-40903000D01*
X21131955Y-40903000D01*
X20920017Y-40945157D01*
X20720376Y-41027851D01*
X20540703Y-41147904D01*
X20387904Y-41300703D01*
X20267851Y-41480376D01*
X20185157Y-41680017D01*
X20143000Y-41891955D01*
X19797000Y-41891955D01*
X19754843Y-41680017D01*
X19672149Y-41480376D01*
X19552096Y-41300703D01*
X19399297Y-41147904D01*
X19219624Y-41027851D01*
X19019983Y-40945157D01*
X18808045Y-40903000D01*
X18591955Y-40903000D01*
X18380017Y-40945157D01*
X18180376Y-41027851D01*
X18000703Y-41147904D01*
X17847904Y-41300703D01*
X17727851Y-41480376D01*
X17645157Y-41680017D01*
X17603000Y-41891955D01*
X14497000Y-41891955D01*
X14454843Y-41680017D01*
X14372149Y-41480376D01*
X14252096Y-41300703D01*
X14099297Y-41147904D01*
X13919624Y-41027851D01*
X13719983Y-40945157D01*
X13508045Y-40903000D01*
X13291955Y-40903000D01*
X13080017Y-40945157D01*
X12880376Y-41027851D01*
X12700703Y-41147904D01*
X12547904Y-41300703D01*
X12427851Y-41480376D01*
X12345157Y-41680017D01*
X12303000Y-41891955D01*
X11957000Y-41891955D01*
X11914843Y-41680017D01*
X11832149Y-41480376D01*
X11712096Y-41300703D01*
X11559297Y-41147904D01*
X11379624Y-41027851D01*
X11179983Y-40945157D01*
X10968045Y-40903000D01*
X10751955Y-40903000D01*
X10540017Y-40945157D01*
X10340376Y-41027851D01*
X10160703Y-41147904D01*
X10007904Y-41300703D01*
X9887851Y-41480376D01*
X9805157Y-41680017D01*
X9763000Y-41891955D01*
X9417000Y-41891955D01*
X9374843Y-41680017D01*
X9292149Y-41480376D01*
X9172096Y-41300703D01*
X9019297Y-41147904D01*
X8839624Y-41027851D01*
X8639983Y-40945157D01*
X8428045Y-40903000D01*
X8211955Y-40903000D01*
X8000017Y-40945157D01*
X7800376Y-41027851D01*
X7620703Y-41147904D01*
X7467904Y-41300703D01*
X7347851Y-41480376D01*
X7265157Y-41680017D01*
X7223000Y-41891955D01*
X4477000Y-41891955D01*
X4477000Y-41854528D01*
X4420240Y-41569175D01*
X4308901Y-41300378D01*
X4147261Y-41058467D01*
X3941533Y-40852739D01*
X3699622Y-40691099D01*
X3430825Y-40579760D01*
X3145472Y-40523000D01*
X2854528Y-40523000D01*
X2569175Y-40579760D01*
X2300378Y-40691099D01*
X2058467Y-40852739D01*
X1852739Y-41058467D01*
X1691099Y-41300378D01*
X1579760Y-41569175D01*
X1523000Y-41854528D01*
X477000Y-41854528D01*
X477000Y-38039151D01*
X67273000Y-38039151D01*
X67273000Y-38280849D01*
X67320153Y-38517903D01*
X67412647Y-38741202D01*
X67546927Y-38942167D01*
X67717833Y-39113073D01*
X67918798Y-39247353D01*
X68142097Y-39339847D01*
X68379151Y-39387000D01*
X68620849Y-39387000D01*
X68857903Y-39339847D01*
X69081202Y-39247353D01*
X69282167Y-39113073D01*
X69453073Y-38942167D01*
X69587353Y-38741202D01*
X69679847Y-38517903D01*
X69727000Y-38280849D01*
X69727000Y-38039151D01*
X69813000Y-38039151D01*
X69813000Y-38280849D01*
X69860153Y-38517903D01*
X69952647Y-38741202D01*
X70086927Y-38942167D01*
X70257833Y-39113073D01*
X70458798Y-39247353D01*
X70682097Y-39339847D01*
X70919151Y-39387000D01*
X71160849Y-39387000D01*
X71397903Y-39339847D01*
X71621202Y-39247353D01*
X71822167Y-39113073D01*
X71993073Y-38942167D01*
X72127353Y-38741202D01*
X72219847Y-38517903D01*
X72267000Y-38280849D01*
X72267000Y-38039151D01*
X72219847Y-37802097D01*
X72127353Y-37578798D01*
X71993073Y-37377833D01*
X71822167Y-37206927D01*
X71621202Y-37072647D01*
X71397903Y-36980153D01*
X71160849Y-36933000D01*
X70919151Y-36933000D01*
X70682097Y-36980153D01*
X70458798Y-37072647D01*
X70257833Y-37206927D01*
X70086927Y-37377833D01*
X69952647Y-37578798D01*
X69860153Y-37802097D01*
X69813000Y-38039151D01*
X69727000Y-38039151D01*
X69679847Y-37802097D01*
X69587353Y-37578798D01*
X69453073Y-37377833D01*
X69282167Y-37206927D01*
X69081202Y-37072647D01*
X68857903Y-36980153D01*
X68620849Y-36933000D01*
X68379151Y-36933000D01*
X68142097Y-36980153D01*
X67918798Y-37072647D01*
X67717833Y-37206927D01*
X67546927Y-37377833D01*
X67412647Y-37578798D01*
X67320153Y-37802097D01*
X67273000Y-38039151D01*
X477000Y-38039151D01*
X477000Y-35356890D01*
X1433524Y-35356890D01*
X1525648Y-35619858D01*
X1672504Y-35871193D01*
X1865571Y-36089049D01*
X2097430Y-36265053D01*
X2359170Y-36392442D01*
X2640733Y-36466320D01*
X2873000Y-36326165D01*
X2873000Y-35127000D01*
X3127000Y-35127000D01*
X3127000Y-36326165D01*
X3359267Y-36466320D01*
X3640830Y-36392442D01*
X3902570Y-36265053D01*
X4134429Y-36089049D01*
X4327496Y-35871193D01*
X4474352Y-35619858D01*
X4566476Y-35356890D01*
X4445155Y-35127000D01*
X3127000Y-35127000D01*
X2873000Y-35127000D01*
X1554845Y-35127000D01*
X1433524Y-35356890D01*
X477000Y-35356890D01*
X477000Y-34643110D01*
X1433524Y-34643110D01*
X1554845Y-34873000D01*
X2873000Y-34873000D01*
X2873000Y-34853000D01*
X3127000Y-34853000D01*
X3127000Y-34873000D01*
X4445155Y-34873000D01*
X4566476Y-34643110D01*
X4474352Y-34380142D01*
X4327496Y-34128807D01*
X4134429Y-33910951D01*
X3902570Y-33734947D01*
X3648668Y-33611373D01*
X3809983Y-33525149D01*
X3996817Y-33371817D01*
X4150149Y-33184983D01*
X4188291Y-33113623D01*
X22323000Y-33113623D01*
X22323000Y-33286377D01*
X22356703Y-33455811D01*
X22422813Y-33615415D01*
X22518790Y-33759055D01*
X22640945Y-33881210D01*
X22784585Y-33977187D01*
X22944189Y-34043297D01*
X23113623Y-34077000D01*
X23286377Y-34077000D01*
X23455811Y-34043297D01*
X23615415Y-33977187D01*
X23759055Y-33881210D01*
X23881210Y-33759055D01*
X23977187Y-33615415D01*
X24043297Y-33455811D01*
X24077000Y-33286377D01*
X24077000Y-33113623D01*
X24043297Y-32944189D01*
X23979408Y-32789947D01*
X23979408Y-31869322D01*
X24036463Y-31831199D01*
X24158618Y-31709044D01*
X24196741Y-31651989D01*
X26325383Y-31651989D01*
X26350026Y-31654416D01*
X26374669Y-31651989D01*
X26374679Y-31651989D01*
X26448435Y-31644725D01*
X26543062Y-31616020D01*
X26630271Y-31569406D01*
X26706710Y-31506673D01*
X26722427Y-31487522D01*
X27094985Y-31114964D01*
X38495852Y-31114964D01*
X38495852Y-31287718D01*
X38529555Y-31457152D01*
X38595665Y-31616756D01*
X38691642Y-31760396D01*
X38813797Y-31882551D01*
X38870852Y-31920674D01*
X38870853Y-34546343D01*
X38868425Y-34570996D01*
X38878117Y-34669405D01*
X38906822Y-34764032D01*
X38940840Y-34827675D01*
X38923928Y-34912695D01*
X38923928Y-35085449D01*
X38957631Y-35254883D01*
X39023741Y-35414487D01*
X39119718Y-35558127D01*
X39241873Y-35680282D01*
X39385513Y-35776259D01*
X39545117Y-35842369D01*
X39714551Y-35876072D01*
X39887305Y-35876072D01*
X40056739Y-35842369D01*
X40216343Y-35776259D01*
X40359983Y-35680282D01*
X40482138Y-35558127D01*
X40578115Y-35414487D01*
X40582285Y-35404421D01*
X40618790Y-35459055D01*
X40740945Y-35581210D01*
X40884585Y-35677187D01*
X41044189Y-35743297D01*
X41213623Y-35777000D01*
X41386377Y-35777000D01*
X41555811Y-35743297D01*
X41715415Y-35677187D01*
X41859055Y-35581210D01*
X41941114Y-35499151D01*
X67273000Y-35499151D01*
X67273000Y-35740849D01*
X67320153Y-35977903D01*
X67412647Y-36201202D01*
X67546927Y-36402167D01*
X67717833Y-36573073D01*
X67918798Y-36707353D01*
X68142097Y-36799847D01*
X68379151Y-36847000D01*
X68620849Y-36847000D01*
X68857903Y-36799847D01*
X69081202Y-36707353D01*
X69282167Y-36573073D01*
X69453073Y-36402167D01*
X69587353Y-36201202D01*
X69679847Y-35977903D01*
X69727000Y-35740849D01*
X69727000Y-35499151D01*
X69813000Y-35499151D01*
X69813000Y-35740849D01*
X69860153Y-35977903D01*
X69952647Y-36201202D01*
X70086927Y-36402167D01*
X70257833Y-36573073D01*
X70458798Y-36707353D01*
X70682097Y-36799847D01*
X70919151Y-36847000D01*
X71160849Y-36847000D01*
X71397903Y-36799847D01*
X71621202Y-36707353D01*
X71822167Y-36573073D01*
X71993073Y-36402167D01*
X72127353Y-36201202D01*
X72219847Y-35977903D01*
X72267000Y-35740849D01*
X72267000Y-35499151D01*
X72219847Y-35262097D01*
X72127353Y-35038798D01*
X71993073Y-34837833D01*
X71822167Y-34666927D01*
X71621202Y-34532647D01*
X71397903Y-34440153D01*
X71160849Y-34393000D01*
X70919151Y-34393000D01*
X70682097Y-34440153D01*
X70458798Y-34532647D01*
X70257833Y-34666927D01*
X70086927Y-34837833D01*
X69952647Y-35038798D01*
X69860153Y-35262097D01*
X69813000Y-35499151D01*
X69727000Y-35499151D01*
X69679847Y-35262097D01*
X69587353Y-35038798D01*
X69453073Y-34837833D01*
X69282167Y-34666927D01*
X69081202Y-34532647D01*
X68857903Y-34440153D01*
X68620849Y-34393000D01*
X68379151Y-34393000D01*
X68142097Y-34440153D01*
X67918798Y-34532647D01*
X67717833Y-34666927D01*
X67546927Y-34837833D01*
X67412647Y-35038798D01*
X67320153Y-35262097D01*
X67273000Y-35499151D01*
X41941114Y-35499151D01*
X41981210Y-35459055D01*
X42077187Y-35315415D01*
X42143297Y-35155811D01*
X42177000Y-34986377D01*
X42177000Y-34813623D01*
X42143297Y-34644189D01*
X42077187Y-34484585D01*
X41981210Y-34340945D01*
X41859055Y-34218790D01*
X41715415Y-34122813D01*
X41555811Y-34056703D01*
X41386377Y-34023000D01*
X41302000Y-34023000D01*
X41302000Y-31819333D01*
X41359055Y-31781210D01*
X41481210Y-31659055D01*
X41577187Y-31515415D01*
X41643297Y-31355811D01*
X41677000Y-31186377D01*
X41677000Y-31013623D01*
X41643297Y-30844189D01*
X41577187Y-30684585D01*
X41545698Y-30637458D01*
X58565000Y-30637458D01*
X58565000Y-31814250D01*
X58723750Y-31973000D01*
X59221835Y-31973000D01*
X59215172Y-32006176D01*
X59214829Y-32190355D01*
X59222048Y-32227000D01*
X58723750Y-32227000D01*
X58565000Y-32385750D01*
X58565000Y-33562542D01*
X58589403Y-33685223D01*
X58637270Y-33800785D01*
X58706763Y-33904789D01*
X58795211Y-33993237D01*
X58899215Y-34062730D01*
X59014777Y-34110597D01*
X59137458Y-34135000D01*
X60314250Y-34135000D01*
X60473000Y-33976250D01*
X60473000Y-33478165D01*
X60506176Y-33484828D01*
X60690355Y-33485171D01*
X60727000Y-33477952D01*
X60727000Y-33976250D01*
X60885750Y-34135000D01*
X62062542Y-34135000D01*
X62185223Y-34110597D01*
X62300785Y-34062730D01*
X62404789Y-33993237D01*
X62493237Y-33904789D01*
X62562730Y-33800785D01*
X62610597Y-33685223D01*
X62635000Y-33562542D01*
X62635000Y-32959151D01*
X67273000Y-32959151D01*
X67273000Y-33200849D01*
X67320153Y-33437903D01*
X67412647Y-33661202D01*
X67546927Y-33862167D01*
X67717833Y-34033073D01*
X67918798Y-34167353D01*
X68142097Y-34259847D01*
X68379151Y-34307000D01*
X68620849Y-34307000D01*
X68857903Y-34259847D01*
X69081202Y-34167353D01*
X69282167Y-34033073D01*
X69453073Y-33862167D01*
X69587353Y-33661202D01*
X69679847Y-33437903D01*
X69727000Y-33200849D01*
X69727000Y-32959151D01*
X69813000Y-32959151D01*
X69813000Y-33200849D01*
X69860153Y-33437903D01*
X69952647Y-33661202D01*
X70086927Y-33862167D01*
X70257833Y-34033073D01*
X70458798Y-34167353D01*
X70682097Y-34259847D01*
X70919151Y-34307000D01*
X71160849Y-34307000D01*
X71397903Y-34259847D01*
X71621202Y-34167353D01*
X71822167Y-34033073D01*
X71993073Y-33862167D01*
X72127353Y-33661202D01*
X72219847Y-33437903D01*
X72267000Y-33200849D01*
X72267000Y-32959151D01*
X72219847Y-32722097D01*
X72127353Y-32498798D01*
X71993073Y-32297833D01*
X71822167Y-32126927D01*
X71621202Y-31992647D01*
X71397903Y-31900153D01*
X71160849Y-31853000D01*
X70919151Y-31853000D01*
X70682097Y-31900153D01*
X70458798Y-31992647D01*
X70257833Y-32126927D01*
X70086927Y-32297833D01*
X69952647Y-32498798D01*
X69860153Y-32722097D01*
X69813000Y-32959151D01*
X69727000Y-32959151D01*
X69679847Y-32722097D01*
X69587353Y-32498798D01*
X69453073Y-32297833D01*
X69282167Y-32126927D01*
X69081202Y-31992647D01*
X68857903Y-31900153D01*
X68620849Y-31853000D01*
X68379151Y-31853000D01*
X68142097Y-31900153D01*
X67918798Y-31992647D01*
X67717833Y-32126927D01*
X67546927Y-32297833D01*
X67412647Y-32498798D01*
X67320153Y-32722097D01*
X67273000Y-32959151D01*
X62635000Y-32959151D01*
X62635000Y-32385750D01*
X62476250Y-32227000D01*
X61978165Y-32227000D01*
X61984828Y-32193824D01*
X61985171Y-32009645D01*
X61977952Y-31973000D01*
X62476250Y-31973000D01*
X62635000Y-31814250D01*
X62635000Y-30637458D01*
X62610597Y-30514777D01*
X62570988Y-30419151D01*
X67273000Y-30419151D01*
X67273000Y-30660849D01*
X67320153Y-30897903D01*
X67412647Y-31121202D01*
X67546927Y-31322167D01*
X67717833Y-31493073D01*
X67918798Y-31627353D01*
X68142097Y-31719847D01*
X68379151Y-31767000D01*
X68620849Y-31767000D01*
X68857903Y-31719847D01*
X69081202Y-31627353D01*
X69282167Y-31493073D01*
X69453073Y-31322167D01*
X69587353Y-31121202D01*
X69679847Y-30897903D01*
X69727000Y-30660849D01*
X69727000Y-30419151D01*
X69813000Y-30419151D01*
X69813000Y-30660849D01*
X69860153Y-30897903D01*
X69952647Y-31121202D01*
X70086927Y-31322167D01*
X70257833Y-31493073D01*
X70458798Y-31627353D01*
X70682097Y-31719847D01*
X70919151Y-31767000D01*
X71160849Y-31767000D01*
X71397903Y-31719847D01*
X71621202Y-31627353D01*
X71822167Y-31493073D01*
X71993073Y-31322167D01*
X72127353Y-31121202D01*
X72219847Y-30897903D01*
X72267000Y-30660849D01*
X72267000Y-30419151D01*
X72219847Y-30182097D01*
X72127353Y-29958798D01*
X71993073Y-29757833D01*
X71822167Y-29586927D01*
X71621202Y-29452647D01*
X71513049Y-29407848D01*
X71673747Y-29350919D01*
X71811157Y-29277472D01*
X71888792Y-29028397D01*
X71040000Y-28179605D01*
X70191208Y-29028397D01*
X70268843Y-29277472D01*
X70532883Y-29403371D01*
X70560709Y-29410434D01*
X70458798Y-29452647D01*
X70257833Y-29586927D01*
X70086927Y-29757833D01*
X69952647Y-29958798D01*
X69860153Y-30182097D01*
X69813000Y-30419151D01*
X69727000Y-30419151D01*
X69679847Y-30182097D01*
X69587353Y-29958798D01*
X69453073Y-29757833D01*
X69282167Y-29586927D01*
X69081202Y-29452647D01*
X68857903Y-29360153D01*
X68620849Y-29313000D01*
X68379151Y-29313000D01*
X68142097Y-29360153D01*
X67918798Y-29452647D01*
X67717833Y-29586927D01*
X67546927Y-29757833D01*
X67412647Y-29958798D01*
X67320153Y-30182097D01*
X67273000Y-30419151D01*
X62570988Y-30419151D01*
X62562730Y-30399215D01*
X62493237Y-30295211D01*
X62404789Y-30206763D01*
X62300785Y-30137270D01*
X62185223Y-30089403D01*
X62062542Y-30065000D01*
X60885750Y-30065000D01*
X60727000Y-30223750D01*
X60727000Y-30721835D01*
X60693824Y-30715172D01*
X60509645Y-30714829D01*
X60473000Y-30722048D01*
X60473000Y-30223750D01*
X60314250Y-30065000D01*
X59137458Y-30065000D01*
X59014777Y-30089403D01*
X58899215Y-30137270D01*
X58795211Y-30206763D01*
X58706763Y-30295211D01*
X58637270Y-30399215D01*
X58589403Y-30514777D01*
X58565000Y-30637458D01*
X41545698Y-30637458D01*
X41481210Y-30540945D01*
X41359055Y-30418790D01*
X41215415Y-30322813D01*
X41055811Y-30256703D01*
X40886377Y-30223000D01*
X40713623Y-30223000D01*
X40544189Y-30256703D01*
X40384585Y-30322813D01*
X40240945Y-30418790D01*
X40118790Y-30540945D01*
X40052272Y-30640496D01*
X39931907Y-30520131D01*
X39788267Y-30424154D01*
X39628663Y-30358044D01*
X39459229Y-30324341D01*
X39286475Y-30324341D01*
X39117041Y-30358044D01*
X38957437Y-30424154D01*
X38813797Y-30520131D01*
X38691642Y-30642286D01*
X38595665Y-30785926D01*
X38529555Y-30945530D01*
X38495852Y-31114964D01*
X27094985Y-31114964D01*
X27346366Y-30863584D01*
X27413667Y-30876971D01*
X27586421Y-30876971D01*
X27755855Y-30843268D01*
X27915459Y-30777158D01*
X28059099Y-30681181D01*
X28181254Y-30559026D01*
X28277231Y-30415386D01*
X28343341Y-30255782D01*
X28377044Y-30086348D01*
X28377044Y-29913594D01*
X28343341Y-29744160D01*
X28277231Y-29584556D01*
X28181254Y-29440916D01*
X28059099Y-29318761D01*
X27915459Y-29222784D01*
X27755855Y-29156674D01*
X27586421Y-29122971D01*
X27413667Y-29122971D01*
X27244233Y-29156674D01*
X27084629Y-29222784D01*
X26940989Y-29318761D01*
X26818834Y-29440916D01*
X26722857Y-29584556D01*
X26656747Y-29744160D01*
X26623044Y-29913594D01*
X26623044Y-30086348D01*
X26636431Y-30153649D01*
X26142092Y-30647989D01*
X24196741Y-30647989D01*
X24158618Y-30590934D01*
X24036463Y-30468779D01*
X23892823Y-30372802D01*
X23733219Y-30306692D01*
X23563785Y-30272989D01*
X23391031Y-30272989D01*
X23221597Y-30306692D01*
X23061993Y-30372802D01*
X22918353Y-30468779D01*
X22796198Y-30590934D01*
X22700221Y-30734574D01*
X22634111Y-30894178D01*
X22600408Y-31063612D01*
X22600408Y-31236366D01*
X22634111Y-31405800D01*
X22700221Y-31565404D01*
X22796198Y-31709044D01*
X22918353Y-31831199D01*
X22975408Y-31869322D01*
X22975409Y-32350493D01*
X22944189Y-32356703D01*
X22784585Y-32422813D01*
X22640945Y-32518790D01*
X22518790Y-32640945D01*
X22422813Y-32784585D01*
X22356703Y-32944189D01*
X22323000Y-33113623D01*
X4188291Y-33113623D01*
X4264084Y-32971824D01*
X4334245Y-32740534D01*
X4357936Y-32500000D01*
X4334245Y-32259466D01*
X4264084Y-32028176D01*
X4150149Y-31815017D01*
X3996817Y-31628183D01*
X3809983Y-31474851D01*
X3596824Y-31360916D01*
X3365534Y-31290755D01*
X3185268Y-31273000D01*
X2814732Y-31273000D01*
X2634466Y-31290755D01*
X2403176Y-31360916D01*
X2190017Y-31474851D01*
X2003183Y-31628183D01*
X1849851Y-31815017D01*
X1735916Y-32028176D01*
X1665755Y-32259466D01*
X1642064Y-32500000D01*
X1665755Y-32740534D01*
X1735916Y-32971824D01*
X1849851Y-33184983D01*
X2003183Y-33371817D01*
X2190017Y-33525149D01*
X2351332Y-33611373D01*
X2097430Y-33734947D01*
X1865571Y-33910951D01*
X1672504Y-34128807D01*
X1525648Y-34380142D01*
X1433524Y-34643110D01*
X477000Y-34643110D01*
X477000Y-30000000D01*
X1642064Y-30000000D01*
X1665755Y-30240534D01*
X1735916Y-30471824D01*
X1849851Y-30684983D01*
X2003183Y-30871817D01*
X2190017Y-31025149D01*
X2403176Y-31139084D01*
X2634466Y-31209245D01*
X2814732Y-31227000D01*
X3185268Y-31227000D01*
X3365534Y-31209245D01*
X3596824Y-31139084D01*
X3809983Y-31025149D01*
X3996817Y-30871817D01*
X4150149Y-30684983D01*
X4264084Y-30471824D01*
X4334245Y-30240534D01*
X4357936Y-30000000D01*
X4334245Y-29759466D01*
X4264084Y-29528176D01*
X4150149Y-29315017D01*
X3996817Y-29128183D01*
X3809983Y-28974851D01*
X3596824Y-28860916D01*
X3365534Y-28790755D01*
X3185268Y-28773000D01*
X2814732Y-28773000D01*
X2634466Y-28790755D01*
X2403176Y-28860916D01*
X2190017Y-28974851D01*
X2003183Y-29128183D01*
X1849851Y-29315017D01*
X1735916Y-29528176D01*
X1665755Y-29759466D01*
X1642064Y-30000000D01*
X477000Y-30000000D01*
X477000Y-27500000D01*
X1642064Y-27500000D01*
X1665755Y-27740534D01*
X1735916Y-27971824D01*
X1849851Y-28184983D01*
X2003183Y-28371817D01*
X2190017Y-28525149D01*
X2403176Y-28639084D01*
X2634466Y-28709245D01*
X2814732Y-28727000D01*
X3185268Y-28727000D01*
X3365534Y-28709245D01*
X3596824Y-28639084D01*
X3809983Y-28525149D01*
X3996817Y-28371817D01*
X4150149Y-28184983D01*
X4264084Y-27971824D01*
X4334245Y-27740534D01*
X4357936Y-27500000D01*
X4334245Y-27259466D01*
X4264084Y-27028176D01*
X4150149Y-26815017D01*
X4149005Y-26813623D01*
X23423000Y-26813623D01*
X23423000Y-26986377D01*
X23456703Y-27155811D01*
X23522813Y-27315415D01*
X23618790Y-27459055D01*
X23740945Y-27581210D01*
X23884585Y-27677187D01*
X24044189Y-27743297D01*
X24213623Y-27777000D01*
X24386377Y-27777000D01*
X24555811Y-27743297D01*
X24715415Y-27677187D01*
X24859055Y-27581210D01*
X24981210Y-27459055D01*
X25077187Y-27315415D01*
X25143297Y-27155811D01*
X25177000Y-26986377D01*
X25177000Y-26813623D01*
X25143297Y-26644189D01*
X25077187Y-26484585D01*
X24981210Y-26340945D01*
X24859055Y-26218790D01*
X24802000Y-26180667D01*
X24802000Y-25214701D01*
X24863657Y-25226966D01*
X25036411Y-25226966D01*
X25205845Y-25193263D01*
X25365449Y-25127153D01*
X25509089Y-25031176D01*
X25631244Y-24909021D01*
X25727221Y-24765381D01*
X25793331Y-24605777D01*
X25827034Y-24436343D01*
X25827034Y-24263589D01*
X25793331Y-24094155D01*
X25727221Y-23934551D01*
X25631244Y-23790911D01*
X25509089Y-23668756D01*
X25365449Y-23572779D01*
X25205845Y-23506669D01*
X25036411Y-23472966D01*
X24863657Y-23472966D01*
X24694223Y-23506669D01*
X24534619Y-23572779D01*
X24390979Y-23668756D01*
X24268824Y-23790911D01*
X24172847Y-23934551D01*
X24106737Y-24094155D01*
X24073034Y-24263589D01*
X24073034Y-24436343D01*
X24086421Y-24503644D01*
X23962467Y-24627599D01*
X23943316Y-24643316D01*
X23880583Y-24719755D01*
X23833969Y-24806965D01*
X23805264Y-24901592D01*
X23798000Y-24975348D01*
X23798000Y-24975357D01*
X23795573Y-25000000D01*
X23798000Y-25024643D01*
X23798001Y-26168232D01*
X23798000Y-26168242D01*
X23798000Y-26180667D01*
X23740945Y-26218790D01*
X23618790Y-26340945D01*
X23522813Y-26484585D01*
X23456703Y-26644189D01*
X23423000Y-26813623D01*
X4149005Y-26813623D01*
X3996817Y-26628183D01*
X3809983Y-26474851D01*
X3596824Y-26360916D01*
X3365534Y-26290755D01*
X3185268Y-26273000D01*
X2814732Y-26273000D01*
X2634466Y-26290755D01*
X2403176Y-26360916D01*
X2190017Y-26474851D01*
X2003183Y-26628183D01*
X1849851Y-26815017D01*
X1735916Y-27028176D01*
X1665755Y-27259466D01*
X1642064Y-27500000D01*
X477000Y-27500000D01*
X477000Y-25000000D01*
X1642064Y-25000000D01*
X1665755Y-25240534D01*
X1735916Y-25471824D01*
X1849851Y-25684983D01*
X2003183Y-25871817D01*
X2190017Y-26025149D01*
X2403176Y-26139084D01*
X2634466Y-26209245D01*
X2814732Y-26227000D01*
X3185268Y-26227000D01*
X3365534Y-26209245D01*
X3596824Y-26139084D01*
X3809983Y-26025149D01*
X3996817Y-25871817D01*
X4150149Y-25684983D01*
X4264084Y-25471824D01*
X4334245Y-25240534D01*
X4357936Y-25000000D01*
X4334245Y-24759466D01*
X4264084Y-24528176D01*
X4150149Y-24315017D01*
X3996817Y-24128183D01*
X3809983Y-23974851D01*
X3596824Y-23860916D01*
X3365534Y-23790755D01*
X3185268Y-23773000D01*
X2814732Y-23773000D01*
X2634466Y-23790755D01*
X2403176Y-23860916D01*
X2190017Y-23974851D01*
X2003183Y-24128183D01*
X1849851Y-24315017D01*
X1735916Y-24528176D01*
X1665755Y-24759466D01*
X1642064Y-25000000D01*
X477000Y-25000000D01*
X477000Y-21900000D01*
X1646176Y-21900000D01*
X1646176Y-23100000D01*
X1658259Y-23222677D01*
X1694042Y-23340641D01*
X1752152Y-23449356D01*
X1830354Y-23544646D01*
X1925644Y-23622848D01*
X2034359Y-23680958D01*
X2152323Y-23716741D01*
X2275000Y-23728824D01*
X3725000Y-23728824D01*
X3847677Y-23716741D01*
X3965641Y-23680958D01*
X4074356Y-23622848D01*
X4169646Y-23544646D01*
X4247848Y-23449356D01*
X4305958Y-23340641D01*
X4341741Y-23222677D01*
X4353824Y-23100000D01*
X4353824Y-21900000D01*
X4341741Y-21777323D01*
X4305958Y-21659359D01*
X4247848Y-21550644D01*
X4169646Y-21455354D01*
X4074356Y-21377152D01*
X3965641Y-21319042D01*
X3847677Y-21283259D01*
X3725000Y-21271176D01*
X2275000Y-21271176D01*
X2152323Y-21283259D01*
X2034359Y-21319042D01*
X1925644Y-21377152D01*
X1830354Y-21455354D01*
X1752152Y-21550644D01*
X1694042Y-21659359D01*
X1658259Y-21777323D01*
X1646176Y-21900000D01*
X477000Y-21900000D01*
X477000Y-20913623D01*
X10123000Y-20913623D01*
X10123000Y-21086377D01*
X10156703Y-21255811D01*
X10222813Y-21415415D01*
X10318790Y-21559055D01*
X10440945Y-21681210D01*
X10584585Y-21777187D01*
X10744189Y-21843297D01*
X10913623Y-21877000D01*
X11086377Y-21877000D01*
X11153678Y-21863613D01*
X12136387Y-22846322D01*
X12123000Y-22913623D01*
X12123000Y-23086377D01*
X12156703Y-23255811D01*
X12222813Y-23415415D01*
X12318790Y-23559055D01*
X12357735Y-23598000D01*
X11724642Y-23598000D01*
X11699999Y-23595573D01*
X11675356Y-23598000D01*
X11675347Y-23598000D01*
X11601591Y-23605264D01*
X11506964Y-23633969D01*
X11419755Y-23680583D01*
X11411134Y-23687658D01*
X11365098Y-23725440D01*
X11343316Y-23743316D01*
X11327603Y-23762462D01*
X11253678Y-23836387D01*
X11186377Y-23823000D01*
X11013623Y-23823000D01*
X10844189Y-23856703D01*
X10684585Y-23922813D01*
X10540945Y-24018790D01*
X10418790Y-24140945D01*
X10322813Y-24284585D01*
X10256703Y-24444189D01*
X10223000Y-24613623D01*
X10223000Y-24786377D01*
X10256703Y-24955811D01*
X10322813Y-25115415D01*
X10418790Y-25259055D01*
X10540945Y-25381210D01*
X10684585Y-25477187D01*
X10844189Y-25543297D01*
X11013623Y-25577000D01*
X11186377Y-25577000D01*
X11355811Y-25543297D01*
X11515415Y-25477187D01*
X11659055Y-25381210D01*
X11781210Y-25259055D01*
X11877187Y-25115415D01*
X11943297Y-24955811D01*
X11977000Y-24786377D01*
X11977000Y-24613623D01*
X11974688Y-24602000D01*
X17150667Y-24602000D01*
X17188790Y-24659055D01*
X17310945Y-24781210D01*
X17454585Y-24877187D01*
X17614189Y-24943297D01*
X17783623Y-24977000D01*
X17956377Y-24977000D01*
X18125811Y-24943297D01*
X18285415Y-24877187D01*
X18429055Y-24781210D01*
X18551210Y-24659055D01*
X18647187Y-24515415D01*
X18713297Y-24355811D01*
X18747000Y-24186377D01*
X18747000Y-24113623D01*
X21023000Y-24113623D01*
X21023000Y-24286377D01*
X21056703Y-24455811D01*
X21122813Y-24615415D01*
X21218790Y-24759055D01*
X21340945Y-24881210D01*
X21484585Y-24977187D01*
X21644189Y-25043297D01*
X21813623Y-25077000D01*
X21986377Y-25077000D01*
X22155811Y-25043297D01*
X22315415Y-24977187D01*
X22459055Y-24881210D01*
X22581210Y-24759055D01*
X22677187Y-24615415D01*
X22743297Y-24455811D01*
X22777000Y-24286377D01*
X22777000Y-24113623D01*
X22743297Y-23944189D01*
X22677187Y-23784585D01*
X22581210Y-23640945D01*
X22459055Y-23518790D01*
X22402000Y-23480667D01*
X22402000Y-22882721D01*
X22415415Y-22877164D01*
X22559055Y-22781187D01*
X22681210Y-22659032D01*
X22723957Y-22595055D01*
X40995489Y-22595055D01*
X40995489Y-22767809D01*
X41029192Y-22937243D01*
X41095302Y-23096847D01*
X41191279Y-23240487D01*
X41313434Y-23362642D01*
X41370489Y-23400765D01*
X41370489Y-23413190D01*
X41370490Y-23413200D01*
X41370489Y-27040740D01*
X41368062Y-27065383D01*
X41370489Y-27090026D01*
X41370489Y-27090035D01*
X41377753Y-27163791D01*
X41406458Y-27258418D01*
X41453072Y-27345628D01*
X41515805Y-27422067D01*
X41534956Y-27437784D01*
X41678453Y-27581282D01*
X41618790Y-27640945D01*
X41522813Y-27784585D01*
X41456703Y-27944189D01*
X41423000Y-28113623D01*
X41423000Y-28286377D01*
X41456703Y-28455811D01*
X41522813Y-28615415D01*
X41618790Y-28759055D01*
X41740945Y-28881210D01*
X41884585Y-28977187D01*
X42044189Y-29043297D01*
X42213623Y-29077000D01*
X42386377Y-29077000D01*
X42555811Y-29043297D01*
X42715415Y-28977187D01*
X42859055Y-28881210D01*
X42981210Y-28759055D01*
X43062904Y-28636791D01*
X43080592Y-28663262D01*
X43202747Y-28785417D01*
X43346387Y-28881394D01*
X43505991Y-28947504D01*
X43675425Y-28981207D01*
X43848179Y-28981207D01*
X44017613Y-28947504D01*
X44177217Y-28881394D01*
X44320857Y-28785417D01*
X44443012Y-28663262D01*
X44538989Y-28519622D01*
X44605099Y-28360018D01*
X44638802Y-28190584D01*
X44638802Y-28017830D01*
X44605099Y-27848396D01*
X44538989Y-27688792D01*
X44443012Y-27545152D01*
X44320857Y-27422997D01*
X44177217Y-27327020D01*
X44017613Y-27260910D01*
X43848179Y-27227207D01*
X43675425Y-27227207D01*
X43608124Y-27240594D01*
X43472540Y-27105011D01*
X43472540Y-24269279D01*
X43529595Y-24231156D01*
X43651750Y-24109001D01*
X43747727Y-23965361D01*
X43764187Y-23925624D01*
X43781510Y-23942947D01*
X43838565Y-23981070D01*
X43838565Y-23993495D01*
X43838566Y-23993505D01*
X43838565Y-26027955D01*
X43836138Y-26052598D01*
X43838565Y-26077241D01*
X43838565Y-26077250D01*
X43845829Y-26151006D01*
X43874534Y-26245633D01*
X43921148Y-26332843D01*
X43983881Y-26409282D01*
X44003032Y-26424999D01*
X44508710Y-26930678D01*
X44495323Y-26997979D01*
X44495323Y-27170733D01*
X44529026Y-27340167D01*
X44595136Y-27499771D01*
X44691113Y-27643411D01*
X44813268Y-27765566D01*
X44956908Y-27861543D01*
X45116512Y-27927653D01*
X45285946Y-27961356D01*
X45458700Y-27961356D01*
X45628134Y-27927653D01*
X45787738Y-27861543D01*
X45931378Y-27765566D01*
X46053533Y-27643411D01*
X46149510Y-27499771D01*
X46215620Y-27340167D01*
X46249323Y-27170733D01*
X46249323Y-26997979D01*
X46215620Y-26828545D01*
X46149510Y-26668941D01*
X46053533Y-26525301D01*
X45931378Y-26403146D01*
X45787738Y-26307169D01*
X45628134Y-26241059D01*
X45458700Y-26207356D01*
X45285946Y-26207356D01*
X45218645Y-26220743D01*
X44911480Y-25913578D01*
X49323000Y-25913578D01*
X49323000Y-26086332D01*
X49356703Y-26255766D01*
X49422813Y-26415370D01*
X49518790Y-26559010D01*
X49640945Y-26681165D01*
X49784585Y-26777142D01*
X49898001Y-26824120D01*
X49898000Y-28280667D01*
X49840945Y-28318790D01*
X49718790Y-28440945D01*
X49622813Y-28584585D01*
X49556703Y-28744189D01*
X49523000Y-28913623D01*
X49523000Y-29086377D01*
X49556703Y-29255811D01*
X49622813Y-29415415D01*
X49718790Y-29559055D01*
X49840945Y-29681210D01*
X49984585Y-29777187D01*
X50144189Y-29843297D01*
X50313623Y-29877000D01*
X50486377Y-29877000D01*
X50655811Y-29843297D01*
X50815415Y-29777187D01*
X50959055Y-29681210D01*
X51081210Y-29559055D01*
X51177187Y-29415415D01*
X51243297Y-29255811D01*
X51277000Y-29086377D01*
X51277000Y-28913623D01*
X51243297Y-28744189D01*
X51177187Y-28584585D01*
X51081210Y-28440945D01*
X50959055Y-28318790D01*
X50902000Y-28280667D01*
X50902000Y-28075913D01*
X51737783Y-28075913D01*
X51737783Y-28248667D01*
X51771486Y-28418101D01*
X51837596Y-28577705D01*
X51933573Y-28721345D01*
X52055728Y-28843500D01*
X52199368Y-28939477D01*
X52358972Y-29005587D01*
X52528406Y-29039290D01*
X52701160Y-29039290D01*
X52870594Y-29005587D01*
X53030198Y-28939477D01*
X53173838Y-28843500D01*
X53295993Y-28721345D01*
X53391970Y-28577705D01*
X53458080Y-28418101D01*
X53491783Y-28248667D01*
X53491783Y-28075913D01*
X53458080Y-27906479D01*
X53391970Y-27746875D01*
X53295993Y-27603235D01*
X53173838Y-27481080D01*
X53116783Y-27442957D01*
X53116783Y-27227533D01*
X53203909Y-27169317D01*
X53326064Y-27047162D01*
X53422041Y-26903522D01*
X53488151Y-26743918D01*
X53521854Y-26574484D01*
X53521854Y-26401730D01*
X53488151Y-26232296D01*
X53422041Y-26072692D01*
X53326064Y-25929052D01*
X53203909Y-25806897D01*
X53060269Y-25710920D01*
X52900665Y-25644810D01*
X52731231Y-25611107D01*
X52558477Y-25611107D01*
X52389043Y-25644810D01*
X52229439Y-25710920D01*
X52085799Y-25806897D01*
X51963644Y-25929052D01*
X51867667Y-26072692D01*
X51801557Y-26232296D01*
X51767854Y-26401730D01*
X51767854Y-26574484D01*
X51801557Y-26743918D01*
X51867667Y-26903522D01*
X51963644Y-27047162D01*
X52085799Y-27169317D01*
X52112784Y-27187347D01*
X52112783Y-27442957D01*
X52055728Y-27481080D01*
X51933573Y-27603235D01*
X51837596Y-27746875D01*
X51771486Y-27906479D01*
X51737783Y-28075913D01*
X50902000Y-28075913D01*
X50902000Y-26527896D01*
X50977187Y-26415370D01*
X51043297Y-26255766D01*
X51077000Y-26086332D01*
X51077000Y-25913578D01*
X51043297Y-25744144D01*
X50977187Y-25584540D01*
X50881210Y-25440900D01*
X50759055Y-25318745D01*
X50615415Y-25222768D01*
X50455811Y-25156658D01*
X50286377Y-25122955D01*
X50113623Y-25122955D01*
X49944189Y-25156658D01*
X49784585Y-25222768D01*
X49640945Y-25318745D01*
X49518790Y-25440900D01*
X49422813Y-25584540D01*
X49356703Y-25744144D01*
X49323000Y-25913578D01*
X44911480Y-25913578D01*
X44842565Y-25844664D01*
X44842565Y-23981070D01*
X44899620Y-23942947D01*
X45021775Y-23820792D01*
X45026580Y-23813600D01*
X52948010Y-23813600D01*
X52948010Y-23986354D01*
X52981713Y-24155788D01*
X53047823Y-24315392D01*
X53143800Y-24459032D01*
X53265955Y-24581187D01*
X53409595Y-24677164D01*
X53569199Y-24743274D01*
X53738633Y-24776977D01*
X53898000Y-24776977D01*
X53898001Y-25268232D01*
X53898000Y-25268242D01*
X53898000Y-25280667D01*
X53840945Y-25318790D01*
X53718790Y-25440945D01*
X53622813Y-25584585D01*
X53556703Y-25744189D01*
X53523000Y-25913623D01*
X53523000Y-26086377D01*
X53556703Y-26255811D01*
X53622813Y-26415415D01*
X53718790Y-26559055D01*
X53840945Y-26681210D01*
X53984585Y-26777187D01*
X54144189Y-26843297D01*
X54313623Y-26877000D01*
X54486377Y-26877000D01*
X54655811Y-26843297D01*
X54815415Y-26777187D01*
X54959055Y-26681210D01*
X55081210Y-26559055D01*
X55177187Y-26415415D01*
X55243297Y-26255811D01*
X55277000Y-26086377D01*
X55277000Y-25946556D01*
X55318798Y-26009111D01*
X55440953Y-26131266D01*
X55584593Y-26227243D01*
X55744197Y-26293353D01*
X55913631Y-26327056D01*
X56086385Y-26327056D01*
X56255819Y-26293353D01*
X56415423Y-26227243D01*
X56559063Y-26131266D01*
X56674710Y-26015619D01*
X56674710Y-26232894D01*
X56674709Y-26232904D01*
X56674709Y-26245329D01*
X56617654Y-26283452D01*
X56495499Y-26405607D01*
X56399522Y-26549247D01*
X56333412Y-26708851D01*
X56299709Y-26878285D01*
X56299709Y-27051039D01*
X56333412Y-27220473D01*
X56399522Y-27380077D01*
X56495499Y-27523717D01*
X56617654Y-27645872D01*
X56761294Y-27741849D01*
X56920898Y-27807959D01*
X57090332Y-27841662D01*
X57263086Y-27841662D01*
X57432520Y-27807959D01*
X57592124Y-27741849D01*
X57735764Y-27645872D01*
X57857919Y-27523717D01*
X57953896Y-27380077D01*
X58020006Y-27220473D01*
X58053709Y-27051039D01*
X58053709Y-26878285D01*
X58020006Y-26708851D01*
X57953896Y-26549247D01*
X57857919Y-26405607D01*
X57735764Y-26283452D01*
X57678709Y-26245329D01*
X57678709Y-25517837D01*
X57870364Y-25326182D01*
X57847998Y-25438623D01*
X57847998Y-25611377D01*
X57881701Y-25780811D01*
X57947811Y-25940415D01*
X58043788Y-26084055D01*
X58165943Y-26206210D01*
X58309583Y-26302187D01*
X58469187Y-26368297D01*
X58638621Y-26402000D01*
X58811375Y-26402000D01*
X58900668Y-26384238D01*
X58909434Y-26428306D01*
X58975544Y-26587910D01*
X59071521Y-26731550D01*
X59193676Y-26853705D01*
X59337316Y-26949682D01*
X59496920Y-27015792D01*
X59666354Y-27049495D01*
X59839108Y-27049495D01*
X60008542Y-27015792D01*
X60168146Y-26949682D01*
X60311786Y-26853705D01*
X60433941Y-26731550D01*
X60529918Y-26587910D01*
X60596028Y-26428306D01*
X60629731Y-26258872D01*
X60629731Y-26086118D01*
X60596028Y-25916684D01*
X60529918Y-25757080D01*
X60433941Y-25613440D01*
X60350995Y-25530494D01*
X60355934Y-25521253D01*
X60366649Y-25485930D01*
X60384639Y-25426627D01*
X60388118Y-25391303D01*
X60391903Y-25352870D01*
X60391903Y-25352863D01*
X60394330Y-25328217D01*
X60391903Y-25303572D01*
X60391903Y-24077465D01*
X60503154Y-23966214D01*
X60522306Y-23950496D01*
X60585039Y-23874057D01*
X60625633Y-23798111D01*
X60631652Y-23786850D01*
X60632339Y-23784585D01*
X60660358Y-23692221D01*
X60667622Y-23618465D01*
X60667622Y-23618456D01*
X60670049Y-23593813D01*
X60667622Y-23569168D01*
X60667622Y-22136639D01*
X62212729Y-20591533D01*
X62139442Y-20701214D01*
X62073332Y-20860818D01*
X62039629Y-21030252D01*
X62039629Y-21203006D01*
X62053016Y-21270307D01*
X61737451Y-21585872D01*
X61718306Y-21601585D01*
X61702593Y-21620731D01*
X61702590Y-21620734D01*
X61655573Y-21678024D01*
X61608959Y-21765233D01*
X61580254Y-21859860D01*
X61570562Y-21958269D01*
X61572990Y-21982922D01*
X61572989Y-23725036D01*
X61515934Y-23763159D01*
X61393779Y-23885314D01*
X61297802Y-24028954D01*
X61231692Y-24188558D01*
X61197989Y-24357992D01*
X61197989Y-24530746D01*
X61231692Y-24700180D01*
X61297802Y-24859784D01*
X61393779Y-25003424D01*
X61515934Y-25125579D01*
X61659574Y-25221556D01*
X61819178Y-25287666D01*
X61988612Y-25321369D01*
X62161366Y-25321369D01*
X62330800Y-25287666D01*
X62398000Y-25259831D01*
X62398000Y-25323000D01*
X62313623Y-25323000D01*
X62144189Y-25356703D01*
X61984585Y-25422813D01*
X61840945Y-25518790D01*
X61718790Y-25640945D01*
X61622813Y-25784585D01*
X61556703Y-25944189D01*
X61523000Y-26113623D01*
X61523000Y-26286377D01*
X61556703Y-26455811D01*
X61622813Y-26615415D01*
X61718790Y-26759055D01*
X61840945Y-26881210D01*
X61984585Y-26977187D01*
X62144189Y-27043297D01*
X62313623Y-27077000D01*
X62486377Y-27077000D01*
X62655811Y-27043297D01*
X62815415Y-26977187D01*
X62959055Y-26881210D01*
X62973555Y-26866710D01*
X62939350Y-26949288D01*
X62905647Y-27118722D01*
X62905647Y-27291476D01*
X62939350Y-27460910D01*
X63005460Y-27620514D01*
X63101437Y-27764154D01*
X63223592Y-27886309D01*
X63367232Y-27982286D01*
X63526836Y-28048396D01*
X63696270Y-28082099D01*
X63869024Y-28082099D01*
X64038458Y-28048396D01*
X64198062Y-27982286D01*
X64341702Y-27886309D01*
X64463857Y-27764154D01*
X64501980Y-27707099D01*
X64550725Y-27707099D01*
X64550725Y-27777578D01*
X64584428Y-27947012D01*
X64650538Y-28106616D01*
X64746515Y-28250256D01*
X64868670Y-28372411D01*
X65012310Y-28468388D01*
X65171914Y-28534498D01*
X65341348Y-28568201D01*
X65514102Y-28568201D01*
X65683536Y-28534498D01*
X65843140Y-28468388D01*
X65986780Y-28372411D01*
X66108935Y-28250256D01*
X66204912Y-28106616D01*
X66271022Y-27947012D01*
X66304725Y-27777578D01*
X66304725Y-27604824D01*
X66271022Y-27435390D01*
X66204912Y-27275786D01*
X66120865Y-27150000D01*
X67271176Y-27150000D01*
X67271176Y-28850000D01*
X67278455Y-28923905D01*
X67300012Y-28994970D01*
X67335019Y-29060463D01*
X67382131Y-29117869D01*
X67439537Y-29164981D01*
X67505030Y-29199988D01*
X67576095Y-29221545D01*
X67650000Y-29228824D01*
X69350000Y-29228824D01*
X69423905Y-29221545D01*
X69494970Y-29199988D01*
X69560463Y-29164981D01*
X69617869Y-29117869D01*
X69664981Y-29060463D01*
X69699988Y-28994970D01*
X69721545Y-28923905D01*
X69728824Y-28850000D01*
X69728824Y-28708101D01*
X69762528Y-28771157D01*
X70011603Y-28848792D01*
X70860395Y-28000000D01*
X71219605Y-28000000D01*
X72068397Y-28848792D01*
X72317472Y-28771157D01*
X72443371Y-28507117D01*
X72515339Y-28223589D01*
X72530611Y-27931469D01*
X72488599Y-27641981D01*
X72390919Y-27366253D01*
X72317472Y-27228843D01*
X72068397Y-27151208D01*
X71219605Y-28000000D01*
X70860395Y-28000000D01*
X70011603Y-27151208D01*
X69762528Y-27228843D01*
X69728824Y-27299528D01*
X69728824Y-27150000D01*
X69721545Y-27076095D01*
X69699988Y-27005030D01*
X69682121Y-26971603D01*
X70191208Y-26971603D01*
X71040000Y-27820395D01*
X71888792Y-26971603D01*
X71811157Y-26722528D01*
X71547117Y-26596629D01*
X71263589Y-26524661D01*
X70971469Y-26509389D01*
X70681981Y-26551401D01*
X70406253Y-26649081D01*
X70268843Y-26722528D01*
X70191208Y-26971603D01*
X69682121Y-26971603D01*
X69664981Y-26939537D01*
X69617869Y-26882131D01*
X69560463Y-26835019D01*
X69494970Y-26800012D01*
X69423905Y-26778455D01*
X69350000Y-26771176D01*
X67650000Y-26771176D01*
X67576095Y-26778455D01*
X67505030Y-26800012D01*
X67439537Y-26835019D01*
X67382131Y-26882131D01*
X67335019Y-26939537D01*
X67300012Y-27005030D01*
X67278455Y-27076095D01*
X67271176Y-27150000D01*
X66120865Y-27150000D01*
X66108935Y-27132146D01*
X65986780Y-27009991D01*
X65843140Y-26914014D01*
X65683536Y-26847904D01*
X65514102Y-26814201D01*
X65341348Y-26814201D01*
X65273148Y-26827767D01*
X65221868Y-26785682D01*
X65134659Y-26739068D01*
X65040032Y-26710363D01*
X64966276Y-26703099D01*
X64966266Y-26703099D01*
X64941623Y-26700672D01*
X64916980Y-26703099D01*
X64501980Y-26703099D01*
X64463857Y-26646044D01*
X64341702Y-26523889D01*
X64198062Y-26427912D01*
X64038458Y-26361802D01*
X63869024Y-26328099D01*
X63696270Y-26328099D01*
X63526836Y-26361802D01*
X63367232Y-26427912D01*
X63223592Y-26523889D01*
X63209092Y-26538389D01*
X63243297Y-26455811D01*
X63277000Y-26286377D01*
X63277000Y-26113623D01*
X63263920Y-26047867D01*
X63282565Y-26025149D01*
X63319415Y-25980247D01*
X63319416Y-25980246D01*
X63366030Y-25893037D01*
X63394735Y-25798410D01*
X63401999Y-25724654D01*
X63401999Y-25724645D01*
X63404426Y-25700002D01*
X63401999Y-25675359D01*
X63401999Y-22507935D01*
X68112934Y-17797001D01*
X69039358Y-17797001D01*
X69064001Y-17799428D01*
X69088644Y-17797001D01*
X69088654Y-17797001D01*
X69162410Y-17789737D01*
X69257037Y-17761032D01*
X69344246Y-17714418D01*
X69420685Y-17651685D01*
X69436402Y-17632534D01*
X70012539Y-17056398D01*
X70031685Y-17040685D01*
X70094418Y-16964246D01*
X70113432Y-16928672D01*
X70257833Y-17073073D01*
X70458798Y-17207353D01*
X70682097Y-17299847D01*
X70919151Y-17347000D01*
X71160849Y-17347000D01*
X71397903Y-17299847D01*
X71621202Y-17207353D01*
X71822167Y-17073073D01*
X71993073Y-16902167D01*
X72127353Y-16701202D01*
X72219847Y-16477903D01*
X72267000Y-16240849D01*
X72267000Y-15999151D01*
X72219847Y-15762097D01*
X72127353Y-15538798D01*
X71993073Y-15337833D01*
X71822167Y-15166927D01*
X71621202Y-15032647D01*
X71397903Y-14940153D01*
X71160849Y-14893000D01*
X70919151Y-14893000D01*
X70682097Y-14940153D01*
X70458798Y-15032647D01*
X70366999Y-15093985D01*
X70366999Y-14606015D01*
X70458798Y-14667353D01*
X70682097Y-14759847D01*
X70919151Y-14807000D01*
X71160849Y-14807000D01*
X71397903Y-14759847D01*
X71621202Y-14667353D01*
X71822167Y-14533073D01*
X71993073Y-14362167D01*
X72127353Y-14161202D01*
X72219847Y-13937903D01*
X72267000Y-13700849D01*
X72267000Y-13459151D01*
X72219847Y-13222097D01*
X72127353Y-12998798D01*
X71993073Y-12797833D01*
X71822167Y-12626927D01*
X71621202Y-12492647D01*
X71397903Y-12400153D01*
X71160849Y-12353000D01*
X70919151Y-12353000D01*
X70682097Y-12400153D01*
X70458798Y-12492647D01*
X70366999Y-12553985D01*
X70366999Y-12422935D01*
X70602894Y-12187040D01*
X70682097Y-12219847D01*
X70919151Y-12267000D01*
X71160849Y-12267000D01*
X71397903Y-12219847D01*
X71621202Y-12127353D01*
X71822167Y-11993073D01*
X71993073Y-11822167D01*
X72127353Y-11621202D01*
X72219847Y-11397903D01*
X72267000Y-11160849D01*
X72267000Y-10919151D01*
X72219847Y-10682097D01*
X72127353Y-10458798D01*
X71993073Y-10257833D01*
X71822167Y-10086927D01*
X71621202Y-9952647D01*
X71397903Y-9860153D01*
X71160849Y-9813000D01*
X70919151Y-9813000D01*
X70682097Y-9860153D01*
X70458798Y-9952647D01*
X70257833Y-10086927D01*
X70086927Y-10257833D01*
X69952647Y-10458798D01*
X69860153Y-10682097D01*
X69813000Y-10919151D01*
X69813000Y-11160849D01*
X69860153Y-11397903D01*
X69892960Y-11477106D01*
X69527466Y-11842600D01*
X69508315Y-11858317D01*
X69445582Y-11934756D01*
X69398968Y-12021966D01*
X69370263Y-12116593D01*
X69362999Y-12190349D01*
X69362999Y-12190358D01*
X69360572Y-12215001D01*
X69362999Y-12239644D01*
X69362999Y-12707759D01*
X69282167Y-12626927D01*
X69081202Y-12492647D01*
X68857903Y-12400153D01*
X68620849Y-12353000D01*
X68379151Y-12353000D01*
X68142097Y-12400153D01*
X67918798Y-12492647D01*
X67717833Y-12626927D01*
X67546927Y-12797833D01*
X67412647Y-12998798D01*
X67376988Y-13084886D01*
X67376988Y-12872946D01*
X68062894Y-12187040D01*
X68142097Y-12219847D01*
X68379151Y-12267000D01*
X68620849Y-12267000D01*
X68857903Y-12219847D01*
X69081202Y-12127353D01*
X69282167Y-11993073D01*
X69453073Y-11822167D01*
X69587353Y-11621202D01*
X69679847Y-11397903D01*
X69727000Y-11160849D01*
X69727000Y-10919151D01*
X69679847Y-10682097D01*
X69587353Y-10458798D01*
X69453073Y-10257833D01*
X69372241Y-10177001D01*
X69840356Y-10177001D01*
X69864999Y-10179428D01*
X69889642Y-10177001D01*
X69889652Y-10177001D01*
X69963408Y-10169737D01*
X70058035Y-10141032D01*
X70145244Y-10094418D01*
X70221683Y-10031685D01*
X70237400Y-10012534D01*
X70602894Y-9647040D01*
X70682097Y-9679847D01*
X70919151Y-9727000D01*
X71160849Y-9727000D01*
X71397903Y-9679847D01*
X71621202Y-9587353D01*
X71822167Y-9453073D01*
X71993073Y-9282167D01*
X72127353Y-9081202D01*
X72219847Y-8857903D01*
X72267000Y-8620849D01*
X72267000Y-8379151D01*
X72219847Y-8142097D01*
X72127353Y-7918798D01*
X71993073Y-7717833D01*
X71822167Y-7546927D01*
X71621202Y-7412647D01*
X71513049Y-7367848D01*
X71673747Y-7310919D01*
X71811157Y-7237472D01*
X71888792Y-6988397D01*
X71040000Y-6139605D01*
X70191208Y-6988397D01*
X70268843Y-7237472D01*
X70532883Y-7363371D01*
X70560709Y-7370434D01*
X70458798Y-7412647D01*
X70257833Y-7546927D01*
X70086927Y-7717833D01*
X69952647Y-7918798D01*
X69860153Y-8142097D01*
X69813000Y-8379151D01*
X69813000Y-8620849D01*
X69860153Y-8857903D01*
X69892960Y-8937106D01*
X69657065Y-9173001D01*
X69526015Y-9173001D01*
X69587353Y-9081202D01*
X69679847Y-8857903D01*
X69727000Y-8620849D01*
X69727000Y-8379151D01*
X69679847Y-8142097D01*
X69587353Y-7918798D01*
X69453073Y-7717833D01*
X69282167Y-7546927D01*
X69081202Y-7412647D01*
X68857903Y-7320153D01*
X68620849Y-7273000D01*
X68379151Y-7273000D01*
X68142097Y-7320153D01*
X67918798Y-7412647D01*
X67717833Y-7546927D01*
X67546927Y-7717833D01*
X67412647Y-7918798D01*
X67320153Y-8142097D01*
X67273000Y-8379151D01*
X67273000Y-8620849D01*
X67320153Y-8857903D01*
X67352960Y-8937105D01*
X65637430Y-10652636D01*
X65618284Y-10668349D01*
X65602571Y-10687495D01*
X65602568Y-10687498D01*
X65555551Y-10744788D01*
X65508937Y-10831997D01*
X65480232Y-10926624D01*
X65470540Y-11025033D01*
X65472968Y-11049686D01*
X65472966Y-14344279D01*
X58942598Y-20874648D01*
X58942598Y-20777268D01*
X58945025Y-20752623D01*
X58942598Y-20727977D01*
X58942598Y-20727970D01*
X58935334Y-20654214D01*
X58935334Y-20654213D01*
X58906629Y-20559586D01*
X58860015Y-20472377D01*
X58812998Y-20415087D01*
X58812990Y-20415079D01*
X58797282Y-20395939D01*
X58778141Y-20380230D01*
X58277010Y-19879100D01*
X58290397Y-19811799D01*
X58290397Y-19639045D01*
X58256694Y-19469611D01*
X58190584Y-19310007D01*
X58094607Y-19166367D01*
X57972452Y-19044212D01*
X57828812Y-18948235D01*
X57669208Y-18882125D01*
X57499774Y-18848422D01*
X57327020Y-18848422D01*
X57157586Y-18882125D01*
X56997982Y-18948235D01*
X56854342Y-19044212D01*
X56732187Y-19166367D01*
X56636210Y-19310007D01*
X56570100Y-19469611D01*
X56536397Y-19639045D01*
X56536397Y-19811799D01*
X56570100Y-19981233D01*
X56636210Y-20140837D01*
X56732187Y-20284477D01*
X56854342Y-20406632D01*
X56997982Y-20502609D01*
X57157586Y-20568719D01*
X57327020Y-20602422D01*
X57499774Y-20602422D01*
X57567075Y-20589035D01*
X57938598Y-20960559D01*
X57938599Y-22093242D01*
X57938598Y-22093252D01*
X57938598Y-22105677D01*
X57881543Y-22143800D01*
X57759388Y-22265955D01*
X57663411Y-22409595D01*
X57597301Y-22569199D01*
X57563598Y-22738633D01*
X57563598Y-22911387D01*
X57597301Y-23080821D01*
X57663411Y-23240425D01*
X57759388Y-23384065D01*
X57881543Y-23506220D01*
X58025183Y-23602197D01*
X58130752Y-23645925D01*
X56839176Y-24937501D01*
X56820025Y-24953219D01*
X56766428Y-25018526D01*
X56681218Y-24891001D01*
X56559063Y-24768846D01*
X56502008Y-24730723D01*
X56502008Y-22824162D01*
X56615415Y-22777187D01*
X56759055Y-22681210D01*
X56881210Y-22559055D01*
X56977187Y-22415415D01*
X57043297Y-22255811D01*
X57077000Y-22086377D01*
X57077000Y-21913623D01*
X57043297Y-21744189D01*
X56977187Y-21584585D01*
X56881210Y-21440945D01*
X56759055Y-21318790D01*
X56615415Y-21222813D01*
X56455811Y-21156703D01*
X56286377Y-21123000D01*
X56113623Y-21123000D01*
X55944189Y-21156703D01*
X55784585Y-21222813D01*
X55640945Y-21318790D01*
X55518790Y-21440945D01*
X55422813Y-21584585D01*
X55356703Y-21744189D01*
X55323000Y-21913623D01*
X55323000Y-22086377D01*
X55356703Y-22255811D01*
X55422813Y-22415415D01*
X55498009Y-22527954D01*
X55498008Y-24730723D01*
X55440953Y-24768846D01*
X55318798Y-24891001D01*
X55222821Y-25034641D01*
X55156711Y-25194245D01*
X55123008Y-25363679D01*
X55123008Y-25503500D01*
X55081210Y-25440945D01*
X54959055Y-25318790D01*
X54902000Y-25280667D01*
X54902000Y-24499610D01*
X54904427Y-24474967D01*
X54902000Y-24450324D01*
X54902000Y-24450314D01*
X54894736Y-24376558D01*
X54866031Y-24281931D01*
X54836249Y-24226213D01*
X54819417Y-24194721D01*
X54772400Y-24137431D01*
X54772392Y-24137423D01*
X54756684Y-24118283D01*
X54737543Y-24102574D01*
X54688623Y-24053654D01*
X54702010Y-23986354D01*
X54702010Y-23813600D01*
X54668307Y-23644166D01*
X54602197Y-23484562D01*
X54506220Y-23340922D01*
X54384065Y-23218767D01*
X54240425Y-23122790D01*
X54080821Y-23056680D01*
X53911387Y-23022977D01*
X53738633Y-23022977D01*
X53569199Y-23056680D01*
X53409595Y-23122790D01*
X53265955Y-23218767D01*
X53143800Y-23340922D01*
X53047823Y-23484562D01*
X52981713Y-23644166D01*
X52948010Y-23813600D01*
X45026580Y-23813600D01*
X45117752Y-23677152D01*
X45183862Y-23517548D01*
X45217565Y-23348114D01*
X45217565Y-23175360D01*
X45183862Y-23005926D01*
X45117752Y-22846322D01*
X45021775Y-22702682D01*
X44899620Y-22580527D01*
X44755980Y-22484550D01*
X44596376Y-22418440D01*
X44426942Y-22384737D01*
X44254188Y-22384737D01*
X44084754Y-22418440D01*
X43925150Y-22484550D01*
X43781510Y-22580527D01*
X43659355Y-22702682D01*
X43563378Y-22846322D01*
X43546918Y-22886059D01*
X43529595Y-22868736D01*
X43385955Y-22772759D01*
X43226351Y-22706649D01*
X43056917Y-22672946D01*
X42884163Y-22672946D01*
X42749489Y-22699735D01*
X42749489Y-22595055D01*
X42715786Y-22425621D01*
X42649676Y-22266017D01*
X42553699Y-22122377D01*
X42431544Y-22000222D01*
X42287904Y-21904245D01*
X42128300Y-21838135D01*
X41958866Y-21804432D01*
X41786112Y-21804432D01*
X41616678Y-21838135D01*
X41457074Y-21904245D01*
X41313434Y-22000222D01*
X41191279Y-22122377D01*
X41095302Y-22266017D01*
X41029192Y-22425621D01*
X40995489Y-22595055D01*
X22723957Y-22595055D01*
X22777187Y-22515392D01*
X22843297Y-22355788D01*
X22877000Y-22186354D01*
X22877000Y-22013600D01*
X22843297Y-21844166D01*
X22777187Y-21684562D01*
X22681210Y-21540922D01*
X22559055Y-21418767D01*
X22415415Y-21322790D01*
X22255811Y-21256680D01*
X22086377Y-21222977D01*
X21913623Y-21222977D01*
X21744189Y-21256680D01*
X21584585Y-21322790D01*
X21440945Y-21418767D01*
X21318790Y-21540922D01*
X21222813Y-21684562D01*
X21156703Y-21844166D01*
X21123000Y-22013600D01*
X21123000Y-22186354D01*
X21156703Y-22355788D01*
X21222813Y-22515392D01*
X21318790Y-22659032D01*
X21398001Y-22738243D01*
X21398000Y-23480667D01*
X21340945Y-23518790D01*
X21218790Y-23640945D01*
X21122813Y-23784585D01*
X21056703Y-23944189D01*
X21023000Y-24113623D01*
X18747000Y-24113623D01*
X18747000Y-24013623D01*
X18713297Y-23844189D01*
X18647187Y-23684585D01*
X18551210Y-23540945D01*
X18429055Y-23418790D01*
X18285415Y-23322813D01*
X18125811Y-23256703D01*
X17956377Y-23223000D01*
X17783623Y-23223000D01*
X17614189Y-23256703D01*
X17454585Y-23322813D01*
X17310945Y-23418790D01*
X17188790Y-23540945D01*
X17150667Y-23598000D01*
X13642265Y-23598000D01*
X13681210Y-23559055D01*
X13777187Y-23415415D01*
X13843297Y-23255811D01*
X13877000Y-23086377D01*
X13877000Y-22913623D01*
X13843297Y-22744189D01*
X13777187Y-22584585D01*
X13681210Y-22440945D01*
X13559055Y-22318790D01*
X13415415Y-22222813D01*
X13255811Y-22156703D01*
X13086377Y-22123000D01*
X12913623Y-22123000D01*
X12846322Y-22136387D01*
X11863613Y-21153678D01*
X11877000Y-21086377D01*
X11877000Y-20913623D01*
X11843297Y-20744189D01*
X11777187Y-20584585D01*
X11681210Y-20440945D01*
X11559055Y-20318790D01*
X11415415Y-20222813D01*
X11255811Y-20156703D01*
X11086377Y-20123000D01*
X10913623Y-20123000D01*
X10744189Y-20156703D01*
X10584585Y-20222813D01*
X10440945Y-20318790D01*
X10318790Y-20440945D01*
X10222813Y-20584585D01*
X10156703Y-20744189D01*
X10123000Y-20913623D01*
X477000Y-20913623D01*
X477000Y-16913623D01*
X21923008Y-16913623D01*
X21923008Y-17086377D01*
X21956711Y-17255811D01*
X22022821Y-17415415D01*
X22118798Y-17559055D01*
X22240953Y-17681210D01*
X22384593Y-17777187D01*
X22544197Y-17843297D01*
X22713631Y-17877000D01*
X22886385Y-17877000D01*
X23055819Y-17843297D01*
X23215423Y-17777187D01*
X23359063Y-17681210D01*
X23481218Y-17559055D01*
X23577195Y-17415415D01*
X23643305Y-17255811D01*
X23677008Y-17086377D01*
X23677008Y-16913623D01*
X23643305Y-16744189D01*
X23577195Y-16584585D01*
X23481218Y-16440945D01*
X23359063Y-16318790D01*
X23302008Y-16280667D01*
X23302008Y-14577001D01*
X23427644Y-14577001D01*
X23597078Y-14543298D01*
X23756682Y-14477188D01*
X23900322Y-14381211D01*
X24022477Y-14259056D01*
X24098001Y-14146027D01*
X24098000Y-16080667D01*
X24040945Y-16118790D01*
X23918790Y-16240945D01*
X23822813Y-16384585D01*
X23756703Y-16544189D01*
X23723000Y-16713623D01*
X23723000Y-16886377D01*
X23756703Y-17055811D01*
X23822813Y-17215415D01*
X23918790Y-17359055D01*
X24040945Y-17481210D01*
X24184585Y-17577187D01*
X24344189Y-17643297D01*
X24513623Y-17677000D01*
X24686377Y-17677000D01*
X24855811Y-17643297D01*
X25015415Y-17577187D01*
X25159055Y-17481210D01*
X25281210Y-17359055D01*
X25377187Y-17215415D01*
X25443297Y-17055811D01*
X25477000Y-16886377D01*
X25477000Y-16713628D01*
X47722995Y-16713628D01*
X47722995Y-16886382D01*
X47756698Y-17055816D01*
X47822808Y-17215420D01*
X47918785Y-17359060D01*
X48040940Y-17481215D01*
X48184580Y-17577192D01*
X48344184Y-17643302D01*
X48513618Y-17677005D01*
X48686372Y-17677005D01*
X48855806Y-17643302D01*
X49015410Y-17577192D01*
X49159050Y-17481215D01*
X49281205Y-17359060D01*
X49377182Y-17215420D01*
X49443292Y-17055816D01*
X49476995Y-16886382D01*
X49476995Y-16713628D01*
X49443292Y-16544194D01*
X49377182Y-16384590D01*
X49302003Y-16272076D01*
X49302003Y-14319330D01*
X49359058Y-14281207D01*
X49440265Y-14200000D01*
X52821176Y-14200000D01*
X52821176Y-15800000D01*
X52828455Y-15873905D01*
X52850012Y-15944970D01*
X52885019Y-16010463D01*
X52932131Y-16067869D01*
X52989537Y-16114981D01*
X53055030Y-16149988D01*
X53126095Y-16171545D01*
X53200000Y-16178824D01*
X54800000Y-16178824D01*
X54873905Y-16171545D01*
X54944970Y-16149988D01*
X55010463Y-16114981D01*
X55067869Y-16067869D01*
X55114981Y-16010463D01*
X55149988Y-15944970D01*
X55171545Y-15873905D01*
X55178824Y-15800000D01*
X55178824Y-15000000D01*
X55357306Y-15000000D01*
X55380031Y-15230732D01*
X55447333Y-15452597D01*
X55556626Y-15657070D01*
X55703709Y-15836291D01*
X55882930Y-15983374D01*
X56087403Y-16092667D01*
X56309268Y-16159969D01*
X56482188Y-16177000D01*
X56597812Y-16177000D01*
X56770732Y-16159969D01*
X56992597Y-16092667D01*
X57197070Y-15983374D01*
X57376291Y-15836291D01*
X57523374Y-15657070D01*
X57632667Y-15452597D01*
X57664080Y-15349040D01*
X59068091Y-15349040D01*
X59162930Y-15613881D01*
X59307615Y-15855131D01*
X59496586Y-16063519D01*
X59722580Y-16231037D01*
X59976913Y-16351246D01*
X60110961Y-16391904D01*
X60333000Y-16269915D01*
X60333000Y-15127000D01*
X59189376Y-15127000D01*
X59068091Y-15349040D01*
X57664080Y-15349040D01*
X57699969Y-15230732D01*
X57722694Y-15000000D01*
X57699969Y-14769268D01*
X57664081Y-14650960D01*
X59068091Y-14650960D01*
X59189376Y-14873000D01*
X60333000Y-14873000D01*
X60333000Y-13730085D01*
X60587000Y-13730085D01*
X60587000Y-14873000D01*
X60607000Y-14873000D01*
X60607000Y-15127000D01*
X60587000Y-15127000D01*
X60587000Y-16269915D01*
X60809039Y-16391904D01*
X60943087Y-16351246D01*
X61197420Y-16231037D01*
X61423414Y-16063519D01*
X61612385Y-15855131D01*
X61757070Y-15613881D01*
X61851909Y-15349040D01*
X61730625Y-15127002D01*
X61829815Y-15127002D01*
X61840031Y-15230732D01*
X61907333Y-15452597D01*
X62016626Y-15657070D01*
X62163709Y-15836291D01*
X62342930Y-15983374D01*
X62547403Y-16092667D01*
X62769268Y-16159969D01*
X62942188Y-16177000D01*
X63057812Y-16177000D01*
X63230732Y-16159969D01*
X63452597Y-16092667D01*
X63657070Y-15983374D01*
X63836291Y-15836291D01*
X63983374Y-15657070D01*
X64092667Y-15452597D01*
X64159969Y-15230732D01*
X64182694Y-15000000D01*
X64159969Y-14769268D01*
X64092667Y-14547403D01*
X63983374Y-14342930D01*
X63836291Y-14163709D01*
X63657070Y-14016626D01*
X63452597Y-13907333D01*
X63230732Y-13840031D01*
X63057812Y-13823000D01*
X62942188Y-13823000D01*
X62769268Y-13840031D01*
X62547403Y-13907333D01*
X62342930Y-14016626D01*
X62163709Y-14163709D01*
X62016626Y-14342930D01*
X61907333Y-14547403D01*
X61840031Y-14769268D01*
X61829815Y-14872998D01*
X61730625Y-14872998D01*
X61851909Y-14650960D01*
X61757070Y-14386119D01*
X61612385Y-14144869D01*
X61423414Y-13936481D01*
X61197420Y-13768963D01*
X60943087Y-13648754D01*
X60809039Y-13608096D01*
X60587000Y-13730085D01*
X60333000Y-13730085D01*
X60110961Y-13608096D01*
X59976913Y-13648754D01*
X59722580Y-13768963D01*
X59496586Y-13936481D01*
X59307615Y-14144869D01*
X59162930Y-14386119D01*
X59068091Y-14650960D01*
X57664081Y-14650960D01*
X57632667Y-14547403D01*
X57523374Y-14342930D01*
X57376291Y-14163709D01*
X57197070Y-14016626D01*
X56992597Y-13907333D01*
X56770732Y-13840031D01*
X56597812Y-13823000D01*
X56482188Y-13823000D01*
X56309268Y-13840031D01*
X56087403Y-13907333D01*
X55882930Y-14016626D01*
X55703709Y-14163709D01*
X55556626Y-14342930D01*
X55447333Y-14547403D01*
X55380031Y-14769268D01*
X55357306Y-15000000D01*
X55178824Y-15000000D01*
X55178824Y-14200000D01*
X55171545Y-14126095D01*
X55149988Y-14055030D01*
X55114981Y-13989537D01*
X55067869Y-13932131D01*
X55010463Y-13885019D01*
X54944970Y-13850012D01*
X54873905Y-13828455D01*
X54800000Y-13821176D01*
X53200000Y-13821176D01*
X53126095Y-13828455D01*
X53055030Y-13850012D01*
X52989537Y-13885019D01*
X52932131Y-13932131D01*
X52885019Y-13989537D01*
X52850012Y-14055030D01*
X52828455Y-14126095D01*
X52821176Y-14200000D01*
X49440265Y-14200000D01*
X49481213Y-14159052D01*
X49577190Y-14015412D01*
X49643300Y-13855808D01*
X49677003Y-13686374D01*
X49677003Y-13513620D01*
X49643300Y-13344186D01*
X49577190Y-13184582D01*
X49481213Y-13040942D01*
X49359058Y-12918787D01*
X49215418Y-12822810D01*
X49055814Y-12756700D01*
X48886380Y-12722997D01*
X48713626Y-12722997D01*
X48544192Y-12756700D01*
X48384588Y-12822810D01*
X48240948Y-12918787D01*
X48118793Y-13040942D01*
X48022816Y-13184582D01*
X47956706Y-13344186D01*
X47923003Y-13513620D01*
X47923003Y-13686374D01*
X47956706Y-13855808D01*
X48022816Y-14015412D01*
X48118793Y-14159052D01*
X48240948Y-14281207D01*
X48298003Y-14319330D01*
X48298004Y-15975836D01*
X48184580Y-16022818D01*
X48040940Y-16118795D01*
X47918785Y-16240950D01*
X47822808Y-16384590D01*
X47756698Y-16544194D01*
X47722995Y-16713628D01*
X25477000Y-16713628D01*
X25477000Y-16713623D01*
X25443297Y-16544189D01*
X25377187Y-16384585D01*
X25281210Y-16240945D01*
X25159055Y-16118790D01*
X25102000Y-16080667D01*
X25102000Y-12929120D01*
X25104427Y-12904477D01*
X25104036Y-12900505D01*
X25127314Y-12844306D01*
X25161017Y-12674872D01*
X25161017Y-12502118D01*
X25127314Y-12332684D01*
X25061204Y-12173080D01*
X24965227Y-12029440D01*
X24843072Y-11907285D01*
X24699432Y-11811308D01*
X24539828Y-11745198D01*
X24370394Y-11711495D01*
X24197640Y-11711495D01*
X24028206Y-11745198D01*
X23868602Y-11811308D01*
X23724962Y-11907285D01*
X23602807Y-12029440D01*
X23506830Y-12173080D01*
X23440720Y-12332684D01*
X23407017Y-12502118D01*
X23407017Y-12674872D01*
X23436846Y-12824831D01*
X23427644Y-12823001D01*
X23254890Y-12823001D01*
X23085456Y-12856704D01*
X22925852Y-12922814D01*
X22782212Y-13018791D01*
X22660057Y-13140946D01*
X22564080Y-13284586D01*
X22497970Y-13444190D01*
X22464267Y-13613624D01*
X22464267Y-13786378D01*
X22477654Y-13853680D01*
X22462471Y-13868863D01*
X22443325Y-13884576D01*
X22427612Y-13903722D01*
X22427609Y-13903725D01*
X22380592Y-13961015D01*
X22333978Y-14048224D01*
X22305273Y-14142851D01*
X22295581Y-14241260D01*
X22298009Y-14265913D01*
X22298008Y-16280667D01*
X22240953Y-16318790D01*
X22118798Y-16440945D01*
X22022821Y-16584585D01*
X21956711Y-16744189D01*
X21923008Y-16913623D01*
X477000Y-16913623D01*
X477000Y-12356890D01*
X1433524Y-12356890D01*
X1525648Y-12619858D01*
X1672504Y-12871193D01*
X1865571Y-13089049D01*
X2097430Y-13265053D01*
X2351332Y-13388627D01*
X2190017Y-13474851D01*
X2003183Y-13628183D01*
X1849851Y-13815017D01*
X1735916Y-14028176D01*
X1665755Y-14259466D01*
X1642064Y-14500000D01*
X1665755Y-14740534D01*
X1735916Y-14971824D01*
X1849851Y-15184983D01*
X2003183Y-15371817D01*
X2190017Y-15525149D01*
X2403176Y-15639084D01*
X2634466Y-15709245D01*
X2814732Y-15727000D01*
X3185268Y-15727000D01*
X3365534Y-15709245D01*
X3596824Y-15639084D01*
X3809983Y-15525149D01*
X3996817Y-15371817D01*
X4150149Y-15184983D01*
X4264084Y-14971824D01*
X4334245Y-14740534D01*
X4357936Y-14500000D01*
X4334245Y-14259466D01*
X4264084Y-14028176D01*
X4150149Y-13815017D01*
X3996817Y-13628183D01*
X3809983Y-13474851D01*
X3648668Y-13388627D01*
X3902570Y-13265053D01*
X4134429Y-13089049D01*
X4327496Y-12871193D01*
X4474352Y-12619858D01*
X4566476Y-12356890D01*
X4445155Y-12127000D01*
X3127000Y-12127000D01*
X3127000Y-12147000D01*
X2873000Y-12147000D01*
X2873000Y-12127000D01*
X1554845Y-12127000D01*
X1433524Y-12356890D01*
X477000Y-12356890D01*
X477000Y-11643110D01*
X1433524Y-11643110D01*
X1554845Y-11873000D01*
X2873000Y-11873000D01*
X2873000Y-11853000D01*
X3127000Y-11853000D01*
X3127000Y-11873000D01*
X4445155Y-11873000D01*
X4566476Y-11643110D01*
X4474352Y-11380142D01*
X4327496Y-11128807D01*
X4134429Y-10910951D01*
X3902570Y-10734947D01*
X3858449Y-10713473D01*
X3965641Y-10680958D01*
X4074356Y-10622848D01*
X4169646Y-10544646D01*
X4247848Y-10449356D01*
X4305958Y-10340641D01*
X4341741Y-10222677D01*
X4353824Y-10100000D01*
X4353824Y-8900000D01*
X4341741Y-8777323D01*
X4305958Y-8659359D01*
X4247848Y-8550644D01*
X4169646Y-8455354D01*
X4074356Y-8377152D01*
X3965641Y-8319042D01*
X3847677Y-8283259D01*
X3725000Y-8271176D01*
X2275000Y-8271176D01*
X2152323Y-8283259D01*
X2034359Y-8319042D01*
X1925644Y-8377152D01*
X1830354Y-8455354D01*
X1752152Y-8550644D01*
X1694042Y-8659359D01*
X1658259Y-8777323D01*
X1646176Y-8900000D01*
X1646176Y-10100000D01*
X1658259Y-10222677D01*
X1694042Y-10340641D01*
X1752152Y-10449356D01*
X1830354Y-10544646D01*
X1925644Y-10622848D01*
X2034359Y-10680958D01*
X2141551Y-10713473D01*
X2097430Y-10734947D01*
X1865571Y-10910951D01*
X1672504Y-11128807D01*
X1525648Y-11380142D01*
X1433524Y-11643110D01*
X477000Y-11643110D01*
X477000Y-7380000D01*
X52817306Y-7380000D01*
X52840031Y-7610732D01*
X52907333Y-7832597D01*
X53016626Y-8037070D01*
X53163709Y-8216291D01*
X53342930Y-8363374D01*
X53547403Y-8472667D01*
X53769268Y-8539969D01*
X53942188Y-8557000D01*
X54057812Y-8557000D01*
X54230732Y-8539969D01*
X54452597Y-8472667D01*
X54657070Y-8363374D01*
X54836291Y-8216291D01*
X54983374Y-8037070D01*
X55092667Y-7832597D01*
X55159969Y-7610732D01*
X55182694Y-7380000D01*
X55357306Y-7380000D01*
X55380031Y-7610732D01*
X55447333Y-7832597D01*
X55556626Y-8037070D01*
X55703709Y-8216291D01*
X55882930Y-8363374D01*
X56087403Y-8472667D01*
X56309268Y-8539969D01*
X56482188Y-8557000D01*
X56597812Y-8557000D01*
X56770732Y-8539969D01*
X56992597Y-8472667D01*
X57197070Y-8363374D01*
X57376291Y-8216291D01*
X57523374Y-8037070D01*
X57632667Y-7832597D01*
X57699969Y-7610732D01*
X57722694Y-7380000D01*
X59277306Y-7380000D01*
X59300031Y-7610732D01*
X59367333Y-7832597D01*
X59476626Y-8037070D01*
X59623709Y-8216291D01*
X59802930Y-8363374D01*
X60007403Y-8472667D01*
X60229268Y-8539969D01*
X60402188Y-8557000D01*
X60517812Y-8557000D01*
X60690732Y-8539969D01*
X60912597Y-8472667D01*
X61117070Y-8363374D01*
X61296291Y-8216291D01*
X61443374Y-8037070D01*
X61552667Y-7832597D01*
X61619969Y-7610732D01*
X61642694Y-7380000D01*
X61619969Y-7149268D01*
X61552667Y-6927403D01*
X61443374Y-6722930D01*
X61326075Y-6580000D01*
X61821176Y-6580000D01*
X61821176Y-8180000D01*
X61828455Y-8253905D01*
X61850012Y-8324970D01*
X61885019Y-8390463D01*
X61932131Y-8447869D01*
X61989537Y-8494981D01*
X62055030Y-8529988D01*
X62126095Y-8551545D01*
X62200000Y-8558824D01*
X63800000Y-8558824D01*
X63873905Y-8551545D01*
X63944970Y-8529988D01*
X64010463Y-8494981D01*
X64067869Y-8447869D01*
X64114981Y-8390463D01*
X64149988Y-8324970D01*
X64171545Y-8253905D01*
X64178824Y-8180000D01*
X64178824Y-6580000D01*
X64171545Y-6506095D01*
X64149988Y-6435030D01*
X64114981Y-6369537D01*
X64067869Y-6312131D01*
X64010463Y-6265019D01*
X63944970Y-6230012D01*
X63873905Y-6208455D01*
X63800000Y-6201176D01*
X62200000Y-6201176D01*
X62126095Y-6208455D01*
X62055030Y-6230012D01*
X61989537Y-6265019D01*
X61932131Y-6312131D01*
X61885019Y-6369537D01*
X61850012Y-6435030D01*
X61828455Y-6506095D01*
X61821176Y-6580000D01*
X61326075Y-6580000D01*
X61296291Y-6543709D01*
X61117070Y-6396626D01*
X60912597Y-6287333D01*
X60690732Y-6220031D01*
X60517812Y-6203000D01*
X60402188Y-6203000D01*
X60229268Y-6220031D01*
X60007403Y-6287333D01*
X59802930Y-6396626D01*
X59623709Y-6543709D01*
X59476626Y-6722930D01*
X59367333Y-6927403D01*
X59300031Y-7149268D01*
X59277306Y-7380000D01*
X57722694Y-7380000D01*
X57699969Y-7149268D01*
X57632667Y-6927403D01*
X57523374Y-6722930D01*
X57376291Y-6543709D01*
X57197070Y-6396626D01*
X56992597Y-6287333D01*
X56770732Y-6220031D01*
X56597812Y-6203000D01*
X56482188Y-6203000D01*
X56309268Y-6220031D01*
X56087403Y-6287333D01*
X55882930Y-6396626D01*
X55703709Y-6543709D01*
X55556626Y-6722930D01*
X55447333Y-6927403D01*
X55380031Y-7149268D01*
X55357306Y-7380000D01*
X55182694Y-7380000D01*
X55159969Y-7149268D01*
X55092667Y-6927403D01*
X54983374Y-6722930D01*
X54836291Y-6543709D01*
X54657070Y-6396626D01*
X54452597Y-6287333D01*
X54230732Y-6220031D01*
X54057812Y-6203000D01*
X53942188Y-6203000D01*
X53769268Y-6220031D01*
X53547403Y-6287333D01*
X53342930Y-6396626D01*
X53163709Y-6543709D01*
X53016626Y-6722930D01*
X52907333Y-6927403D01*
X52840031Y-7149268D01*
X52817306Y-7380000D01*
X477000Y-7380000D01*
X477000Y-5110000D01*
X67271176Y-5110000D01*
X67271176Y-6810000D01*
X67278455Y-6883905D01*
X67300012Y-6954970D01*
X67335019Y-7020463D01*
X67382131Y-7077869D01*
X67439537Y-7124981D01*
X67505030Y-7159988D01*
X67576095Y-7181545D01*
X67650000Y-7188824D01*
X69350000Y-7188824D01*
X69423905Y-7181545D01*
X69494970Y-7159988D01*
X69560463Y-7124981D01*
X69617869Y-7077869D01*
X69664981Y-7020463D01*
X69699988Y-6954970D01*
X69721545Y-6883905D01*
X69728824Y-6810000D01*
X69728824Y-6668101D01*
X69762528Y-6731157D01*
X70011603Y-6808792D01*
X70860395Y-5960000D01*
X71219605Y-5960000D01*
X72068397Y-6808792D01*
X72317472Y-6731157D01*
X72443371Y-6467117D01*
X72515339Y-6183589D01*
X72530611Y-5891469D01*
X72488599Y-5601981D01*
X72390919Y-5326253D01*
X72317472Y-5188843D01*
X72068397Y-5111208D01*
X71219605Y-5960000D01*
X70860395Y-5960000D01*
X70011603Y-5111208D01*
X69762528Y-5188843D01*
X69728824Y-5259528D01*
X69728824Y-5110000D01*
X69721545Y-5036095D01*
X69699988Y-4965030D01*
X69682121Y-4931603D01*
X70191208Y-4931603D01*
X71040000Y-5780395D01*
X71888792Y-4931603D01*
X71811157Y-4682528D01*
X71547117Y-4556629D01*
X71263589Y-4484661D01*
X70971469Y-4469389D01*
X70681981Y-4511401D01*
X70406253Y-4609081D01*
X70268843Y-4682528D01*
X70191208Y-4931603D01*
X69682121Y-4931603D01*
X69664981Y-4899537D01*
X69617869Y-4842131D01*
X69560463Y-4795019D01*
X69494970Y-4760012D01*
X69423905Y-4738455D01*
X69350000Y-4731176D01*
X67650000Y-4731176D01*
X67576095Y-4738455D01*
X67505030Y-4760012D01*
X67439537Y-4795019D01*
X67382131Y-4842131D01*
X67335019Y-4899537D01*
X67300012Y-4965030D01*
X67278455Y-5036095D01*
X67271176Y-5110000D01*
X477000Y-5110000D01*
X477000Y-2854528D01*
X1523000Y-2854528D01*
X1523000Y-3145472D01*
X1579760Y-3430825D01*
X1691099Y-3699622D01*
X1852739Y-3941533D01*
X2058467Y-4147261D01*
X2300378Y-4308901D01*
X2569175Y-4420240D01*
X2854528Y-4477000D01*
X3145472Y-4477000D01*
X3430825Y-4420240D01*
X3699622Y-4308901D01*
X3941533Y-4147261D01*
X4147261Y-3941533D01*
X4308901Y-3699622D01*
X4420240Y-3430825D01*
X4434473Y-3359267D01*
X29033680Y-3359267D01*
X29107558Y-3640830D01*
X29234947Y-3902570D01*
X29410951Y-4134429D01*
X29628807Y-4327496D01*
X29880142Y-4474352D01*
X30143110Y-4566476D01*
X30373000Y-4445155D01*
X30373000Y-3127000D01*
X29173835Y-3127000D01*
X29033680Y-3359267D01*
X4434473Y-3359267D01*
X4477000Y-3145472D01*
X4477000Y-2854528D01*
X4434474Y-2640733D01*
X29033680Y-2640733D01*
X29173835Y-2873000D01*
X30373000Y-2873000D01*
X30373000Y-1554845D01*
X30627000Y-1554845D01*
X30627000Y-2873000D01*
X30647000Y-2873000D01*
X30647000Y-3127000D01*
X30627000Y-3127000D01*
X30627000Y-4445155D01*
X30856890Y-4566476D01*
X31119858Y-4474352D01*
X31371193Y-4327496D01*
X31589049Y-4134429D01*
X31765053Y-3902570D01*
X31888627Y-3648668D01*
X31974851Y-3809982D01*
X32128183Y-3996817D01*
X32315017Y-4150149D01*
X32528176Y-4264084D01*
X32759466Y-4334245D01*
X33000000Y-4357936D01*
X33240533Y-4334245D01*
X33471823Y-4264084D01*
X33684982Y-4150149D01*
X33871817Y-3996817D01*
X34025149Y-3809983D01*
X34139084Y-3596824D01*
X34209245Y-3365534D01*
X34227000Y-3185268D01*
X34227000Y-2814733D01*
X34227000Y-2814732D01*
X34273000Y-2814732D01*
X34273000Y-3185267D01*
X34290755Y-3365533D01*
X34360916Y-3596823D01*
X34474851Y-3809982D01*
X34628183Y-3996817D01*
X34815017Y-4150149D01*
X35028176Y-4264084D01*
X35259466Y-4334245D01*
X35500000Y-4357936D01*
X35740533Y-4334245D01*
X35971823Y-4264084D01*
X36184982Y-4150149D01*
X36371817Y-3996817D01*
X36525149Y-3809983D01*
X36639084Y-3596824D01*
X36709245Y-3365534D01*
X36727000Y-3185268D01*
X36727000Y-2814733D01*
X36709245Y-2634467D01*
X36639084Y-2403177D01*
X36570573Y-2275000D01*
X36771176Y-2275000D01*
X36771176Y-3725000D01*
X36783259Y-3847677D01*
X36819042Y-3965641D01*
X36877152Y-4074356D01*
X36955354Y-4169646D01*
X37050644Y-4247848D01*
X37159359Y-4305958D01*
X37277323Y-4341741D01*
X37400000Y-4353824D01*
X38600000Y-4353824D01*
X38722677Y-4341741D01*
X38840641Y-4305958D01*
X38949356Y-4247848D01*
X39044646Y-4169646D01*
X39122848Y-4074356D01*
X39180958Y-3965641D01*
X39216741Y-3847677D01*
X39228824Y-3725000D01*
X39228824Y-2789732D01*
X43273000Y-2789732D01*
X43273000Y-3210267D01*
X43290755Y-3390533D01*
X43360916Y-3621823D01*
X43474851Y-3834982D01*
X43628183Y-4021817D01*
X43815017Y-4175149D01*
X44028176Y-4289084D01*
X44259466Y-4359245D01*
X44500000Y-4382936D01*
X44740533Y-4359245D01*
X44971823Y-4289084D01*
X45184982Y-4175149D01*
X45371817Y-4021817D01*
X45525149Y-3834983D01*
X45639084Y-3621824D01*
X45709245Y-3390534D01*
X45727000Y-3210268D01*
X45727000Y-2789733D01*
X45709245Y-2609467D01*
X45639084Y-2378177D01*
X45570573Y-2250000D01*
X45771176Y-2250000D01*
X45771176Y-3750000D01*
X45783259Y-3872677D01*
X45819042Y-3990641D01*
X45877152Y-4099356D01*
X45955354Y-4194646D01*
X46050644Y-4272848D01*
X46159359Y-4330958D01*
X46277323Y-4366741D01*
X46400000Y-4378824D01*
X47600000Y-4378824D01*
X47722677Y-4366741D01*
X47840641Y-4330958D01*
X47949356Y-4272848D01*
X48044646Y-4194646D01*
X48122848Y-4099356D01*
X48180958Y-3990641D01*
X48216741Y-3872677D01*
X48228824Y-3750000D01*
X48228824Y-2789732D01*
X52273000Y-2789732D01*
X52273000Y-3210267D01*
X52290755Y-3390533D01*
X52360916Y-3621823D01*
X52474851Y-3834982D01*
X52628183Y-4021817D01*
X52815017Y-4175149D01*
X53028176Y-4289084D01*
X53259466Y-4359245D01*
X53500000Y-4382936D01*
X53740533Y-4359245D01*
X53971823Y-4289084D01*
X54184982Y-4175149D01*
X54371817Y-4021817D01*
X54525149Y-3834983D01*
X54639084Y-3621824D01*
X54709245Y-3390534D01*
X54727000Y-3210268D01*
X54727000Y-2789733D01*
X54709245Y-2609467D01*
X54639084Y-2378177D01*
X54570573Y-2250000D01*
X54771176Y-2250000D01*
X54771176Y-3750000D01*
X54783259Y-3872677D01*
X54819042Y-3990641D01*
X54877152Y-4099356D01*
X54955354Y-4194646D01*
X55050644Y-4272848D01*
X55159359Y-4330958D01*
X55277323Y-4366741D01*
X55400000Y-4378824D01*
X56600000Y-4378824D01*
X56722677Y-4366741D01*
X56840641Y-4330958D01*
X56949356Y-4272848D01*
X57044646Y-4194646D01*
X57122848Y-4099356D01*
X57180958Y-3990641D01*
X57216741Y-3872677D01*
X57228824Y-3750000D01*
X57228824Y-2854528D01*
X60523000Y-2854528D01*
X60523000Y-3145472D01*
X60579760Y-3430825D01*
X60691099Y-3699622D01*
X60852739Y-3941533D01*
X61058467Y-4147261D01*
X61300378Y-4308901D01*
X61569175Y-4420240D01*
X61854528Y-4477000D01*
X62145472Y-4477000D01*
X62430825Y-4420240D01*
X62699622Y-4308901D01*
X62941533Y-4147261D01*
X63147261Y-3941533D01*
X63308901Y-3699622D01*
X63420240Y-3430825D01*
X63477000Y-3145472D01*
X63477000Y-2854528D01*
X63420240Y-2569175D01*
X63308901Y-2300378D01*
X63147261Y-2058467D01*
X62941533Y-1852739D01*
X62699622Y-1691099D01*
X62430825Y-1579760D01*
X62145472Y-1523000D01*
X61854528Y-1523000D01*
X61569175Y-1579760D01*
X61300378Y-1691099D01*
X61058467Y-1852739D01*
X60852739Y-2058467D01*
X60691099Y-2300378D01*
X60579760Y-2569175D01*
X60523000Y-2854528D01*
X57228824Y-2854528D01*
X57228824Y-2250000D01*
X57216741Y-2127323D01*
X57180958Y-2009359D01*
X57122848Y-1900644D01*
X57044646Y-1805354D01*
X56949356Y-1727152D01*
X56840641Y-1669042D01*
X56722677Y-1633259D01*
X56600000Y-1621176D01*
X55400000Y-1621176D01*
X55277323Y-1633259D01*
X55159359Y-1669042D01*
X55050644Y-1727152D01*
X54955354Y-1805354D01*
X54877152Y-1900644D01*
X54819042Y-2009359D01*
X54783259Y-2127323D01*
X54771176Y-2250000D01*
X54570573Y-2250000D01*
X54525149Y-2165018D01*
X54371817Y-1978183D01*
X54184983Y-1824851D01*
X53971824Y-1710916D01*
X53740534Y-1640755D01*
X53500000Y-1617064D01*
X53259467Y-1640755D01*
X53028177Y-1710916D01*
X52815018Y-1824851D01*
X52628184Y-1978183D01*
X52474852Y-2165017D01*
X52360916Y-2378176D01*
X52290755Y-2609466D01*
X52273000Y-2789732D01*
X48228824Y-2789732D01*
X48228824Y-2250000D01*
X48216741Y-2127323D01*
X48180958Y-2009359D01*
X48122848Y-1900644D01*
X48044646Y-1805354D01*
X47949356Y-1727152D01*
X47840641Y-1669042D01*
X47722677Y-1633259D01*
X47600000Y-1621176D01*
X46400000Y-1621176D01*
X46277323Y-1633259D01*
X46159359Y-1669042D01*
X46050644Y-1727152D01*
X45955354Y-1805354D01*
X45877152Y-1900644D01*
X45819042Y-2009359D01*
X45783259Y-2127323D01*
X45771176Y-2250000D01*
X45570573Y-2250000D01*
X45525149Y-2165018D01*
X45371817Y-1978183D01*
X45184983Y-1824851D01*
X44971824Y-1710916D01*
X44740534Y-1640755D01*
X44500000Y-1617064D01*
X44259467Y-1640755D01*
X44028177Y-1710916D01*
X43815018Y-1824851D01*
X43628184Y-1978183D01*
X43474852Y-2165017D01*
X43360916Y-2378176D01*
X43290755Y-2609466D01*
X43273000Y-2789732D01*
X39228824Y-2789732D01*
X39228824Y-2275000D01*
X39216741Y-2152323D01*
X39180958Y-2034359D01*
X39122848Y-1925644D01*
X39044646Y-1830354D01*
X38949356Y-1752152D01*
X38840641Y-1694042D01*
X38722677Y-1658259D01*
X38600000Y-1646176D01*
X37400000Y-1646176D01*
X37277323Y-1658259D01*
X37159359Y-1694042D01*
X37050644Y-1752152D01*
X36955354Y-1830354D01*
X36877152Y-1925644D01*
X36819042Y-2034359D01*
X36783259Y-2152323D01*
X36771176Y-2275000D01*
X36570573Y-2275000D01*
X36525149Y-2190018D01*
X36371817Y-2003183D01*
X36184983Y-1849851D01*
X35971824Y-1735916D01*
X35740534Y-1665755D01*
X35500000Y-1642064D01*
X35259467Y-1665755D01*
X35028177Y-1735916D01*
X34815018Y-1849851D01*
X34628184Y-2003183D01*
X34474851Y-2190017D01*
X34360916Y-2403176D01*
X34290755Y-2634466D01*
X34273000Y-2814732D01*
X34227000Y-2814732D01*
X34209245Y-2634467D01*
X34139084Y-2403177D01*
X34025149Y-2190018D01*
X33871817Y-2003183D01*
X33684983Y-1849851D01*
X33471824Y-1735916D01*
X33240534Y-1665755D01*
X33000000Y-1642064D01*
X32759467Y-1665755D01*
X32528177Y-1735916D01*
X32315018Y-1849851D01*
X32128184Y-2003183D01*
X31974851Y-2190017D01*
X31888627Y-2351332D01*
X31765053Y-2097430D01*
X31589049Y-1865571D01*
X31371193Y-1672504D01*
X31119858Y-1525648D01*
X30856890Y-1433524D01*
X30627000Y-1554845D01*
X30373000Y-1554845D01*
X30143110Y-1433524D01*
X29880142Y-1525648D01*
X29628807Y-1672504D01*
X29410951Y-1865571D01*
X29234947Y-2097430D01*
X29107558Y-2359170D01*
X29033680Y-2640733D01*
X4434474Y-2640733D01*
X4420240Y-2569175D01*
X4308901Y-2300378D01*
X4147261Y-2058467D01*
X3941533Y-1852739D01*
X3699622Y-1691099D01*
X3430825Y-1579760D01*
X3145472Y-1523000D01*
X2854528Y-1523000D01*
X2569175Y-1579760D01*
X2300378Y-1691099D01*
X2058467Y-1852739D01*
X1852739Y-2058467D01*
X1691099Y-2300378D01*
X1579760Y-2569175D01*
X1523000Y-2854528D01*
X477000Y-2854528D01*
X477000Y-477000D01*
X74523001Y-477000D01*
X74523000Y-44523000D01*
M02*
