M48
; DRILL file {KiCad 6.0.0-rc1-unknown-179dfa0~84~ubuntu18.04.1} date Tue 16 Apr 2019 09:03:27 PM PDT
; FORMAT={-:-/ absolute / inch / decimal}
; #@! TF.CreationDate,2019-04-16T21:03:27-07:00
; #@! TF.GenerationSoftware,Kicad,Pcbnew,6.0.0-rc1-unknown-179dfa0~84~ubuntu18.04.1
FMAT,2
INCH
T1C0.0118
T2C0.0197
T3C0.0315
T4C0.0374
T5C0.0394
T6C0.0866
%
G90
G05
T1
X2.3681Y-1.2638
X2.3858Y-1.2461
X2.3858Y-1.2638
X2.3858Y-1.2815
X2.4035Y-1.2638
T2
X0.2165Y-0.185
X0.2165Y-1.5236
X0.2559Y-0.4567
X0.3543Y-1.2441
X0.3701Y-1.437
X0.4331Y-0.8268
X0.437Y-0.9724
X0.4921Y-0.3858
X0.5118Y-0.9055
X0.621Y-0.5724
X0.6255Y-0.8396
X0.6496Y-0.0669
X0.6732Y-1.3346
X0.6978Y-1.0763
X0.7035Y-0.9488
X0.7087Y-0.3661
X0.7953Y-1.3583
X0.8228Y-0.7527
X0.8622Y-0.9528
X0.8661Y-0.8701
X0.8976Y-0.6693
X0.9134Y-1.3071
X0.9189Y-0.5394
X0.9243Y-1.2264
X0.9561Y-0.4956
X0.9567Y-1.0591
X0.9685Y-0.6614
X0.9823Y-0.9587
X1.0236Y-0.3701
X1.0472Y-0.8661
X1.0827Y-1.1811
X1.0975Y-1.3178
X1.2008Y-0.6299
X1.2165Y-1.1732
X1.3267Y-1.4891
X1.4724Y-0.9528
X1.5354Y-1.1732
X1.5472Y-0.6535
X1.5501Y-1.2284
X1.5581Y-1.4446
X1.567Y-1.3779
X1.6063Y-1.2244
X1.6102Y-0.437
X1.626Y-1.374
X1.6485Y-0.893
X1.6654Y-1.1102
X1.6918Y-0.9272
X1.7126Y-1.252
X1.7229Y-1.1065
X1.7457Y-0.9158
X1.7756Y-0.5591
X1.7863Y-1.0663
X1.7876Y-1.5541
X1.9134Y-0.6614
X1.9213Y-0.5354
X1.9764Y-1.0236
X1.9843Y-1.1417
X2.0315Y-1.3553
X2.0714Y-1.1088
X2.0726Y-1.0428
X2.1191Y-0.9409
X2.1417Y-1.0236
X2.2047Y-1.002
X2.2126Y-0.8661
X2.2511Y-1.0616
X2.2604Y-0.7766
X2.2756Y-1.248
X2.2784Y-1.5303
X2.3008Y-0.8986
X2.312Y-1.0049
X2.3525Y-1.0304
X2.4173Y-0.4213
X2.4439Y-0.9624
X2.4567Y-1.0315
X2.477Y-0.8314
X2.4921Y-1.3041
X2.5111Y-1.0711
X2.5759Y-1.0902
X2.7008Y-0.0551
X2.7717Y-1.6732
T3
X2.126Y-0.2906
X2.126Y-0.5906
X2.226Y-0.2906
X2.226Y-0.5906
X0.7362Y-1.6535
X0.8362Y-1.6535
X0.9362Y-1.6535
X1.1457Y-1.6535
X1.2457Y-1.6535
X1.3457Y-1.6535
X2.3803Y-0.2906
X2.3803Y-0.5906
X2.4803Y-0.2906
X2.4803Y-0.5906
X0.3276Y-1.6535
X0.4276Y-1.6535
X0.5276Y-1.6535
T4
X0.1181Y-0.374
X0.1181Y-0.4724
X0.1181Y-0.5709
X1.2008Y-0.1181
X1.2992Y-0.1181
X1.3976Y-0.1181
X1.4961Y-0.1181
X0.1181Y-0.8858
X0.1181Y-0.9843
X0.1181Y-1.0827
X0.1181Y-1.1811
X0.1181Y-1.2795
X0.1181Y-1.378
X1.9173Y-1.6535
X2.0157Y-1.6535
X2.1142Y-1.6535
X2.2126Y-1.6535
T5
X1.752Y-0.1181
X1.8504Y-0.1181
X2.6969Y-0.2346
X2.6969Y-0.3346
X2.6969Y-0.4346
X2.6969Y-0.5346
X2.6969Y-0.6346
X2.7969Y-0.2346
X2.7969Y-0.3346
X2.7969Y-0.4346
X2.7969Y-0.5346
X2.7969Y-0.6346
X2.1063Y-0.1181
X2.2047Y-0.1181
X2.6969Y-1.1024
X2.6969Y-1.2024
X2.6969Y-1.3024
X2.6969Y-1.4024
X2.6969Y-1.5024
X2.7969Y-1.1024
X2.7969Y-1.2024
X2.7969Y-1.3024
X2.7969Y-1.4024
X2.7969Y-1.5024
X1.5709Y-1.6535
X1.6693Y-1.6535
T6
X0.1181Y-0.1181
X2.4409Y-1.6535
X0.1181Y-1.6535
X2.4409Y-0.1181
T0
M30
