G04 #@! TF.GenerationSoftware,KiCad,Pcbnew,6.0.0-rc1-unknown-179dfa0~84~ubuntu18.04.1*
G04 #@! TF.CreationDate,2019-04-16T21:03:25-07:00
G04 #@! TF.ProjectId,big_battery_v3,6269675f-6261-4747-9465-72795f76332e,rev?*
G04 #@! TF.SameCoordinates,Original*
G04 #@! TF.FileFunction,Soldermask,Bot*
G04 #@! TF.FilePolarity,Negative*
%FSLAX46Y46*%
G04 Gerber Fmt 4.6, Leading zero omitted, Abs format (unit mm)*
G04 Created by KiCad (PCBNEW 6.0.0-rc1-unknown-179dfa0~84~ubuntu18.04.1) date Tue 16 Apr 2019 09:03:25 PM PDT*
%MOMM*%
%LPD*%
G04 APERTURE LIST*
%ADD10C,0.100000*%
G04 APERTURE END LIST*
D10*
G36*
X62335734Y-40893232D02*
G01*
X62545202Y-40979996D01*
X62733723Y-41105962D01*
X62894038Y-41266277D01*
X63020004Y-41454798D01*
X63106768Y-41664266D01*
X63151000Y-41886635D01*
X63151000Y-42113365D01*
X63106768Y-42335734D01*
X63020004Y-42545202D01*
X62894038Y-42733723D01*
X62733723Y-42894038D01*
X62545202Y-43020004D01*
X62335734Y-43106768D01*
X62113365Y-43151000D01*
X61886635Y-43151000D01*
X61664266Y-43106768D01*
X61454798Y-43020004D01*
X61266277Y-42894038D01*
X61105962Y-42733723D01*
X60979996Y-42545202D01*
X60893232Y-42335734D01*
X60849000Y-42113365D01*
X60849000Y-41886635D01*
X60893232Y-41664266D01*
X60979996Y-41454798D01*
X61105962Y-41266277D01*
X61266277Y-41105962D01*
X61454798Y-40979996D01*
X61664266Y-40893232D01*
X61886635Y-40849000D01*
X62113365Y-40849000D01*
X62335734Y-40893232D01*
X62335734Y-40893232D01*
G37*
G36*
X3335734Y-40893232D02*
G01*
X3545202Y-40979996D01*
X3733723Y-41105962D01*
X3894038Y-41266277D01*
X4020004Y-41454798D01*
X4106768Y-41664266D01*
X4151000Y-41886635D01*
X4151000Y-42113365D01*
X4106768Y-42335734D01*
X4020004Y-42545202D01*
X3894038Y-42733723D01*
X3733723Y-42894038D01*
X3545202Y-43020004D01*
X3335734Y-43106768D01*
X3113365Y-43151000D01*
X2886635Y-43151000D01*
X2664266Y-43106768D01*
X2454798Y-43020004D01*
X2266277Y-42894038D01*
X2105962Y-42733723D01*
X1979996Y-42545202D01*
X1893232Y-42335734D01*
X1849000Y-42113365D01*
X1849000Y-41886635D01*
X1893232Y-41664266D01*
X1979996Y-41454798D01*
X2105962Y-41266277D01*
X2266277Y-41105962D01*
X2454798Y-40979996D01*
X2664266Y-40893232D01*
X2886635Y-40849000D01*
X3113365Y-40849000D01*
X3335734Y-40893232D01*
X3335734Y-40893232D01*
G37*
G36*
X42576626Y-40962037D02*
G01*
X42682561Y-40994172D01*
X42746466Y-41013557D01*
X42902989Y-41097221D01*
X43040186Y-41209814D01*
X43123448Y-41311271D01*
X43152778Y-41347009D01*
X43152779Y-41347011D01*
X43236443Y-41503533D01*
X43244027Y-41528534D01*
X43287963Y-41673373D01*
X43301000Y-41805742D01*
X43301000Y-42194257D01*
X43287963Y-42326626D01*
X43236443Y-42496466D01*
X43152778Y-42652991D01*
X43152777Y-42652992D01*
X43040186Y-42790186D01*
X42952178Y-42862411D01*
X42902991Y-42902778D01*
X42902989Y-42902779D01*
X42746467Y-42986443D01*
X42715930Y-42995706D01*
X42576627Y-43037963D01*
X42400000Y-43055359D01*
X42223374Y-43037963D01*
X42084071Y-42995706D01*
X42053534Y-42986443D01*
X41897012Y-42902779D01*
X41897010Y-42902778D01*
X41759816Y-42790186D01*
X41759812Y-42790183D01*
X41647222Y-42652992D01*
X41563557Y-42496467D01*
X41514800Y-42335734D01*
X41512037Y-42326627D01*
X41499000Y-42194258D01*
X41499000Y-41805743D01*
X41512037Y-41673374D01*
X41555973Y-41528535D01*
X41563557Y-41503534D01*
X41647221Y-41347011D01*
X41759814Y-41209814D01*
X41873641Y-41116400D01*
X41897009Y-41097222D01*
X41922960Y-41083351D01*
X42053533Y-41013557D01*
X42117438Y-40994172D01*
X42223373Y-40962037D01*
X42400000Y-40944641D01*
X42576626Y-40962037D01*
X42576626Y-40962037D01*
G37*
G36*
X40658600Y-40952989D02*
G01*
X40691649Y-40963014D01*
X40722106Y-40979294D01*
X40748799Y-41001201D01*
X40770706Y-41027894D01*
X40786986Y-41058351D01*
X40797011Y-41091400D01*
X40801000Y-41131904D01*
X40801000Y-42868096D01*
X40797011Y-42908600D01*
X40786986Y-42941649D01*
X40770706Y-42972106D01*
X40748799Y-42998799D01*
X40722106Y-43020706D01*
X40691649Y-43036986D01*
X40658600Y-43047011D01*
X40618096Y-43051000D01*
X39181904Y-43051000D01*
X39141400Y-43047011D01*
X39108351Y-43036986D01*
X39077894Y-43020706D01*
X39051201Y-42998799D01*
X39029294Y-42972106D01*
X39013014Y-42941649D01*
X39002989Y-42908600D01*
X38999000Y-42868096D01*
X38999000Y-41131904D01*
X39002989Y-41091400D01*
X39013014Y-41058351D01*
X39029294Y-41027894D01*
X39051201Y-41001201D01*
X39077894Y-40979294D01*
X39108351Y-40963014D01*
X39141400Y-40952989D01*
X39181904Y-40949000D01*
X40618096Y-40949000D01*
X40658600Y-40952989D01*
X40658600Y-40952989D01*
G37*
G36*
X56376626Y-40987037D02*
G01*
X56489852Y-41021384D01*
X56546466Y-41038557D01*
X56702989Y-41122221D01*
X56840186Y-41234814D01*
X56907426Y-41316748D01*
X56952778Y-41372009D01*
X56952779Y-41372011D01*
X57036443Y-41528533D01*
X57053616Y-41585147D01*
X57087963Y-41698373D01*
X57087963Y-41698375D01*
X57101000Y-41830740D01*
X57101000Y-42169259D01*
X57095521Y-42224891D01*
X57087963Y-42301626D01*
X57036443Y-42471466D01*
X56952778Y-42627991D01*
X56932261Y-42652991D01*
X56840186Y-42765186D01*
X56751827Y-42837699D01*
X56702991Y-42877778D01*
X56702989Y-42877779D01*
X56546467Y-42961443D01*
X56511315Y-42972106D01*
X56376627Y-43012963D01*
X56200000Y-43030359D01*
X56023374Y-43012963D01*
X55888686Y-42972106D01*
X55853534Y-42961443D01*
X55697012Y-42877779D01*
X55697010Y-42877778D01*
X55590279Y-42790186D01*
X55559812Y-42765183D01*
X55447222Y-42627992D01*
X55363557Y-42471467D01*
X55346384Y-42414853D01*
X55312037Y-42301627D01*
X55299000Y-42169258D01*
X55299000Y-41830743D01*
X55301463Y-41805740D01*
X55312037Y-41698376D01*
X55312037Y-41698374D01*
X55363557Y-41528535D01*
X55363557Y-41528534D01*
X55447221Y-41372011D01*
X55559814Y-41234814D01*
X55661271Y-41151552D01*
X55697009Y-41122222D01*
X55743782Y-41097221D01*
X55853533Y-41038557D01*
X55910147Y-41021384D01*
X56023373Y-40987037D01*
X56200000Y-40969641D01*
X56376626Y-40987037D01*
X56376626Y-40987037D01*
G37*
G36*
X53876626Y-40987037D02*
G01*
X53989852Y-41021384D01*
X54046466Y-41038557D01*
X54202989Y-41122221D01*
X54340186Y-41234814D01*
X54407426Y-41316748D01*
X54452778Y-41372009D01*
X54452779Y-41372011D01*
X54536443Y-41528533D01*
X54553616Y-41585147D01*
X54587963Y-41698373D01*
X54587963Y-41698375D01*
X54601000Y-41830740D01*
X54601000Y-42169259D01*
X54595521Y-42224891D01*
X54587963Y-42301626D01*
X54536443Y-42471466D01*
X54452778Y-42627991D01*
X54432261Y-42652991D01*
X54340186Y-42765186D01*
X54251827Y-42837699D01*
X54202991Y-42877778D01*
X54202989Y-42877779D01*
X54046467Y-42961443D01*
X54011315Y-42972106D01*
X53876627Y-43012963D01*
X53700000Y-43030359D01*
X53523374Y-43012963D01*
X53388686Y-42972106D01*
X53353534Y-42961443D01*
X53197012Y-42877779D01*
X53197010Y-42877778D01*
X53090279Y-42790186D01*
X53059812Y-42765183D01*
X52947222Y-42627992D01*
X52863557Y-42471467D01*
X52846384Y-42414853D01*
X52812037Y-42301627D01*
X52799000Y-42169258D01*
X52799000Y-41830743D01*
X52801463Y-41805740D01*
X52812037Y-41698376D01*
X52812037Y-41698374D01*
X52863557Y-41528535D01*
X52863557Y-41528534D01*
X52947221Y-41372011D01*
X53059814Y-41234814D01*
X53161271Y-41151552D01*
X53197009Y-41122222D01*
X53243782Y-41097221D01*
X53353533Y-41038557D01*
X53410147Y-41021384D01*
X53523373Y-40987037D01*
X53700000Y-40969641D01*
X53876626Y-40987037D01*
X53876626Y-40987037D01*
G37*
G36*
X51376626Y-40987037D02*
G01*
X51489852Y-41021384D01*
X51546466Y-41038557D01*
X51702989Y-41122221D01*
X51840186Y-41234814D01*
X51907426Y-41316748D01*
X51952778Y-41372009D01*
X51952779Y-41372011D01*
X52036443Y-41528533D01*
X52053616Y-41585147D01*
X52087963Y-41698373D01*
X52087963Y-41698375D01*
X52101000Y-41830740D01*
X52101000Y-42169259D01*
X52095521Y-42224891D01*
X52087963Y-42301626D01*
X52036443Y-42471466D01*
X51952778Y-42627991D01*
X51932261Y-42652991D01*
X51840186Y-42765186D01*
X51751827Y-42837699D01*
X51702991Y-42877778D01*
X51702989Y-42877779D01*
X51546467Y-42961443D01*
X51511315Y-42972106D01*
X51376627Y-43012963D01*
X51200000Y-43030359D01*
X51023374Y-43012963D01*
X50888686Y-42972106D01*
X50853534Y-42961443D01*
X50697012Y-42877779D01*
X50697010Y-42877778D01*
X50590279Y-42790186D01*
X50559812Y-42765183D01*
X50447222Y-42627992D01*
X50363557Y-42471467D01*
X50346384Y-42414853D01*
X50312037Y-42301627D01*
X50299000Y-42169258D01*
X50299000Y-41830743D01*
X50301463Y-41805740D01*
X50312037Y-41698376D01*
X50312037Y-41698374D01*
X50363557Y-41528535D01*
X50363557Y-41528534D01*
X50447221Y-41372011D01*
X50559814Y-41234814D01*
X50661271Y-41151552D01*
X50697009Y-41122222D01*
X50743782Y-41097221D01*
X50853533Y-41038557D01*
X50910147Y-41021384D01*
X51023373Y-40987037D01*
X51200000Y-40969641D01*
X51376626Y-40987037D01*
X51376626Y-40987037D01*
G37*
G36*
X49458600Y-40977989D02*
G01*
X49491649Y-40988014D01*
X49522106Y-41004294D01*
X49548799Y-41026201D01*
X49570706Y-41052894D01*
X49586986Y-41083351D01*
X49597011Y-41116400D01*
X49601000Y-41156904D01*
X49601000Y-42843096D01*
X49597011Y-42883600D01*
X49586986Y-42916649D01*
X49570706Y-42947106D01*
X49548799Y-42973799D01*
X49522106Y-42995706D01*
X49491649Y-43011986D01*
X49458600Y-43022011D01*
X49418096Y-43026000D01*
X47981904Y-43026000D01*
X47941400Y-43022011D01*
X47908351Y-43011986D01*
X47877894Y-42995706D01*
X47851201Y-42973799D01*
X47829294Y-42947106D01*
X47813014Y-42916649D01*
X47802989Y-42883600D01*
X47799000Y-42843096D01*
X47799000Y-41156904D01*
X47802989Y-41116400D01*
X47813014Y-41083351D01*
X47829294Y-41052894D01*
X47851201Y-41026201D01*
X47877894Y-41004294D01*
X47908351Y-40988014D01*
X47941400Y-40977989D01*
X47981904Y-40974000D01*
X49418096Y-40974000D01*
X49458600Y-40977989D01*
X49458600Y-40977989D01*
G37*
G36*
X34305589Y-41238876D02*
G01*
X34404893Y-41258629D01*
X34545206Y-41316748D01*
X34671484Y-41401125D01*
X34778875Y-41508516D01*
X34863252Y-41634794D01*
X34921371Y-41775107D01*
X34951000Y-41924063D01*
X34951000Y-42075937D01*
X34921371Y-42224893D01*
X34863252Y-42365206D01*
X34778875Y-42491484D01*
X34671484Y-42598875D01*
X34545206Y-42683252D01*
X34404893Y-42741371D01*
X34306211Y-42761000D01*
X34255938Y-42771000D01*
X34104062Y-42771000D01*
X34053789Y-42761000D01*
X33955107Y-42741371D01*
X33814794Y-42683252D01*
X33688516Y-42598875D01*
X33581125Y-42491484D01*
X33496748Y-42365206D01*
X33438629Y-42224893D01*
X33409000Y-42075937D01*
X33409000Y-41924063D01*
X33438629Y-41775107D01*
X33496748Y-41634794D01*
X33581125Y-41508516D01*
X33688516Y-41401125D01*
X33814794Y-41316748D01*
X33955107Y-41258629D01*
X34054411Y-41238876D01*
X34104062Y-41229000D01*
X34255938Y-41229000D01*
X34305589Y-41238876D01*
X34305589Y-41238876D01*
G37*
G36*
X31765589Y-41238876D02*
G01*
X31864893Y-41258629D01*
X32005206Y-41316748D01*
X32131484Y-41401125D01*
X32238875Y-41508516D01*
X32323252Y-41634794D01*
X32381371Y-41775107D01*
X32411000Y-41924063D01*
X32411000Y-42075937D01*
X32381371Y-42224893D01*
X32323252Y-42365206D01*
X32238875Y-42491484D01*
X32131484Y-42598875D01*
X32005206Y-42683252D01*
X31864893Y-42741371D01*
X31766211Y-42761000D01*
X31715938Y-42771000D01*
X31564062Y-42771000D01*
X31513789Y-42761000D01*
X31415107Y-42741371D01*
X31274794Y-42683252D01*
X31148516Y-42598875D01*
X31041125Y-42491484D01*
X30956748Y-42365206D01*
X30898629Y-42224893D01*
X30869000Y-42075937D01*
X30869000Y-41924063D01*
X30898629Y-41775107D01*
X30956748Y-41634794D01*
X31041125Y-41508516D01*
X31148516Y-41401125D01*
X31274794Y-41316748D01*
X31415107Y-41258629D01*
X31514411Y-41238876D01*
X31564062Y-41229000D01*
X31715938Y-41229000D01*
X31765589Y-41238876D01*
X31765589Y-41238876D01*
G37*
G36*
X29225589Y-41238876D02*
G01*
X29324893Y-41258629D01*
X29465206Y-41316748D01*
X29591484Y-41401125D01*
X29698875Y-41508516D01*
X29783252Y-41634794D01*
X29841371Y-41775107D01*
X29871000Y-41924063D01*
X29871000Y-42075937D01*
X29841371Y-42224893D01*
X29783252Y-42365206D01*
X29698875Y-42491484D01*
X29591484Y-42598875D01*
X29465206Y-42683252D01*
X29324893Y-42741371D01*
X29226211Y-42761000D01*
X29175938Y-42771000D01*
X29024062Y-42771000D01*
X28973789Y-42761000D01*
X28875107Y-42741371D01*
X28734794Y-42683252D01*
X28608516Y-42598875D01*
X28501125Y-42491484D01*
X28416748Y-42365206D01*
X28358629Y-42224893D01*
X28329000Y-42075937D01*
X28329000Y-41924063D01*
X28358629Y-41775107D01*
X28416748Y-41634794D01*
X28501125Y-41508516D01*
X28608516Y-41401125D01*
X28734794Y-41316748D01*
X28875107Y-41258629D01*
X28974411Y-41238876D01*
X29024062Y-41229000D01*
X29175938Y-41229000D01*
X29225589Y-41238876D01*
X29225589Y-41238876D01*
G37*
G36*
X8445589Y-41238876D02*
G01*
X8544893Y-41258629D01*
X8685206Y-41316748D01*
X8811484Y-41401125D01*
X8918875Y-41508516D01*
X9003252Y-41634794D01*
X9061371Y-41775107D01*
X9091000Y-41924063D01*
X9091000Y-42075937D01*
X9061371Y-42224893D01*
X9003252Y-42365206D01*
X8918875Y-42491484D01*
X8811484Y-42598875D01*
X8685206Y-42683252D01*
X8544893Y-42741371D01*
X8446211Y-42761000D01*
X8395938Y-42771000D01*
X8244062Y-42771000D01*
X8193789Y-42761000D01*
X8095107Y-42741371D01*
X7954794Y-42683252D01*
X7828516Y-42598875D01*
X7721125Y-42491484D01*
X7636748Y-42365206D01*
X7578629Y-42224893D01*
X7549000Y-42075937D01*
X7549000Y-41924063D01*
X7578629Y-41775107D01*
X7636748Y-41634794D01*
X7721125Y-41508516D01*
X7828516Y-41401125D01*
X7954794Y-41316748D01*
X8095107Y-41258629D01*
X8194411Y-41238876D01*
X8244062Y-41229000D01*
X8395938Y-41229000D01*
X8445589Y-41238876D01*
X8445589Y-41238876D01*
G37*
G36*
X10985589Y-41238876D02*
G01*
X11084893Y-41258629D01*
X11225206Y-41316748D01*
X11351484Y-41401125D01*
X11458875Y-41508516D01*
X11543252Y-41634794D01*
X11601371Y-41775107D01*
X11631000Y-41924063D01*
X11631000Y-42075937D01*
X11601371Y-42224893D01*
X11543252Y-42365206D01*
X11458875Y-42491484D01*
X11351484Y-42598875D01*
X11225206Y-42683252D01*
X11084893Y-42741371D01*
X10986211Y-42761000D01*
X10935938Y-42771000D01*
X10784062Y-42771000D01*
X10733789Y-42761000D01*
X10635107Y-42741371D01*
X10494794Y-42683252D01*
X10368516Y-42598875D01*
X10261125Y-42491484D01*
X10176748Y-42365206D01*
X10118629Y-42224893D01*
X10089000Y-42075937D01*
X10089000Y-41924063D01*
X10118629Y-41775107D01*
X10176748Y-41634794D01*
X10261125Y-41508516D01*
X10368516Y-41401125D01*
X10494794Y-41316748D01*
X10635107Y-41258629D01*
X10734411Y-41238876D01*
X10784062Y-41229000D01*
X10935938Y-41229000D01*
X10985589Y-41238876D01*
X10985589Y-41238876D01*
G37*
G36*
X13525589Y-41238876D02*
G01*
X13624893Y-41258629D01*
X13765206Y-41316748D01*
X13891484Y-41401125D01*
X13998875Y-41508516D01*
X14083252Y-41634794D01*
X14141371Y-41775107D01*
X14171000Y-41924063D01*
X14171000Y-42075937D01*
X14141371Y-42224893D01*
X14083252Y-42365206D01*
X13998875Y-42491484D01*
X13891484Y-42598875D01*
X13765206Y-42683252D01*
X13624893Y-42741371D01*
X13526211Y-42761000D01*
X13475938Y-42771000D01*
X13324062Y-42771000D01*
X13273789Y-42761000D01*
X13175107Y-42741371D01*
X13034794Y-42683252D01*
X12908516Y-42598875D01*
X12801125Y-42491484D01*
X12716748Y-42365206D01*
X12658629Y-42224893D01*
X12629000Y-42075937D01*
X12629000Y-41924063D01*
X12658629Y-41775107D01*
X12716748Y-41634794D01*
X12801125Y-41508516D01*
X12908516Y-41401125D01*
X13034794Y-41316748D01*
X13175107Y-41258629D01*
X13274411Y-41238876D01*
X13324062Y-41229000D01*
X13475938Y-41229000D01*
X13525589Y-41238876D01*
X13525589Y-41238876D01*
G37*
G36*
X23905589Y-41238876D02*
G01*
X24004893Y-41258629D01*
X24145206Y-41316748D01*
X24271484Y-41401125D01*
X24378875Y-41508516D01*
X24463252Y-41634794D01*
X24521371Y-41775107D01*
X24551000Y-41924063D01*
X24551000Y-42075937D01*
X24521371Y-42224893D01*
X24463252Y-42365206D01*
X24378875Y-42491484D01*
X24271484Y-42598875D01*
X24145206Y-42683252D01*
X24004893Y-42741371D01*
X23906211Y-42761000D01*
X23855938Y-42771000D01*
X23704062Y-42771000D01*
X23653789Y-42761000D01*
X23555107Y-42741371D01*
X23414794Y-42683252D01*
X23288516Y-42598875D01*
X23181125Y-42491484D01*
X23096748Y-42365206D01*
X23038629Y-42224893D01*
X23009000Y-42075937D01*
X23009000Y-41924063D01*
X23038629Y-41775107D01*
X23096748Y-41634794D01*
X23181125Y-41508516D01*
X23288516Y-41401125D01*
X23414794Y-41316748D01*
X23555107Y-41258629D01*
X23654411Y-41238876D01*
X23704062Y-41229000D01*
X23855938Y-41229000D01*
X23905589Y-41238876D01*
X23905589Y-41238876D01*
G37*
G36*
X21365589Y-41238876D02*
G01*
X21464893Y-41258629D01*
X21605206Y-41316748D01*
X21731484Y-41401125D01*
X21838875Y-41508516D01*
X21923252Y-41634794D01*
X21981371Y-41775107D01*
X22011000Y-41924063D01*
X22011000Y-42075937D01*
X21981371Y-42224893D01*
X21923252Y-42365206D01*
X21838875Y-42491484D01*
X21731484Y-42598875D01*
X21605206Y-42683252D01*
X21464893Y-42741371D01*
X21366211Y-42761000D01*
X21315938Y-42771000D01*
X21164062Y-42771000D01*
X21113789Y-42761000D01*
X21015107Y-42741371D01*
X20874794Y-42683252D01*
X20748516Y-42598875D01*
X20641125Y-42491484D01*
X20556748Y-42365206D01*
X20498629Y-42224893D01*
X20469000Y-42075937D01*
X20469000Y-41924063D01*
X20498629Y-41775107D01*
X20556748Y-41634794D01*
X20641125Y-41508516D01*
X20748516Y-41401125D01*
X20874794Y-41316748D01*
X21015107Y-41258629D01*
X21114411Y-41238876D01*
X21164062Y-41229000D01*
X21315938Y-41229000D01*
X21365589Y-41238876D01*
X21365589Y-41238876D01*
G37*
G36*
X18825589Y-41238876D02*
G01*
X18924893Y-41258629D01*
X19065206Y-41316748D01*
X19191484Y-41401125D01*
X19298875Y-41508516D01*
X19383252Y-41634794D01*
X19441371Y-41775107D01*
X19471000Y-41924063D01*
X19471000Y-42075937D01*
X19441371Y-42224893D01*
X19383252Y-42365206D01*
X19298875Y-42491484D01*
X19191484Y-42598875D01*
X19065206Y-42683252D01*
X18924893Y-42741371D01*
X18826211Y-42761000D01*
X18775938Y-42771000D01*
X18624062Y-42771000D01*
X18573789Y-42761000D01*
X18475107Y-42741371D01*
X18334794Y-42683252D01*
X18208516Y-42598875D01*
X18101125Y-42491484D01*
X18016748Y-42365206D01*
X17958629Y-42224893D01*
X17929000Y-42075937D01*
X17929000Y-41924063D01*
X17958629Y-41775107D01*
X18016748Y-41634794D01*
X18101125Y-41508516D01*
X18208516Y-41401125D01*
X18334794Y-41316748D01*
X18475107Y-41258629D01*
X18574411Y-41238876D01*
X18624062Y-41229000D01*
X18775938Y-41229000D01*
X18825589Y-41238876D01*
X18825589Y-41238876D01*
G37*
G36*
X68762812Y-37293624D02*
G01*
X68926784Y-37361544D01*
X69074354Y-37460147D01*
X69199853Y-37585646D01*
X69298456Y-37733216D01*
X69366376Y-37897188D01*
X69401000Y-38071259D01*
X69401000Y-38248741D01*
X69366376Y-38422812D01*
X69298456Y-38586784D01*
X69199853Y-38734354D01*
X69074354Y-38859853D01*
X68926784Y-38958456D01*
X68762812Y-39026376D01*
X68588741Y-39061000D01*
X68411259Y-39061000D01*
X68237188Y-39026376D01*
X68073216Y-38958456D01*
X67925646Y-38859853D01*
X67800147Y-38734354D01*
X67701544Y-38586784D01*
X67633624Y-38422812D01*
X67599000Y-38248741D01*
X67599000Y-38071259D01*
X67633624Y-37897188D01*
X67701544Y-37733216D01*
X67800147Y-37585646D01*
X67925646Y-37460147D01*
X68073216Y-37361544D01*
X68237188Y-37293624D01*
X68411259Y-37259000D01*
X68588741Y-37259000D01*
X68762812Y-37293624D01*
X68762812Y-37293624D01*
G37*
G36*
X71302812Y-37293624D02*
G01*
X71466784Y-37361544D01*
X71614354Y-37460147D01*
X71739853Y-37585646D01*
X71838456Y-37733216D01*
X71906376Y-37897188D01*
X71941000Y-38071259D01*
X71941000Y-38248741D01*
X71906376Y-38422812D01*
X71838456Y-38586784D01*
X71739853Y-38734354D01*
X71614354Y-38859853D01*
X71466784Y-38958456D01*
X71302812Y-39026376D01*
X71128741Y-39061000D01*
X70951259Y-39061000D01*
X70777188Y-39026376D01*
X70613216Y-38958456D01*
X70465646Y-38859853D01*
X70340147Y-38734354D01*
X70241544Y-38586784D01*
X70173624Y-38422812D01*
X70139000Y-38248741D01*
X70139000Y-38071259D01*
X70173624Y-37897188D01*
X70241544Y-37733216D01*
X70340147Y-37585646D01*
X70465646Y-37460147D01*
X70613216Y-37361544D01*
X70777188Y-37293624D01*
X70951259Y-37259000D01*
X71128741Y-37259000D01*
X71302812Y-37293624D01*
X71302812Y-37293624D01*
G37*
G36*
X68762812Y-34753624D02*
G01*
X68926784Y-34821544D01*
X69074354Y-34920147D01*
X69199853Y-35045646D01*
X69298456Y-35193216D01*
X69366376Y-35357188D01*
X69401000Y-35531259D01*
X69401000Y-35708741D01*
X69366376Y-35882812D01*
X69298456Y-36046784D01*
X69199853Y-36194354D01*
X69074354Y-36319853D01*
X68926784Y-36418456D01*
X68762812Y-36486376D01*
X68588741Y-36521000D01*
X68411259Y-36521000D01*
X68237188Y-36486376D01*
X68073216Y-36418456D01*
X67925646Y-36319853D01*
X67800147Y-36194354D01*
X67701544Y-36046784D01*
X67633624Y-35882812D01*
X67599000Y-35708741D01*
X67599000Y-35531259D01*
X67633624Y-35357188D01*
X67701544Y-35193216D01*
X67800147Y-35045646D01*
X67925646Y-34920147D01*
X68073216Y-34821544D01*
X68237188Y-34753624D01*
X68411259Y-34719000D01*
X68588741Y-34719000D01*
X68762812Y-34753624D01*
X68762812Y-34753624D01*
G37*
G36*
X71302812Y-34753624D02*
G01*
X71466784Y-34821544D01*
X71614354Y-34920147D01*
X71739853Y-35045646D01*
X71838456Y-35193216D01*
X71906376Y-35357188D01*
X71941000Y-35531259D01*
X71941000Y-35708741D01*
X71906376Y-35882812D01*
X71838456Y-36046784D01*
X71739853Y-36194354D01*
X71614354Y-36319853D01*
X71466784Y-36418456D01*
X71302812Y-36486376D01*
X71128741Y-36521000D01*
X70951259Y-36521000D01*
X70777188Y-36486376D01*
X70613216Y-36418456D01*
X70465646Y-36319853D01*
X70340147Y-36194354D01*
X70241544Y-36046784D01*
X70173624Y-35882812D01*
X70139000Y-35708741D01*
X70139000Y-35531259D01*
X70173624Y-35357188D01*
X70241544Y-35193216D01*
X70340147Y-35045646D01*
X70465646Y-34920147D01*
X70613216Y-34821544D01*
X70777188Y-34753624D01*
X70951259Y-34719000D01*
X71128741Y-34719000D01*
X71302812Y-34753624D01*
X71302812Y-34753624D01*
G37*
G36*
X3235442Y-34105518D02*
G01*
X3301627Y-34112037D01*
X3414853Y-34146384D01*
X3471467Y-34163557D01*
X3610087Y-34237652D01*
X3627991Y-34247222D01*
X3663729Y-34276552D01*
X3765186Y-34359814D01*
X3848448Y-34461271D01*
X3877778Y-34497009D01*
X3877779Y-34497011D01*
X3961443Y-34653533D01*
X3961443Y-34653534D01*
X4012963Y-34823373D01*
X4030359Y-35000000D01*
X4012963Y-35176627D01*
X4007930Y-35193218D01*
X3961443Y-35346467D01*
X3955712Y-35357188D01*
X3877778Y-35502991D01*
X3854579Y-35531259D01*
X3765186Y-35640186D01*
X3681650Y-35708741D01*
X3627991Y-35752778D01*
X3627989Y-35752779D01*
X3471467Y-35836443D01*
X3414853Y-35853616D01*
X3301627Y-35887963D01*
X3235442Y-35894482D01*
X3169260Y-35901000D01*
X2830740Y-35901000D01*
X2764558Y-35894482D01*
X2698373Y-35887963D01*
X2585147Y-35853616D01*
X2528533Y-35836443D01*
X2372011Y-35752779D01*
X2372009Y-35752778D01*
X2318350Y-35708741D01*
X2234814Y-35640186D01*
X2145421Y-35531259D01*
X2122222Y-35502991D01*
X2044288Y-35357188D01*
X2038557Y-35346467D01*
X1992070Y-35193218D01*
X1987037Y-35176627D01*
X1969641Y-35000000D01*
X1987037Y-34823373D01*
X2038557Y-34653534D01*
X2038557Y-34653533D01*
X2122221Y-34497011D01*
X2122222Y-34497009D01*
X2151552Y-34461271D01*
X2234814Y-34359814D01*
X2336271Y-34276552D01*
X2372009Y-34247222D01*
X2389913Y-34237652D01*
X2528533Y-34163557D01*
X2585147Y-34146384D01*
X2698373Y-34112037D01*
X2764558Y-34105518D01*
X2830740Y-34099000D01*
X3169260Y-34099000D01*
X3235442Y-34105518D01*
X3235442Y-34105518D01*
G37*
G36*
X71302812Y-32213624D02*
G01*
X71466784Y-32281544D01*
X71614354Y-32380147D01*
X71739853Y-32505646D01*
X71838456Y-32653216D01*
X71906376Y-32817188D01*
X71941000Y-32991259D01*
X71941000Y-33168741D01*
X71906376Y-33342812D01*
X71838456Y-33506784D01*
X71739853Y-33654354D01*
X71614354Y-33779853D01*
X71466784Y-33878456D01*
X71302812Y-33946376D01*
X71128741Y-33981000D01*
X70951259Y-33981000D01*
X70777188Y-33946376D01*
X70613216Y-33878456D01*
X70465646Y-33779853D01*
X70340147Y-33654354D01*
X70241544Y-33506784D01*
X70173624Y-33342812D01*
X70139000Y-33168741D01*
X70139000Y-32991259D01*
X70173624Y-32817188D01*
X70241544Y-32653216D01*
X70340147Y-32505646D01*
X70465646Y-32380147D01*
X70613216Y-32281544D01*
X70777188Y-32213624D01*
X70951259Y-32179000D01*
X71128741Y-32179000D01*
X71302812Y-32213624D01*
X71302812Y-32213624D01*
G37*
G36*
X68762812Y-32213624D02*
G01*
X68926784Y-32281544D01*
X69074354Y-32380147D01*
X69199853Y-32505646D01*
X69298456Y-32653216D01*
X69366376Y-32817188D01*
X69401000Y-32991259D01*
X69401000Y-33168741D01*
X69366376Y-33342812D01*
X69298456Y-33506784D01*
X69199853Y-33654354D01*
X69074354Y-33779853D01*
X68926784Y-33878456D01*
X68762812Y-33946376D01*
X68588741Y-33981000D01*
X68411259Y-33981000D01*
X68237188Y-33946376D01*
X68073216Y-33878456D01*
X67925646Y-33779853D01*
X67800147Y-33654354D01*
X67701544Y-33506784D01*
X67633624Y-33342812D01*
X67599000Y-33168741D01*
X67599000Y-32991259D01*
X67633624Y-32817188D01*
X67701544Y-32653216D01*
X67800147Y-32505646D01*
X67925646Y-32380147D01*
X68073216Y-32281544D01*
X68237188Y-32213624D01*
X68411259Y-32179000D01*
X68588741Y-32179000D01*
X68762812Y-32213624D01*
X68762812Y-32213624D01*
G37*
G36*
X3235442Y-31605518D02*
G01*
X3301627Y-31612037D01*
X3414853Y-31646384D01*
X3471467Y-31663557D01*
X3610087Y-31737652D01*
X3627991Y-31747222D01*
X3663729Y-31776552D01*
X3765186Y-31859814D01*
X3848448Y-31961271D01*
X3877778Y-31997009D01*
X3877779Y-31997011D01*
X3961443Y-32153533D01*
X3961443Y-32153534D01*
X4012963Y-32323373D01*
X4030359Y-32500000D01*
X4012963Y-32676627D01*
X3978616Y-32789853D01*
X3961443Y-32846467D01*
X3887348Y-32985087D01*
X3877778Y-33002991D01*
X3848448Y-33038729D01*
X3765186Y-33140186D01*
X3663729Y-33223448D01*
X3627991Y-33252778D01*
X3627989Y-33252779D01*
X3471467Y-33336443D01*
X3414853Y-33353616D01*
X3301627Y-33387963D01*
X3235442Y-33394482D01*
X3169260Y-33401000D01*
X2830740Y-33401000D01*
X2764558Y-33394482D01*
X2698373Y-33387963D01*
X2585147Y-33353616D01*
X2528533Y-33336443D01*
X2372011Y-33252779D01*
X2372009Y-33252778D01*
X2336271Y-33223448D01*
X2234814Y-33140186D01*
X2151552Y-33038729D01*
X2122222Y-33002991D01*
X2112652Y-32985087D01*
X2038557Y-32846467D01*
X2021384Y-32789853D01*
X1987037Y-32676627D01*
X1969641Y-32500000D01*
X1987037Y-32323373D01*
X2038557Y-32153534D01*
X2038557Y-32153533D01*
X2122221Y-31997011D01*
X2122222Y-31997009D01*
X2151552Y-31961271D01*
X2234814Y-31859814D01*
X2336271Y-31776552D01*
X2372009Y-31747222D01*
X2389913Y-31737652D01*
X2528533Y-31663557D01*
X2585147Y-31646384D01*
X2698373Y-31612037D01*
X2764558Y-31605518D01*
X2830740Y-31599000D01*
X3169260Y-31599000D01*
X3235442Y-31605518D01*
X3235442Y-31605518D01*
G37*
G36*
X68762812Y-29673624D02*
G01*
X68926784Y-29741544D01*
X69074354Y-29840147D01*
X69199853Y-29965646D01*
X69298456Y-30113216D01*
X69366376Y-30277188D01*
X69401000Y-30451259D01*
X69401000Y-30628741D01*
X69366376Y-30802812D01*
X69298456Y-30966784D01*
X69199853Y-31114354D01*
X69074354Y-31239853D01*
X68926784Y-31338456D01*
X68762812Y-31406376D01*
X68588741Y-31441000D01*
X68411259Y-31441000D01*
X68237188Y-31406376D01*
X68073216Y-31338456D01*
X67925646Y-31239853D01*
X67800147Y-31114354D01*
X67701544Y-30966784D01*
X67633624Y-30802812D01*
X67599000Y-30628741D01*
X67599000Y-30451259D01*
X67633624Y-30277188D01*
X67701544Y-30113216D01*
X67800147Y-29965646D01*
X67925646Y-29840147D01*
X68073216Y-29741544D01*
X68237188Y-29673624D01*
X68411259Y-29639000D01*
X68588741Y-29639000D01*
X68762812Y-29673624D01*
X68762812Y-29673624D01*
G37*
G36*
X71302812Y-29673624D02*
G01*
X71466784Y-29741544D01*
X71614354Y-29840147D01*
X71739853Y-29965646D01*
X71838456Y-30113216D01*
X71906376Y-30277188D01*
X71941000Y-30451259D01*
X71941000Y-30628741D01*
X71906376Y-30802812D01*
X71838456Y-30966784D01*
X71739853Y-31114354D01*
X71614354Y-31239853D01*
X71466784Y-31338456D01*
X71302812Y-31406376D01*
X71128741Y-31441000D01*
X70951259Y-31441000D01*
X70777188Y-31406376D01*
X70613216Y-31338456D01*
X70465646Y-31239853D01*
X70340147Y-31114354D01*
X70241544Y-30966784D01*
X70173624Y-30802812D01*
X70139000Y-30628741D01*
X70139000Y-30451259D01*
X70173624Y-30277188D01*
X70241544Y-30113216D01*
X70340147Y-29965646D01*
X70465646Y-29840147D01*
X70613216Y-29741544D01*
X70777188Y-29673624D01*
X70951259Y-29639000D01*
X71128741Y-29639000D01*
X71302812Y-29673624D01*
X71302812Y-29673624D01*
G37*
G36*
X3235442Y-29105518D02*
G01*
X3301627Y-29112037D01*
X3414853Y-29146384D01*
X3471467Y-29163557D01*
X3610087Y-29237652D01*
X3627991Y-29247222D01*
X3663729Y-29276552D01*
X3765186Y-29359814D01*
X3848448Y-29461271D01*
X3877778Y-29497009D01*
X3877779Y-29497011D01*
X3961443Y-29653533D01*
X3961443Y-29653534D01*
X4012963Y-29823373D01*
X4030359Y-30000000D01*
X4012963Y-30176627D01*
X3982458Y-30277188D01*
X3961443Y-30346467D01*
X3905430Y-30451259D01*
X3877778Y-30502991D01*
X3848448Y-30538729D01*
X3765186Y-30640186D01*
X3663729Y-30723448D01*
X3627991Y-30752778D01*
X3627989Y-30752779D01*
X3471467Y-30836443D01*
X3414853Y-30853616D01*
X3301627Y-30887963D01*
X3235442Y-30894482D01*
X3169260Y-30901000D01*
X2830740Y-30901000D01*
X2764558Y-30894482D01*
X2698373Y-30887963D01*
X2585147Y-30853616D01*
X2528533Y-30836443D01*
X2372011Y-30752779D01*
X2372009Y-30752778D01*
X2336271Y-30723448D01*
X2234814Y-30640186D01*
X2151552Y-30538729D01*
X2122222Y-30502991D01*
X2094570Y-30451259D01*
X2038557Y-30346467D01*
X2017542Y-30277188D01*
X1987037Y-30176627D01*
X1969641Y-30000000D01*
X1987037Y-29823373D01*
X2038557Y-29653534D01*
X2038557Y-29653533D01*
X2122221Y-29497011D01*
X2122222Y-29497009D01*
X2151552Y-29461271D01*
X2234814Y-29359814D01*
X2336271Y-29276552D01*
X2372009Y-29247222D01*
X2389913Y-29237652D01*
X2528533Y-29163557D01*
X2585147Y-29146384D01*
X2698373Y-29112037D01*
X2764558Y-29105518D01*
X2830740Y-29099000D01*
X3169260Y-29099000D01*
X3235442Y-29105518D01*
X3235442Y-29105518D01*
G37*
G36*
X69401000Y-28901000D02*
G01*
X67599000Y-28901000D01*
X67599000Y-27099000D01*
X69401000Y-27099000D01*
X69401000Y-28901000D01*
X69401000Y-28901000D01*
G37*
G36*
X71302812Y-27133624D02*
G01*
X71466784Y-27201544D01*
X71614354Y-27300147D01*
X71739853Y-27425646D01*
X71838456Y-27573216D01*
X71906376Y-27737188D01*
X71941000Y-27911259D01*
X71941000Y-28088741D01*
X71906376Y-28262812D01*
X71838456Y-28426784D01*
X71739853Y-28574354D01*
X71614354Y-28699853D01*
X71466784Y-28798456D01*
X71302812Y-28866376D01*
X71128741Y-28901000D01*
X70951259Y-28901000D01*
X70777188Y-28866376D01*
X70613216Y-28798456D01*
X70465646Y-28699853D01*
X70340147Y-28574354D01*
X70241544Y-28426784D01*
X70173624Y-28262812D01*
X70139000Y-28088741D01*
X70139000Y-27911259D01*
X70173624Y-27737188D01*
X70241544Y-27573216D01*
X70340147Y-27425646D01*
X70465646Y-27300147D01*
X70613216Y-27201544D01*
X70777188Y-27133624D01*
X70951259Y-27099000D01*
X71128741Y-27099000D01*
X71302812Y-27133624D01*
X71302812Y-27133624D01*
G37*
G36*
X3235442Y-26605518D02*
G01*
X3301627Y-26612037D01*
X3414853Y-26646384D01*
X3471467Y-26663557D01*
X3610087Y-26737652D01*
X3627991Y-26747222D01*
X3663729Y-26776552D01*
X3765186Y-26859814D01*
X3848448Y-26961271D01*
X3877778Y-26997009D01*
X3877779Y-26997011D01*
X3961443Y-27153533D01*
X3961443Y-27153534D01*
X4012963Y-27323373D01*
X4030359Y-27500000D01*
X4012963Y-27676627D01*
X3994592Y-27737188D01*
X3961443Y-27846467D01*
X3926810Y-27911259D01*
X3877778Y-28002991D01*
X3848448Y-28038729D01*
X3765186Y-28140186D01*
X3663729Y-28223448D01*
X3627991Y-28252778D01*
X3627989Y-28252779D01*
X3471467Y-28336443D01*
X3414853Y-28353616D01*
X3301627Y-28387963D01*
X3235443Y-28394481D01*
X3169260Y-28401000D01*
X2830740Y-28401000D01*
X2764557Y-28394481D01*
X2698373Y-28387963D01*
X2585147Y-28353616D01*
X2528533Y-28336443D01*
X2372011Y-28252779D01*
X2372009Y-28252778D01*
X2336271Y-28223448D01*
X2234814Y-28140186D01*
X2151552Y-28038729D01*
X2122222Y-28002991D01*
X2073190Y-27911259D01*
X2038557Y-27846467D01*
X2005408Y-27737188D01*
X1987037Y-27676627D01*
X1969641Y-27500000D01*
X1987037Y-27323373D01*
X2038557Y-27153534D01*
X2038557Y-27153533D01*
X2122221Y-26997011D01*
X2122222Y-26997009D01*
X2151552Y-26961271D01*
X2234814Y-26859814D01*
X2336271Y-26776552D01*
X2372009Y-26747222D01*
X2389913Y-26737652D01*
X2528533Y-26663557D01*
X2585147Y-26646384D01*
X2698373Y-26612037D01*
X2764558Y-26605518D01*
X2830740Y-26599000D01*
X3169260Y-26599000D01*
X3235442Y-26605518D01*
X3235442Y-26605518D01*
G37*
G36*
X3235443Y-24105519D02*
G01*
X3301627Y-24112037D01*
X3414853Y-24146384D01*
X3471467Y-24163557D01*
X3610087Y-24237652D01*
X3627991Y-24247222D01*
X3663729Y-24276552D01*
X3765186Y-24359814D01*
X3848448Y-24461271D01*
X3877778Y-24497009D01*
X3877779Y-24497011D01*
X3961443Y-24653533D01*
X3961443Y-24653534D01*
X4012963Y-24823373D01*
X4030359Y-25000000D01*
X4012963Y-25176627D01*
X3978616Y-25289853D01*
X3961443Y-25346467D01*
X3887348Y-25485087D01*
X3877778Y-25502991D01*
X3848448Y-25538729D01*
X3765186Y-25640186D01*
X3663729Y-25723448D01*
X3627991Y-25752778D01*
X3627989Y-25752779D01*
X3471467Y-25836443D01*
X3414853Y-25853616D01*
X3301627Y-25887963D01*
X3235443Y-25894481D01*
X3169260Y-25901000D01*
X2830740Y-25901000D01*
X2764557Y-25894481D01*
X2698373Y-25887963D01*
X2585147Y-25853616D01*
X2528533Y-25836443D01*
X2372011Y-25752779D01*
X2372009Y-25752778D01*
X2336271Y-25723448D01*
X2234814Y-25640186D01*
X2151552Y-25538729D01*
X2122222Y-25502991D01*
X2112652Y-25485087D01*
X2038557Y-25346467D01*
X2021384Y-25289853D01*
X1987037Y-25176627D01*
X1969641Y-25000000D01*
X1987037Y-24823373D01*
X2038557Y-24653534D01*
X2038557Y-24653533D01*
X2122221Y-24497011D01*
X2122222Y-24497009D01*
X2151552Y-24461271D01*
X2234814Y-24359814D01*
X2336271Y-24276552D01*
X2372009Y-24247222D01*
X2389913Y-24237652D01*
X2528533Y-24163557D01*
X2585147Y-24146384D01*
X2698373Y-24112037D01*
X2764557Y-24105519D01*
X2830740Y-24099000D01*
X3169260Y-24099000D01*
X3235443Y-24105519D01*
X3235443Y-24105519D01*
G37*
G36*
X3883600Y-21602989D02*
G01*
X3916649Y-21613014D01*
X3947106Y-21629294D01*
X3973799Y-21651201D01*
X3995706Y-21677894D01*
X4011986Y-21708351D01*
X4022011Y-21741400D01*
X4026000Y-21781904D01*
X4026000Y-23218096D01*
X4022011Y-23258600D01*
X4011986Y-23291649D01*
X3995706Y-23322106D01*
X3973799Y-23348799D01*
X3947106Y-23370706D01*
X3916649Y-23386986D01*
X3883600Y-23397011D01*
X3843096Y-23401000D01*
X2156904Y-23401000D01*
X2116400Y-23397011D01*
X2083351Y-23386986D01*
X2052894Y-23370706D01*
X2026201Y-23348799D01*
X2004294Y-23322106D01*
X1988014Y-23291649D01*
X1977989Y-23258600D01*
X1974000Y-23218096D01*
X1974000Y-21781904D01*
X1977989Y-21741400D01*
X1988014Y-21708351D01*
X2004294Y-21677894D01*
X2026201Y-21651201D01*
X2052894Y-21629294D01*
X2083351Y-21613014D01*
X2116400Y-21602989D01*
X2156904Y-21599000D01*
X3843096Y-21599000D01*
X3883600Y-21602989D01*
X3883600Y-21602989D01*
G37*
G36*
X71302812Y-15253624D02*
G01*
X71466784Y-15321544D01*
X71614354Y-15420147D01*
X71739853Y-15545646D01*
X71838456Y-15693216D01*
X71906376Y-15857188D01*
X71941000Y-16031259D01*
X71941000Y-16208741D01*
X71906376Y-16382812D01*
X71838456Y-16546784D01*
X71739853Y-16694354D01*
X71614354Y-16819853D01*
X71466784Y-16918456D01*
X71302812Y-16986376D01*
X71128741Y-17021000D01*
X70951259Y-17021000D01*
X70777188Y-16986376D01*
X70613216Y-16918456D01*
X70465646Y-16819853D01*
X70340147Y-16694354D01*
X70241544Y-16546784D01*
X70173624Y-16382812D01*
X70139000Y-16208741D01*
X70139000Y-16031259D01*
X70173624Y-15857188D01*
X70241544Y-15693216D01*
X70340147Y-15545646D01*
X70465646Y-15420147D01*
X70613216Y-15321544D01*
X70777188Y-15253624D01*
X70951259Y-15219000D01*
X71128741Y-15219000D01*
X71302812Y-15253624D01*
X71302812Y-15253624D01*
G37*
G36*
X68762812Y-15253624D02*
G01*
X68926784Y-15321544D01*
X69074354Y-15420147D01*
X69199853Y-15545646D01*
X69298456Y-15693216D01*
X69366376Y-15857188D01*
X69401000Y-16031259D01*
X69401000Y-16208741D01*
X69366376Y-16382812D01*
X69298456Y-16546784D01*
X69199853Y-16694354D01*
X69074354Y-16819853D01*
X68926784Y-16918456D01*
X68762812Y-16986376D01*
X68588741Y-17021000D01*
X68411259Y-17021000D01*
X68237188Y-16986376D01*
X68073216Y-16918456D01*
X67925646Y-16819853D01*
X67800147Y-16694354D01*
X67701544Y-16546784D01*
X67633624Y-16382812D01*
X67599000Y-16208741D01*
X67599000Y-16031259D01*
X67633624Y-15857188D01*
X67701544Y-15693216D01*
X67800147Y-15545646D01*
X67925646Y-15420147D01*
X68073216Y-15321544D01*
X68237188Y-15253624D01*
X68411259Y-15219000D01*
X68588741Y-15219000D01*
X68762812Y-15253624D01*
X68762812Y-15253624D01*
G37*
G36*
X56706821Y-14161313D02*
G01*
X56706824Y-14161314D01*
X56706825Y-14161314D01*
X56867239Y-14209975D01*
X56867241Y-14209976D01*
X56867244Y-14209977D01*
X57015078Y-14288995D01*
X57144659Y-14395341D01*
X57251005Y-14524922D01*
X57330023Y-14672756D01*
X57330024Y-14672759D01*
X57330025Y-14672761D01*
X57378686Y-14833175D01*
X57378687Y-14833179D01*
X57395117Y-15000000D01*
X57378687Y-15166821D01*
X57378686Y-15166824D01*
X57378686Y-15166825D01*
X57331753Y-15321544D01*
X57330023Y-15327244D01*
X57251005Y-15475078D01*
X57144659Y-15604659D01*
X57015078Y-15711005D01*
X56867244Y-15790023D01*
X56867241Y-15790024D01*
X56867239Y-15790025D01*
X56706825Y-15838686D01*
X56706824Y-15838686D01*
X56706821Y-15838687D01*
X56581804Y-15851000D01*
X56498196Y-15851000D01*
X56373179Y-15838687D01*
X56373176Y-15838686D01*
X56373175Y-15838686D01*
X56212761Y-15790025D01*
X56212759Y-15790024D01*
X56212756Y-15790023D01*
X56064922Y-15711005D01*
X55935341Y-15604659D01*
X55828995Y-15475078D01*
X55749977Y-15327244D01*
X55748248Y-15321544D01*
X55701314Y-15166825D01*
X55701314Y-15166824D01*
X55701313Y-15166821D01*
X55684883Y-15000000D01*
X55701313Y-14833179D01*
X55701314Y-14833175D01*
X55749975Y-14672761D01*
X55749976Y-14672759D01*
X55749977Y-14672756D01*
X55828995Y-14524922D01*
X55935341Y-14395341D01*
X56064922Y-14288995D01*
X56212756Y-14209977D01*
X56212759Y-14209976D01*
X56212761Y-14209975D01*
X56373175Y-14161314D01*
X56373176Y-14161314D01*
X56373179Y-14161313D01*
X56498196Y-14149000D01*
X56581804Y-14149000D01*
X56706821Y-14161313D01*
X56706821Y-14161313D01*
G37*
G36*
X60626821Y-14161313D02*
G01*
X60626824Y-14161314D01*
X60626825Y-14161314D01*
X60787239Y-14209975D01*
X60787241Y-14209976D01*
X60787244Y-14209977D01*
X60935078Y-14288995D01*
X61064659Y-14395341D01*
X61171005Y-14524922D01*
X61250023Y-14672756D01*
X61250024Y-14672759D01*
X61250025Y-14672761D01*
X61298686Y-14833175D01*
X61298687Y-14833179D01*
X61315117Y-15000000D01*
X61298687Y-15166821D01*
X61298686Y-15166824D01*
X61298686Y-15166825D01*
X61251753Y-15321544D01*
X61250023Y-15327244D01*
X61171005Y-15475078D01*
X61064659Y-15604659D01*
X60935078Y-15711005D01*
X60787244Y-15790023D01*
X60787241Y-15790024D01*
X60787239Y-15790025D01*
X60626825Y-15838686D01*
X60626824Y-15838686D01*
X60626821Y-15838687D01*
X60501804Y-15851000D01*
X60418196Y-15851000D01*
X60293179Y-15838687D01*
X60293176Y-15838686D01*
X60293175Y-15838686D01*
X60132761Y-15790025D01*
X60132759Y-15790024D01*
X60132756Y-15790023D01*
X59984922Y-15711005D01*
X59855341Y-15604659D01*
X59748995Y-15475078D01*
X59669977Y-15327244D01*
X59668248Y-15321544D01*
X59621314Y-15166825D01*
X59621314Y-15166824D01*
X59621313Y-15166821D01*
X59604883Y-15000000D01*
X59621313Y-14833179D01*
X59621314Y-14833175D01*
X59669975Y-14672761D01*
X59669976Y-14672759D01*
X59669977Y-14672756D01*
X59748995Y-14524922D01*
X59855341Y-14395341D01*
X59984922Y-14288995D01*
X60132756Y-14209977D01*
X60132759Y-14209976D01*
X60132761Y-14209975D01*
X60293175Y-14161314D01*
X60293176Y-14161314D01*
X60293179Y-14161313D01*
X60418196Y-14149000D01*
X60501804Y-14149000D01*
X60626821Y-14161313D01*
X60626821Y-14161313D01*
G37*
G36*
X63166821Y-14161313D02*
G01*
X63166824Y-14161314D01*
X63166825Y-14161314D01*
X63327239Y-14209975D01*
X63327241Y-14209976D01*
X63327244Y-14209977D01*
X63475078Y-14288995D01*
X63604659Y-14395341D01*
X63711005Y-14524922D01*
X63790023Y-14672756D01*
X63790024Y-14672759D01*
X63790025Y-14672761D01*
X63838686Y-14833175D01*
X63838687Y-14833179D01*
X63855117Y-15000000D01*
X63838687Y-15166821D01*
X63838686Y-15166824D01*
X63838686Y-15166825D01*
X63791753Y-15321544D01*
X63790023Y-15327244D01*
X63711005Y-15475078D01*
X63604659Y-15604659D01*
X63475078Y-15711005D01*
X63327244Y-15790023D01*
X63327241Y-15790024D01*
X63327239Y-15790025D01*
X63166825Y-15838686D01*
X63166824Y-15838686D01*
X63166821Y-15838687D01*
X63041804Y-15851000D01*
X62958196Y-15851000D01*
X62833179Y-15838687D01*
X62833176Y-15838686D01*
X62833175Y-15838686D01*
X62672761Y-15790025D01*
X62672759Y-15790024D01*
X62672756Y-15790023D01*
X62524922Y-15711005D01*
X62395341Y-15604659D01*
X62288995Y-15475078D01*
X62209977Y-15327244D01*
X62208248Y-15321544D01*
X62161314Y-15166825D01*
X62161314Y-15166824D01*
X62161313Y-15166821D01*
X62144883Y-15000000D01*
X62161313Y-14833179D01*
X62161314Y-14833175D01*
X62209975Y-14672761D01*
X62209976Y-14672759D01*
X62209977Y-14672756D01*
X62288995Y-14524922D01*
X62395341Y-14395341D01*
X62524922Y-14288995D01*
X62672756Y-14209977D01*
X62672759Y-14209976D01*
X62672761Y-14209975D01*
X62833175Y-14161314D01*
X62833176Y-14161314D01*
X62833179Y-14161313D01*
X62958196Y-14149000D01*
X63041804Y-14149000D01*
X63166821Y-14161313D01*
X63166821Y-14161313D01*
G37*
G36*
X54851000Y-15851000D02*
G01*
X53149000Y-15851000D01*
X53149000Y-14149000D01*
X54851000Y-14149000D01*
X54851000Y-15851000D01*
X54851000Y-15851000D01*
G37*
G36*
X3235442Y-13605518D02*
G01*
X3301627Y-13612037D01*
X3414853Y-13646384D01*
X3471467Y-13663557D01*
X3481165Y-13668741D01*
X3627991Y-13747222D01*
X3663729Y-13776552D01*
X3765186Y-13859814D01*
X3848448Y-13961271D01*
X3877778Y-13997009D01*
X3877779Y-13997011D01*
X3961443Y-14153533D01*
X3961443Y-14153534D01*
X4012963Y-14323373D01*
X4030359Y-14500000D01*
X4012963Y-14676627D01*
X3978616Y-14789853D01*
X3961443Y-14846467D01*
X3887348Y-14985087D01*
X3877778Y-15002991D01*
X3848448Y-15038729D01*
X3765186Y-15140186D01*
X3669149Y-15219000D01*
X3627991Y-15252778D01*
X3627989Y-15252779D01*
X3471467Y-15336443D01*
X3414853Y-15353616D01*
X3301627Y-15387963D01*
X3235442Y-15394482D01*
X3169260Y-15401000D01*
X2830740Y-15401000D01*
X2764558Y-15394482D01*
X2698373Y-15387963D01*
X2585147Y-15353616D01*
X2528533Y-15336443D01*
X2372011Y-15252779D01*
X2372009Y-15252778D01*
X2330851Y-15219000D01*
X2234814Y-15140186D01*
X2151552Y-15038729D01*
X2122222Y-15002991D01*
X2112652Y-14985087D01*
X2038557Y-14846467D01*
X2021384Y-14789853D01*
X1987037Y-14676627D01*
X1969641Y-14500000D01*
X1987037Y-14323373D01*
X2038557Y-14153534D01*
X2038557Y-14153533D01*
X2122221Y-13997011D01*
X2122222Y-13997009D01*
X2151552Y-13961271D01*
X2234814Y-13859814D01*
X2336271Y-13776552D01*
X2372009Y-13747222D01*
X2518835Y-13668741D01*
X2528533Y-13663557D01*
X2585147Y-13646384D01*
X2698373Y-13612037D01*
X2764558Y-13605518D01*
X2830740Y-13599000D01*
X3169260Y-13599000D01*
X3235442Y-13605518D01*
X3235442Y-13605518D01*
G37*
G36*
X71302812Y-12713624D02*
G01*
X71466784Y-12781544D01*
X71614354Y-12880147D01*
X71739853Y-13005646D01*
X71838456Y-13153216D01*
X71906376Y-13317188D01*
X71941000Y-13491259D01*
X71941000Y-13668741D01*
X71906376Y-13842812D01*
X71838456Y-14006784D01*
X71739853Y-14154354D01*
X71614354Y-14279853D01*
X71466784Y-14378456D01*
X71302812Y-14446376D01*
X71128741Y-14481000D01*
X70951259Y-14481000D01*
X70777188Y-14446376D01*
X70613216Y-14378456D01*
X70465646Y-14279853D01*
X70340147Y-14154354D01*
X70241544Y-14006784D01*
X70173624Y-13842812D01*
X70139000Y-13668741D01*
X70139000Y-13491259D01*
X70173624Y-13317188D01*
X70241544Y-13153216D01*
X70340147Y-13005646D01*
X70465646Y-12880147D01*
X70613216Y-12781544D01*
X70777188Y-12713624D01*
X70951259Y-12679000D01*
X71128741Y-12679000D01*
X71302812Y-12713624D01*
X71302812Y-12713624D01*
G37*
G36*
X68762812Y-12713624D02*
G01*
X68926784Y-12781544D01*
X69074354Y-12880147D01*
X69199853Y-13005646D01*
X69298456Y-13153216D01*
X69366376Y-13317188D01*
X69401000Y-13491259D01*
X69401000Y-13668741D01*
X69366376Y-13842812D01*
X69298456Y-14006784D01*
X69199853Y-14154354D01*
X69074354Y-14279853D01*
X68926784Y-14378456D01*
X68762812Y-14446376D01*
X68588741Y-14481000D01*
X68411259Y-14481000D01*
X68237188Y-14446376D01*
X68073216Y-14378456D01*
X67925646Y-14279853D01*
X67800147Y-14154354D01*
X67701544Y-14006784D01*
X67633624Y-13842812D01*
X67599000Y-13668741D01*
X67599000Y-13491259D01*
X67633624Y-13317188D01*
X67701544Y-13153216D01*
X67800147Y-13005646D01*
X67925646Y-12880147D01*
X68073216Y-12781544D01*
X68237188Y-12713624D01*
X68411259Y-12679000D01*
X68588741Y-12679000D01*
X68762812Y-12713624D01*
X68762812Y-12713624D01*
G37*
G36*
X3235442Y-11105518D02*
G01*
X3301627Y-11112037D01*
X3414853Y-11146384D01*
X3471467Y-11163557D01*
X3610087Y-11237652D01*
X3627991Y-11247222D01*
X3663729Y-11276552D01*
X3765186Y-11359814D01*
X3848448Y-11461271D01*
X3877778Y-11497009D01*
X3877779Y-11497011D01*
X3961443Y-11653533D01*
X3961443Y-11653534D01*
X4012963Y-11823373D01*
X4030359Y-12000000D01*
X4012963Y-12176627D01*
X3978616Y-12289853D01*
X3961443Y-12346467D01*
X3887348Y-12485087D01*
X3877778Y-12502991D01*
X3848448Y-12538729D01*
X3765186Y-12640186D01*
X3675700Y-12713624D01*
X3627991Y-12752778D01*
X3627989Y-12752779D01*
X3471467Y-12836443D01*
X3414853Y-12853616D01*
X3301627Y-12887963D01*
X3235442Y-12894482D01*
X3169260Y-12901000D01*
X2830740Y-12901000D01*
X2764558Y-12894482D01*
X2698373Y-12887963D01*
X2585147Y-12853616D01*
X2528533Y-12836443D01*
X2372011Y-12752779D01*
X2372009Y-12752778D01*
X2324300Y-12713624D01*
X2234814Y-12640186D01*
X2151552Y-12538729D01*
X2122222Y-12502991D01*
X2112652Y-12485087D01*
X2038557Y-12346467D01*
X2021384Y-12289853D01*
X1987037Y-12176627D01*
X1969641Y-12000000D01*
X1987037Y-11823373D01*
X2038557Y-11653534D01*
X2038557Y-11653533D01*
X2122221Y-11497011D01*
X2122222Y-11497009D01*
X2151552Y-11461271D01*
X2234814Y-11359814D01*
X2336271Y-11276552D01*
X2372009Y-11247222D01*
X2389913Y-11237652D01*
X2528533Y-11163557D01*
X2585147Y-11146384D01*
X2698373Y-11112037D01*
X2764558Y-11105518D01*
X2830740Y-11099000D01*
X3169260Y-11099000D01*
X3235442Y-11105518D01*
X3235442Y-11105518D01*
G37*
G36*
X68762812Y-10173624D02*
G01*
X68926784Y-10241544D01*
X69074354Y-10340147D01*
X69199853Y-10465646D01*
X69298456Y-10613216D01*
X69366376Y-10777188D01*
X69401000Y-10951259D01*
X69401000Y-11128741D01*
X69366376Y-11302812D01*
X69298456Y-11466784D01*
X69199853Y-11614354D01*
X69074354Y-11739853D01*
X68926784Y-11838456D01*
X68762812Y-11906376D01*
X68588741Y-11941000D01*
X68411259Y-11941000D01*
X68237188Y-11906376D01*
X68073216Y-11838456D01*
X67925646Y-11739853D01*
X67800147Y-11614354D01*
X67701544Y-11466784D01*
X67633624Y-11302812D01*
X67599000Y-11128741D01*
X67599000Y-10951259D01*
X67633624Y-10777188D01*
X67701544Y-10613216D01*
X67800147Y-10465646D01*
X67925646Y-10340147D01*
X68073216Y-10241544D01*
X68237188Y-10173624D01*
X68411259Y-10139000D01*
X68588741Y-10139000D01*
X68762812Y-10173624D01*
X68762812Y-10173624D01*
G37*
G36*
X71302812Y-10173624D02*
G01*
X71466784Y-10241544D01*
X71614354Y-10340147D01*
X71739853Y-10465646D01*
X71838456Y-10613216D01*
X71906376Y-10777188D01*
X71941000Y-10951259D01*
X71941000Y-11128741D01*
X71906376Y-11302812D01*
X71838456Y-11466784D01*
X71739853Y-11614354D01*
X71614354Y-11739853D01*
X71466784Y-11838456D01*
X71302812Y-11906376D01*
X71128741Y-11941000D01*
X70951259Y-11941000D01*
X70777188Y-11906376D01*
X70613216Y-11838456D01*
X70465646Y-11739853D01*
X70340147Y-11614354D01*
X70241544Y-11466784D01*
X70173624Y-11302812D01*
X70139000Y-11128741D01*
X70139000Y-10951259D01*
X70173624Y-10777188D01*
X70241544Y-10613216D01*
X70340147Y-10465646D01*
X70465646Y-10340147D01*
X70613216Y-10241544D01*
X70777188Y-10173624D01*
X70951259Y-10139000D01*
X71128741Y-10139000D01*
X71302812Y-10173624D01*
X71302812Y-10173624D01*
G37*
G36*
X3883600Y-8602989D02*
G01*
X3916649Y-8613014D01*
X3947106Y-8629294D01*
X3973799Y-8651201D01*
X3995706Y-8677894D01*
X4011986Y-8708351D01*
X4022011Y-8741400D01*
X4026000Y-8781904D01*
X4026000Y-10218096D01*
X4022011Y-10258600D01*
X4011986Y-10291649D01*
X3995706Y-10322106D01*
X3973799Y-10348799D01*
X3947106Y-10370706D01*
X3916649Y-10386986D01*
X3883600Y-10397011D01*
X3843096Y-10401000D01*
X2156904Y-10401000D01*
X2116400Y-10397011D01*
X2083351Y-10386986D01*
X2052894Y-10370706D01*
X2026201Y-10348799D01*
X2004294Y-10322106D01*
X1988014Y-10291649D01*
X1977989Y-10258600D01*
X1974000Y-10218096D01*
X1974000Y-8781904D01*
X1977989Y-8741400D01*
X1988014Y-8708351D01*
X2004294Y-8677894D01*
X2026201Y-8651201D01*
X2052894Y-8629294D01*
X2083351Y-8613014D01*
X2116400Y-8602989D01*
X2156904Y-8599000D01*
X3843096Y-8599000D01*
X3883600Y-8602989D01*
X3883600Y-8602989D01*
G37*
G36*
X68762812Y-7633624D02*
G01*
X68926784Y-7701544D01*
X69074354Y-7800147D01*
X69199853Y-7925646D01*
X69298456Y-8073216D01*
X69366376Y-8237188D01*
X69401000Y-8411259D01*
X69401000Y-8588741D01*
X69366376Y-8762812D01*
X69298456Y-8926784D01*
X69199853Y-9074354D01*
X69074354Y-9199853D01*
X68926784Y-9298456D01*
X68762812Y-9366376D01*
X68588741Y-9401000D01*
X68411259Y-9401000D01*
X68237188Y-9366376D01*
X68073216Y-9298456D01*
X67925646Y-9199853D01*
X67800147Y-9074354D01*
X67701544Y-8926784D01*
X67633624Y-8762812D01*
X67599000Y-8588741D01*
X67599000Y-8411259D01*
X67633624Y-8237188D01*
X67701544Y-8073216D01*
X67800147Y-7925646D01*
X67925646Y-7800147D01*
X68073216Y-7701544D01*
X68237188Y-7633624D01*
X68411259Y-7599000D01*
X68588741Y-7599000D01*
X68762812Y-7633624D01*
X68762812Y-7633624D01*
G37*
G36*
X71302812Y-7633624D02*
G01*
X71466784Y-7701544D01*
X71614354Y-7800147D01*
X71739853Y-7925646D01*
X71838456Y-8073216D01*
X71906376Y-8237188D01*
X71941000Y-8411259D01*
X71941000Y-8588741D01*
X71906376Y-8762812D01*
X71838456Y-8926784D01*
X71739853Y-9074354D01*
X71614354Y-9199853D01*
X71466784Y-9298456D01*
X71302812Y-9366376D01*
X71128741Y-9401000D01*
X70951259Y-9401000D01*
X70777188Y-9366376D01*
X70613216Y-9298456D01*
X70465646Y-9199853D01*
X70340147Y-9074354D01*
X70241544Y-8926784D01*
X70173624Y-8762812D01*
X70139000Y-8588741D01*
X70139000Y-8411259D01*
X70173624Y-8237188D01*
X70241544Y-8073216D01*
X70340147Y-7925646D01*
X70465646Y-7800147D01*
X70613216Y-7701544D01*
X70777188Y-7633624D01*
X70951259Y-7599000D01*
X71128741Y-7599000D01*
X71302812Y-7633624D01*
X71302812Y-7633624D01*
G37*
G36*
X54166821Y-6541313D02*
G01*
X54166824Y-6541314D01*
X54166825Y-6541314D01*
X54327239Y-6589975D01*
X54327241Y-6589976D01*
X54327244Y-6589977D01*
X54475078Y-6668995D01*
X54604659Y-6775341D01*
X54711005Y-6904922D01*
X54790023Y-7052756D01*
X54838687Y-7213179D01*
X54855117Y-7380000D01*
X54838687Y-7546821D01*
X54838686Y-7546824D01*
X54838686Y-7546825D01*
X54791753Y-7701544D01*
X54790023Y-7707244D01*
X54711005Y-7855078D01*
X54604659Y-7984659D01*
X54475078Y-8091005D01*
X54327244Y-8170023D01*
X54327241Y-8170024D01*
X54327239Y-8170025D01*
X54166825Y-8218686D01*
X54166824Y-8218686D01*
X54166821Y-8218687D01*
X54041804Y-8231000D01*
X53958196Y-8231000D01*
X53833179Y-8218687D01*
X53833176Y-8218686D01*
X53833175Y-8218686D01*
X53672761Y-8170025D01*
X53672759Y-8170024D01*
X53672756Y-8170023D01*
X53524922Y-8091005D01*
X53395341Y-7984659D01*
X53288995Y-7855078D01*
X53209977Y-7707244D01*
X53208248Y-7701544D01*
X53161314Y-7546825D01*
X53161314Y-7546824D01*
X53161313Y-7546821D01*
X53144883Y-7380000D01*
X53161313Y-7213179D01*
X53209977Y-7052756D01*
X53288995Y-6904922D01*
X53395341Y-6775341D01*
X53524922Y-6668995D01*
X53672756Y-6589977D01*
X53672759Y-6589976D01*
X53672761Y-6589975D01*
X53833175Y-6541314D01*
X53833176Y-6541314D01*
X53833179Y-6541313D01*
X53958196Y-6529000D01*
X54041804Y-6529000D01*
X54166821Y-6541313D01*
X54166821Y-6541313D01*
G37*
G36*
X60626821Y-6541313D02*
G01*
X60626824Y-6541314D01*
X60626825Y-6541314D01*
X60787239Y-6589975D01*
X60787241Y-6589976D01*
X60787244Y-6589977D01*
X60935078Y-6668995D01*
X61064659Y-6775341D01*
X61171005Y-6904922D01*
X61250023Y-7052756D01*
X61298687Y-7213179D01*
X61315117Y-7380000D01*
X61298687Y-7546821D01*
X61298686Y-7546824D01*
X61298686Y-7546825D01*
X61251753Y-7701544D01*
X61250023Y-7707244D01*
X61171005Y-7855078D01*
X61064659Y-7984659D01*
X60935078Y-8091005D01*
X60787244Y-8170023D01*
X60787241Y-8170024D01*
X60787239Y-8170025D01*
X60626825Y-8218686D01*
X60626824Y-8218686D01*
X60626821Y-8218687D01*
X60501804Y-8231000D01*
X60418196Y-8231000D01*
X60293179Y-8218687D01*
X60293176Y-8218686D01*
X60293175Y-8218686D01*
X60132761Y-8170025D01*
X60132759Y-8170024D01*
X60132756Y-8170023D01*
X59984922Y-8091005D01*
X59855341Y-7984659D01*
X59748995Y-7855078D01*
X59669977Y-7707244D01*
X59668248Y-7701544D01*
X59621314Y-7546825D01*
X59621314Y-7546824D01*
X59621313Y-7546821D01*
X59604883Y-7380000D01*
X59621313Y-7213179D01*
X59669977Y-7052756D01*
X59748995Y-6904922D01*
X59855341Y-6775341D01*
X59984922Y-6668995D01*
X60132756Y-6589977D01*
X60132759Y-6589976D01*
X60132761Y-6589975D01*
X60293175Y-6541314D01*
X60293176Y-6541314D01*
X60293179Y-6541313D01*
X60418196Y-6529000D01*
X60501804Y-6529000D01*
X60626821Y-6541313D01*
X60626821Y-6541313D01*
G37*
G36*
X56706821Y-6541313D02*
G01*
X56706824Y-6541314D01*
X56706825Y-6541314D01*
X56867239Y-6589975D01*
X56867241Y-6589976D01*
X56867244Y-6589977D01*
X57015078Y-6668995D01*
X57144659Y-6775341D01*
X57251005Y-6904922D01*
X57330023Y-7052756D01*
X57378687Y-7213179D01*
X57395117Y-7380000D01*
X57378687Y-7546821D01*
X57378686Y-7546824D01*
X57378686Y-7546825D01*
X57331753Y-7701544D01*
X57330023Y-7707244D01*
X57251005Y-7855078D01*
X57144659Y-7984659D01*
X57015078Y-8091005D01*
X56867244Y-8170023D01*
X56867241Y-8170024D01*
X56867239Y-8170025D01*
X56706825Y-8218686D01*
X56706824Y-8218686D01*
X56706821Y-8218687D01*
X56581804Y-8231000D01*
X56498196Y-8231000D01*
X56373179Y-8218687D01*
X56373176Y-8218686D01*
X56373175Y-8218686D01*
X56212761Y-8170025D01*
X56212759Y-8170024D01*
X56212756Y-8170023D01*
X56064922Y-8091005D01*
X55935341Y-7984659D01*
X55828995Y-7855078D01*
X55749977Y-7707244D01*
X55748248Y-7701544D01*
X55701314Y-7546825D01*
X55701314Y-7546824D01*
X55701313Y-7546821D01*
X55684883Y-7380000D01*
X55701313Y-7213179D01*
X55749977Y-7052756D01*
X55828995Y-6904922D01*
X55935341Y-6775341D01*
X56064922Y-6668995D01*
X56212756Y-6589977D01*
X56212759Y-6589976D01*
X56212761Y-6589975D01*
X56373175Y-6541314D01*
X56373176Y-6541314D01*
X56373179Y-6541313D01*
X56498196Y-6529000D01*
X56581804Y-6529000D01*
X56706821Y-6541313D01*
X56706821Y-6541313D01*
G37*
G36*
X63851000Y-8231000D02*
G01*
X62149000Y-8231000D01*
X62149000Y-6529000D01*
X63851000Y-6529000D01*
X63851000Y-8231000D01*
X63851000Y-8231000D01*
G37*
G36*
X69401000Y-6861000D02*
G01*
X67599000Y-6861000D01*
X67599000Y-5059000D01*
X69401000Y-5059000D01*
X69401000Y-6861000D01*
X69401000Y-6861000D01*
G37*
G36*
X71302812Y-5093624D02*
G01*
X71466784Y-5161544D01*
X71614354Y-5260147D01*
X71739853Y-5385646D01*
X71838456Y-5533216D01*
X71906376Y-5697188D01*
X71941000Y-5871259D01*
X71941000Y-6048741D01*
X71906376Y-6222812D01*
X71838456Y-6386784D01*
X71739853Y-6534354D01*
X71614354Y-6659853D01*
X71466784Y-6758456D01*
X71302812Y-6826376D01*
X71128741Y-6861000D01*
X70951259Y-6861000D01*
X70777188Y-6826376D01*
X70613216Y-6758456D01*
X70465646Y-6659853D01*
X70340147Y-6534354D01*
X70241544Y-6386784D01*
X70173624Y-6222812D01*
X70139000Y-6048741D01*
X70139000Y-5871259D01*
X70173624Y-5697188D01*
X70241544Y-5533216D01*
X70340147Y-5385646D01*
X70465646Y-5260147D01*
X70613216Y-5161544D01*
X70777188Y-5093624D01*
X70951259Y-5059000D01*
X71128741Y-5059000D01*
X71302812Y-5093624D01*
X71302812Y-5093624D01*
G37*
G36*
X62335734Y-1893232D02*
G01*
X62545202Y-1979996D01*
X62733723Y-2105962D01*
X62894038Y-2266277D01*
X63020004Y-2454798D01*
X63106768Y-2664266D01*
X63151000Y-2886635D01*
X63151000Y-3113365D01*
X63106768Y-3335734D01*
X63020004Y-3545202D01*
X62894038Y-3733723D01*
X62733723Y-3894038D01*
X62545202Y-4020004D01*
X62335734Y-4106768D01*
X62113365Y-4151000D01*
X61886635Y-4151000D01*
X61664266Y-4106768D01*
X61454798Y-4020004D01*
X61266277Y-3894038D01*
X61105962Y-3733723D01*
X60979996Y-3545202D01*
X60893232Y-3335734D01*
X60849000Y-3113365D01*
X60849000Y-2886635D01*
X60893232Y-2664266D01*
X60979996Y-2454798D01*
X61105962Y-2266277D01*
X61266277Y-2105962D01*
X61454798Y-1979996D01*
X61664266Y-1893232D01*
X61886635Y-1849000D01*
X62113365Y-1849000D01*
X62335734Y-1893232D01*
X62335734Y-1893232D01*
G37*
G36*
X3335734Y-1893232D02*
G01*
X3545202Y-1979996D01*
X3733723Y-2105962D01*
X3894038Y-2266277D01*
X4020004Y-2454798D01*
X4106768Y-2664266D01*
X4151000Y-2886635D01*
X4151000Y-3113365D01*
X4106768Y-3335734D01*
X4020004Y-3545202D01*
X3894038Y-3733723D01*
X3733723Y-3894038D01*
X3545202Y-4020004D01*
X3335734Y-4106768D01*
X3113365Y-4151000D01*
X2886635Y-4151000D01*
X2664266Y-4106768D01*
X2454798Y-4020004D01*
X2266277Y-3894038D01*
X2105962Y-3733723D01*
X1979996Y-3545202D01*
X1893232Y-3335734D01*
X1849000Y-3113365D01*
X1849000Y-2886635D01*
X1893232Y-2664266D01*
X1979996Y-2454798D01*
X2105962Y-2266277D01*
X2266277Y-2105962D01*
X2454798Y-1979996D01*
X2664266Y-1893232D01*
X2886635Y-1849000D01*
X3113365Y-1849000D01*
X3335734Y-1893232D01*
X3335734Y-1893232D01*
G37*
G36*
X44676627Y-1962037D02*
G01*
X44782562Y-1994172D01*
X44846467Y-2013557D01*
X44977040Y-2083351D01*
X45002991Y-2097222D01*
X45026359Y-2116400D01*
X45140186Y-2209814D01*
X45223448Y-2311271D01*
X45252778Y-2347009D01*
X45336443Y-2503534D01*
X45387963Y-2673374D01*
X45401000Y-2805743D01*
X45401000Y-3194258D01*
X45387963Y-3326627D01*
X45385200Y-3335734D01*
X45336443Y-3496467D01*
X45266142Y-3627989D01*
X45252778Y-3652991D01*
X45223448Y-3688729D01*
X45140186Y-3790186D01*
X45002989Y-3902779D01*
X44846466Y-3986443D01*
X44815929Y-3995706D01*
X44676626Y-4037963D01*
X44500000Y-4055359D01*
X44323373Y-4037963D01*
X44184070Y-3995706D01*
X44153533Y-3986443D01*
X43997011Y-3902779D01*
X43997009Y-3902778D01*
X43947822Y-3862411D01*
X43859814Y-3790186D01*
X43747221Y-3652989D01*
X43663557Y-3496466D01*
X43614800Y-3335734D01*
X43612037Y-3326626D01*
X43599000Y-3194257D01*
X43599000Y-2805742D01*
X43612037Y-2673373D01*
X43655973Y-2528534D01*
X43663557Y-2503533D01*
X43747222Y-2347008D01*
X43859812Y-2209817D01*
X43954750Y-2131904D01*
X43997010Y-2097222D01*
X44022961Y-2083351D01*
X44153534Y-2013557D01*
X44217439Y-1994172D01*
X44323374Y-1962037D01*
X44500000Y-1944641D01*
X44676627Y-1962037D01*
X44676627Y-1962037D01*
G37*
G36*
X53676627Y-1962037D02*
G01*
X53782562Y-1994172D01*
X53846467Y-2013557D01*
X53977040Y-2083351D01*
X54002991Y-2097222D01*
X54026359Y-2116400D01*
X54140186Y-2209814D01*
X54223448Y-2311271D01*
X54252778Y-2347009D01*
X54336443Y-2503534D01*
X54387963Y-2673374D01*
X54401000Y-2805743D01*
X54401000Y-3194258D01*
X54387963Y-3326627D01*
X54385200Y-3335734D01*
X54336443Y-3496467D01*
X54266142Y-3627989D01*
X54252778Y-3652991D01*
X54223448Y-3688729D01*
X54140186Y-3790186D01*
X54002989Y-3902779D01*
X53846466Y-3986443D01*
X53815929Y-3995706D01*
X53676626Y-4037963D01*
X53500000Y-4055359D01*
X53323373Y-4037963D01*
X53184070Y-3995706D01*
X53153533Y-3986443D01*
X52997011Y-3902779D01*
X52997009Y-3902778D01*
X52947822Y-3862411D01*
X52859814Y-3790186D01*
X52747221Y-3652989D01*
X52663557Y-3496466D01*
X52614800Y-3335734D01*
X52612037Y-3326626D01*
X52599000Y-3194257D01*
X52599000Y-2805742D01*
X52612037Y-2673373D01*
X52655973Y-2528534D01*
X52663557Y-2503533D01*
X52747222Y-2347008D01*
X52859812Y-2209817D01*
X52954750Y-2131904D01*
X52997010Y-2097222D01*
X53022961Y-2083351D01*
X53153534Y-2013557D01*
X53217439Y-1994172D01*
X53323374Y-1962037D01*
X53500000Y-1944641D01*
X53676627Y-1962037D01*
X53676627Y-1962037D01*
G37*
G36*
X47758600Y-1952989D02*
G01*
X47791649Y-1963014D01*
X47822106Y-1979294D01*
X47848799Y-2001201D01*
X47870706Y-2027894D01*
X47886986Y-2058351D01*
X47897011Y-2091400D01*
X47901000Y-2131904D01*
X47901000Y-3868096D01*
X47897011Y-3908600D01*
X47886986Y-3941649D01*
X47870706Y-3972106D01*
X47848799Y-3998799D01*
X47822106Y-4020706D01*
X47791649Y-4036986D01*
X47758600Y-4047011D01*
X47718096Y-4051000D01*
X46281904Y-4051000D01*
X46241400Y-4047011D01*
X46208351Y-4036986D01*
X46177894Y-4020706D01*
X46151201Y-3998799D01*
X46129294Y-3972106D01*
X46113014Y-3941649D01*
X46102989Y-3908600D01*
X46099000Y-3868096D01*
X46099000Y-2131904D01*
X46102989Y-2091400D01*
X46113014Y-2058351D01*
X46129294Y-2027894D01*
X46151201Y-2001201D01*
X46177894Y-1979294D01*
X46208351Y-1963014D01*
X46241400Y-1952989D01*
X46281904Y-1949000D01*
X47718096Y-1949000D01*
X47758600Y-1952989D01*
X47758600Y-1952989D01*
G37*
G36*
X56758600Y-1952989D02*
G01*
X56791649Y-1963014D01*
X56822106Y-1979294D01*
X56848799Y-2001201D01*
X56870706Y-2027894D01*
X56886986Y-2058351D01*
X56897011Y-2091400D01*
X56901000Y-2131904D01*
X56901000Y-3868096D01*
X56897011Y-3908600D01*
X56886986Y-3941649D01*
X56870706Y-3972106D01*
X56848799Y-3998799D01*
X56822106Y-4020706D01*
X56791649Y-4036986D01*
X56758600Y-4047011D01*
X56718096Y-4051000D01*
X55281904Y-4051000D01*
X55241400Y-4047011D01*
X55208351Y-4036986D01*
X55177894Y-4020706D01*
X55151201Y-3998799D01*
X55129294Y-3972106D01*
X55113014Y-3941649D01*
X55102989Y-3908600D01*
X55099000Y-3868096D01*
X55099000Y-2131904D01*
X55102989Y-2091400D01*
X55113014Y-2058351D01*
X55129294Y-2027894D01*
X55151201Y-2001201D01*
X55177894Y-1979294D01*
X55208351Y-1963014D01*
X55241400Y-1952989D01*
X55281904Y-1949000D01*
X56718096Y-1949000D01*
X56758600Y-1952989D01*
X56758600Y-1952989D01*
G37*
G36*
X35676627Y-1987037D02*
G01*
X35789853Y-2021384D01*
X35846467Y-2038557D01*
X35956218Y-2097221D01*
X36002991Y-2122222D01*
X36038729Y-2151552D01*
X36140186Y-2234814D01*
X36223448Y-2336271D01*
X36252778Y-2372009D01*
X36336443Y-2528534D01*
X36387963Y-2698374D01*
X36387963Y-2698376D01*
X36398538Y-2805740D01*
X36401000Y-2830743D01*
X36401000Y-3169258D01*
X36387963Y-3301627D01*
X36353616Y-3414853D01*
X36336443Y-3471467D01*
X36262348Y-3610087D01*
X36252778Y-3627991D01*
X36232262Y-3652990D01*
X36140186Y-3765186D01*
X36002989Y-3877779D01*
X35846466Y-3961443D01*
X35811314Y-3972106D01*
X35676626Y-4012963D01*
X35500000Y-4030359D01*
X35323373Y-4012963D01*
X35188685Y-3972106D01*
X35153533Y-3961443D01*
X34997011Y-3877779D01*
X34997009Y-3877778D01*
X34948173Y-3837699D01*
X34859814Y-3765186D01*
X34747221Y-3627989D01*
X34663557Y-3471466D01*
X34619621Y-3326626D01*
X34612037Y-3301626D01*
X34605519Y-3235442D01*
X34599000Y-3169259D01*
X34599000Y-2830740D01*
X34612037Y-2698375D01*
X34612037Y-2698373D01*
X34663557Y-2528534D01*
X34663557Y-2528533D01*
X34747222Y-2372008D01*
X34859812Y-2234817D01*
X34954750Y-2156904D01*
X34997010Y-2122222D01*
X35043783Y-2097221D01*
X35153534Y-2038557D01*
X35210148Y-2021384D01*
X35323374Y-1987037D01*
X35500000Y-1969641D01*
X35676627Y-1987037D01*
X35676627Y-1987037D01*
G37*
G36*
X30676627Y-1987037D02*
G01*
X30789853Y-2021384D01*
X30846467Y-2038557D01*
X30956218Y-2097221D01*
X31002991Y-2122222D01*
X31038729Y-2151552D01*
X31140186Y-2234814D01*
X31223448Y-2336271D01*
X31252778Y-2372009D01*
X31336443Y-2528534D01*
X31387963Y-2698374D01*
X31387963Y-2698376D01*
X31398538Y-2805740D01*
X31401000Y-2830743D01*
X31401000Y-3169258D01*
X31387963Y-3301627D01*
X31353616Y-3414853D01*
X31336443Y-3471467D01*
X31262348Y-3610087D01*
X31252778Y-3627991D01*
X31232262Y-3652990D01*
X31140186Y-3765186D01*
X31002989Y-3877779D01*
X30846466Y-3961443D01*
X30811314Y-3972106D01*
X30676626Y-4012963D01*
X30500000Y-4030359D01*
X30323373Y-4012963D01*
X30188685Y-3972106D01*
X30153533Y-3961443D01*
X29997011Y-3877779D01*
X29997009Y-3877778D01*
X29948173Y-3837699D01*
X29859814Y-3765186D01*
X29747221Y-3627989D01*
X29663557Y-3471466D01*
X29619621Y-3326626D01*
X29612037Y-3301626D01*
X29605519Y-3235442D01*
X29599000Y-3169259D01*
X29599000Y-2830740D01*
X29612037Y-2698375D01*
X29612037Y-2698373D01*
X29663557Y-2528534D01*
X29663557Y-2528533D01*
X29747222Y-2372008D01*
X29859812Y-2234817D01*
X29954750Y-2156904D01*
X29997010Y-2122222D01*
X30043783Y-2097221D01*
X30153534Y-2038557D01*
X30210148Y-2021384D01*
X30323374Y-1987037D01*
X30500000Y-1969641D01*
X30676627Y-1987037D01*
X30676627Y-1987037D01*
G37*
G36*
X33176627Y-1987037D02*
G01*
X33289853Y-2021384D01*
X33346467Y-2038557D01*
X33456218Y-2097221D01*
X33502991Y-2122222D01*
X33538729Y-2151552D01*
X33640186Y-2234814D01*
X33723448Y-2336271D01*
X33752778Y-2372009D01*
X33836443Y-2528534D01*
X33887963Y-2698374D01*
X33887963Y-2698376D01*
X33898538Y-2805740D01*
X33901000Y-2830743D01*
X33901000Y-3169258D01*
X33887963Y-3301627D01*
X33853616Y-3414853D01*
X33836443Y-3471467D01*
X33762348Y-3610087D01*
X33752778Y-3627991D01*
X33732262Y-3652990D01*
X33640186Y-3765186D01*
X33502989Y-3877779D01*
X33346466Y-3961443D01*
X33311314Y-3972106D01*
X33176626Y-4012963D01*
X33000000Y-4030359D01*
X32823373Y-4012963D01*
X32688685Y-3972106D01*
X32653533Y-3961443D01*
X32497011Y-3877779D01*
X32497009Y-3877778D01*
X32448173Y-3837699D01*
X32359814Y-3765186D01*
X32247221Y-3627989D01*
X32163557Y-3471466D01*
X32119621Y-3326626D01*
X32112037Y-3301626D01*
X32105519Y-3235442D01*
X32099000Y-3169259D01*
X32099000Y-2830740D01*
X32112037Y-2698375D01*
X32112037Y-2698373D01*
X32163557Y-2528534D01*
X32163557Y-2528533D01*
X32247222Y-2372008D01*
X32359812Y-2234817D01*
X32454750Y-2156904D01*
X32497010Y-2122222D01*
X32543783Y-2097221D01*
X32653534Y-2038557D01*
X32710148Y-2021384D01*
X32823374Y-1987037D01*
X33000000Y-1969641D01*
X33176627Y-1987037D01*
X33176627Y-1987037D01*
G37*
G36*
X38758600Y-1977989D02*
G01*
X38791649Y-1988014D01*
X38822106Y-2004294D01*
X38848799Y-2026201D01*
X38870706Y-2052894D01*
X38886986Y-2083351D01*
X38897011Y-2116400D01*
X38901000Y-2156904D01*
X38901000Y-3843096D01*
X38897011Y-3883600D01*
X38886986Y-3916649D01*
X38870706Y-3947106D01*
X38848799Y-3973799D01*
X38822106Y-3995706D01*
X38791649Y-4011986D01*
X38758600Y-4022011D01*
X38718096Y-4026000D01*
X37281904Y-4026000D01*
X37241400Y-4022011D01*
X37208351Y-4011986D01*
X37177894Y-3995706D01*
X37151201Y-3973799D01*
X37129294Y-3947106D01*
X37113014Y-3916649D01*
X37102989Y-3883600D01*
X37099000Y-3843096D01*
X37099000Y-2156904D01*
X37102989Y-2116400D01*
X37113014Y-2083351D01*
X37129294Y-2052894D01*
X37151201Y-2026201D01*
X37177894Y-2004294D01*
X37208351Y-1988014D01*
X37241400Y-1977989D01*
X37281904Y-1974000D01*
X38718096Y-1974000D01*
X38758600Y-1977989D01*
X38758600Y-1977989D01*
G37*
M02*
