G04 #@! TF.GenerationSoftware,KiCad,Pcbnew,6.0.0-rc1-unknown-179dfa0~84~ubuntu18.04.1*
G04 #@! TF.CreationDate,2019-04-16T21:03:25-07:00
G04 #@! TF.ProjectId,big_battery_v3,6269675f-6261-4747-9465-72795f76332e,rev?*
G04 #@! TF.SameCoordinates,Original*
G04 #@! TF.FileFunction,Paste,Top*
G04 #@! TF.FilePolarity,Positive*
%FSLAX46Y46*%
G04 Gerber Fmt 4.6, Leading zero omitted, Abs format (unit mm)*
G04 Created by KiCad (PCBNEW 6.0.0-rc1-unknown-179dfa0~84~ubuntu18.04.1) date Tue 16 Apr 2019 09:03:25 PM PDT*
%MOMM*%
%LPD*%
G04 APERTURE LIST*
%ADD10R,1.000000X1.000000*%
%ADD11R,0.300000X0.300000*%
%ADD12R,0.900000X0.300000*%
%ADD13R,0.300000X0.900000*%
%ADD14R,0.540000X0.540000*%
%ADD15C,0.100000*%
%ADD16C,0.950000*%
%ADD17R,0.600000X1.550000*%
%ADD18R,1.900000X0.800000*%
%ADD19R,0.600000X1.500000*%
%ADD20R,2.000000X3.800000*%
%ADD21R,2.000000X1.500000*%
G04 APERTURE END LIST*
D10*
X18750000Y-16000000D03*
X21250000Y-16000000D03*
D11*
X59350000Y-30850000D03*
D12*
X59050000Y-31350000D03*
X59050000Y-31850000D03*
X59050000Y-32350000D03*
X59050000Y-32850000D03*
D11*
X59350000Y-33350000D03*
D13*
X59850000Y-33650000D03*
X60350000Y-33650000D03*
X60850000Y-33650000D03*
X61350000Y-33650000D03*
D11*
X61850000Y-33350000D03*
D12*
X62150000Y-32850000D03*
X62150000Y-32350000D03*
X62150000Y-31850000D03*
X62150000Y-31350000D03*
D11*
X61850000Y-30850000D03*
D13*
X61350000Y-30550000D03*
X60850000Y-30550000D03*
X60350000Y-30550000D03*
X59850000Y-30550000D03*
D14*
X60150000Y-31650000D03*
X60150000Y-32550000D03*
X61050000Y-31650000D03*
X61050000Y-32550000D03*
D15*
G36*
X8435779Y-32126144D02*
G01*
X8458834Y-32129563D01*
X8481443Y-32135227D01*
X8503387Y-32143079D01*
X8524457Y-32153044D01*
X8544448Y-32165026D01*
X8563168Y-32178910D01*
X8580438Y-32194562D01*
X8596090Y-32211832D01*
X8609974Y-32230552D01*
X8621956Y-32250543D01*
X8631921Y-32271613D01*
X8639773Y-32293557D01*
X8645437Y-32316166D01*
X8648856Y-32339221D01*
X8650000Y-32362500D01*
X8650000Y-32837500D01*
X8648856Y-32860779D01*
X8645437Y-32883834D01*
X8639773Y-32906443D01*
X8631921Y-32928387D01*
X8621956Y-32949457D01*
X8609974Y-32969448D01*
X8596090Y-32988168D01*
X8580438Y-33005438D01*
X8563168Y-33021090D01*
X8544448Y-33034974D01*
X8524457Y-33046956D01*
X8503387Y-33056921D01*
X8481443Y-33064773D01*
X8458834Y-33070437D01*
X8435779Y-33073856D01*
X8412500Y-33075000D01*
X7837500Y-33075000D01*
X7814221Y-33073856D01*
X7791166Y-33070437D01*
X7768557Y-33064773D01*
X7746613Y-33056921D01*
X7725543Y-33046956D01*
X7705552Y-33034974D01*
X7686832Y-33021090D01*
X7669562Y-33005438D01*
X7653910Y-32988168D01*
X7640026Y-32969448D01*
X7628044Y-32949457D01*
X7618079Y-32928387D01*
X7610227Y-32906443D01*
X7604563Y-32883834D01*
X7601144Y-32860779D01*
X7600000Y-32837500D01*
X7600000Y-32362500D01*
X7601144Y-32339221D01*
X7604563Y-32316166D01*
X7610227Y-32293557D01*
X7618079Y-32271613D01*
X7628044Y-32250543D01*
X7640026Y-32230552D01*
X7653910Y-32211832D01*
X7669562Y-32194562D01*
X7686832Y-32178910D01*
X7705552Y-32165026D01*
X7725543Y-32153044D01*
X7746613Y-32143079D01*
X7768557Y-32135227D01*
X7791166Y-32129563D01*
X7814221Y-32126144D01*
X7837500Y-32125000D01*
X8412500Y-32125000D01*
X8435779Y-32126144D01*
X8435779Y-32126144D01*
G37*
D16*
X8125000Y-32600000D03*
D15*
G36*
X10185779Y-32126144D02*
G01*
X10208834Y-32129563D01*
X10231443Y-32135227D01*
X10253387Y-32143079D01*
X10274457Y-32153044D01*
X10294448Y-32165026D01*
X10313168Y-32178910D01*
X10330438Y-32194562D01*
X10346090Y-32211832D01*
X10359974Y-32230552D01*
X10371956Y-32250543D01*
X10381921Y-32271613D01*
X10389773Y-32293557D01*
X10395437Y-32316166D01*
X10398856Y-32339221D01*
X10400000Y-32362500D01*
X10400000Y-32837500D01*
X10398856Y-32860779D01*
X10395437Y-32883834D01*
X10389773Y-32906443D01*
X10381921Y-32928387D01*
X10371956Y-32949457D01*
X10359974Y-32969448D01*
X10346090Y-32988168D01*
X10330438Y-33005438D01*
X10313168Y-33021090D01*
X10294448Y-33034974D01*
X10274457Y-33046956D01*
X10253387Y-33056921D01*
X10231443Y-33064773D01*
X10208834Y-33070437D01*
X10185779Y-33073856D01*
X10162500Y-33075000D01*
X9587500Y-33075000D01*
X9564221Y-33073856D01*
X9541166Y-33070437D01*
X9518557Y-33064773D01*
X9496613Y-33056921D01*
X9475543Y-33046956D01*
X9455552Y-33034974D01*
X9436832Y-33021090D01*
X9419562Y-33005438D01*
X9403910Y-32988168D01*
X9390026Y-32969448D01*
X9378044Y-32949457D01*
X9368079Y-32928387D01*
X9360227Y-32906443D01*
X9354563Y-32883834D01*
X9351144Y-32860779D01*
X9350000Y-32837500D01*
X9350000Y-32362500D01*
X9351144Y-32339221D01*
X9354563Y-32316166D01*
X9360227Y-32293557D01*
X9368079Y-32271613D01*
X9378044Y-32250543D01*
X9390026Y-32230552D01*
X9403910Y-32211832D01*
X9419562Y-32194562D01*
X9436832Y-32178910D01*
X9455552Y-32165026D01*
X9475543Y-32153044D01*
X9496613Y-32143079D01*
X9518557Y-32135227D01*
X9541166Y-32129563D01*
X9564221Y-32126144D01*
X9587500Y-32125000D01*
X10162500Y-32125000D01*
X10185779Y-32126144D01*
X10185779Y-32126144D01*
G37*
D16*
X9875000Y-32600000D03*
D15*
G36*
X51060779Y-14526144D02*
G01*
X51083834Y-14529563D01*
X51106443Y-14535227D01*
X51128387Y-14543079D01*
X51149457Y-14553044D01*
X51169448Y-14565026D01*
X51188168Y-14578910D01*
X51205438Y-14594562D01*
X51221090Y-14611832D01*
X51234974Y-14630552D01*
X51246956Y-14650543D01*
X51256921Y-14671613D01*
X51264773Y-14693557D01*
X51270437Y-14716166D01*
X51273856Y-14739221D01*
X51275000Y-14762500D01*
X51275000Y-15237500D01*
X51273856Y-15260779D01*
X51270437Y-15283834D01*
X51264773Y-15306443D01*
X51256921Y-15328387D01*
X51246956Y-15349457D01*
X51234974Y-15369448D01*
X51221090Y-15388168D01*
X51205438Y-15405438D01*
X51188168Y-15421090D01*
X51169448Y-15434974D01*
X51149457Y-15446956D01*
X51128387Y-15456921D01*
X51106443Y-15464773D01*
X51083834Y-15470437D01*
X51060779Y-15473856D01*
X51037500Y-15475000D01*
X50462500Y-15475000D01*
X50439221Y-15473856D01*
X50416166Y-15470437D01*
X50393557Y-15464773D01*
X50371613Y-15456921D01*
X50350543Y-15446956D01*
X50330552Y-15434974D01*
X50311832Y-15421090D01*
X50294562Y-15405438D01*
X50278910Y-15388168D01*
X50265026Y-15369448D01*
X50253044Y-15349457D01*
X50243079Y-15328387D01*
X50235227Y-15306443D01*
X50229563Y-15283834D01*
X50226144Y-15260779D01*
X50225000Y-15237500D01*
X50225000Y-14762500D01*
X50226144Y-14739221D01*
X50229563Y-14716166D01*
X50235227Y-14693557D01*
X50243079Y-14671613D01*
X50253044Y-14650543D01*
X50265026Y-14630552D01*
X50278910Y-14611832D01*
X50294562Y-14594562D01*
X50311832Y-14578910D01*
X50330552Y-14565026D01*
X50350543Y-14553044D01*
X50371613Y-14543079D01*
X50393557Y-14535227D01*
X50416166Y-14529563D01*
X50439221Y-14526144D01*
X50462500Y-14525000D01*
X51037500Y-14525000D01*
X51060779Y-14526144D01*
X51060779Y-14526144D01*
G37*
D16*
X50750000Y-15000000D03*
D15*
G36*
X49310779Y-14526144D02*
G01*
X49333834Y-14529563D01*
X49356443Y-14535227D01*
X49378387Y-14543079D01*
X49399457Y-14553044D01*
X49419448Y-14565026D01*
X49438168Y-14578910D01*
X49455438Y-14594562D01*
X49471090Y-14611832D01*
X49484974Y-14630552D01*
X49496956Y-14650543D01*
X49506921Y-14671613D01*
X49514773Y-14693557D01*
X49520437Y-14716166D01*
X49523856Y-14739221D01*
X49525000Y-14762500D01*
X49525000Y-15237500D01*
X49523856Y-15260779D01*
X49520437Y-15283834D01*
X49514773Y-15306443D01*
X49506921Y-15328387D01*
X49496956Y-15349457D01*
X49484974Y-15369448D01*
X49471090Y-15388168D01*
X49455438Y-15405438D01*
X49438168Y-15421090D01*
X49419448Y-15434974D01*
X49399457Y-15446956D01*
X49378387Y-15456921D01*
X49356443Y-15464773D01*
X49333834Y-15470437D01*
X49310779Y-15473856D01*
X49287500Y-15475000D01*
X48712500Y-15475000D01*
X48689221Y-15473856D01*
X48666166Y-15470437D01*
X48643557Y-15464773D01*
X48621613Y-15456921D01*
X48600543Y-15446956D01*
X48580552Y-15434974D01*
X48561832Y-15421090D01*
X48544562Y-15405438D01*
X48528910Y-15388168D01*
X48515026Y-15369448D01*
X48503044Y-15349457D01*
X48493079Y-15328387D01*
X48485227Y-15306443D01*
X48479563Y-15283834D01*
X48476144Y-15260779D01*
X48475000Y-15237500D01*
X48475000Y-14762500D01*
X48476144Y-14739221D01*
X48479563Y-14716166D01*
X48485227Y-14693557D01*
X48493079Y-14671613D01*
X48503044Y-14650543D01*
X48515026Y-14630552D01*
X48528910Y-14611832D01*
X48544562Y-14594562D01*
X48561832Y-14578910D01*
X48580552Y-14565026D01*
X48600543Y-14553044D01*
X48621613Y-14543079D01*
X48643557Y-14535227D01*
X48666166Y-14529563D01*
X48689221Y-14526144D01*
X48712500Y-14525000D01*
X49287500Y-14525000D01*
X49310779Y-14526144D01*
X49310779Y-14526144D01*
G37*
D16*
X49000000Y-15000000D03*
D15*
G36*
X60260779Y-17601144D02*
G01*
X60283834Y-17604563D01*
X60306443Y-17610227D01*
X60328387Y-17618079D01*
X60349457Y-17628044D01*
X60369448Y-17640026D01*
X60388168Y-17653910D01*
X60405438Y-17669562D01*
X60421090Y-17686832D01*
X60434974Y-17705552D01*
X60446956Y-17725543D01*
X60456921Y-17746613D01*
X60464773Y-17768557D01*
X60470437Y-17791166D01*
X60473856Y-17814221D01*
X60475000Y-17837500D01*
X60475000Y-18412500D01*
X60473856Y-18435779D01*
X60470437Y-18458834D01*
X60464773Y-18481443D01*
X60456921Y-18503387D01*
X60446956Y-18524457D01*
X60434974Y-18544448D01*
X60421090Y-18563168D01*
X60405438Y-18580438D01*
X60388168Y-18596090D01*
X60369448Y-18609974D01*
X60349457Y-18621956D01*
X60328387Y-18631921D01*
X60306443Y-18639773D01*
X60283834Y-18645437D01*
X60260779Y-18648856D01*
X60237500Y-18650000D01*
X59762500Y-18650000D01*
X59739221Y-18648856D01*
X59716166Y-18645437D01*
X59693557Y-18639773D01*
X59671613Y-18631921D01*
X59650543Y-18621956D01*
X59630552Y-18609974D01*
X59611832Y-18596090D01*
X59594562Y-18580438D01*
X59578910Y-18563168D01*
X59565026Y-18544448D01*
X59553044Y-18524457D01*
X59543079Y-18503387D01*
X59535227Y-18481443D01*
X59529563Y-18458834D01*
X59526144Y-18435779D01*
X59525000Y-18412500D01*
X59525000Y-17837500D01*
X59526144Y-17814221D01*
X59529563Y-17791166D01*
X59535227Y-17768557D01*
X59543079Y-17746613D01*
X59553044Y-17725543D01*
X59565026Y-17705552D01*
X59578910Y-17686832D01*
X59594562Y-17669562D01*
X59611832Y-17653910D01*
X59630552Y-17640026D01*
X59650543Y-17628044D01*
X59671613Y-17618079D01*
X59693557Y-17610227D01*
X59716166Y-17604563D01*
X59739221Y-17601144D01*
X59762500Y-17600000D01*
X60237500Y-17600000D01*
X60260779Y-17601144D01*
X60260779Y-17601144D01*
G37*
D16*
X60000000Y-18125000D03*
D15*
G36*
X60260779Y-19351144D02*
G01*
X60283834Y-19354563D01*
X60306443Y-19360227D01*
X60328387Y-19368079D01*
X60349457Y-19378044D01*
X60369448Y-19390026D01*
X60388168Y-19403910D01*
X60405438Y-19419562D01*
X60421090Y-19436832D01*
X60434974Y-19455552D01*
X60446956Y-19475543D01*
X60456921Y-19496613D01*
X60464773Y-19518557D01*
X60470437Y-19541166D01*
X60473856Y-19564221D01*
X60475000Y-19587500D01*
X60475000Y-20162500D01*
X60473856Y-20185779D01*
X60470437Y-20208834D01*
X60464773Y-20231443D01*
X60456921Y-20253387D01*
X60446956Y-20274457D01*
X60434974Y-20294448D01*
X60421090Y-20313168D01*
X60405438Y-20330438D01*
X60388168Y-20346090D01*
X60369448Y-20359974D01*
X60349457Y-20371956D01*
X60328387Y-20381921D01*
X60306443Y-20389773D01*
X60283834Y-20395437D01*
X60260779Y-20398856D01*
X60237500Y-20400000D01*
X59762500Y-20400000D01*
X59739221Y-20398856D01*
X59716166Y-20395437D01*
X59693557Y-20389773D01*
X59671613Y-20381921D01*
X59650543Y-20371956D01*
X59630552Y-20359974D01*
X59611832Y-20346090D01*
X59594562Y-20330438D01*
X59578910Y-20313168D01*
X59565026Y-20294448D01*
X59553044Y-20274457D01*
X59543079Y-20253387D01*
X59535227Y-20231443D01*
X59529563Y-20208834D01*
X59526144Y-20185779D01*
X59525000Y-20162500D01*
X59525000Y-19587500D01*
X59526144Y-19564221D01*
X59529563Y-19541166D01*
X59535227Y-19518557D01*
X59543079Y-19496613D01*
X59553044Y-19475543D01*
X59565026Y-19455552D01*
X59578910Y-19436832D01*
X59594562Y-19419562D01*
X59611832Y-19403910D01*
X59630552Y-19390026D01*
X59650543Y-19378044D01*
X59671613Y-19368079D01*
X59693557Y-19360227D01*
X59716166Y-19354563D01*
X59739221Y-19351144D01*
X59762500Y-19350000D01*
X60237500Y-19350000D01*
X60260779Y-19351144D01*
X60260779Y-19351144D01*
G37*
D16*
X60000000Y-19875000D03*
D15*
G36*
X36435779Y-15526144D02*
G01*
X36458834Y-15529563D01*
X36481443Y-15535227D01*
X36503387Y-15543079D01*
X36524457Y-15553044D01*
X36544448Y-15565026D01*
X36563168Y-15578910D01*
X36580438Y-15594562D01*
X36596090Y-15611832D01*
X36609974Y-15630552D01*
X36621956Y-15650543D01*
X36631921Y-15671613D01*
X36639773Y-15693557D01*
X36645437Y-15716166D01*
X36648856Y-15739221D01*
X36650000Y-15762500D01*
X36650000Y-16237500D01*
X36648856Y-16260779D01*
X36645437Y-16283834D01*
X36639773Y-16306443D01*
X36631921Y-16328387D01*
X36621956Y-16349457D01*
X36609974Y-16369448D01*
X36596090Y-16388168D01*
X36580438Y-16405438D01*
X36563168Y-16421090D01*
X36544448Y-16434974D01*
X36524457Y-16446956D01*
X36503387Y-16456921D01*
X36481443Y-16464773D01*
X36458834Y-16470437D01*
X36435779Y-16473856D01*
X36412500Y-16475000D01*
X35837500Y-16475000D01*
X35814221Y-16473856D01*
X35791166Y-16470437D01*
X35768557Y-16464773D01*
X35746613Y-16456921D01*
X35725543Y-16446956D01*
X35705552Y-16434974D01*
X35686832Y-16421090D01*
X35669562Y-16405438D01*
X35653910Y-16388168D01*
X35640026Y-16369448D01*
X35628044Y-16349457D01*
X35618079Y-16328387D01*
X35610227Y-16306443D01*
X35604563Y-16283834D01*
X35601144Y-16260779D01*
X35600000Y-16237500D01*
X35600000Y-15762500D01*
X35601144Y-15739221D01*
X35604563Y-15716166D01*
X35610227Y-15693557D01*
X35618079Y-15671613D01*
X35628044Y-15650543D01*
X35640026Y-15630552D01*
X35653910Y-15611832D01*
X35669562Y-15594562D01*
X35686832Y-15578910D01*
X35705552Y-15565026D01*
X35725543Y-15553044D01*
X35746613Y-15543079D01*
X35768557Y-15535227D01*
X35791166Y-15529563D01*
X35814221Y-15526144D01*
X35837500Y-15525000D01*
X36412500Y-15525000D01*
X36435779Y-15526144D01*
X36435779Y-15526144D01*
G37*
D16*
X36125000Y-16000000D03*
D15*
G36*
X38185779Y-15526144D02*
G01*
X38208834Y-15529563D01*
X38231443Y-15535227D01*
X38253387Y-15543079D01*
X38274457Y-15553044D01*
X38294448Y-15565026D01*
X38313168Y-15578910D01*
X38330438Y-15594562D01*
X38346090Y-15611832D01*
X38359974Y-15630552D01*
X38371956Y-15650543D01*
X38381921Y-15671613D01*
X38389773Y-15693557D01*
X38395437Y-15716166D01*
X38398856Y-15739221D01*
X38400000Y-15762500D01*
X38400000Y-16237500D01*
X38398856Y-16260779D01*
X38395437Y-16283834D01*
X38389773Y-16306443D01*
X38381921Y-16328387D01*
X38371956Y-16349457D01*
X38359974Y-16369448D01*
X38346090Y-16388168D01*
X38330438Y-16405438D01*
X38313168Y-16421090D01*
X38294448Y-16434974D01*
X38274457Y-16446956D01*
X38253387Y-16456921D01*
X38231443Y-16464773D01*
X38208834Y-16470437D01*
X38185779Y-16473856D01*
X38162500Y-16475000D01*
X37587500Y-16475000D01*
X37564221Y-16473856D01*
X37541166Y-16470437D01*
X37518557Y-16464773D01*
X37496613Y-16456921D01*
X37475543Y-16446956D01*
X37455552Y-16434974D01*
X37436832Y-16421090D01*
X37419562Y-16405438D01*
X37403910Y-16388168D01*
X37390026Y-16369448D01*
X37378044Y-16349457D01*
X37368079Y-16328387D01*
X37360227Y-16306443D01*
X37354563Y-16283834D01*
X37351144Y-16260779D01*
X37350000Y-16237500D01*
X37350000Y-15762500D01*
X37351144Y-15739221D01*
X37354563Y-15716166D01*
X37360227Y-15693557D01*
X37368079Y-15671613D01*
X37378044Y-15650543D01*
X37390026Y-15630552D01*
X37403910Y-15611832D01*
X37419562Y-15594562D01*
X37436832Y-15578910D01*
X37455552Y-15565026D01*
X37475543Y-15553044D01*
X37496613Y-15543079D01*
X37518557Y-15535227D01*
X37541166Y-15529563D01*
X37564221Y-15526144D01*
X37587500Y-15525000D01*
X38162500Y-15525000D01*
X38185779Y-15526144D01*
X38185779Y-15526144D01*
G37*
D16*
X37875000Y-16000000D03*
D15*
G36*
X56760779Y-32451144D02*
G01*
X56783834Y-32454563D01*
X56806443Y-32460227D01*
X56828387Y-32468079D01*
X56849457Y-32478044D01*
X56869448Y-32490026D01*
X56888168Y-32503910D01*
X56905438Y-32519562D01*
X56921090Y-32536832D01*
X56934974Y-32555552D01*
X56946956Y-32575543D01*
X56956921Y-32596613D01*
X56964773Y-32618557D01*
X56970437Y-32641166D01*
X56973856Y-32664221D01*
X56975000Y-32687500D01*
X56975000Y-33262500D01*
X56973856Y-33285779D01*
X56970437Y-33308834D01*
X56964773Y-33331443D01*
X56956921Y-33353387D01*
X56946956Y-33374457D01*
X56934974Y-33394448D01*
X56921090Y-33413168D01*
X56905438Y-33430438D01*
X56888168Y-33446090D01*
X56869448Y-33459974D01*
X56849457Y-33471956D01*
X56828387Y-33481921D01*
X56806443Y-33489773D01*
X56783834Y-33495437D01*
X56760779Y-33498856D01*
X56737500Y-33500000D01*
X56262500Y-33500000D01*
X56239221Y-33498856D01*
X56216166Y-33495437D01*
X56193557Y-33489773D01*
X56171613Y-33481921D01*
X56150543Y-33471956D01*
X56130552Y-33459974D01*
X56111832Y-33446090D01*
X56094562Y-33430438D01*
X56078910Y-33413168D01*
X56065026Y-33394448D01*
X56053044Y-33374457D01*
X56043079Y-33353387D01*
X56035227Y-33331443D01*
X56029563Y-33308834D01*
X56026144Y-33285779D01*
X56025000Y-33262500D01*
X56025000Y-32687500D01*
X56026144Y-32664221D01*
X56029563Y-32641166D01*
X56035227Y-32618557D01*
X56043079Y-32596613D01*
X56053044Y-32575543D01*
X56065026Y-32555552D01*
X56078910Y-32536832D01*
X56094562Y-32519562D01*
X56111832Y-32503910D01*
X56130552Y-32490026D01*
X56150543Y-32478044D01*
X56171613Y-32468079D01*
X56193557Y-32460227D01*
X56216166Y-32454563D01*
X56239221Y-32451144D01*
X56262500Y-32450000D01*
X56737500Y-32450000D01*
X56760779Y-32451144D01*
X56760779Y-32451144D01*
G37*
D16*
X56500000Y-32975000D03*
D15*
G36*
X56760779Y-30701144D02*
G01*
X56783834Y-30704563D01*
X56806443Y-30710227D01*
X56828387Y-30718079D01*
X56849457Y-30728044D01*
X56869448Y-30740026D01*
X56888168Y-30753910D01*
X56905438Y-30769562D01*
X56921090Y-30786832D01*
X56934974Y-30805552D01*
X56946956Y-30825543D01*
X56956921Y-30846613D01*
X56964773Y-30868557D01*
X56970437Y-30891166D01*
X56973856Y-30914221D01*
X56975000Y-30937500D01*
X56975000Y-31512500D01*
X56973856Y-31535779D01*
X56970437Y-31558834D01*
X56964773Y-31581443D01*
X56956921Y-31603387D01*
X56946956Y-31624457D01*
X56934974Y-31644448D01*
X56921090Y-31663168D01*
X56905438Y-31680438D01*
X56888168Y-31696090D01*
X56869448Y-31709974D01*
X56849457Y-31721956D01*
X56828387Y-31731921D01*
X56806443Y-31739773D01*
X56783834Y-31745437D01*
X56760779Y-31748856D01*
X56737500Y-31750000D01*
X56262500Y-31750000D01*
X56239221Y-31748856D01*
X56216166Y-31745437D01*
X56193557Y-31739773D01*
X56171613Y-31731921D01*
X56150543Y-31721956D01*
X56130552Y-31709974D01*
X56111832Y-31696090D01*
X56094562Y-31680438D01*
X56078910Y-31663168D01*
X56065026Y-31644448D01*
X56053044Y-31624457D01*
X56043079Y-31603387D01*
X56035227Y-31581443D01*
X56029563Y-31558834D01*
X56026144Y-31535779D01*
X56025000Y-31512500D01*
X56025000Y-30937500D01*
X56026144Y-30914221D01*
X56029563Y-30891166D01*
X56035227Y-30868557D01*
X56043079Y-30846613D01*
X56053044Y-30825543D01*
X56065026Y-30805552D01*
X56078910Y-30786832D01*
X56094562Y-30769562D01*
X56111832Y-30753910D01*
X56130552Y-30740026D01*
X56150543Y-30728044D01*
X56171613Y-30718079D01*
X56193557Y-30710227D01*
X56216166Y-30704563D01*
X56239221Y-30701144D01*
X56262500Y-30700000D01*
X56737500Y-30700000D01*
X56760779Y-30701144D01*
X56760779Y-30701144D01*
G37*
D16*
X56500000Y-31225000D03*
D15*
G36*
X28435779Y-21526144D02*
G01*
X28458834Y-21529563D01*
X28481443Y-21535227D01*
X28503387Y-21543079D01*
X28524457Y-21553044D01*
X28544448Y-21565026D01*
X28563168Y-21578910D01*
X28580438Y-21594562D01*
X28596090Y-21611832D01*
X28609974Y-21630552D01*
X28621956Y-21650543D01*
X28631921Y-21671613D01*
X28639773Y-21693557D01*
X28645437Y-21716166D01*
X28648856Y-21739221D01*
X28650000Y-21762500D01*
X28650000Y-22237500D01*
X28648856Y-22260779D01*
X28645437Y-22283834D01*
X28639773Y-22306443D01*
X28631921Y-22328387D01*
X28621956Y-22349457D01*
X28609974Y-22369448D01*
X28596090Y-22388168D01*
X28580438Y-22405438D01*
X28563168Y-22421090D01*
X28544448Y-22434974D01*
X28524457Y-22446956D01*
X28503387Y-22456921D01*
X28481443Y-22464773D01*
X28458834Y-22470437D01*
X28435779Y-22473856D01*
X28412500Y-22475000D01*
X27837500Y-22475000D01*
X27814221Y-22473856D01*
X27791166Y-22470437D01*
X27768557Y-22464773D01*
X27746613Y-22456921D01*
X27725543Y-22446956D01*
X27705552Y-22434974D01*
X27686832Y-22421090D01*
X27669562Y-22405438D01*
X27653910Y-22388168D01*
X27640026Y-22369448D01*
X27628044Y-22349457D01*
X27618079Y-22328387D01*
X27610227Y-22306443D01*
X27604563Y-22283834D01*
X27601144Y-22260779D01*
X27600000Y-22237500D01*
X27600000Y-21762500D01*
X27601144Y-21739221D01*
X27604563Y-21716166D01*
X27610227Y-21693557D01*
X27618079Y-21671613D01*
X27628044Y-21650543D01*
X27640026Y-21630552D01*
X27653910Y-21611832D01*
X27669562Y-21594562D01*
X27686832Y-21578910D01*
X27705552Y-21565026D01*
X27725543Y-21553044D01*
X27746613Y-21543079D01*
X27768557Y-21535227D01*
X27791166Y-21529563D01*
X27814221Y-21526144D01*
X27837500Y-21525000D01*
X28412500Y-21525000D01*
X28435779Y-21526144D01*
X28435779Y-21526144D01*
G37*
D16*
X28125000Y-22000000D03*
D15*
G36*
X30185779Y-21526144D02*
G01*
X30208834Y-21529563D01*
X30231443Y-21535227D01*
X30253387Y-21543079D01*
X30274457Y-21553044D01*
X30294448Y-21565026D01*
X30313168Y-21578910D01*
X30330438Y-21594562D01*
X30346090Y-21611832D01*
X30359974Y-21630552D01*
X30371956Y-21650543D01*
X30381921Y-21671613D01*
X30389773Y-21693557D01*
X30395437Y-21716166D01*
X30398856Y-21739221D01*
X30400000Y-21762500D01*
X30400000Y-22237500D01*
X30398856Y-22260779D01*
X30395437Y-22283834D01*
X30389773Y-22306443D01*
X30381921Y-22328387D01*
X30371956Y-22349457D01*
X30359974Y-22369448D01*
X30346090Y-22388168D01*
X30330438Y-22405438D01*
X30313168Y-22421090D01*
X30294448Y-22434974D01*
X30274457Y-22446956D01*
X30253387Y-22456921D01*
X30231443Y-22464773D01*
X30208834Y-22470437D01*
X30185779Y-22473856D01*
X30162500Y-22475000D01*
X29587500Y-22475000D01*
X29564221Y-22473856D01*
X29541166Y-22470437D01*
X29518557Y-22464773D01*
X29496613Y-22456921D01*
X29475543Y-22446956D01*
X29455552Y-22434974D01*
X29436832Y-22421090D01*
X29419562Y-22405438D01*
X29403910Y-22388168D01*
X29390026Y-22369448D01*
X29378044Y-22349457D01*
X29368079Y-22328387D01*
X29360227Y-22306443D01*
X29354563Y-22283834D01*
X29351144Y-22260779D01*
X29350000Y-22237500D01*
X29350000Y-21762500D01*
X29351144Y-21739221D01*
X29354563Y-21716166D01*
X29360227Y-21693557D01*
X29368079Y-21671613D01*
X29378044Y-21650543D01*
X29390026Y-21630552D01*
X29403910Y-21611832D01*
X29419562Y-21594562D01*
X29436832Y-21578910D01*
X29455552Y-21565026D01*
X29475543Y-21553044D01*
X29496613Y-21543079D01*
X29518557Y-21535227D01*
X29541166Y-21529563D01*
X29564221Y-21526144D01*
X29587500Y-21525000D01*
X30162500Y-21525000D01*
X30185779Y-21526144D01*
X30185779Y-21526144D01*
G37*
D16*
X29875000Y-22000000D03*
D15*
G36*
X38060779Y-30026144D02*
G01*
X38083834Y-30029563D01*
X38106443Y-30035227D01*
X38128387Y-30043079D01*
X38149457Y-30053044D01*
X38169448Y-30065026D01*
X38188168Y-30078910D01*
X38205438Y-30094562D01*
X38221090Y-30111832D01*
X38234974Y-30130552D01*
X38246956Y-30150543D01*
X38256921Y-30171613D01*
X38264773Y-30193557D01*
X38270437Y-30216166D01*
X38273856Y-30239221D01*
X38275000Y-30262500D01*
X38275000Y-30737500D01*
X38273856Y-30760779D01*
X38270437Y-30783834D01*
X38264773Y-30806443D01*
X38256921Y-30828387D01*
X38246956Y-30849457D01*
X38234974Y-30869448D01*
X38221090Y-30888168D01*
X38205438Y-30905438D01*
X38188168Y-30921090D01*
X38169448Y-30934974D01*
X38149457Y-30946956D01*
X38128387Y-30956921D01*
X38106443Y-30964773D01*
X38083834Y-30970437D01*
X38060779Y-30973856D01*
X38037500Y-30975000D01*
X37462500Y-30975000D01*
X37439221Y-30973856D01*
X37416166Y-30970437D01*
X37393557Y-30964773D01*
X37371613Y-30956921D01*
X37350543Y-30946956D01*
X37330552Y-30934974D01*
X37311832Y-30921090D01*
X37294562Y-30905438D01*
X37278910Y-30888168D01*
X37265026Y-30869448D01*
X37253044Y-30849457D01*
X37243079Y-30828387D01*
X37235227Y-30806443D01*
X37229563Y-30783834D01*
X37226144Y-30760779D01*
X37225000Y-30737500D01*
X37225000Y-30262500D01*
X37226144Y-30239221D01*
X37229563Y-30216166D01*
X37235227Y-30193557D01*
X37243079Y-30171613D01*
X37253044Y-30150543D01*
X37265026Y-30130552D01*
X37278910Y-30111832D01*
X37294562Y-30094562D01*
X37311832Y-30078910D01*
X37330552Y-30065026D01*
X37350543Y-30053044D01*
X37371613Y-30043079D01*
X37393557Y-30035227D01*
X37416166Y-30029563D01*
X37439221Y-30026144D01*
X37462500Y-30025000D01*
X38037500Y-30025000D01*
X38060779Y-30026144D01*
X38060779Y-30026144D01*
G37*
D16*
X37750000Y-30500000D03*
D15*
G36*
X36310779Y-30026144D02*
G01*
X36333834Y-30029563D01*
X36356443Y-30035227D01*
X36378387Y-30043079D01*
X36399457Y-30053044D01*
X36419448Y-30065026D01*
X36438168Y-30078910D01*
X36455438Y-30094562D01*
X36471090Y-30111832D01*
X36484974Y-30130552D01*
X36496956Y-30150543D01*
X36506921Y-30171613D01*
X36514773Y-30193557D01*
X36520437Y-30216166D01*
X36523856Y-30239221D01*
X36525000Y-30262500D01*
X36525000Y-30737500D01*
X36523856Y-30760779D01*
X36520437Y-30783834D01*
X36514773Y-30806443D01*
X36506921Y-30828387D01*
X36496956Y-30849457D01*
X36484974Y-30869448D01*
X36471090Y-30888168D01*
X36455438Y-30905438D01*
X36438168Y-30921090D01*
X36419448Y-30934974D01*
X36399457Y-30946956D01*
X36378387Y-30956921D01*
X36356443Y-30964773D01*
X36333834Y-30970437D01*
X36310779Y-30973856D01*
X36287500Y-30975000D01*
X35712500Y-30975000D01*
X35689221Y-30973856D01*
X35666166Y-30970437D01*
X35643557Y-30964773D01*
X35621613Y-30956921D01*
X35600543Y-30946956D01*
X35580552Y-30934974D01*
X35561832Y-30921090D01*
X35544562Y-30905438D01*
X35528910Y-30888168D01*
X35515026Y-30869448D01*
X35503044Y-30849457D01*
X35493079Y-30828387D01*
X35485227Y-30806443D01*
X35479563Y-30783834D01*
X35476144Y-30760779D01*
X35475000Y-30737500D01*
X35475000Y-30262500D01*
X35476144Y-30239221D01*
X35479563Y-30216166D01*
X35485227Y-30193557D01*
X35493079Y-30171613D01*
X35503044Y-30150543D01*
X35515026Y-30130552D01*
X35528910Y-30111832D01*
X35544562Y-30094562D01*
X35561832Y-30078910D01*
X35580552Y-30065026D01*
X35600543Y-30053044D01*
X35621613Y-30043079D01*
X35643557Y-30035227D01*
X35666166Y-30029563D01*
X35689221Y-30026144D01*
X35712500Y-30025000D01*
X36287500Y-30025000D01*
X36310779Y-30026144D01*
X36310779Y-30026144D01*
G37*
D16*
X36000000Y-30500000D03*
D15*
G36*
X54760779Y-32451144D02*
G01*
X54783834Y-32454563D01*
X54806443Y-32460227D01*
X54828387Y-32468079D01*
X54849457Y-32478044D01*
X54869448Y-32490026D01*
X54888168Y-32503910D01*
X54905438Y-32519562D01*
X54921090Y-32536832D01*
X54934974Y-32555552D01*
X54946956Y-32575543D01*
X54956921Y-32596613D01*
X54964773Y-32618557D01*
X54970437Y-32641166D01*
X54973856Y-32664221D01*
X54975000Y-32687500D01*
X54975000Y-33262500D01*
X54973856Y-33285779D01*
X54970437Y-33308834D01*
X54964773Y-33331443D01*
X54956921Y-33353387D01*
X54946956Y-33374457D01*
X54934974Y-33394448D01*
X54921090Y-33413168D01*
X54905438Y-33430438D01*
X54888168Y-33446090D01*
X54869448Y-33459974D01*
X54849457Y-33471956D01*
X54828387Y-33481921D01*
X54806443Y-33489773D01*
X54783834Y-33495437D01*
X54760779Y-33498856D01*
X54737500Y-33500000D01*
X54262500Y-33500000D01*
X54239221Y-33498856D01*
X54216166Y-33495437D01*
X54193557Y-33489773D01*
X54171613Y-33481921D01*
X54150543Y-33471956D01*
X54130552Y-33459974D01*
X54111832Y-33446090D01*
X54094562Y-33430438D01*
X54078910Y-33413168D01*
X54065026Y-33394448D01*
X54053044Y-33374457D01*
X54043079Y-33353387D01*
X54035227Y-33331443D01*
X54029563Y-33308834D01*
X54026144Y-33285779D01*
X54025000Y-33262500D01*
X54025000Y-32687500D01*
X54026144Y-32664221D01*
X54029563Y-32641166D01*
X54035227Y-32618557D01*
X54043079Y-32596613D01*
X54053044Y-32575543D01*
X54065026Y-32555552D01*
X54078910Y-32536832D01*
X54094562Y-32519562D01*
X54111832Y-32503910D01*
X54130552Y-32490026D01*
X54150543Y-32478044D01*
X54171613Y-32468079D01*
X54193557Y-32460227D01*
X54216166Y-32454563D01*
X54239221Y-32451144D01*
X54262500Y-32450000D01*
X54737500Y-32450000D01*
X54760779Y-32451144D01*
X54760779Y-32451144D01*
G37*
D16*
X54500000Y-32975000D03*
D15*
G36*
X54760779Y-30701144D02*
G01*
X54783834Y-30704563D01*
X54806443Y-30710227D01*
X54828387Y-30718079D01*
X54849457Y-30728044D01*
X54869448Y-30740026D01*
X54888168Y-30753910D01*
X54905438Y-30769562D01*
X54921090Y-30786832D01*
X54934974Y-30805552D01*
X54946956Y-30825543D01*
X54956921Y-30846613D01*
X54964773Y-30868557D01*
X54970437Y-30891166D01*
X54973856Y-30914221D01*
X54975000Y-30937500D01*
X54975000Y-31512500D01*
X54973856Y-31535779D01*
X54970437Y-31558834D01*
X54964773Y-31581443D01*
X54956921Y-31603387D01*
X54946956Y-31624457D01*
X54934974Y-31644448D01*
X54921090Y-31663168D01*
X54905438Y-31680438D01*
X54888168Y-31696090D01*
X54869448Y-31709974D01*
X54849457Y-31721956D01*
X54828387Y-31731921D01*
X54806443Y-31739773D01*
X54783834Y-31745437D01*
X54760779Y-31748856D01*
X54737500Y-31750000D01*
X54262500Y-31750000D01*
X54239221Y-31748856D01*
X54216166Y-31745437D01*
X54193557Y-31739773D01*
X54171613Y-31731921D01*
X54150543Y-31721956D01*
X54130552Y-31709974D01*
X54111832Y-31696090D01*
X54094562Y-31680438D01*
X54078910Y-31663168D01*
X54065026Y-31644448D01*
X54053044Y-31624457D01*
X54043079Y-31603387D01*
X54035227Y-31581443D01*
X54029563Y-31558834D01*
X54026144Y-31535779D01*
X54025000Y-31512500D01*
X54025000Y-30937500D01*
X54026144Y-30914221D01*
X54029563Y-30891166D01*
X54035227Y-30868557D01*
X54043079Y-30846613D01*
X54053044Y-30825543D01*
X54065026Y-30805552D01*
X54078910Y-30786832D01*
X54094562Y-30769562D01*
X54111832Y-30753910D01*
X54130552Y-30740026D01*
X54150543Y-30728044D01*
X54171613Y-30718079D01*
X54193557Y-30710227D01*
X54216166Y-30704563D01*
X54239221Y-30701144D01*
X54262500Y-30700000D01*
X54737500Y-30700000D01*
X54760779Y-30701144D01*
X54760779Y-30701144D01*
G37*
D16*
X54500000Y-31225000D03*
D15*
G36*
X38060779Y-17526144D02*
G01*
X38083834Y-17529563D01*
X38106443Y-17535227D01*
X38128387Y-17543079D01*
X38149457Y-17553044D01*
X38169448Y-17565026D01*
X38188168Y-17578910D01*
X38205438Y-17594562D01*
X38221090Y-17611832D01*
X38234974Y-17630552D01*
X38246956Y-17650543D01*
X38256921Y-17671613D01*
X38264773Y-17693557D01*
X38270437Y-17716166D01*
X38273856Y-17739221D01*
X38275000Y-17762500D01*
X38275000Y-18237500D01*
X38273856Y-18260779D01*
X38270437Y-18283834D01*
X38264773Y-18306443D01*
X38256921Y-18328387D01*
X38246956Y-18349457D01*
X38234974Y-18369448D01*
X38221090Y-18388168D01*
X38205438Y-18405438D01*
X38188168Y-18421090D01*
X38169448Y-18434974D01*
X38149457Y-18446956D01*
X38128387Y-18456921D01*
X38106443Y-18464773D01*
X38083834Y-18470437D01*
X38060779Y-18473856D01*
X38037500Y-18475000D01*
X37462500Y-18475000D01*
X37439221Y-18473856D01*
X37416166Y-18470437D01*
X37393557Y-18464773D01*
X37371613Y-18456921D01*
X37350543Y-18446956D01*
X37330552Y-18434974D01*
X37311832Y-18421090D01*
X37294562Y-18405438D01*
X37278910Y-18388168D01*
X37265026Y-18369448D01*
X37253044Y-18349457D01*
X37243079Y-18328387D01*
X37235227Y-18306443D01*
X37229563Y-18283834D01*
X37226144Y-18260779D01*
X37225000Y-18237500D01*
X37225000Y-17762500D01*
X37226144Y-17739221D01*
X37229563Y-17716166D01*
X37235227Y-17693557D01*
X37243079Y-17671613D01*
X37253044Y-17650543D01*
X37265026Y-17630552D01*
X37278910Y-17611832D01*
X37294562Y-17594562D01*
X37311832Y-17578910D01*
X37330552Y-17565026D01*
X37350543Y-17553044D01*
X37371613Y-17543079D01*
X37393557Y-17535227D01*
X37416166Y-17529563D01*
X37439221Y-17526144D01*
X37462500Y-17525000D01*
X38037500Y-17525000D01*
X38060779Y-17526144D01*
X38060779Y-17526144D01*
G37*
D16*
X37750000Y-18000000D03*
D15*
G36*
X36310779Y-17526144D02*
G01*
X36333834Y-17529563D01*
X36356443Y-17535227D01*
X36378387Y-17543079D01*
X36399457Y-17553044D01*
X36419448Y-17565026D01*
X36438168Y-17578910D01*
X36455438Y-17594562D01*
X36471090Y-17611832D01*
X36484974Y-17630552D01*
X36496956Y-17650543D01*
X36506921Y-17671613D01*
X36514773Y-17693557D01*
X36520437Y-17716166D01*
X36523856Y-17739221D01*
X36525000Y-17762500D01*
X36525000Y-18237500D01*
X36523856Y-18260779D01*
X36520437Y-18283834D01*
X36514773Y-18306443D01*
X36506921Y-18328387D01*
X36496956Y-18349457D01*
X36484974Y-18369448D01*
X36471090Y-18388168D01*
X36455438Y-18405438D01*
X36438168Y-18421090D01*
X36419448Y-18434974D01*
X36399457Y-18446956D01*
X36378387Y-18456921D01*
X36356443Y-18464773D01*
X36333834Y-18470437D01*
X36310779Y-18473856D01*
X36287500Y-18475000D01*
X35712500Y-18475000D01*
X35689221Y-18473856D01*
X35666166Y-18470437D01*
X35643557Y-18464773D01*
X35621613Y-18456921D01*
X35600543Y-18446956D01*
X35580552Y-18434974D01*
X35561832Y-18421090D01*
X35544562Y-18405438D01*
X35528910Y-18388168D01*
X35515026Y-18369448D01*
X35503044Y-18349457D01*
X35493079Y-18328387D01*
X35485227Y-18306443D01*
X35479563Y-18283834D01*
X35476144Y-18260779D01*
X35475000Y-18237500D01*
X35475000Y-17762500D01*
X35476144Y-17739221D01*
X35479563Y-17716166D01*
X35485227Y-17693557D01*
X35493079Y-17671613D01*
X35503044Y-17650543D01*
X35515026Y-17630552D01*
X35528910Y-17611832D01*
X35544562Y-17594562D01*
X35561832Y-17578910D01*
X35580552Y-17565026D01*
X35600543Y-17553044D01*
X35621613Y-17543079D01*
X35643557Y-17535227D01*
X35666166Y-17529563D01*
X35689221Y-17526144D01*
X35712500Y-17525000D01*
X36287500Y-17525000D01*
X36310779Y-17526144D01*
X36310779Y-17526144D01*
G37*
D16*
X36000000Y-18000000D03*
D15*
G36*
X30185779Y-23526144D02*
G01*
X30208834Y-23529563D01*
X30231443Y-23535227D01*
X30253387Y-23543079D01*
X30274457Y-23553044D01*
X30294448Y-23565026D01*
X30313168Y-23578910D01*
X30330438Y-23594562D01*
X30346090Y-23611832D01*
X30359974Y-23630552D01*
X30371956Y-23650543D01*
X30381921Y-23671613D01*
X30389773Y-23693557D01*
X30395437Y-23716166D01*
X30398856Y-23739221D01*
X30400000Y-23762500D01*
X30400000Y-24237500D01*
X30398856Y-24260779D01*
X30395437Y-24283834D01*
X30389773Y-24306443D01*
X30381921Y-24328387D01*
X30371956Y-24349457D01*
X30359974Y-24369448D01*
X30346090Y-24388168D01*
X30330438Y-24405438D01*
X30313168Y-24421090D01*
X30294448Y-24434974D01*
X30274457Y-24446956D01*
X30253387Y-24456921D01*
X30231443Y-24464773D01*
X30208834Y-24470437D01*
X30185779Y-24473856D01*
X30162500Y-24475000D01*
X29587500Y-24475000D01*
X29564221Y-24473856D01*
X29541166Y-24470437D01*
X29518557Y-24464773D01*
X29496613Y-24456921D01*
X29475543Y-24446956D01*
X29455552Y-24434974D01*
X29436832Y-24421090D01*
X29419562Y-24405438D01*
X29403910Y-24388168D01*
X29390026Y-24369448D01*
X29378044Y-24349457D01*
X29368079Y-24328387D01*
X29360227Y-24306443D01*
X29354563Y-24283834D01*
X29351144Y-24260779D01*
X29350000Y-24237500D01*
X29350000Y-23762500D01*
X29351144Y-23739221D01*
X29354563Y-23716166D01*
X29360227Y-23693557D01*
X29368079Y-23671613D01*
X29378044Y-23650543D01*
X29390026Y-23630552D01*
X29403910Y-23611832D01*
X29419562Y-23594562D01*
X29436832Y-23578910D01*
X29455552Y-23565026D01*
X29475543Y-23553044D01*
X29496613Y-23543079D01*
X29518557Y-23535227D01*
X29541166Y-23529563D01*
X29564221Y-23526144D01*
X29587500Y-23525000D01*
X30162500Y-23525000D01*
X30185779Y-23526144D01*
X30185779Y-23526144D01*
G37*
D16*
X29875000Y-24000000D03*
D15*
G36*
X28435779Y-23526144D02*
G01*
X28458834Y-23529563D01*
X28481443Y-23535227D01*
X28503387Y-23543079D01*
X28524457Y-23553044D01*
X28544448Y-23565026D01*
X28563168Y-23578910D01*
X28580438Y-23594562D01*
X28596090Y-23611832D01*
X28609974Y-23630552D01*
X28621956Y-23650543D01*
X28631921Y-23671613D01*
X28639773Y-23693557D01*
X28645437Y-23716166D01*
X28648856Y-23739221D01*
X28650000Y-23762500D01*
X28650000Y-24237500D01*
X28648856Y-24260779D01*
X28645437Y-24283834D01*
X28639773Y-24306443D01*
X28631921Y-24328387D01*
X28621956Y-24349457D01*
X28609974Y-24369448D01*
X28596090Y-24388168D01*
X28580438Y-24405438D01*
X28563168Y-24421090D01*
X28544448Y-24434974D01*
X28524457Y-24446956D01*
X28503387Y-24456921D01*
X28481443Y-24464773D01*
X28458834Y-24470437D01*
X28435779Y-24473856D01*
X28412500Y-24475000D01*
X27837500Y-24475000D01*
X27814221Y-24473856D01*
X27791166Y-24470437D01*
X27768557Y-24464773D01*
X27746613Y-24456921D01*
X27725543Y-24446956D01*
X27705552Y-24434974D01*
X27686832Y-24421090D01*
X27669562Y-24405438D01*
X27653910Y-24388168D01*
X27640026Y-24369448D01*
X27628044Y-24349457D01*
X27618079Y-24328387D01*
X27610227Y-24306443D01*
X27604563Y-24283834D01*
X27601144Y-24260779D01*
X27600000Y-24237500D01*
X27600000Y-23762500D01*
X27601144Y-23739221D01*
X27604563Y-23716166D01*
X27610227Y-23693557D01*
X27618079Y-23671613D01*
X27628044Y-23650543D01*
X27640026Y-23630552D01*
X27653910Y-23611832D01*
X27669562Y-23594562D01*
X27686832Y-23578910D01*
X27705552Y-23565026D01*
X27725543Y-23553044D01*
X27746613Y-23543079D01*
X27768557Y-23535227D01*
X27791166Y-23529563D01*
X27814221Y-23526144D01*
X27837500Y-23525000D01*
X28412500Y-23525000D01*
X28435779Y-23526144D01*
X28435779Y-23526144D01*
G37*
D16*
X28125000Y-24000000D03*
D15*
G36*
X36435779Y-28026144D02*
G01*
X36458834Y-28029563D01*
X36481443Y-28035227D01*
X36503387Y-28043079D01*
X36524457Y-28053044D01*
X36544448Y-28065026D01*
X36563168Y-28078910D01*
X36580438Y-28094562D01*
X36596090Y-28111832D01*
X36609974Y-28130552D01*
X36621956Y-28150543D01*
X36631921Y-28171613D01*
X36639773Y-28193557D01*
X36645437Y-28216166D01*
X36648856Y-28239221D01*
X36650000Y-28262500D01*
X36650000Y-28737500D01*
X36648856Y-28760779D01*
X36645437Y-28783834D01*
X36639773Y-28806443D01*
X36631921Y-28828387D01*
X36621956Y-28849457D01*
X36609974Y-28869448D01*
X36596090Y-28888168D01*
X36580438Y-28905438D01*
X36563168Y-28921090D01*
X36544448Y-28934974D01*
X36524457Y-28946956D01*
X36503387Y-28956921D01*
X36481443Y-28964773D01*
X36458834Y-28970437D01*
X36435779Y-28973856D01*
X36412500Y-28975000D01*
X35837500Y-28975000D01*
X35814221Y-28973856D01*
X35791166Y-28970437D01*
X35768557Y-28964773D01*
X35746613Y-28956921D01*
X35725543Y-28946956D01*
X35705552Y-28934974D01*
X35686832Y-28921090D01*
X35669562Y-28905438D01*
X35653910Y-28888168D01*
X35640026Y-28869448D01*
X35628044Y-28849457D01*
X35618079Y-28828387D01*
X35610227Y-28806443D01*
X35604563Y-28783834D01*
X35601144Y-28760779D01*
X35600000Y-28737500D01*
X35600000Y-28262500D01*
X35601144Y-28239221D01*
X35604563Y-28216166D01*
X35610227Y-28193557D01*
X35618079Y-28171613D01*
X35628044Y-28150543D01*
X35640026Y-28130552D01*
X35653910Y-28111832D01*
X35669562Y-28094562D01*
X35686832Y-28078910D01*
X35705552Y-28065026D01*
X35725543Y-28053044D01*
X35746613Y-28043079D01*
X35768557Y-28035227D01*
X35791166Y-28029563D01*
X35814221Y-28026144D01*
X35837500Y-28025000D01*
X36412500Y-28025000D01*
X36435779Y-28026144D01*
X36435779Y-28026144D01*
G37*
D16*
X36125000Y-28500000D03*
D15*
G36*
X38185779Y-28026144D02*
G01*
X38208834Y-28029563D01*
X38231443Y-28035227D01*
X38253387Y-28043079D01*
X38274457Y-28053044D01*
X38294448Y-28065026D01*
X38313168Y-28078910D01*
X38330438Y-28094562D01*
X38346090Y-28111832D01*
X38359974Y-28130552D01*
X38371956Y-28150543D01*
X38381921Y-28171613D01*
X38389773Y-28193557D01*
X38395437Y-28216166D01*
X38398856Y-28239221D01*
X38400000Y-28262500D01*
X38400000Y-28737500D01*
X38398856Y-28760779D01*
X38395437Y-28783834D01*
X38389773Y-28806443D01*
X38381921Y-28828387D01*
X38371956Y-28849457D01*
X38359974Y-28869448D01*
X38346090Y-28888168D01*
X38330438Y-28905438D01*
X38313168Y-28921090D01*
X38294448Y-28934974D01*
X38274457Y-28946956D01*
X38253387Y-28956921D01*
X38231443Y-28964773D01*
X38208834Y-28970437D01*
X38185779Y-28973856D01*
X38162500Y-28975000D01*
X37587500Y-28975000D01*
X37564221Y-28973856D01*
X37541166Y-28970437D01*
X37518557Y-28964773D01*
X37496613Y-28956921D01*
X37475543Y-28946956D01*
X37455552Y-28934974D01*
X37436832Y-28921090D01*
X37419562Y-28905438D01*
X37403910Y-28888168D01*
X37390026Y-28869448D01*
X37378044Y-28849457D01*
X37368079Y-28828387D01*
X37360227Y-28806443D01*
X37354563Y-28783834D01*
X37351144Y-28760779D01*
X37350000Y-28737500D01*
X37350000Y-28262500D01*
X37351144Y-28239221D01*
X37354563Y-28216166D01*
X37360227Y-28193557D01*
X37368079Y-28171613D01*
X37378044Y-28150543D01*
X37390026Y-28130552D01*
X37403910Y-28111832D01*
X37419562Y-28094562D01*
X37436832Y-28078910D01*
X37455552Y-28065026D01*
X37475543Y-28053044D01*
X37496613Y-28043079D01*
X37518557Y-28035227D01*
X37541166Y-28029563D01*
X37564221Y-28026144D01*
X37587500Y-28025000D01*
X38162500Y-28025000D01*
X38185779Y-28026144D01*
X38185779Y-28026144D01*
G37*
D16*
X37875000Y-28500000D03*
D15*
G36*
X27914504Y-10718297D02*
G01*
X27937559Y-10721716D01*
X27960168Y-10727380D01*
X27982112Y-10735232D01*
X28003182Y-10745197D01*
X28023173Y-10757179D01*
X28041893Y-10771063D01*
X28059163Y-10786715D01*
X28074815Y-10803985D01*
X28088699Y-10822705D01*
X28100681Y-10842696D01*
X28110646Y-10863766D01*
X28118498Y-10885710D01*
X28124162Y-10908319D01*
X28127581Y-10931374D01*
X28128725Y-10954653D01*
X28128725Y-11429653D01*
X28127581Y-11452932D01*
X28124162Y-11475987D01*
X28118498Y-11498596D01*
X28110646Y-11520540D01*
X28100681Y-11541610D01*
X28088699Y-11561601D01*
X28074815Y-11580321D01*
X28059163Y-11597591D01*
X28041893Y-11613243D01*
X28023173Y-11627127D01*
X28003182Y-11639109D01*
X27982112Y-11649074D01*
X27960168Y-11656926D01*
X27937559Y-11662590D01*
X27914504Y-11666009D01*
X27891225Y-11667153D01*
X27316225Y-11667153D01*
X27292946Y-11666009D01*
X27269891Y-11662590D01*
X27247282Y-11656926D01*
X27225338Y-11649074D01*
X27204268Y-11639109D01*
X27184277Y-11627127D01*
X27165557Y-11613243D01*
X27148287Y-11597591D01*
X27132635Y-11580321D01*
X27118751Y-11561601D01*
X27106769Y-11541610D01*
X27096804Y-11520540D01*
X27088952Y-11498596D01*
X27083288Y-11475987D01*
X27079869Y-11452932D01*
X27078725Y-11429653D01*
X27078725Y-10954653D01*
X27079869Y-10931374D01*
X27083288Y-10908319D01*
X27088952Y-10885710D01*
X27096804Y-10863766D01*
X27106769Y-10842696D01*
X27118751Y-10822705D01*
X27132635Y-10803985D01*
X27148287Y-10786715D01*
X27165557Y-10771063D01*
X27184277Y-10757179D01*
X27204268Y-10745197D01*
X27225338Y-10735232D01*
X27247282Y-10727380D01*
X27269891Y-10721716D01*
X27292946Y-10718297D01*
X27316225Y-10717153D01*
X27891225Y-10717153D01*
X27914504Y-10718297D01*
X27914504Y-10718297D01*
G37*
D16*
X27603725Y-11192153D03*
D15*
G36*
X29664504Y-10718297D02*
G01*
X29687559Y-10721716D01*
X29710168Y-10727380D01*
X29732112Y-10735232D01*
X29753182Y-10745197D01*
X29773173Y-10757179D01*
X29791893Y-10771063D01*
X29809163Y-10786715D01*
X29824815Y-10803985D01*
X29838699Y-10822705D01*
X29850681Y-10842696D01*
X29860646Y-10863766D01*
X29868498Y-10885710D01*
X29874162Y-10908319D01*
X29877581Y-10931374D01*
X29878725Y-10954653D01*
X29878725Y-11429653D01*
X29877581Y-11452932D01*
X29874162Y-11475987D01*
X29868498Y-11498596D01*
X29860646Y-11520540D01*
X29850681Y-11541610D01*
X29838699Y-11561601D01*
X29824815Y-11580321D01*
X29809163Y-11597591D01*
X29791893Y-11613243D01*
X29773173Y-11627127D01*
X29753182Y-11639109D01*
X29732112Y-11649074D01*
X29710168Y-11656926D01*
X29687559Y-11662590D01*
X29664504Y-11666009D01*
X29641225Y-11667153D01*
X29066225Y-11667153D01*
X29042946Y-11666009D01*
X29019891Y-11662590D01*
X28997282Y-11656926D01*
X28975338Y-11649074D01*
X28954268Y-11639109D01*
X28934277Y-11627127D01*
X28915557Y-11613243D01*
X28898287Y-11597591D01*
X28882635Y-11580321D01*
X28868751Y-11561601D01*
X28856769Y-11541610D01*
X28846804Y-11520540D01*
X28838952Y-11498596D01*
X28833288Y-11475987D01*
X28829869Y-11452932D01*
X28828725Y-11429653D01*
X28828725Y-10954653D01*
X28829869Y-10931374D01*
X28833288Y-10908319D01*
X28838952Y-10885710D01*
X28846804Y-10863766D01*
X28856769Y-10842696D01*
X28868751Y-10822705D01*
X28882635Y-10803985D01*
X28898287Y-10786715D01*
X28915557Y-10771063D01*
X28934277Y-10757179D01*
X28954268Y-10745197D01*
X28975338Y-10735232D01*
X28997282Y-10727380D01*
X29019891Y-10721716D01*
X29042946Y-10718297D01*
X29066225Y-10717153D01*
X29641225Y-10717153D01*
X29664504Y-10718297D01*
X29664504Y-10718297D01*
G37*
D16*
X29353725Y-11192153D03*
D15*
G36*
X26260779Y-7351144D02*
G01*
X26283834Y-7354563D01*
X26306443Y-7360227D01*
X26328387Y-7368079D01*
X26349457Y-7378044D01*
X26369448Y-7390026D01*
X26388168Y-7403910D01*
X26405438Y-7419562D01*
X26421090Y-7436832D01*
X26434974Y-7455552D01*
X26446956Y-7475543D01*
X26456921Y-7496613D01*
X26464773Y-7518557D01*
X26470437Y-7541166D01*
X26473856Y-7564221D01*
X26475000Y-7587500D01*
X26475000Y-8162500D01*
X26473856Y-8185779D01*
X26470437Y-8208834D01*
X26464773Y-8231443D01*
X26456921Y-8253387D01*
X26446956Y-8274457D01*
X26434974Y-8294448D01*
X26421090Y-8313168D01*
X26405438Y-8330438D01*
X26388168Y-8346090D01*
X26369448Y-8359974D01*
X26349457Y-8371956D01*
X26328387Y-8381921D01*
X26306443Y-8389773D01*
X26283834Y-8395437D01*
X26260779Y-8398856D01*
X26237500Y-8400000D01*
X25762500Y-8400000D01*
X25739221Y-8398856D01*
X25716166Y-8395437D01*
X25693557Y-8389773D01*
X25671613Y-8381921D01*
X25650543Y-8371956D01*
X25630552Y-8359974D01*
X25611832Y-8346090D01*
X25594562Y-8330438D01*
X25578910Y-8313168D01*
X25565026Y-8294448D01*
X25553044Y-8274457D01*
X25543079Y-8253387D01*
X25535227Y-8231443D01*
X25529563Y-8208834D01*
X25526144Y-8185779D01*
X25525000Y-8162500D01*
X25525000Y-7587500D01*
X25526144Y-7564221D01*
X25529563Y-7541166D01*
X25535227Y-7518557D01*
X25543079Y-7496613D01*
X25553044Y-7475543D01*
X25565026Y-7455552D01*
X25578910Y-7436832D01*
X25594562Y-7419562D01*
X25611832Y-7403910D01*
X25630552Y-7390026D01*
X25650543Y-7378044D01*
X25671613Y-7368079D01*
X25693557Y-7360227D01*
X25716166Y-7354563D01*
X25739221Y-7351144D01*
X25762500Y-7350000D01*
X26237500Y-7350000D01*
X26260779Y-7351144D01*
X26260779Y-7351144D01*
G37*
D16*
X26000000Y-7875000D03*
D15*
G36*
X26260779Y-5601144D02*
G01*
X26283834Y-5604563D01*
X26306443Y-5610227D01*
X26328387Y-5618079D01*
X26349457Y-5628044D01*
X26369448Y-5640026D01*
X26388168Y-5653910D01*
X26405438Y-5669562D01*
X26421090Y-5686832D01*
X26434974Y-5705552D01*
X26446956Y-5725543D01*
X26456921Y-5746613D01*
X26464773Y-5768557D01*
X26470437Y-5791166D01*
X26473856Y-5814221D01*
X26475000Y-5837500D01*
X26475000Y-6412500D01*
X26473856Y-6435779D01*
X26470437Y-6458834D01*
X26464773Y-6481443D01*
X26456921Y-6503387D01*
X26446956Y-6524457D01*
X26434974Y-6544448D01*
X26421090Y-6563168D01*
X26405438Y-6580438D01*
X26388168Y-6596090D01*
X26369448Y-6609974D01*
X26349457Y-6621956D01*
X26328387Y-6631921D01*
X26306443Y-6639773D01*
X26283834Y-6645437D01*
X26260779Y-6648856D01*
X26237500Y-6650000D01*
X25762500Y-6650000D01*
X25739221Y-6648856D01*
X25716166Y-6645437D01*
X25693557Y-6639773D01*
X25671613Y-6631921D01*
X25650543Y-6621956D01*
X25630552Y-6609974D01*
X25611832Y-6596090D01*
X25594562Y-6580438D01*
X25578910Y-6563168D01*
X25565026Y-6544448D01*
X25553044Y-6524457D01*
X25543079Y-6503387D01*
X25535227Y-6481443D01*
X25529563Y-6458834D01*
X25526144Y-6435779D01*
X25525000Y-6412500D01*
X25525000Y-5837500D01*
X25526144Y-5814221D01*
X25529563Y-5791166D01*
X25535227Y-5768557D01*
X25543079Y-5746613D01*
X25553044Y-5725543D01*
X25565026Y-5705552D01*
X25578910Y-5686832D01*
X25594562Y-5669562D01*
X25611832Y-5653910D01*
X25630552Y-5640026D01*
X25650543Y-5628044D01*
X25671613Y-5618079D01*
X25693557Y-5610227D01*
X25716166Y-5604563D01*
X25739221Y-5601144D01*
X25762500Y-5600000D01*
X26237500Y-5600000D01*
X26260779Y-5601144D01*
X26260779Y-5601144D01*
G37*
D16*
X26000000Y-6125000D03*
D17*
X32095000Y-25700000D03*
X33365000Y-25700000D03*
X34635000Y-25700000D03*
X35905000Y-25700000D03*
X35905000Y-20300000D03*
X34635000Y-20300000D03*
X33365000Y-20300000D03*
X32095000Y-20300000D03*
D18*
X12500000Y-12950000D03*
X12500000Y-11050000D03*
X9500000Y-12000000D03*
D15*
G36*
X26260779Y-1601144D02*
G01*
X26283834Y-1604563D01*
X26306443Y-1610227D01*
X26328387Y-1618079D01*
X26349457Y-1628044D01*
X26369448Y-1640026D01*
X26388168Y-1653910D01*
X26405438Y-1669562D01*
X26421090Y-1686832D01*
X26434974Y-1705552D01*
X26446956Y-1725543D01*
X26456921Y-1746613D01*
X26464773Y-1768557D01*
X26470437Y-1791166D01*
X26473856Y-1814221D01*
X26475000Y-1837500D01*
X26475000Y-2412500D01*
X26473856Y-2435779D01*
X26470437Y-2458834D01*
X26464773Y-2481443D01*
X26456921Y-2503387D01*
X26446956Y-2524457D01*
X26434974Y-2544448D01*
X26421090Y-2563168D01*
X26405438Y-2580438D01*
X26388168Y-2596090D01*
X26369448Y-2609974D01*
X26349457Y-2621956D01*
X26328387Y-2631921D01*
X26306443Y-2639773D01*
X26283834Y-2645437D01*
X26260779Y-2648856D01*
X26237500Y-2650000D01*
X25762500Y-2650000D01*
X25739221Y-2648856D01*
X25716166Y-2645437D01*
X25693557Y-2639773D01*
X25671613Y-2631921D01*
X25650543Y-2621956D01*
X25630552Y-2609974D01*
X25611832Y-2596090D01*
X25594562Y-2580438D01*
X25578910Y-2563168D01*
X25565026Y-2544448D01*
X25553044Y-2524457D01*
X25543079Y-2503387D01*
X25535227Y-2481443D01*
X25529563Y-2458834D01*
X25526144Y-2435779D01*
X25525000Y-2412500D01*
X25525000Y-1837500D01*
X25526144Y-1814221D01*
X25529563Y-1791166D01*
X25535227Y-1768557D01*
X25543079Y-1746613D01*
X25553044Y-1725543D01*
X25565026Y-1705552D01*
X25578910Y-1686832D01*
X25594562Y-1669562D01*
X25611832Y-1653910D01*
X25630552Y-1640026D01*
X25650543Y-1628044D01*
X25671613Y-1618079D01*
X25693557Y-1610227D01*
X25716166Y-1604563D01*
X25739221Y-1601144D01*
X25762500Y-1600000D01*
X26237500Y-1600000D01*
X26260779Y-1601144D01*
X26260779Y-1601144D01*
G37*
D16*
X26000000Y-2125000D03*
D15*
G36*
X26260779Y-3351144D02*
G01*
X26283834Y-3354563D01*
X26306443Y-3360227D01*
X26328387Y-3368079D01*
X26349457Y-3378044D01*
X26369448Y-3390026D01*
X26388168Y-3403910D01*
X26405438Y-3419562D01*
X26421090Y-3436832D01*
X26434974Y-3455552D01*
X26446956Y-3475543D01*
X26456921Y-3496613D01*
X26464773Y-3518557D01*
X26470437Y-3541166D01*
X26473856Y-3564221D01*
X26475000Y-3587500D01*
X26475000Y-4162500D01*
X26473856Y-4185779D01*
X26470437Y-4208834D01*
X26464773Y-4231443D01*
X26456921Y-4253387D01*
X26446956Y-4274457D01*
X26434974Y-4294448D01*
X26421090Y-4313168D01*
X26405438Y-4330438D01*
X26388168Y-4346090D01*
X26369448Y-4359974D01*
X26349457Y-4371956D01*
X26328387Y-4381921D01*
X26306443Y-4389773D01*
X26283834Y-4395437D01*
X26260779Y-4398856D01*
X26237500Y-4400000D01*
X25762500Y-4400000D01*
X25739221Y-4398856D01*
X25716166Y-4395437D01*
X25693557Y-4389773D01*
X25671613Y-4381921D01*
X25650543Y-4371956D01*
X25630552Y-4359974D01*
X25611832Y-4346090D01*
X25594562Y-4330438D01*
X25578910Y-4313168D01*
X25565026Y-4294448D01*
X25553044Y-4274457D01*
X25543079Y-4253387D01*
X25535227Y-4231443D01*
X25529563Y-4208834D01*
X25526144Y-4185779D01*
X25525000Y-4162500D01*
X25525000Y-3587500D01*
X25526144Y-3564221D01*
X25529563Y-3541166D01*
X25535227Y-3518557D01*
X25543079Y-3496613D01*
X25553044Y-3475543D01*
X25565026Y-3455552D01*
X25578910Y-3436832D01*
X25594562Y-3419562D01*
X25611832Y-3403910D01*
X25630552Y-3390026D01*
X25650543Y-3378044D01*
X25671613Y-3368079D01*
X25693557Y-3360227D01*
X25716166Y-3354563D01*
X25739221Y-3351144D01*
X25762500Y-3350000D01*
X26237500Y-3350000D01*
X26260779Y-3351144D01*
X26260779Y-3351144D01*
G37*
D16*
X26000000Y-3875000D03*
D15*
G36*
X17185779Y-12526144D02*
G01*
X17208834Y-12529563D01*
X17231443Y-12535227D01*
X17253387Y-12543079D01*
X17274457Y-12553044D01*
X17294448Y-12565026D01*
X17313168Y-12578910D01*
X17330438Y-12594562D01*
X17346090Y-12611832D01*
X17359974Y-12630552D01*
X17371956Y-12650543D01*
X17381921Y-12671613D01*
X17389773Y-12693557D01*
X17395437Y-12716166D01*
X17398856Y-12739221D01*
X17400000Y-12762500D01*
X17400000Y-13237500D01*
X17398856Y-13260779D01*
X17395437Y-13283834D01*
X17389773Y-13306443D01*
X17381921Y-13328387D01*
X17371956Y-13349457D01*
X17359974Y-13369448D01*
X17346090Y-13388168D01*
X17330438Y-13405438D01*
X17313168Y-13421090D01*
X17294448Y-13434974D01*
X17274457Y-13446956D01*
X17253387Y-13456921D01*
X17231443Y-13464773D01*
X17208834Y-13470437D01*
X17185779Y-13473856D01*
X17162500Y-13475000D01*
X16587500Y-13475000D01*
X16564221Y-13473856D01*
X16541166Y-13470437D01*
X16518557Y-13464773D01*
X16496613Y-13456921D01*
X16475543Y-13446956D01*
X16455552Y-13434974D01*
X16436832Y-13421090D01*
X16419562Y-13405438D01*
X16403910Y-13388168D01*
X16390026Y-13369448D01*
X16378044Y-13349457D01*
X16368079Y-13328387D01*
X16360227Y-13306443D01*
X16354563Y-13283834D01*
X16351144Y-13260779D01*
X16350000Y-13237500D01*
X16350000Y-12762500D01*
X16351144Y-12739221D01*
X16354563Y-12716166D01*
X16360227Y-12693557D01*
X16368079Y-12671613D01*
X16378044Y-12650543D01*
X16390026Y-12630552D01*
X16403910Y-12611832D01*
X16419562Y-12594562D01*
X16436832Y-12578910D01*
X16455552Y-12565026D01*
X16475543Y-12553044D01*
X16496613Y-12543079D01*
X16518557Y-12535227D01*
X16541166Y-12529563D01*
X16564221Y-12526144D01*
X16587500Y-12525000D01*
X17162500Y-12525000D01*
X17185779Y-12526144D01*
X17185779Y-12526144D01*
G37*
D16*
X16875000Y-13000000D03*
D15*
G36*
X15435779Y-12526144D02*
G01*
X15458834Y-12529563D01*
X15481443Y-12535227D01*
X15503387Y-12543079D01*
X15524457Y-12553044D01*
X15544448Y-12565026D01*
X15563168Y-12578910D01*
X15580438Y-12594562D01*
X15596090Y-12611832D01*
X15609974Y-12630552D01*
X15621956Y-12650543D01*
X15631921Y-12671613D01*
X15639773Y-12693557D01*
X15645437Y-12716166D01*
X15648856Y-12739221D01*
X15650000Y-12762500D01*
X15650000Y-13237500D01*
X15648856Y-13260779D01*
X15645437Y-13283834D01*
X15639773Y-13306443D01*
X15631921Y-13328387D01*
X15621956Y-13349457D01*
X15609974Y-13369448D01*
X15596090Y-13388168D01*
X15580438Y-13405438D01*
X15563168Y-13421090D01*
X15544448Y-13434974D01*
X15524457Y-13446956D01*
X15503387Y-13456921D01*
X15481443Y-13464773D01*
X15458834Y-13470437D01*
X15435779Y-13473856D01*
X15412500Y-13475000D01*
X14837500Y-13475000D01*
X14814221Y-13473856D01*
X14791166Y-13470437D01*
X14768557Y-13464773D01*
X14746613Y-13456921D01*
X14725543Y-13446956D01*
X14705552Y-13434974D01*
X14686832Y-13421090D01*
X14669562Y-13405438D01*
X14653910Y-13388168D01*
X14640026Y-13369448D01*
X14628044Y-13349457D01*
X14618079Y-13328387D01*
X14610227Y-13306443D01*
X14604563Y-13283834D01*
X14601144Y-13260779D01*
X14600000Y-13237500D01*
X14600000Y-12762500D01*
X14601144Y-12739221D01*
X14604563Y-12716166D01*
X14610227Y-12693557D01*
X14618079Y-12671613D01*
X14628044Y-12650543D01*
X14640026Y-12630552D01*
X14653910Y-12611832D01*
X14669562Y-12594562D01*
X14686832Y-12578910D01*
X14705552Y-12565026D01*
X14725543Y-12553044D01*
X14746613Y-12543079D01*
X14768557Y-12535227D01*
X14791166Y-12529563D01*
X14814221Y-12526144D01*
X14837500Y-12525000D01*
X15412500Y-12525000D01*
X15435779Y-12526144D01*
X15435779Y-12526144D01*
G37*
D16*
X15125000Y-13000000D03*
D15*
G36*
X13185779Y-15526144D02*
G01*
X13208834Y-15529563D01*
X13231443Y-15535227D01*
X13253387Y-15543079D01*
X13274457Y-15553044D01*
X13294448Y-15565026D01*
X13313168Y-15578910D01*
X13330438Y-15594562D01*
X13346090Y-15611832D01*
X13359974Y-15630552D01*
X13371956Y-15650543D01*
X13381921Y-15671613D01*
X13389773Y-15693557D01*
X13395437Y-15716166D01*
X13398856Y-15739221D01*
X13400000Y-15762500D01*
X13400000Y-16237500D01*
X13398856Y-16260779D01*
X13395437Y-16283834D01*
X13389773Y-16306443D01*
X13381921Y-16328387D01*
X13371956Y-16349457D01*
X13359974Y-16369448D01*
X13346090Y-16388168D01*
X13330438Y-16405438D01*
X13313168Y-16421090D01*
X13294448Y-16434974D01*
X13274457Y-16446956D01*
X13253387Y-16456921D01*
X13231443Y-16464773D01*
X13208834Y-16470437D01*
X13185779Y-16473856D01*
X13162500Y-16475000D01*
X12587500Y-16475000D01*
X12564221Y-16473856D01*
X12541166Y-16470437D01*
X12518557Y-16464773D01*
X12496613Y-16456921D01*
X12475543Y-16446956D01*
X12455552Y-16434974D01*
X12436832Y-16421090D01*
X12419562Y-16405438D01*
X12403910Y-16388168D01*
X12390026Y-16369448D01*
X12378044Y-16349457D01*
X12368079Y-16328387D01*
X12360227Y-16306443D01*
X12354563Y-16283834D01*
X12351144Y-16260779D01*
X12350000Y-16237500D01*
X12350000Y-15762500D01*
X12351144Y-15739221D01*
X12354563Y-15716166D01*
X12360227Y-15693557D01*
X12368079Y-15671613D01*
X12378044Y-15650543D01*
X12390026Y-15630552D01*
X12403910Y-15611832D01*
X12419562Y-15594562D01*
X12436832Y-15578910D01*
X12455552Y-15565026D01*
X12475543Y-15553044D01*
X12496613Y-15543079D01*
X12518557Y-15535227D01*
X12541166Y-15529563D01*
X12564221Y-15526144D01*
X12587500Y-15525000D01*
X13162500Y-15525000D01*
X13185779Y-15526144D01*
X13185779Y-15526144D01*
G37*
D16*
X12875000Y-16000000D03*
D15*
G36*
X11435779Y-15526144D02*
G01*
X11458834Y-15529563D01*
X11481443Y-15535227D01*
X11503387Y-15543079D01*
X11524457Y-15553044D01*
X11544448Y-15565026D01*
X11563168Y-15578910D01*
X11580438Y-15594562D01*
X11596090Y-15611832D01*
X11609974Y-15630552D01*
X11621956Y-15650543D01*
X11631921Y-15671613D01*
X11639773Y-15693557D01*
X11645437Y-15716166D01*
X11648856Y-15739221D01*
X11650000Y-15762500D01*
X11650000Y-16237500D01*
X11648856Y-16260779D01*
X11645437Y-16283834D01*
X11639773Y-16306443D01*
X11631921Y-16328387D01*
X11621956Y-16349457D01*
X11609974Y-16369448D01*
X11596090Y-16388168D01*
X11580438Y-16405438D01*
X11563168Y-16421090D01*
X11544448Y-16434974D01*
X11524457Y-16446956D01*
X11503387Y-16456921D01*
X11481443Y-16464773D01*
X11458834Y-16470437D01*
X11435779Y-16473856D01*
X11412500Y-16475000D01*
X10837500Y-16475000D01*
X10814221Y-16473856D01*
X10791166Y-16470437D01*
X10768557Y-16464773D01*
X10746613Y-16456921D01*
X10725543Y-16446956D01*
X10705552Y-16434974D01*
X10686832Y-16421090D01*
X10669562Y-16405438D01*
X10653910Y-16388168D01*
X10640026Y-16369448D01*
X10628044Y-16349457D01*
X10618079Y-16328387D01*
X10610227Y-16306443D01*
X10604563Y-16283834D01*
X10601144Y-16260779D01*
X10600000Y-16237500D01*
X10600000Y-15762500D01*
X10601144Y-15739221D01*
X10604563Y-15716166D01*
X10610227Y-15693557D01*
X10618079Y-15671613D01*
X10628044Y-15650543D01*
X10640026Y-15630552D01*
X10653910Y-15611832D01*
X10669562Y-15594562D01*
X10686832Y-15578910D01*
X10705552Y-15565026D01*
X10725543Y-15553044D01*
X10746613Y-15543079D01*
X10768557Y-15535227D01*
X10791166Y-15529563D01*
X10814221Y-15526144D01*
X10837500Y-15525000D01*
X11412500Y-15525000D01*
X11435779Y-15526144D01*
X11435779Y-15526144D01*
G37*
D16*
X11125000Y-16000000D03*
D15*
G36*
X32435779Y-30026144D02*
G01*
X32458834Y-30029563D01*
X32481443Y-30035227D01*
X32503387Y-30043079D01*
X32524457Y-30053044D01*
X32544448Y-30065026D01*
X32563168Y-30078910D01*
X32580438Y-30094562D01*
X32596090Y-30111832D01*
X32609974Y-30130552D01*
X32621956Y-30150543D01*
X32631921Y-30171613D01*
X32639773Y-30193557D01*
X32645437Y-30216166D01*
X32648856Y-30239221D01*
X32650000Y-30262500D01*
X32650000Y-30737500D01*
X32648856Y-30760779D01*
X32645437Y-30783834D01*
X32639773Y-30806443D01*
X32631921Y-30828387D01*
X32621956Y-30849457D01*
X32609974Y-30869448D01*
X32596090Y-30888168D01*
X32580438Y-30905438D01*
X32563168Y-30921090D01*
X32544448Y-30934974D01*
X32524457Y-30946956D01*
X32503387Y-30956921D01*
X32481443Y-30964773D01*
X32458834Y-30970437D01*
X32435779Y-30973856D01*
X32412500Y-30975000D01*
X31837500Y-30975000D01*
X31814221Y-30973856D01*
X31791166Y-30970437D01*
X31768557Y-30964773D01*
X31746613Y-30956921D01*
X31725543Y-30946956D01*
X31705552Y-30934974D01*
X31686832Y-30921090D01*
X31669562Y-30905438D01*
X31653910Y-30888168D01*
X31640026Y-30869448D01*
X31628044Y-30849457D01*
X31618079Y-30828387D01*
X31610227Y-30806443D01*
X31604563Y-30783834D01*
X31601144Y-30760779D01*
X31600000Y-30737500D01*
X31600000Y-30262500D01*
X31601144Y-30239221D01*
X31604563Y-30216166D01*
X31610227Y-30193557D01*
X31618079Y-30171613D01*
X31628044Y-30150543D01*
X31640026Y-30130552D01*
X31653910Y-30111832D01*
X31669562Y-30094562D01*
X31686832Y-30078910D01*
X31705552Y-30065026D01*
X31725543Y-30053044D01*
X31746613Y-30043079D01*
X31768557Y-30035227D01*
X31791166Y-30029563D01*
X31814221Y-30026144D01*
X31837500Y-30025000D01*
X32412500Y-30025000D01*
X32435779Y-30026144D01*
X32435779Y-30026144D01*
G37*
D16*
X32125000Y-30500000D03*
D15*
G36*
X34185779Y-30026144D02*
G01*
X34208834Y-30029563D01*
X34231443Y-30035227D01*
X34253387Y-30043079D01*
X34274457Y-30053044D01*
X34294448Y-30065026D01*
X34313168Y-30078910D01*
X34330438Y-30094562D01*
X34346090Y-30111832D01*
X34359974Y-30130552D01*
X34371956Y-30150543D01*
X34381921Y-30171613D01*
X34389773Y-30193557D01*
X34395437Y-30216166D01*
X34398856Y-30239221D01*
X34400000Y-30262500D01*
X34400000Y-30737500D01*
X34398856Y-30760779D01*
X34395437Y-30783834D01*
X34389773Y-30806443D01*
X34381921Y-30828387D01*
X34371956Y-30849457D01*
X34359974Y-30869448D01*
X34346090Y-30888168D01*
X34330438Y-30905438D01*
X34313168Y-30921090D01*
X34294448Y-30934974D01*
X34274457Y-30946956D01*
X34253387Y-30956921D01*
X34231443Y-30964773D01*
X34208834Y-30970437D01*
X34185779Y-30973856D01*
X34162500Y-30975000D01*
X33587500Y-30975000D01*
X33564221Y-30973856D01*
X33541166Y-30970437D01*
X33518557Y-30964773D01*
X33496613Y-30956921D01*
X33475543Y-30946956D01*
X33455552Y-30934974D01*
X33436832Y-30921090D01*
X33419562Y-30905438D01*
X33403910Y-30888168D01*
X33390026Y-30869448D01*
X33378044Y-30849457D01*
X33368079Y-30828387D01*
X33360227Y-30806443D01*
X33354563Y-30783834D01*
X33351144Y-30760779D01*
X33350000Y-30737500D01*
X33350000Y-30262500D01*
X33351144Y-30239221D01*
X33354563Y-30216166D01*
X33360227Y-30193557D01*
X33368079Y-30171613D01*
X33378044Y-30150543D01*
X33390026Y-30130552D01*
X33403910Y-30111832D01*
X33419562Y-30094562D01*
X33436832Y-30078910D01*
X33455552Y-30065026D01*
X33475543Y-30053044D01*
X33496613Y-30043079D01*
X33518557Y-30035227D01*
X33541166Y-30029563D01*
X33564221Y-30026144D01*
X33587500Y-30025000D01*
X34162500Y-30025000D01*
X34185779Y-30026144D01*
X34185779Y-30026144D01*
G37*
D16*
X33875000Y-30500000D03*
D15*
G36*
X34185779Y-28026144D02*
G01*
X34208834Y-28029563D01*
X34231443Y-28035227D01*
X34253387Y-28043079D01*
X34274457Y-28053044D01*
X34294448Y-28065026D01*
X34313168Y-28078910D01*
X34330438Y-28094562D01*
X34346090Y-28111832D01*
X34359974Y-28130552D01*
X34371956Y-28150543D01*
X34381921Y-28171613D01*
X34389773Y-28193557D01*
X34395437Y-28216166D01*
X34398856Y-28239221D01*
X34400000Y-28262500D01*
X34400000Y-28737500D01*
X34398856Y-28760779D01*
X34395437Y-28783834D01*
X34389773Y-28806443D01*
X34381921Y-28828387D01*
X34371956Y-28849457D01*
X34359974Y-28869448D01*
X34346090Y-28888168D01*
X34330438Y-28905438D01*
X34313168Y-28921090D01*
X34294448Y-28934974D01*
X34274457Y-28946956D01*
X34253387Y-28956921D01*
X34231443Y-28964773D01*
X34208834Y-28970437D01*
X34185779Y-28973856D01*
X34162500Y-28975000D01*
X33587500Y-28975000D01*
X33564221Y-28973856D01*
X33541166Y-28970437D01*
X33518557Y-28964773D01*
X33496613Y-28956921D01*
X33475543Y-28946956D01*
X33455552Y-28934974D01*
X33436832Y-28921090D01*
X33419562Y-28905438D01*
X33403910Y-28888168D01*
X33390026Y-28869448D01*
X33378044Y-28849457D01*
X33368079Y-28828387D01*
X33360227Y-28806443D01*
X33354563Y-28783834D01*
X33351144Y-28760779D01*
X33350000Y-28737500D01*
X33350000Y-28262500D01*
X33351144Y-28239221D01*
X33354563Y-28216166D01*
X33360227Y-28193557D01*
X33368079Y-28171613D01*
X33378044Y-28150543D01*
X33390026Y-28130552D01*
X33403910Y-28111832D01*
X33419562Y-28094562D01*
X33436832Y-28078910D01*
X33455552Y-28065026D01*
X33475543Y-28053044D01*
X33496613Y-28043079D01*
X33518557Y-28035227D01*
X33541166Y-28029563D01*
X33564221Y-28026144D01*
X33587500Y-28025000D01*
X34162500Y-28025000D01*
X34185779Y-28026144D01*
X34185779Y-28026144D01*
G37*
D16*
X33875000Y-28500000D03*
D15*
G36*
X32435779Y-28026144D02*
G01*
X32458834Y-28029563D01*
X32481443Y-28035227D01*
X32503387Y-28043079D01*
X32524457Y-28053044D01*
X32544448Y-28065026D01*
X32563168Y-28078910D01*
X32580438Y-28094562D01*
X32596090Y-28111832D01*
X32609974Y-28130552D01*
X32621956Y-28150543D01*
X32631921Y-28171613D01*
X32639773Y-28193557D01*
X32645437Y-28216166D01*
X32648856Y-28239221D01*
X32650000Y-28262500D01*
X32650000Y-28737500D01*
X32648856Y-28760779D01*
X32645437Y-28783834D01*
X32639773Y-28806443D01*
X32631921Y-28828387D01*
X32621956Y-28849457D01*
X32609974Y-28869448D01*
X32596090Y-28888168D01*
X32580438Y-28905438D01*
X32563168Y-28921090D01*
X32544448Y-28934974D01*
X32524457Y-28946956D01*
X32503387Y-28956921D01*
X32481443Y-28964773D01*
X32458834Y-28970437D01*
X32435779Y-28973856D01*
X32412500Y-28975000D01*
X31837500Y-28975000D01*
X31814221Y-28973856D01*
X31791166Y-28970437D01*
X31768557Y-28964773D01*
X31746613Y-28956921D01*
X31725543Y-28946956D01*
X31705552Y-28934974D01*
X31686832Y-28921090D01*
X31669562Y-28905438D01*
X31653910Y-28888168D01*
X31640026Y-28869448D01*
X31628044Y-28849457D01*
X31618079Y-28828387D01*
X31610227Y-28806443D01*
X31604563Y-28783834D01*
X31601144Y-28760779D01*
X31600000Y-28737500D01*
X31600000Y-28262500D01*
X31601144Y-28239221D01*
X31604563Y-28216166D01*
X31610227Y-28193557D01*
X31618079Y-28171613D01*
X31628044Y-28150543D01*
X31640026Y-28130552D01*
X31653910Y-28111832D01*
X31669562Y-28094562D01*
X31686832Y-28078910D01*
X31705552Y-28065026D01*
X31725543Y-28053044D01*
X31746613Y-28043079D01*
X31768557Y-28035227D01*
X31791166Y-28029563D01*
X31814221Y-28026144D01*
X31837500Y-28025000D01*
X32412500Y-28025000D01*
X32435779Y-28026144D01*
X32435779Y-28026144D01*
G37*
D16*
X32125000Y-28500000D03*
D15*
G36*
X38435779Y-19526144D02*
G01*
X38458834Y-19529563D01*
X38481443Y-19535227D01*
X38503387Y-19543079D01*
X38524457Y-19553044D01*
X38544448Y-19565026D01*
X38563168Y-19578910D01*
X38580438Y-19594562D01*
X38596090Y-19611832D01*
X38609974Y-19630552D01*
X38621956Y-19650543D01*
X38631921Y-19671613D01*
X38639773Y-19693557D01*
X38645437Y-19716166D01*
X38648856Y-19739221D01*
X38650000Y-19762500D01*
X38650000Y-20237500D01*
X38648856Y-20260779D01*
X38645437Y-20283834D01*
X38639773Y-20306443D01*
X38631921Y-20328387D01*
X38621956Y-20349457D01*
X38609974Y-20369448D01*
X38596090Y-20388168D01*
X38580438Y-20405438D01*
X38563168Y-20421090D01*
X38544448Y-20434974D01*
X38524457Y-20446956D01*
X38503387Y-20456921D01*
X38481443Y-20464773D01*
X38458834Y-20470437D01*
X38435779Y-20473856D01*
X38412500Y-20475000D01*
X37837500Y-20475000D01*
X37814221Y-20473856D01*
X37791166Y-20470437D01*
X37768557Y-20464773D01*
X37746613Y-20456921D01*
X37725543Y-20446956D01*
X37705552Y-20434974D01*
X37686832Y-20421090D01*
X37669562Y-20405438D01*
X37653910Y-20388168D01*
X37640026Y-20369448D01*
X37628044Y-20349457D01*
X37618079Y-20328387D01*
X37610227Y-20306443D01*
X37604563Y-20283834D01*
X37601144Y-20260779D01*
X37600000Y-20237500D01*
X37600000Y-19762500D01*
X37601144Y-19739221D01*
X37604563Y-19716166D01*
X37610227Y-19693557D01*
X37618079Y-19671613D01*
X37628044Y-19650543D01*
X37640026Y-19630552D01*
X37653910Y-19611832D01*
X37669562Y-19594562D01*
X37686832Y-19578910D01*
X37705552Y-19565026D01*
X37725543Y-19553044D01*
X37746613Y-19543079D01*
X37768557Y-19535227D01*
X37791166Y-19529563D01*
X37814221Y-19526144D01*
X37837500Y-19525000D01*
X38412500Y-19525000D01*
X38435779Y-19526144D01*
X38435779Y-19526144D01*
G37*
D16*
X38125000Y-20000000D03*
D15*
G36*
X40185779Y-19526144D02*
G01*
X40208834Y-19529563D01*
X40231443Y-19535227D01*
X40253387Y-19543079D01*
X40274457Y-19553044D01*
X40294448Y-19565026D01*
X40313168Y-19578910D01*
X40330438Y-19594562D01*
X40346090Y-19611832D01*
X40359974Y-19630552D01*
X40371956Y-19650543D01*
X40381921Y-19671613D01*
X40389773Y-19693557D01*
X40395437Y-19716166D01*
X40398856Y-19739221D01*
X40400000Y-19762500D01*
X40400000Y-20237500D01*
X40398856Y-20260779D01*
X40395437Y-20283834D01*
X40389773Y-20306443D01*
X40381921Y-20328387D01*
X40371956Y-20349457D01*
X40359974Y-20369448D01*
X40346090Y-20388168D01*
X40330438Y-20405438D01*
X40313168Y-20421090D01*
X40294448Y-20434974D01*
X40274457Y-20446956D01*
X40253387Y-20456921D01*
X40231443Y-20464773D01*
X40208834Y-20470437D01*
X40185779Y-20473856D01*
X40162500Y-20475000D01*
X39587500Y-20475000D01*
X39564221Y-20473856D01*
X39541166Y-20470437D01*
X39518557Y-20464773D01*
X39496613Y-20456921D01*
X39475543Y-20446956D01*
X39455552Y-20434974D01*
X39436832Y-20421090D01*
X39419562Y-20405438D01*
X39403910Y-20388168D01*
X39390026Y-20369448D01*
X39378044Y-20349457D01*
X39368079Y-20328387D01*
X39360227Y-20306443D01*
X39354563Y-20283834D01*
X39351144Y-20260779D01*
X39350000Y-20237500D01*
X39350000Y-19762500D01*
X39351144Y-19739221D01*
X39354563Y-19716166D01*
X39360227Y-19693557D01*
X39368079Y-19671613D01*
X39378044Y-19650543D01*
X39390026Y-19630552D01*
X39403910Y-19611832D01*
X39419562Y-19594562D01*
X39436832Y-19578910D01*
X39455552Y-19565026D01*
X39475543Y-19553044D01*
X39496613Y-19543079D01*
X39518557Y-19535227D01*
X39541166Y-19529563D01*
X39564221Y-19526144D01*
X39587500Y-19525000D01*
X40162500Y-19525000D01*
X40185779Y-19526144D01*
X40185779Y-19526144D01*
G37*
D16*
X39875000Y-20000000D03*
D15*
G36*
X23914504Y-10718297D02*
G01*
X23937559Y-10721716D01*
X23960168Y-10727380D01*
X23982112Y-10735232D01*
X24003182Y-10745197D01*
X24023173Y-10757179D01*
X24041893Y-10771063D01*
X24059163Y-10786715D01*
X24074815Y-10803985D01*
X24088699Y-10822705D01*
X24100681Y-10842696D01*
X24110646Y-10863766D01*
X24118498Y-10885710D01*
X24124162Y-10908319D01*
X24127581Y-10931374D01*
X24128725Y-10954653D01*
X24128725Y-11429653D01*
X24127581Y-11452932D01*
X24124162Y-11475987D01*
X24118498Y-11498596D01*
X24110646Y-11520540D01*
X24100681Y-11541610D01*
X24088699Y-11561601D01*
X24074815Y-11580321D01*
X24059163Y-11597591D01*
X24041893Y-11613243D01*
X24023173Y-11627127D01*
X24003182Y-11639109D01*
X23982112Y-11649074D01*
X23960168Y-11656926D01*
X23937559Y-11662590D01*
X23914504Y-11666009D01*
X23891225Y-11667153D01*
X23316225Y-11667153D01*
X23292946Y-11666009D01*
X23269891Y-11662590D01*
X23247282Y-11656926D01*
X23225338Y-11649074D01*
X23204268Y-11639109D01*
X23184277Y-11627127D01*
X23165557Y-11613243D01*
X23148287Y-11597591D01*
X23132635Y-11580321D01*
X23118751Y-11561601D01*
X23106769Y-11541610D01*
X23096804Y-11520540D01*
X23088952Y-11498596D01*
X23083288Y-11475987D01*
X23079869Y-11452932D01*
X23078725Y-11429653D01*
X23078725Y-10954653D01*
X23079869Y-10931374D01*
X23083288Y-10908319D01*
X23088952Y-10885710D01*
X23096804Y-10863766D01*
X23106769Y-10842696D01*
X23118751Y-10822705D01*
X23132635Y-10803985D01*
X23148287Y-10786715D01*
X23165557Y-10771063D01*
X23184277Y-10757179D01*
X23204268Y-10745197D01*
X23225338Y-10735232D01*
X23247282Y-10727380D01*
X23269891Y-10721716D01*
X23292946Y-10718297D01*
X23316225Y-10717153D01*
X23891225Y-10717153D01*
X23914504Y-10718297D01*
X23914504Y-10718297D01*
G37*
D16*
X23603725Y-11192153D03*
D15*
G36*
X25664504Y-10718297D02*
G01*
X25687559Y-10721716D01*
X25710168Y-10727380D01*
X25732112Y-10735232D01*
X25753182Y-10745197D01*
X25773173Y-10757179D01*
X25791893Y-10771063D01*
X25809163Y-10786715D01*
X25824815Y-10803985D01*
X25838699Y-10822705D01*
X25850681Y-10842696D01*
X25860646Y-10863766D01*
X25868498Y-10885710D01*
X25874162Y-10908319D01*
X25877581Y-10931374D01*
X25878725Y-10954653D01*
X25878725Y-11429653D01*
X25877581Y-11452932D01*
X25874162Y-11475987D01*
X25868498Y-11498596D01*
X25860646Y-11520540D01*
X25850681Y-11541610D01*
X25838699Y-11561601D01*
X25824815Y-11580321D01*
X25809163Y-11597591D01*
X25791893Y-11613243D01*
X25773173Y-11627127D01*
X25753182Y-11639109D01*
X25732112Y-11649074D01*
X25710168Y-11656926D01*
X25687559Y-11662590D01*
X25664504Y-11666009D01*
X25641225Y-11667153D01*
X25066225Y-11667153D01*
X25042946Y-11666009D01*
X25019891Y-11662590D01*
X24997282Y-11656926D01*
X24975338Y-11649074D01*
X24954268Y-11639109D01*
X24934277Y-11627127D01*
X24915557Y-11613243D01*
X24898287Y-11597591D01*
X24882635Y-11580321D01*
X24868751Y-11561601D01*
X24856769Y-11541610D01*
X24846804Y-11520540D01*
X24838952Y-11498596D01*
X24833288Y-11475987D01*
X24829869Y-11452932D01*
X24828725Y-11429653D01*
X24828725Y-10954653D01*
X24829869Y-10931374D01*
X24833288Y-10908319D01*
X24838952Y-10885710D01*
X24846804Y-10863766D01*
X24856769Y-10842696D01*
X24868751Y-10822705D01*
X24882635Y-10803985D01*
X24898287Y-10786715D01*
X24915557Y-10771063D01*
X24934277Y-10757179D01*
X24954268Y-10745197D01*
X24975338Y-10735232D01*
X24997282Y-10727380D01*
X25019891Y-10721716D01*
X25042946Y-10718297D01*
X25066225Y-10717153D01*
X25641225Y-10717153D01*
X25664504Y-10718297D01*
X25664504Y-10718297D01*
G37*
D16*
X25353725Y-11192153D03*
D15*
G36*
X32435779Y-15526144D02*
G01*
X32458834Y-15529563D01*
X32481443Y-15535227D01*
X32503387Y-15543079D01*
X32524457Y-15553044D01*
X32544448Y-15565026D01*
X32563168Y-15578910D01*
X32580438Y-15594562D01*
X32596090Y-15611832D01*
X32609974Y-15630552D01*
X32621956Y-15650543D01*
X32631921Y-15671613D01*
X32639773Y-15693557D01*
X32645437Y-15716166D01*
X32648856Y-15739221D01*
X32650000Y-15762500D01*
X32650000Y-16237500D01*
X32648856Y-16260779D01*
X32645437Y-16283834D01*
X32639773Y-16306443D01*
X32631921Y-16328387D01*
X32621956Y-16349457D01*
X32609974Y-16369448D01*
X32596090Y-16388168D01*
X32580438Y-16405438D01*
X32563168Y-16421090D01*
X32544448Y-16434974D01*
X32524457Y-16446956D01*
X32503387Y-16456921D01*
X32481443Y-16464773D01*
X32458834Y-16470437D01*
X32435779Y-16473856D01*
X32412500Y-16475000D01*
X31837500Y-16475000D01*
X31814221Y-16473856D01*
X31791166Y-16470437D01*
X31768557Y-16464773D01*
X31746613Y-16456921D01*
X31725543Y-16446956D01*
X31705552Y-16434974D01*
X31686832Y-16421090D01*
X31669562Y-16405438D01*
X31653910Y-16388168D01*
X31640026Y-16369448D01*
X31628044Y-16349457D01*
X31618079Y-16328387D01*
X31610227Y-16306443D01*
X31604563Y-16283834D01*
X31601144Y-16260779D01*
X31600000Y-16237500D01*
X31600000Y-15762500D01*
X31601144Y-15739221D01*
X31604563Y-15716166D01*
X31610227Y-15693557D01*
X31618079Y-15671613D01*
X31628044Y-15650543D01*
X31640026Y-15630552D01*
X31653910Y-15611832D01*
X31669562Y-15594562D01*
X31686832Y-15578910D01*
X31705552Y-15565026D01*
X31725543Y-15553044D01*
X31746613Y-15543079D01*
X31768557Y-15535227D01*
X31791166Y-15529563D01*
X31814221Y-15526144D01*
X31837500Y-15525000D01*
X32412500Y-15525000D01*
X32435779Y-15526144D01*
X32435779Y-15526144D01*
G37*
D16*
X32125000Y-16000000D03*
D15*
G36*
X34185779Y-15526144D02*
G01*
X34208834Y-15529563D01*
X34231443Y-15535227D01*
X34253387Y-15543079D01*
X34274457Y-15553044D01*
X34294448Y-15565026D01*
X34313168Y-15578910D01*
X34330438Y-15594562D01*
X34346090Y-15611832D01*
X34359974Y-15630552D01*
X34371956Y-15650543D01*
X34381921Y-15671613D01*
X34389773Y-15693557D01*
X34395437Y-15716166D01*
X34398856Y-15739221D01*
X34400000Y-15762500D01*
X34400000Y-16237500D01*
X34398856Y-16260779D01*
X34395437Y-16283834D01*
X34389773Y-16306443D01*
X34381921Y-16328387D01*
X34371956Y-16349457D01*
X34359974Y-16369448D01*
X34346090Y-16388168D01*
X34330438Y-16405438D01*
X34313168Y-16421090D01*
X34294448Y-16434974D01*
X34274457Y-16446956D01*
X34253387Y-16456921D01*
X34231443Y-16464773D01*
X34208834Y-16470437D01*
X34185779Y-16473856D01*
X34162500Y-16475000D01*
X33587500Y-16475000D01*
X33564221Y-16473856D01*
X33541166Y-16470437D01*
X33518557Y-16464773D01*
X33496613Y-16456921D01*
X33475543Y-16446956D01*
X33455552Y-16434974D01*
X33436832Y-16421090D01*
X33419562Y-16405438D01*
X33403910Y-16388168D01*
X33390026Y-16369448D01*
X33378044Y-16349457D01*
X33368079Y-16328387D01*
X33360227Y-16306443D01*
X33354563Y-16283834D01*
X33351144Y-16260779D01*
X33350000Y-16237500D01*
X33350000Y-15762500D01*
X33351144Y-15739221D01*
X33354563Y-15716166D01*
X33360227Y-15693557D01*
X33368079Y-15671613D01*
X33378044Y-15650543D01*
X33390026Y-15630552D01*
X33403910Y-15611832D01*
X33419562Y-15594562D01*
X33436832Y-15578910D01*
X33455552Y-15565026D01*
X33475543Y-15553044D01*
X33496613Y-15543079D01*
X33518557Y-15535227D01*
X33541166Y-15529563D01*
X33564221Y-15526144D01*
X33587500Y-15525000D01*
X34162500Y-15525000D01*
X34185779Y-15526144D01*
X34185779Y-15526144D01*
G37*
D16*
X33875000Y-16000000D03*
D15*
G36*
X34185779Y-17526144D02*
G01*
X34208834Y-17529563D01*
X34231443Y-17535227D01*
X34253387Y-17543079D01*
X34274457Y-17553044D01*
X34294448Y-17565026D01*
X34313168Y-17578910D01*
X34330438Y-17594562D01*
X34346090Y-17611832D01*
X34359974Y-17630552D01*
X34371956Y-17650543D01*
X34381921Y-17671613D01*
X34389773Y-17693557D01*
X34395437Y-17716166D01*
X34398856Y-17739221D01*
X34400000Y-17762500D01*
X34400000Y-18237500D01*
X34398856Y-18260779D01*
X34395437Y-18283834D01*
X34389773Y-18306443D01*
X34381921Y-18328387D01*
X34371956Y-18349457D01*
X34359974Y-18369448D01*
X34346090Y-18388168D01*
X34330438Y-18405438D01*
X34313168Y-18421090D01*
X34294448Y-18434974D01*
X34274457Y-18446956D01*
X34253387Y-18456921D01*
X34231443Y-18464773D01*
X34208834Y-18470437D01*
X34185779Y-18473856D01*
X34162500Y-18475000D01*
X33587500Y-18475000D01*
X33564221Y-18473856D01*
X33541166Y-18470437D01*
X33518557Y-18464773D01*
X33496613Y-18456921D01*
X33475543Y-18446956D01*
X33455552Y-18434974D01*
X33436832Y-18421090D01*
X33419562Y-18405438D01*
X33403910Y-18388168D01*
X33390026Y-18369448D01*
X33378044Y-18349457D01*
X33368079Y-18328387D01*
X33360227Y-18306443D01*
X33354563Y-18283834D01*
X33351144Y-18260779D01*
X33350000Y-18237500D01*
X33350000Y-17762500D01*
X33351144Y-17739221D01*
X33354563Y-17716166D01*
X33360227Y-17693557D01*
X33368079Y-17671613D01*
X33378044Y-17650543D01*
X33390026Y-17630552D01*
X33403910Y-17611832D01*
X33419562Y-17594562D01*
X33436832Y-17578910D01*
X33455552Y-17565026D01*
X33475543Y-17553044D01*
X33496613Y-17543079D01*
X33518557Y-17535227D01*
X33541166Y-17529563D01*
X33564221Y-17526144D01*
X33587500Y-17525000D01*
X34162500Y-17525000D01*
X34185779Y-17526144D01*
X34185779Y-17526144D01*
G37*
D16*
X33875000Y-18000000D03*
D15*
G36*
X32435779Y-17526144D02*
G01*
X32458834Y-17529563D01*
X32481443Y-17535227D01*
X32503387Y-17543079D01*
X32524457Y-17553044D01*
X32544448Y-17565026D01*
X32563168Y-17578910D01*
X32580438Y-17594562D01*
X32596090Y-17611832D01*
X32609974Y-17630552D01*
X32621956Y-17650543D01*
X32631921Y-17671613D01*
X32639773Y-17693557D01*
X32645437Y-17716166D01*
X32648856Y-17739221D01*
X32650000Y-17762500D01*
X32650000Y-18237500D01*
X32648856Y-18260779D01*
X32645437Y-18283834D01*
X32639773Y-18306443D01*
X32631921Y-18328387D01*
X32621956Y-18349457D01*
X32609974Y-18369448D01*
X32596090Y-18388168D01*
X32580438Y-18405438D01*
X32563168Y-18421090D01*
X32544448Y-18434974D01*
X32524457Y-18446956D01*
X32503387Y-18456921D01*
X32481443Y-18464773D01*
X32458834Y-18470437D01*
X32435779Y-18473856D01*
X32412500Y-18475000D01*
X31837500Y-18475000D01*
X31814221Y-18473856D01*
X31791166Y-18470437D01*
X31768557Y-18464773D01*
X31746613Y-18456921D01*
X31725543Y-18446956D01*
X31705552Y-18434974D01*
X31686832Y-18421090D01*
X31669562Y-18405438D01*
X31653910Y-18388168D01*
X31640026Y-18369448D01*
X31628044Y-18349457D01*
X31618079Y-18328387D01*
X31610227Y-18306443D01*
X31604563Y-18283834D01*
X31601144Y-18260779D01*
X31600000Y-18237500D01*
X31600000Y-17762500D01*
X31601144Y-17739221D01*
X31604563Y-17716166D01*
X31610227Y-17693557D01*
X31618079Y-17671613D01*
X31628044Y-17650543D01*
X31640026Y-17630552D01*
X31653910Y-17611832D01*
X31669562Y-17594562D01*
X31686832Y-17578910D01*
X31705552Y-17565026D01*
X31725543Y-17553044D01*
X31746613Y-17543079D01*
X31768557Y-17535227D01*
X31791166Y-17529563D01*
X31814221Y-17526144D01*
X31837500Y-17525000D01*
X32412500Y-17525000D01*
X32435779Y-17526144D01*
X32435779Y-17526144D01*
G37*
D16*
X32125000Y-18000000D03*
D15*
G36*
X17060779Y-10526144D02*
G01*
X17083834Y-10529563D01*
X17106443Y-10535227D01*
X17128387Y-10543079D01*
X17149457Y-10553044D01*
X17169448Y-10565026D01*
X17188168Y-10578910D01*
X17205438Y-10594562D01*
X17221090Y-10611832D01*
X17234974Y-10630552D01*
X17246956Y-10650543D01*
X17256921Y-10671613D01*
X17264773Y-10693557D01*
X17270437Y-10716166D01*
X17273856Y-10739221D01*
X17275000Y-10762500D01*
X17275000Y-11237500D01*
X17273856Y-11260779D01*
X17270437Y-11283834D01*
X17264773Y-11306443D01*
X17256921Y-11328387D01*
X17246956Y-11349457D01*
X17234974Y-11369448D01*
X17221090Y-11388168D01*
X17205438Y-11405438D01*
X17188168Y-11421090D01*
X17169448Y-11434974D01*
X17149457Y-11446956D01*
X17128387Y-11456921D01*
X17106443Y-11464773D01*
X17083834Y-11470437D01*
X17060779Y-11473856D01*
X17037500Y-11475000D01*
X16462500Y-11475000D01*
X16439221Y-11473856D01*
X16416166Y-11470437D01*
X16393557Y-11464773D01*
X16371613Y-11456921D01*
X16350543Y-11446956D01*
X16330552Y-11434974D01*
X16311832Y-11421090D01*
X16294562Y-11405438D01*
X16278910Y-11388168D01*
X16265026Y-11369448D01*
X16253044Y-11349457D01*
X16243079Y-11328387D01*
X16235227Y-11306443D01*
X16229563Y-11283834D01*
X16226144Y-11260779D01*
X16225000Y-11237500D01*
X16225000Y-10762500D01*
X16226144Y-10739221D01*
X16229563Y-10716166D01*
X16235227Y-10693557D01*
X16243079Y-10671613D01*
X16253044Y-10650543D01*
X16265026Y-10630552D01*
X16278910Y-10611832D01*
X16294562Y-10594562D01*
X16311832Y-10578910D01*
X16330552Y-10565026D01*
X16350543Y-10553044D01*
X16371613Y-10543079D01*
X16393557Y-10535227D01*
X16416166Y-10529563D01*
X16439221Y-10526144D01*
X16462500Y-10525000D01*
X17037500Y-10525000D01*
X17060779Y-10526144D01*
X17060779Y-10526144D01*
G37*
D16*
X16750000Y-11000000D03*
D15*
G36*
X15310779Y-10526144D02*
G01*
X15333834Y-10529563D01*
X15356443Y-10535227D01*
X15378387Y-10543079D01*
X15399457Y-10553044D01*
X15419448Y-10565026D01*
X15438168Y-10578910D01*
X15455438Y-10594562D01*
X15471090Y-10611832D01*
X15484974Y-10630552D01*
X15496956Y-10650543D01*
X15506921Y-10671613D01*
X15514773Y-10693557D01*
X15520437Y-10716166D01*
X15523856Y-10739221D01*
X15525000Y-10762500D01*
X15525000Y-11237500D01*
X15523856Y-11260779D01*
X15520437Y-11283834D01*
X15514773Y-11306443D01*
X15506921Y-11328387D01*
X15496956Y-11349457D01*
X15484974Y-11369448D01*
X15471090Y-11388168D01*
X15455438Y-11405438D01*
X15438168Y-11421090D01*
X15419448Y-11434974D01*
X15399457Y-11446956D01*
X15378387Y-11456921D01*
X15356443Y-11464773D01*
X15333834Y-11470437D01*
X15310779Y-11473856D01*
X15287500Y-11475000D01*
X14712500Y-11475000D01*
X14689221Y-11473856D01*
X14666166Y-11470437D01*
X14643557Y-11464773D01*
X14621613Y-11456921D01*
X14600543Y-11446956D01*
X14580552Y-11434974D01*
X14561832Y-11421090D01*
X14544562Y-11405438D01*
X14528910Y-11388168D01*
X14515026Y-11369448D01*
X14503044Y-11349457D01*
X14493079Y-11328387D01*
X14485227Y-11306443D01*
X14479563Y-11283834D01*
X14476144Y-11260779D01*
X14475000Y-11237500D01*
X14475000Y-10762500D01*
X14476144Y-10739221D01*
X14479563Y-10716166D01*
X14485227Y-10693557D01*
X14493079Y-10671613D01*
X14503044Y-10650543D01*
X14515026Y-10630552D01*
X14528910Y-10611832D01*
X14544562Y-10594562D01*
X14561832Y-10578910D01*
X14580552Y-10565026D01*
X14600543Y-10553044D01*
X14621613Y-10543079D01*
X14643557Y-10535227D01*
X14666166Y-10529563D01*
X14689221Y-10526144D01*
X14712500Y-10525000D01*
X15287500Y-10525000D01*
X15310779Y-10526144D01*
X15310779Y-10526144D01*
G37*
D16*
X15000000Y-11000000D03*
D15*
G36*
X40185779Y-25526144D02*
G01*
X40208834Y-25529563D01*
X40231443Y-25535227D01*
X40253387Y-25543079D01*
X40274457Y-25553044D01*
X40294448Y-25565026D01*
X40313168Y-25578910D01*
X40330438Y-25594562D01*
X40346090Y-25611832D01*
X40359974Y-25630552D01*
X40371956Y-25650543D01*
X40381921Y-25671613D01*
X40389773Y-25693557D01*
X40395437Y-25716166D01*
X40398856Y-25739221D01*
X40400000Y-25762500D01*
X40400000Y-26237500D01*
X40398856Y-26260779D01*
X40395437Y-26283834D01*
X40389773Y-26306443D01*
X40381921Y-26328387D01*
X40371956Y-26349457D01*
X40359974Y-26369448D01*
X40346090Y-26388168D01*
X40330438Y-26405438D01*
X40313168Y-26421090D01*
X40294448Y-26434974D01*
X40274457Y-26446956D01*
X40253387Y-26456921D01*
X40231443Y-26464773D01*
X40208834Y-26470437D01*
X40185779Y-26473856D01*
X40162500Y-26475000D01*
X39587500Y-26475000D01*
X39564221Y-26473856D01*
X39541166Y-26470437D01*
X39518557Y-26464773D01*
X39496613Y-26456921D01*
X39475543Y-26446956D01*
X39455552Y-26434974D01*
X39436832Y-26421090D01*
X39419562Y-26405438D01*
X39403910Y-26388168D01*
X39390026Y-26369448D01*
X39378044Y-26349457D01*
X39368079Y-26328387D01*
X39360227Y-26306443D01*
X39354563Y-26283834D01*
X39351144Y-26260779D01*
X39350000Y-26237500D01*
X39350000Y-25762500D01*
X39351144Y-25739221D01*
X39354563Y-25716166D01*
X39360227Y-25693557D01*
X39368079Y-25671613D01*
X39378044Y-25650543D01*
X39390026Y-25630552D01*
X39403910Y-25611832D01*
X39419562Y-25594562D01*
X39436832Y-25578910D01*
X39455552Y-25565026D01*
X39475543Y-25553044D01*
X39496613Y-25543079D01*
X39518557Y-25535227D01*
X39541166Y-25529563D01*
X39564221Y-25526144D01*
X39587500Y-25525000D01*
X40162500Y-25525000D01*
X40185779Y-25526144D01*
X40185779Y-25526144D01*
G37*
D16*
X39875000Y-26000000D03*
D15*
G36*
X38435779Y-25526144D02*
G01*
X38458834Y-25529563D01*
X38481443Y-25535227D01*
X38503387Y-25543079D01*
X38524457Y-25553044D01*
X38544448Y-25565026D01*
X38563168Y-25578910D01*
X38580438Y-25594562D01*
X38596090Y-25611832D01*
X38609974Y-25630552D01*
X38621956Y-25650543D01*
X38631921Y-25671613D01*
X38639773Y-25693557D01*
X38645437Y-25716166D01*
X38648856Y-25739221D01*
X38650000Y-25762500D01*
X38650000Y-26237500D01*
X38648856Y-26260779D01*
X38645437Y-26283834D01*
X38639773Y-26306443D01*
X38631921Y-26328387D01*
X38621956Y-26349457D01*
X38609974Y-26369448D01*
X38596090Y-26388168D01*
X38580438Y-26405438D01*
X38563168Y-26421090D01*
X38544448Y-26434974D01*
X38524457Y-26446956D01*
X38503387Y-26456921D01*
X38481443Y-26464773D01*
X38458834Y-26470437D01*
X38435779Y-26473856D01*
X38412500Y-26475000D01*
X37837500Y-26475000D01*
X37814221Y-26473856D01*
X37791166Y-26470437D01*
X37768557Y-26464773D01*
X37746613Y-26456921D01*
X37725543Y-26446956D01*
X37705552Y-26434974D01*
X37686832Y-26421090D01*
X37669562Y-26405438D01*
X37653910Y-26388168D01*
X37640026Y-26369448D01*
X37628044Y-26349457D01*
X37618079Y-26328387D01*
X37610227Y-26306443D01*
X37604563Y-26283834D01*
X37601144Y-26260779D01*
X37600000Y-26237500D01*
X37600000Y-25762500D01*
X37601144Y-25739221D01*
X37604563Y-25716166D01*
X37610227Y-25693557D01*
X37618079Y-25671613D01*
X37628044Y-25650543D01*
X37640026Y-25630552D01*
X37653910Y-25611832D01*
X37669562Y-25594562D01*
X37686832Y-25578910D01*
X37705552Y-25565026D01*
X37725543Y-25553044D01*
X37746613Y-25543079D01*
X37768557Y-25535227D01*
X37791166Y-25529563D01*
X37814221Y-25526144D01*
X37837500Y-25525000D01*
X38412500Y-25525000D01*
X38435779Y-25526144D01*
X38435779Y-25526144D01*
G37*
D16*
X38125000Y-26000000D03*
D15*
G36*
X15310779Y-17526144D02*
G01*
X15333834Y-17529563D01*
X15356443Y-17535227D01*
X15378387Y-17543079D01*
X15399457Y-17553044D01*
X15419448Y-17565026D01*
X15438168Y-17578910D01*
X15455438Y-17594562D01*
X15471090Y-17611832D01*
X15484974Y-17630552D01*
X15496956Y-17650543D01*
X15506921Y-17671613D01*
X15514773Y-17693557D01*
X15520437Y-17716166D01*
X15523856Y-17739221D01*
X15525000Y-17762500D01*
X15525000Y-18237500D01*
X15523856Y-18260779D01*
X15520437Y-18283834D01*
X15514773Y-18306443D01*
X15506921Y-18328387D01*
X15496956Y-18349457D01*
X15484974Y-18369448D01*
X15471090Y-18388168D01*
X15455438Y-18405438D01*
X15438168Y-18421090D01*
X15419448Y-18434974D01*
X15399457Y-18446956D01*
X15378387Y-18456921D01*
X15356443Y-18464773D01*
X15333834Y-18470437D01*
X15310779Y-18473856D01*
X15287500Y-18475000D01*
X14712500Y-18475000D01*
X14689221Y-18473856D01*
X14666166Y-18470437D01*
X14643557Y-18464773D01*
X14621613Y-18456921D01*
X14600543Y-18446956D01*
X14580552Y-18434974D01*
X14561832Y-18421090D01*
X14544562Y-18405438D01*
X14528910Y-18388168D01*
X14515026Y-18369448D01*
X14503044Y-18349457D01*
X14493079Y-18328387D01*
X14485227Y-18306443D01*
X14479563Y-18283834D01*
X14476144Y-18260779D01*
X14475000Y-18237500D01*
X14475000Y-17762500D01*
X14476144Y-17739221D01*
X14479563Y-17716166D01*
X14485227Y-17693557D01*
X14493079Y-17671613D01*
X14503044Y-17650543D01*
X14515026Y-17630552D01*
X14528910Y-17611832D01*
X14544562Y-17594562D01*
X14561832Y-17578910D01*
X14580552Y-17565026D01*
X14600543Y-17553044D01*
X14621613Y-17543079D01*
X14643557Y-17535227D01*
X14666166Y-17529563D01*
X14689221Y-17526144D01*
X14712500Y-17525000D01*
X15287500Y-17525000D01*
X15310779Y-17526144D01*
X15310779Y-17526144D01*
G37*
D16*
X15000000Y-18000000D03*
D15*
G36*
X17060779Y-17526144D02*
G01*
X17083834Y-17529563D01*
X17106443Y-17535227D01*
X17128387Y-17543079D01*
X17149457Y-17553044D01*
X17169448Y-17565026D01*
X17188168Y-17578910D01*
X17205438Y-17594562D01*
X17221090Y-17611832D01*
X17234974Y-17630552D01*
X17246956Y-17650543D01*
X17256921Y-17671613D01*
X17264773Y-17693557D01*
X17270437Y-17716166D01*
X17273856Y-17739221D01*
X17275000Y-17762500D01*
X17275000Y-18237500D01*
X17273856Y-18260779D01*
X17270437Y-18283834D01*
X17264773Y-18306443D01*
X17256921Y-18328387D01*
X17246956Y-18349457D01*
X17234974Y-18369448D01*
X17221090Y-18388168D01*
X17205438Y-18405438D01*
X17188168Y-18421090D01*
X17169448Y-18434974D01*
X17149457Y-18446956D01*
X17128387Y-18456921D01*
X17106443Y-18464773D01*
X17083834Y-18470437D01*
X17060779Y-18473856D01*
X17037500Y-18475000D01*
X16462500Y-18475000D01*
X16439221Y-18473856D01*
X16416166Y-18470437D01*
X16393557Y-18464773D01*
X16371613Y-18456921D01*
X16350543Y-18446956D01*
X16330552Y-18434974D01*
X16311832Y-18421090D01*
X16294562Y-18405438D01*
X16278910Y-18388168D01*
X16265026Y-18369448D01*
X16253044Y-18349457D01*
X16243079Y-18328387D01*
X16235227Y-18306443D01*
X16229563Y-18283834D01*
X16226144Y-18260779D01*
X16225000Y-18237500D01*
X16225000Y-17762500D01*
X16226144Y-17739221D01*
X16229563Y-17716166D01*
X16235227Y-17693557D01*
X16243079Y-17671613D01*
X16253044Y-17650543D01*
X16265026Y-17630552D01*
X16278910Y-17611832D01*
X16294562Y-17594562D01*
X16311832Y-17578910D01*
X16330552Y-17565026D01*
X16350543Y-17553044D01*
X16371613Y-17543079D01*
X16393557Y-17535227D01*
X16416166Y-17529563D01*
X16439221Y-17526144D01*
X16462500Y-17525000D01*
X17037500Y-17525000D01*
X17060779Y-17526144D01*
X17060779Y-17526144D01*
G37*
D16*
X16750000Y-18000000D03*
D15*
G36*
X6760779Y-9476144D02*
G01*
X6783834Y-9479563D01*
X6806443Y-9485227D01*
X6828387Y-9493079D01*
X6849457Y-9503044D01*
X6869448Y-9515026D01*
X6888168Y-9528910D01*
X6905438Y-9544562D01*
X6921090Y-9561832D01*
X6934974Y-9580552D01*
X6946956Y-9600543D01*
X6956921Y-9621613D01*
X6964773Y-9643557D01*
X6970437Y-9666166D01*
X6973856Y-9689221D01*
X6975000Y-9712500D01*
X6975000Y-10287500D01*
X6973856Y-10310779D01*
X6970437Y-10333834D01*
X6964773Y-10356443D01*
X6956921Y-10378387D01*
X6946956Y-10399457D01*
X6934974Y-10419448D01*
X6921090Y-10438168D01*
X6905438Y-10455438D01*
X6888168Y-10471090D01*
X6869448Y-10484974D01*
X6849457Y-10496956D01*
X6828387Y-10506921D01*
X6806443Y-10514773D01*
X6783834Y-10520437D01*
X6760779Y-10523856D01*
X6737500Y-10525000D01*
X6262500Y-10525000D01*
X6239221Y-10523856D01*
X6216166Y-10520437D01*
X6193557Y-10514773D01*
X6171613Y-10506921D01*
X6150543Y-10496956D01*
X6130552Y-10484974D01*
X6111832Y-10471090D01*
X6094562Y-10455438D01*
X6078910Y-10438168D01*
X6065026Y-10419448D01*
X6053044Y-10399457D01*
X6043079Y-10378387D01*
X6035227Y-10356443D01*
X6029563Y-10333834D01*
X6026144Y-10310779D01*
X6025000Y-10287500D01*
X6025000Y-9712500D01*
X6026144Y-9689221D01*
X6029563Y-9666166D01*
X6035227Y-9643557D01*
X6043079Y-9621613D01*
X6053044Y-9600543D01*
X6065026Y-9580552D01*
X6078910Y-9561832D01*
X6094562Y-9544562D01*
X6111832Y-9528910D01*
X6130552Y-9515026D01*
X6150543Y-9503044D01*
X6171613Y-9493079D01*
X6193557Y-9485227D01*
X6216166Y-9479563D01*
X6239221Y-9476144D01*
X6262500Y-9475000D01*
X6737500Y-9475000D01*
X6760779Y-9476144D01*
X6760779Y-9476144D01*
G37*
D16*
X6500000Y-10000000D03*
D15*
G36*
X6760779Y-7726144D02*
G01*
X6783834Y-7729563D01*
X6806443Y-7735227D01*
X6828387Y-7743079D01*
X6849457Y-7753044D01*
X6869448Y-7765026D01*
X6888168Y-7778910D01*
X6905438Y-7794562D01*
X6921090Y-7811832D01*
X6934974Y-7830552D01*
X6946956Y-7850543D01*
X6956921Y-7871613D01*
X6964773Y-7893557D01*
X6970437Y-7916166D01*
X6973856Y-7939221D01*
X6975000Y-7962500D01*
X6975000Y-8537500D01*
X6973856Y-8560779D01*
X6970437Y-8583834D01*
X6964773Y-8606443D01*
X6956921Y-8628387D01*
X6946956Y-8649457D01*
X6934974Y-8669448D01*
X6921090Y-8688168D01*
X6905438Y-8705438D01*
X6888168Y-8721090D01*
X6869448Y-8734974D01*
X6849457Y-8746956D01*
X6828387Y-8756921D01*
X6806443Y-8764773D01*
X6783834Y-8770437D01*
X6760779Y-8773856D01*
X6737500Y-8775000D01*
X6262500Y-8775000D01*
X6239221Y-8773856D01*
X6216166Y-8770437D01*
X6193557Y-8764773D01*
X6171613Y-8756921D01*
X6150543Y-8746956D01*
X6130552Y-8734974D01*
X6111832Y-8721090D01*
X6094562Y-8705438D01*
X6078910Y-8688168D01*
X6065026Y-8669448D01*
X6053044Y-8649457D01*
X6043079Y-8628387D01*
X6035227Y-8606443D01*
X6029563Y-8583834D01*
X6026144Y-8560779D01*
X6025000Y-8537500D01*
X6025000Y-7962500D01*
X6026144Y-7939221D01*
X6029563Y-7916166D01*
X6035227Y-7893557D01*
X6043079Y-7871613D01*
X6053044Y-7850543D01*
X6065026Y-7830552D01*
X6078910Y-7811832D01*
X6094562Y-7794562D01*
X6111832Y-7778910D01*
X6130552Y-7765026D01*
X6150543Y-7753044D01*
X6171613Y-7743079D01*
X6193557Y-7735227D01*
X6216166Y-7729563D01*
X6239221Y-7726144D01*
X6262500Y-7725000D01*
X6737500Y-7725000D01*
X6760779Y-7726144D01*
X6760779Y-7726144D01*
G37*
D16*
X6500000Y-8250000D03*
D15*
G36*
X12435779Y-28026144D02*
G01*
X12458834Y-28029563D01*
X12481443Y-28035227D01*
X12503387Y-28043079D01*
X12524457Y-28053044D01*
X12544448Y-28065026D01*
X12563168Y-28078910D01*
X12580438Y-28094562D01*
X12596090Y-28111832D01*
X12609974Y-28130552D01*
X12621956Y-28150543D01*
X12631921Y-28171613D01*
X12639773Y-28193557D01*
X12645437Y-28216166D01*
X12648856Y-28239221D01*
X12650000Y-28262500D01*
X12650000Y-28737500D01*
X12648856Y-28760779D01*
X12645437Y-28783834D01*
X12639773Y-28806443D01*
X12631921Y-28828387D01*
X12621956Y-28849457D01*
X12609974Y-28869448D01*
X12596090Y-28888168D01*
X12580438Y-28905438D01*
X12563168Y-28921090D01*
X12544448Y-28934974D01*
X12524457Y-28946956D01*
X12503387Y-28956921D01*
X12481443Y-28964773D01*
X12458834Y-28970437D01*
X12435779Y-28973856D01*
X12412500Y-28975000D01*
X11837500Y-28975000D01*
X11814221Y-28973856D01*
X11791166Y-28970437D01*
X11768557Y-28964773D01*
X11746613Y-28956921D01*
X11725543Y-28946956D01*
X11705552Y-28934974D01*
X11686832Y-28921090D01*
X11669562Y-28905438D01*
X11653910Y-28888168D01*
X11640026Y-28869448D01*
X11628044Y-28849457D01*
X11618079Y-28828387D01*
X11610227Y-28806443D01*
X11604563Y-28783834D01*
X11601144Y-28760779D01*
X11600000Y-28737500D01*
X11600000Y-28262500D01*
X11601144Y-28239221D01*
X11604563Y-28216166D01*
X11610227Y-28193557D01*
X11618079Y-28171613D01*
X11628044Y-28150543D01*
X11640026Y-28130552D01*
X11653910Y-28111832D01*
X11669562Y-28094562D01*
X11686832Y-28078910D01*
X11705552Y-28065026D01*
X11725543Y-28053044D01*
X11746613Y-28043079D01*
X11768557Y-28035227D01*
X11791166Y-28029563D01*
X11814221Y-28026144D01*
X11837500Y-28025000D01*
X12412500Y-28025000D01*
X12435779Y-28026144D01*
X12435779Y-28026144D01*
G37*
D16*
X12125000Y-28500000D03*
D15*
G36*
X14185779Y-28026144D02*
G01*
X14208834Y-28029563D01*
X14231443Y-28035227D01*
X14253387Y-28043079D01*
X14274457Y-28053044D01*
X14294448Y-28065026D01*
X14313168Y-28078910D01*
X14330438Y-28094562D01*
X14346090Y-28111832D01*
X14359974Y-28130552D01*
X14371956Y-28150543D01*
X14381921Y-28171613D01*
X14389773Y-28193557D01*
X14395437Y-28216166D01*
X14398856Y-28239221D01*
X14400000Y-28262500D01*
X14400000Y-28737500D01*
X14398856Y-28760779D01*
X14395437Y-28783834D01*
X14389773Y-28806443D01*
X14381921Y-28828387D01*
X14371956Y-28849457D01*
X14359974Y-28869448D01*
X14346090Y-28888168D01*
X14330438Y-28905438D01*
X14313168Y-28921090D01*
X14294448Y-28934974D01*
X14274457Y-28946956D01*
X14253387Y-28956921D01*
X14231443Y-28964773D01*
X14208834Y-28970437D01*
X14185779Y-28973856D01*
X14162500Y-28975000D01*
X13587500Y-28975000D01*
X13564221Y-28973856D01*
X13541166Y-28970437D01*
X13518557Y-28964773D01*
X13496613Y-28956921D01*
X13475543Y-28946956D01*
X13455552Y-28934974D01*
X13436832Y-28921090D01*
X13419562Y-28905438D01*
X13403910Y-28888168D01*
X13390026Y-28869448D01*
X13378044Y-28849457D01*
X13368079Y-28828387D01*
X13360227Y-28806443D01*
X13354563Y-28783834D01*
X13351144Y-28760779D01*
X13350000Y-28737500D01*
X13350000Y-28262500D01*
X13351144Y-28239221D01*
X13354563Y-28216166D01*
X13360227Y-28193557D01*
X13368079Y-28171613D01*
X13378044Y-28150543D01*
X13390026Y-28130552D01*
X13403910Y-28111832D01*
X13419562Y-28094562D01*
X13436832Y-28078910D01*
X13455552Y-28065026D01*
X13475543Y-28053044D01*
X13496613Y-28043079D01*
X13518557Y-28035227D01*
X13541166Y-28029563D01*
X13564221Y-28026144D01*
X13587500Y-28025000D01*
X14162500Y-28025000D01*
X14185779Y-28026144D01*
X14185779Y-28026144D01*
G37*
D16*
X13875000Y-28500000D03*
D15*
G36*
X18185779Y-28026144D02*
G01*
X18208834Y-28029563D01*
X18231443Y-28035227D01*
X18253387Y-28043079D01*
X18274457Y-28053044D01*
X18294448Y-28065026D01*
X18313168Y-28078910D01*
X18330438Y-28094562D01*
X18346090Y-28111832D01*
X18359974Y-28130552D01*
X18371956Y-28150543D01*
X18381921Y-28171613D01*
X18389773Y-28193557D01*
X18395437Y-28216166D01*
X18398856Y-28239221D01*
X18400000Y-28262500D01*
X18400000Y-28737500D01*
X18398856Y-28760779D01*
X18395437Y-28783834D01*
X18389773Y-28806443D01*
X18381921Y-28828387D01*
X18371956Y-28849457D01*
X18359974Y-28869448D01*
X18346090Y-28888168D01*
X18330438Y-28905438D01*
X18313168Y-28921090D01*
X18294448Y-28934974D01*
X18274457Y-28946956D01*
X18253387Y-28956921D01*
X18231443Y-28964773D01*
X18208834Y-28970437D01*
X18185779Y-28973856D01*
X18162500Y-28975000D01*
X17587500Y-28975000D01*
X17564221Y-28973856D01*
X17541166Y-28970437D01*
X17518557Y-28964773D01*
X17496613Y-28956921D01*
X17475543Y-28946956D01*
X17455552Y-28934974D01*
X17436832Y-28921090D01*
X17419562Y-28905438D01*
X17403910Y-28888168D01*
X17390026Y-28869448D01*
X17378044Y-28849457D01*
X17368079Y-28828387D01*
X17360227Y-28806443D01*
X17354563Y-28783834D01*
X17351144Y-28760779D01*
X17350000Y-28737500D01*
X17350000Y-28262500D01*
X17351144Y-28239221D01*
X17354563Y-28216166D01*
X17360227Y-28193557D01*
X17368079Y-28171613D01*
X17378044Y-28150543D01*
X17390026Y-28130552D01*
X17403910Y-28111832D01*
X17419562Y-28094562D01*
X17436832Y-28078910D01*
X17455552Y-28065026D01*
X17475543Y-28053044D01*
X17496613Y-28043079D01*
X17518557Y-28035227D01*
X17541166Y-28029563D01*
X17564221Y-28026144D01*
X17587500Y-28025000D01*
X18162500Y-28025000D01*
X18185779Y-28026144D01*
X18185779Y-28026144D01*
G37*
D16*
X17875000Y-28500000D03*
D15*
G36*
X16435779Y-28026144D02*
G01*
X16458834Y-28029563D01*
X16481443Y-28035227D01*
X16503387Y-28043079D01*
X16524457Y-28053044D01*
X16544448Y-28065026D01*
X16563168Y-28078910D01*
X16580438Y-28094562D01*
X16596090Y-28111832D01*
X16609974Y-28130552D01*
X16621956Y-28150543D01*
X16631921Y-28171613D01*
X16639773Y-28193557D01*
X16645437Y-28216166D01*
X16648856Y-28239221D01*
X16650000Y-28262500D01*
X16650000Y-28737500D01*
X16648856Y-28760779D01*
X16645437Y-28783834D01*
X16639773Y-28806443D01*
X16631921Y-28828387D01*
X16621956Y-28849457D01*
X16609974Y-28869448D01*
X16596090Y-28888168D01*
X16580438Y-28905438D01*
X16563168Y-28921090D01*
X16544448Y-28934974D01*
X16524457Y-28946956D01*
X16503387Y-28956921D01*
X16481443Y-28964773D01*
X16458834Y-28970437D01*
X16435779Y-28973856D01*
X16412500Y-28975000D01*
X15837500Y-28975000D01*
X15814221Y-28973856D01*
X15791166Y-28970437D01*
X15768557Y-28964773D01*
X15746613Y-28956921D01*
X15725543Y-28946956D01*
X15705552Y-28934974D01*
X15686832Y-28921090D01*
X15669562Y-28905438D01*
X15653910Y-28888168D01*
X15640026Y-28869448D01*
X15628044Y-28849457D01*
X15618079Y-28828387D01*
X15610227Y-28806443D01*
X15604563Y-28783834D01*
X15601144Y-28760779D01*
X15600000Y-28737500D01*
X15600000Y-28262500D01*
X15601144Y-28239221D01*
X15604563Y-28216166D01*
X15610227Y-28193557D01*
X15618079Y-28171613D01*
X15628044Y-28150543D01*
X15640026Y-28130552D01*
X15653910Y-28111832D01*
X15669562Y-28094562D01*
X15686832Y-28078910D01*
X15705552Y-28065026D01*
X15725543Y-28053044D01*
X15746613Y-28043079D01*
X15768557Y-28035227D01*
X15791166Y-28029563D01*
X15814221Y-28026144D01*
X15837500Y-28025000D01*
X16412500Y-28025000D01*
X16435779Y-28026144D01*
X16435779Y-28026144D01*
G37*
D16*
X16125000Y-28500000D03*
D15*
G36*
X18260779Y-5601144D02*
G01*
X18283834Y-5604563D01*
X18306443Y-5610227D01*
X18328387Y-5618079D01*
X18349457Y-5628044D01*
X18369448Y-5640026D01*
X18388168Y-5653910D01*
X18405438Y-5669562D01*
X18421090Y-5686832D01*
X18434974Y-5705552D01*
X18446956Y-5725543D01*
X18456921Y-5746613D01*
X18464773Y-5768557D01*
X18470437Y-5791166D01*
X18473856Y-5814221D01*
X18475000Y-5837500D01*
X18475000Y-6412500D01*
X18473856Y-6435779D01*
X18470437Y-6458834D01*
X18464773Y-6481443D01*
X18456921Y-6503387D01*
X18446956Y-6524457D01*
X18434974Y-6544448D01*
X18421090Y-6563168D01*
X18405438Y-6580438D01*
X18388168Y-6596090D01*
X18369448Y-6609974D01*
X18349457Y-6621956D01*
X18328387Y-6631921D01*
X18306443Y-6639773D01*
X18283834Y-6645437D01*
X18260779Y-6648856D01*
X18237500Y-6650000D01*
X17762500Y-6650000D01*
X17739221Y-6648856D01*
X17716166Y-6645437D01*
X17693557Y-6639773D01*
X17671613Y-6631921D01*
X17650543Y-6621956D01*
X17630552Y-6609974D01*
X17611832Y-6596090D01*
X17594562Y-6580438D01*
X17578910Y-6563168D01*
X17565026Y-6544448D01*
X17553044Y-6524457D01*
X17543079Y-6503387D01*
X17535227Y-6481443D01*
X17529563Y-6458834D01*
X17526144Y-6435779D01*
X17525000Y-6412500D01*
X17525000Y-5837500D01*
X17526144Y-5814221D01*
X17529563Y-5791166D01*
X17535227Y-5768557D01*
X17543079Y-5746613D01*
X17553044Y-5725543D01*
X17565026Y-5705552D01*
X17578910Y-5686832D01*
X17594562Y-5669562D01*
X17611832Y-5653910D01*
X17630552Y-5640026D01*
X17650543Y-5628044D01*
X17671613Y-5618079D01*
X17693557Y-5610227D01*
X17716166Y-5604563D01*
X17739221Y-5601144D01*
X17762500Y-5600000D01*
X18237500Y-5600000D01*
X18260779Y-5601144D01*
X18260779Y-5601144D01*
G37*
D16*
X18000000Y-6125000D03*
D15*
G36*
X18260779Y-7351144D02*
G01*
X18283834Y-7354563D01*
X18306443Y-7360227D01*
X18328387Y-7368079D01*
X18349457Y-7378044D01*
X18369448Y-7390026D01*
X18388168Y-7403910D01*
X18405438Y-7419562D01*
X18421090Y-7436832D01*
X18434974Y-7455552D01*
X18446956Y-7475543D01*
X18456921Y-7496613D01*
X18464773Y-7518557D01*
X18470437Y-7541166D01*
X18473856Y-7564221D01*
X18475000Y-7587500D01*
X18475000Y-8162500D01*
X18473856Y-8185779D01*
X18470437Y-8208834D01*
X18464773Y-8231443D01*
X18456921Y-8253387D01*
X18446956Y-8274457D01*
X18434974Y-8294448D01*
X18421090Y-8313168D01*
X18405438Y-8330438D01*
X18388168Y-8346090D01*
X18369448Y-8359974D01*
X18349457Y-8371956D01*
X18328387Y-8381921D01*
X18306443Y-8389773D01*
X18283834Y-8395437D01*
X18260779Y-8398856D01*
X18237500Y-8400000D01*
X17762500Y-8400000D01*
X17739221Y-8398856D01*
X17716166Y-8395437D01*
X17693557Y-8389773D01*
X17671613Y-8381921D01*
X17650543Y-8371956D01*
X17630552Y-8359974D01*
X17611832Y-8346090D01*
X17594562Y-8330438D01*
X17578910Y-8313168D01*
X17565026Y-8294448D01*
X17553044Y-8274457D01*
X17543079Y-8253387D01*
X17535227Y-8231443D01*
X17529563Y-8208834D01*
X17526144Y-8185779D01*
X17525000Y-8162500D01*
X17525000Y-7587500D01*
X17526144Y-7564221D01*
X17529563Y-7541166D01*
X17535227Y-7518557D01*
X17543079Y-7496613D01*
X17553044Y-7475543D01*
X17565026Y-7455552D01*
X17578910Y-7436832D01*
X17594562Y-7419562D01*
X17611832Y-7403910D01*
X17630552Y-7390026D01*
X17650543Y-7378044D01*
X17671613Y-7368079D01*
X17693557Y-7360227D01*
X17716166Y-7354563D01*
X17739221Y-7351144D01*
X17762500Y-7350000D01*
X18237500Y-7350000D01*
X18260779Y-7351144D01*
X18260779Y-7351144D01*
G37*
D16*
X18000000Y-7875000D03*
D15*
G36*
X20435779Y-30026144D02*
G01*
X20458834Y-30029563D01*
X20481443Y-30035227D01*
X20503387Y-30043079D01*
X20524457Y-30053044D01*
X20544448Y-30065026D01*
X20563168Y-30078910D01*
X20580438Y-30094562D01*
X20596090Y-30111832D01*
X20609974Y-30130552D01*
X20621956Y-30150543D01*
X20631921Y-30171613D01*
X20639773Y-30193557D01*
X20645437Y-30216166D01*
X20648856Y-30239221D01*
X20650000Y-30262500D01*
X20650000Y-30737500D01*
X20648856Y-30760779D01*
X20645437Y-30783834D01*
X20639773Y-30806443D01*
X20631921Y-30828387D01*
X20621956Y-30849457D01*
X20609974Y-30869448D01*
X20596090Y-30888168D01*
X20580438Y-30905438D01*
X20563168Y-30921090D01*
X20544448Y-30934974D01*
X20524457Y-30946956D01*
X20503387Y-30956921D01*
X20481443Y-30964773D01*
X20458834Y-30970437D01*
X20435779Y-30973856D01*
X20412500Y-30975000D01*
X19837500Y-30975000D01*
X19814221Y-30973856D01*
X19791166Y-30970437D01*
X19768557Y-30964773D01*
X19746613Y-30956921D01*
X19725543Y-30946956D01*
X19705552Y-30934974D01*
X19686832Y-30921090D01*
X19669562Y-30905438D01*
X19653910Y-30888168D01*
X19640026Y-30869448D01*
X19628044Y-30849457D01*
X19618079Y-30828387D01*
X19610227Y-30806443D01*
X19604563Y-30783834D01*
X19601144Y-30760779D01*
X19600000Y-30737500D01*
X19600000Y-30262500D01*
X19601144Y-30239221D01*
X19604563Y-30216166D01*
X19610227Y-30193557D01*
X19618079Y-30171613D01*
X19628044Y-30150543D01*
X19640026Y-30130552D01*
X19653910Y-30111832D01*
X19669562Y-30094562D01*
X19686832Y-30078910D01*
X19705552Y-30065026D01*
X19725543Y-30053044D01*
X19746613Y-30043079D01*
X19768557Y-30035227D01*
X19791166Y-30029563D01*
X19814221Y-30026144D01*
X19837500Y-30025000D01*
X20412500Y-30025000D01*
X20435779Y-30026144D01*
X20435779Y-30026144D01*
G37*
D16*
X20125000Y-30500000D03*
D15*
G36*
X22185779Y-30026144D02*
G01*
X22208834Y-30029563D01*
X22231443Y-30035227D01*
X22253387Y-30043079D01*
X22274457Y-30053044D01*
X22294448Y-30065026D01*
X22313168Y-30078910D01*
X22330438Y-30094562D01*
X22346090Y-30111832D01*
X22359974Y-30130552D01*
X22371956Y-30150543D01*
X22381921Y-30171613D01*
X22389773Y-30193557D01*
X22395437Y-30216166D01*
X22398856Y-30239221D01*
X22400000Y-30262500D01*
X22400000Y-30737500D01*
X22398856Y-30760779D01*
X22395437Y-30783834D01*
X22389773Y-30806443D01*
X22381921Y-30828387D01*
X22371956Y-30849457D01*
X22359974Y-30869448D01*
X22346090Y-30888168D01*
X22330438Y-30905438D01*
X22313168Y-30921090D01*
X22294448Y-30934974D01*
X22274457Y-30946956D01*
X22253387Y-30956921D01*
X22231443Y-30964773D01*
X22208834Y-30970437D01*
X22185779Y-30973856D01*
X22162500Y-30975000D01*
X21587500Y-30975000D01*
X21564221Y-30973856D01*
X21541166Y-30970437D01*
X21518557Y-30964773D01*
X21496613Y-30956921D01*
X21475543Y-30946956D01*
X21455552Y-30934974D01*
X21436832Y-30921090D01*
X21419562Y-30905438D01*
X21403910Y-30888168D01*
X21390026Y-30869448D01*
X21378044Y-30849457D01*
X21368079Y-30828387D01*
X21360227Y-30806443D01*
X21354563Y-30783834D01*
X21351144Y-30760779D01*
X21350000Y-30737500D01*
X21350000Y-30262500D01*
X21351144Y-30239221D01*
X21354563Y-30216166D01*
X21360227Y-30193557D01*
X21368079Y-30171613D01*
X21378044Y-30150543D01*
X21390026Y-30130552D01*
X21403910Y-30111832D01*
X21419562Y-30094562D01*
X21436832Y-30078910D01*
X21455552Y-30065026D01*
X21475543Y-30053044D01*
X21496613Y-30043079D01*
X21518557Y-30035227D01*
X21541166Y-30029563D01*
X21564221Y-30026144D01*
X21587500Y-30025000D01*
X22162500Y-30025000D01*
X22185779Y-30026144D01*
X22185779Y-30026144D01*
G37*
D16*
X21875000Y-30500000D03*
D15*
G36*
X19435779Y-17526144D02*
G01*
X19458834Y-17529563D01*
X19481443Y-17535227D01*
X19503387Y-17543079D01*
X19524457Y-17553044D01*
X19544448Y-17565026D01*
X19563168Y-17578910D01*
X19580438Y-17594562D01*
X19596090Y-17611832D01*
X19609974Y-17630552D01*
X19621956Y-17650543D01*
X19631921Y-17671613D01*
X19639773Y-17693557D01*
X19645437Y-17716166D01*
X19648856Y-17739221D01*
X19650000Y-17762500D01*
X19650000Y-18237500D01*
X19648856Y-18260779D01*
X19645437Y-18283834D01*
X19639773Y-18306443D01*
X19631921Y-18328387D01*
X19621956Y-18349457D01*
X19609974Y-18369448D01*
X19596090Y-18388168D01*
X19580438Y-18405438D01*
X19563168Y-18421090D01*
X19544448Y-18434974D01*
X19524457Y-18446956D01*
X19503387Y-18456921D01*
X19481443Y-18464773D01*
X19458834Y-18470437D01*
X19435779Y-18473856D01*
X19412500Y-18475000D01*
X18837500Y-18475000D01*
X18814221Y-18473856D01*
X18791166Y-18470437D01*
X18768557Y-18464773D01*
X18746613Y-18456921D01*
X18725543Y-18446956D01*
X18705552Y-18434974D01*
X18686832Y-18421090D01*
X18669562Y-18405438D01*
X18653910Y-18388168D01*
X18640026Y-18369448D01*
X18628044Y-18349457D01*
X18618079Y-18328387D01*
X18610227Y-18306443D01*
X18604563Y-18283834D01*
X18601144Y-18260779D01*
X18600000Y-18237500D01*
X18600000Y-17762500D01*
X18601144Y-17739221D01*
X18604563Y-17716166D01*
X18610227Y-17693557D01*
X18618079Y-17671613D01*
X18628044Y-17650543D01*
X18640026Y-17630552D01*
X18653910Y-17611832D01*
X18669562Y-17594562D01*
X18686832Y-17578910D01*
X18705552Y-17565026D01*
X18725543Y-17553044D01*
X18746613Y-17543079D01*
X18768557Y-17535227D01*
X18791166Y-17529563D01*
X18814221Y-17526144D01*
X18837500Y-17525000D01*
X19412500Y-17525000D01*
X19435779Y-17526144D01*
X19435779Y-17526144D01*
G37*
D16*
X19125000Y-18000000D03*
D15*
G36*
X21185779Y-17526144D02*
G01*
X21208834Y-17529563D01*
X21231443Y-17535227D01*
X21253387Y-17543079D01*
X21274457Y-17553044D01*
X21294448Y-17565026D01*
X21313168Y-17578910D01*
X21330438Y-17594562D01*
X21346090Y-17611832D01*
X21359974Y-17630552D01*
X21371956Y-17650543D01*
X21381921Y-17671613D01*
X21389773Y-17693557D01*
X21395437Y-17716166D01*
X21398856Y-17739221D01*
X21400000Y-17762500D01*
X21400000Y-18237500D01*
X21398856Y-18260779D01*
X21395437Y-18283834D01*
X21389773Y-18306443D01*
X21381921Y-18328387D01*
X21371956Y-18349457D01*
X21359974Y-18369448D01*
X21346090Y-18388168D01*
X21330438Y-18405438D01*
X21313168Y-18421090D01*
X21294448Y-18434974D01*
X21274457Y-18446956D01*
X21253387Y-18456921D01*
X21231443Y-18464773D01*
X21208834Y-18470437D01*
X21185779Y-18473856D01*
X21162500Y-18475000D01*
X20587500Y-18475000D01*
X20564221Y-18473856D01*
X20541166Y-18470437D01*
X20518557Y-18464773D01*
X20496613Y-18456921D01*
X20475543Y-18446956D01*
X20455552Y-18434974D01*
X20436832Y-18421090D01*
X20419562Y-18405438D01*
X20403910Y-18388168D01*
X20390026Y-18369448D01*
X20378044Y-18349457D01*
X20368079Y-18328387D01*
X20360227Y-18306443D01*
X20354563Y-18283834D01*
X20351144Y-18260779D01*
X20350000Y-18237500D01*
X20350000Y-17762500D01*
X20351144Y-17739221D01*
X20354563Y-17716166D01*
X20360227Y-17693557D01*
X20368079Y-17671613D01*
X20378044Y-17650543D01*
X20390026Y-17630552D01*
X20403910Y-17611832D01*
X20419562Y-17594562D01*
X20436832Y-17578910D01*
X20455552Y-17565026D01*
X20475543Y-17553044D01*
X20496613Y-17543079D01*
X20518557Y-17535227D01*
X20541166Y-17529563D01*
X20564221Y-17526144D01*
X20587500Y-17525000D01*
X21162500Y-17525000D01*
X21185779Y-17526144D01*
X21185779Y-17526144D01*
G37*
D16*
X20875000Y-18000000D03*
D15*
G36*
X18185779Y-30026144D02*
G01*
X18208834Y-30029563D01*
X18231443Y-30035227D01*
X18253387Y-30043079D01*
X18274457Y-30053044D01*
X18294448Y-30065026D01*
X18313168Y-30078910D01*
X18330438Y-30094562D01*
X18346090Y-30111832D01*
X18359974Y-30130552D01*
X18371956Y-30150543D01*
X18381921Y-30171613D01*
X18389773Y-30193557D01*
X18395437Y-30216166D01*
X18398856Y-30239221D01*
X18400000Y-30262500D01*
X18400000Y-30737500D01*
X18398856Y-30760779D01*
X18395437Y-30783834D01*
X18389773Y-30806443D01*
X18381921Y-30828387D01*
X18371956Y-30849457D01*
X18359974Y-30869448D01*
X18346090Y-30888168D01*
X18330438Y-30905438D01*
X18313168Y-30921090D01*
X18294448Y-30934974D01*
X18274457Y-30946956D01*
X18253387Y-30956921D01*
X18231443Y-30964773D01*
X18208834Y-30970437D01*
X18185779Y-30973856D01*
X18162500Y-30975000D01*
X17587500Y-30975000D01*
X17564221Y-30973856D01*
X17541166Y-30970437D01*
X17518557Y-30964773D01*
X17496613Y-30956921D01*
X17475543Y-30946956D01*
X17455552Y-30934974D01*
X17436832Y-30921090D01*
X17419562Y-30905438D01*
X17403910Y-30888168D01*
X17390026Y-30869448D01*
X17378044Y-30849457D01*
X17368079Y-30828387D01*
X17360227Y-30806443D01*
X17354563Y-30783834D01*
X17351144Y-30760779D01*
X17350000Y-30737500D01*
X17350000Y-30262500D01*
X17351144Y-30239221D01*
X17354563Y-30216166D01*
X17360227Y-30193557D01*
X17368079Y-30171613D01*
X17378044Y-30150543D01*
X17390026Y-30130552D01*
X17403910Y-30111832D01*
X17419562Y-30094562D01*
X17436832Y-30078910D01*
X17455552Y-30065026D01*
X17475543Y-30053044D01*
X17496613Y-30043079D01*
X17518557Y-30035227D01*
X17541166Y-30029563D01*
X17564221Y-30026144D01*
X17587500Y-30025000D01*
X18162500Y-30025000D01*
X18185779Y-30026144D01*
X18185779Y-30026144D01*
G37*
D16*
X17875000Y-30500000D03*
D15*
G36*
X16435779Y-30026144D02*
G01*
X16458834Y-30029563D01*
X16481443Y-30035227D01*
X16503387Y-30043079D01*
X16524457Y-30053044D01*
X16544448Y-30065026D01*
X16563168Y-30078910D01*
X16580438Y-30094562D01*
X16596090Y-30111832D01*
X16609974Y-30130552D01*
X16621956Y-30150543D01*
X16631921Y-30171613D01*
X16639773Y-30193557D01*
X16645437Y-30216166D01*
X16648856Y-30239221D01*
X16650000Y-30262500D01*
X16650000Y-30737500D01*
X16648856Y-30760779D01*
X16645437Y-30783834D01*
X16639773Y-30806443D01*
X16631921Y-30828387D01*
X16621956Y-30849457D01*
X16609974Y-30869448D01*
X16596090Y-30888168D01*
X16580438Y-30905438D01*
X16563168Y-30921090D01*
X16544448Y-30934974D01*
X16524457Y-30946956D01*
X16503387Y-30956921D01*
X16481443Y-30964773D01*
X16458834Y-30970437D01*
X16435779Y-30973856D01*
X16412500Y-30975000D01*
X15837500Y-30975000D01*
X15814221Y-30973856D01*
X15791166Y-30970437D01*
X15768557Y-30964773D01*
X15746613Y-30956921D01*
X15725543Y-30946956D01*
X15705552Y-30934974D01*
X15686832Y-30921090D01*
X15669562Y-30905438D01*
X15653910Y-30888168D01*
X15640026Y-30869448D01*
X15628044Y-30849457D01*
X15618079Y-30828387D01*
X15610227Y-30806443D01*
X15604563Y-30783834D01*
X15601144Y-30760779D01*
X15600000Y-30737500D01*
X15600000Y-30262500D01*
X15601144Y-30239221D01*
X15604563Y-30216166D01*
X15610227Y-30193557D01*
X15618079Y-30171613D01*
X15628044Y-30150543D01*
X15640026Y-30130552D01*
X15653910Y-30111832D01*
X15669562Y-30094562D01*
X15686832Y-30078910D01*
X15705552Y-30065026D01*
X15725543Y-30053044D01*
X15746613Y-30043079D01*
X15768557Y-30035227D01*
X15791166Y-30029563D01*
X15814221Y-30026144D01*
X15837500Y-30025000D01*
X16412500Y-30025000D01*
X16435779Y-30026144D01*
X16435779Y-30026144D01*
G37*
D16*
X16125000Y-30500000D03*
D19*
X12190000Y-25700000D03*
X13460000Y-25700000D03*
X14730000Y-25700000D03*
X16000000Y-25700000D03*
X17270000Y-25700000D03*
X18540000Y-25700000D03*
X19810000Y-25700000D03*
X19810000Y-20300000D03*
X18540000Y-20300000D03*
X17270000Y-20300000D03*
X16000000Y-20300000D03*
X14730000Y-20300000D03*
X13460000Y-20300000D03*
X12190000Y-20300000D03*
D20*
X15650000Y-4500000D03*
D21*
X9350000Y-4500000D03*
X9350000Y-6800000D03*
X9350000Y-2200000D03*
D18*
X28500000Y-36450000D03*
X28500000Y-34550000D03*
X25500000Y-35500000D03*
D15*
G36*
X18260779Y-3476144D02*
G01*
X18283834Y-3479563D01*
X18306443Y-3485227D01*
X18328387Y-3493079D01*
X18349457Y-3503044D01*
X18369448Y-3515026D01*
X18388168Y-3528910D01*
X18405438Y-3544562D01*
X18421090Y-3561832D01*
X18434974Y-3580552D01*
X18446956Y-3600543D01*
X18456921Y-3621613D01*
X18464773Y-3643557D01*
X18470437Y-3666166D01*
X18473856Y-3689221D01*
X18475000Y-3712500D01*
X18475000Y-4287500D01*
X18473856Y-4310779D01*
X18470437Y-4333834D01*
X18464773Y-4356443D01*
X18456921Y-4378387D01*
X18446956Y-4399457D01*
X18434974Y-4419448D01*
X18421090Y-4438168D01*
X18405438Y-4455438D01*
X18388168Y-4471090D01*
X18369448Y-4484974D01*
X18349457Y-4496956D01*
X18328387Y-4506921D01*
X18306443Y-4514773D01*
X18283834Y-4520437D01*
X18260779Y-4523856D01*
X18237500Y-4525000D01*
X17762500Y-4525000D01*
X17739221Y-4523856D01*
X17716166Y-4520437D01*
X17693557Y-4514773D01*
X17671613Y-4506921D01*
X17650543Y-4496956D01*
X17630552Y-4484974D01*
X17611832Y-4471090D01*
X17594562Y-4455438D01*
X17578910Y-4438168D01*
X17565026Y-4419448D01*
X17553044Y-4399457D01*
X17543079Y-4378387D01*
X17535227Y-4356443D01*
X17529563Y-4333834D01*
X17526144Y-4310779D01*
X17525000Y-4287500D01*
X17525000Y-3712500D01*
X17526144Y-3689221D01*
X17529563Y-3666166D01*
X17535227Y-3643557D01*
X17543079Y-3621613D01*
X17553044Y-3600543D01*
X17565026Y-3580552D01*
X17578910Y-3561832D01*
X17594562Y-3544562D01*
X17611832Y-3528910D01*
X17630552Y-3515026D01*
X17650543Y-3503044D01*
X17671613Y-3493079D01*
X17693557Y-3485227D01*
X17716166Y-3479563D01*
X17739221Y-3476144D01*
X17762500Y-3475000D01*
X18237500Y-3475000D01*
X18260779Y-3476144D01*
X18260779Y-3476144D01*
G37*
D16*
X18000000Y-4000000D03*
D15*
G36*
X18260779Y-1726144D02*
G01*
X18283834Y-1729563D01*
X18306443Y-1735227D01*
X18328387Y-1743079D01*
X18349457Y-1753044D01*
X18369448Y-1765026D01*
X18388168Y-1778910D01*
X18405438Y-1794562D01*
X18421090Y-1811832D01*
X18434974Y-1830552D01*
X18446956Y-1850543D01*
X18456921Y-1871613D01*
X18464773Y-1893557D01*
X18470437Y-1916166D01*
X18473856Y-1939221D01*
X18475000Y-1962500D01*
X18475000Y-2537500D01*
X18473856Y-2560779D01*
X18470437Y-2583834D01*
X18464773Y-2606443D01*
X18456921Y-2628387D01*
X18446956Y-2649457D01*
X18434974Y-2669448D01*
X18421090Y-2688168D01*
X18405438Y-2705438D01*
X18388168Y-2721090D01*
X18369448Y-2734974D01*
X18349457Y-2746956D01*
X18328387Y-2756921D01*
X18306443Y-2764773D01*
X18283834Y-2770437D01*
X18260779Y-2773856D01*
X18237500Y-2775000D01*
X17762500Y-2775000D01*
X17739221Y-2773856D01*
X17716166Y-2770437D01*
X17693557Y-2764773D01*
X17671613Y-2756921D01*
X17650543Y-2746956D01*
X17630552Y-2734974D01*
X17611832Y-2721090D01*
X17594562Y-2705438D01*
X17578910Y-2688168D01*
X17565026Y-2669448D01*
X17553044Y-2649457D01*
X17543079Y-2628387D01*
X17535227Y-2606443D01*
X17529563Y-2583834D01*
X17526144Y-2560779D01*
X17525000Y-2537500D01*
X17525000Y-1962500D01*
X17526144Y-1939221D01*
X17529563Y-1916166D01*
X17535227Y-1893557D01*
X17543079Y-1871613D01*
X17553044Y-1850543D01*
X17565026Y-1830552D01*
X17578910Y-1811832D01*
X17594562Y-1794562D01*
X17611832Y-1778910D01*
X17630552Y-1765026D01*
X17650543Y-1753044D01*
X17671613Y-1743079D01*
X17693557Y-1735227D01*
X17716166Y-1729563D01*
X17739221Y-1726144D01*
X17762500Y-1725000D01*
X18237500Y-1725000D01*
X18260779Y-1726144D01*
X18260779Y-1726144D01*
G37*
D16*
X18000000Y-2250000D03*
D15*
G36*
X34310779Y-34026144D02*
G01*
X34333834Y-34029563D01*
X34356443Y-34035227D01*
X34378387Y-34043079D01*
X34399457Y-34053044D01*
X34419448Y-34065026D01*
X34438168Y-34078910D01*
X34455438Y-34094562D01*
X34471090Y-34111832D01*
X34484974Y-34130552D01*
X34496956Y-34150543D01*
X34506921Y-34171613D01*
X34514773Y-34193557D01*
X34520437Y-34216166D01*
X34523856Y-34239221D01*
X34525000Y-34262500D01*
X34525000Y-34737500D01*
X34523856Y-34760779D01*
X34520437Y-34783834D01*
X34514773Y-34806443D01*
X34506921Y-34828387D01*
X34496956Y-34849457D01*
X34484974Y-34869448D01*
X34471090Y-34888168D01*
X34455438Y-34905438D01*
X34438168Y-34921090D01*
X34419448Y-34934974D01*
X34399457Y-34946956D01*
X34378387Y-34956921D01*
X34356443Y-34964773D01*
X34333834Y-34970437D01*
X34310779Y-34973856D01*
X34287500Y-34975000D01*
X33712500Y-34975000D01*
X33689221Y-34973856D01*
X33666166Y-34970437D01*
X33643557Y-34964773D01*
X33621613Y-34956921D01*
X33600543Y-34946956D01*
X33580552Y-34934974D01*
X33561832Y-34921090D01*
X33544562Y-34905438D01*
X33528910Y-34888168D01*
X33515026Y-34869448D01*
X33503044Y-34849457D01*
X33493079Y-34828387D01*
X33485227Y-34806443D01*
X33479563Y-34783834D01*
X33476144Y-34760779D01*
X33475000Y-34737500D01*
X33475000Y-34262500D01*
X33476144Y-34239221D01*
X33479563Y-34216166D01*
X33485227Y-34193557D01*
X33493079Y-34171613D01*
X33503044Y-34150543D01*
X33515026Y-34130552D01*
X33528910Y-34111832D01*
X33544562Y-34094562D01*
X33561832Y-34078910D01*
X33580552Y-34065026D01*
X33600543Y-34053044D01*
X33621613Y-34043079D01*
X33643557Y-34035227D01*
X33666166Y-34029563D01*
X33689221Y-34026144D01*
X33712500Y-34025000D01*
X34287500Y-34025000D01*
X34310779Y-34026144D01*
X34310779Y-34026144D01*
G37*
D16*
X34000000Y-34500000D03*
D15*
G36*
X32560779Y-34026144D02*
G01*
X32583834Y-34029563D01*
X32606443Y-34035227D01*
X32628387Y-34043079D01*
X32649457Y-34053044D01*
X32669448Y-34065026D01*
X32688168Y-34078910D01*
X32705438Y-34094562D01*
X32721090Y-34111832D01*
X32734974Y-34130552D01*
X32746956Y-34150543D01*
X32756921Y-34171613D01*
X32764773Y-34193557D01*
X32770437Y-34216166D01*
X32773856Y-34239221D01*
X32775000Y-34262500D01*
X32775000Y-34737500D01*
X32773856Y-34760779D01*
X32770437Y-34783834D01*
X32764773Y-34806443D01*
X32756921Y-34828387D01*
X32746956Y-34849457D01*
X32734974Y-34869448D01*
X32721090Y-34888168D01*
X32705438Y-34905438D01*
X32688168Y-34921090D01*
X32669448Y-34934974D01*
X32649457Y-34946956D01*
X32628387Y-34956921D01*
X32606443Y-34964773D01*
X32583834Y-34970437D01*
X32560779Y-34973856D01*
X32537500Y-34975000D01*
X31962500Y-34975000D01*
X31939221Y-34973856D01*
X31916166Y-34970437D01*
X31893557Y-34964773D01*
X31871613Y-34956921D01*
X31850543Y-34946956D01*
X31830552Y-34934974D01*
X31811832Y-34921090D01*
X31794562Y-34905438D01*
X31778910Y-34888168D01*
X31765026Y-34869448D01*
X31753044Y-34849457D01*
X31743079Y-34828387D01*
X31735227Y-34806443D01*
X31729563Y-34783834D01*
X31726144Y-34760779D01*
X31725000Y-34737500D01*
X31725000Y-34262500D01*
X31726144Y-34239221D01*
X31729563Y-34216166D01*
X31735227Y-34193557D01*
X31743079Y-34171613D01*
X31753044Y-34150543D01*
X31765026Y-34130552D01*
X31778910Y-34111832D01*
X31794562Y-34094562D01*
X31811832Y-34078910D01*
X31830552Y-34065026D01*
X31850543Y-34053044D01*
X31871613Y-34043079D01*
X31893557Y-34035227D01*
X31916166Y-34029563D01*
X31939221Y-34026144D01*
X31962500Y-34025000D01*
X32537500Y-34025000D01*
X32560779Y-34026144D01*
X32560779Y-34026144D01*
G37*
D16*
X32250000Y-34500000D03*
D15*
G36*
X10185779Y-30026144D02*
G01*
X10208834Y-30029563D01*
X10231443Y-30035227D01*
X10253387Y-30043079D01*
X10274457Y-30053044D01*
X10294448Y-30065026D01*
X10313168Y-30078910D01*
X10330438Y-30094562D01*
X10346090Y-30111832D01*
X10359974Y-30130552D01*
X10371956Y-30150543D01*
X10381921Y-30171613D01*
X10389773Y-30193557D01*
X10395437Y-30216166D01*
X10398856Y-30239221D01*
X10400000Y-30262500D01*
X10400000Y-30737500D01*
X10398856Y-30760779D01*
X10395437Y-30783834D01*
X10389773Y-30806443D01*
X10381921Y-30828387D01*
X10371956Y-30849457D01*
X10359974Y-30869448D01*
X10346090Y-30888168D01*
X10330438Y-30905438D01*
X10313168Y-30921090D01*
X10294448Y-30934974D01*
X10274457Y-30946956D01*
X10253387Y-30956921D01*
X10231443Y-30964773D01*
X10208834Y-30970437D01*
X10185779Y-30973856D01*
X10162500Y-30975000D01*
X9587500Y-30975000D01*
X9564221Y-30973856D01*
X9541166Y-30970437D01*
X9518557Y-30964773D01*
X9496613Y-30956921D01*
X9475543Y-30946956D01*
X9455552Y-30934974D01*
X9436832Y-30921090D01*
X9419562Y-30905438D01*
X9403910Y-30888168D01*
X9390026Y-30869448D01*
X9378044Y-30849457D01*
X9368079Y-30828387D01*
X9360227Y-30806443D01*
X9354563Y-30783834D01*
X9351144Y-30760779D01*
X9350000Y-30737500D01*
X9350000Y-30262500D01*
X9351144Y-30239221D01*
X9354563Y-30216166D01*
X9360227Y-30193557D01*
X9368079Y-30171613D01*
X9378044Y-30150543D01*
X9390026Y-30130552D01*
X9403910Y-30111832D01*
X9419562Y-30094562D01*
X9436832Y-30078910D01*
X9455552Y-30065026D01*
X9475543Y-30053044D01*
X9496613Y-30043079D01*
X9518557Y-30035227D01*
X9541166Y-30029563D01*
X9564221Y-30026144D01*
X9587500Y-30025000D01*
X10162500Y-30025000D01*
X10185779Y-30026144D01*
X10185779Y-30026144D01*
G37*
D16*
X9875000Y-30500000D03*
D15*
G36*
X8435779Y-30026144D02*
G01*
X8458834Y-30029563D01*
X8481443Y-30035227D01*
X8503387Y-30043079D01*
X8524457Y-30053044D01*
X8544448Y-30065026D01*
X8563168Y-30078910D01*
X8580438Y-30094562D01*
X8596090Y-30111832D01*
X8609974Y-30130552D01*
X8621956Y-30150543D01*
X8631921Y-30171613D01*
X8639773Y-30193557D01*
X8645437Y-30216166D01*
X8648856Y-30239221D01*
X8650000Y-30262500D01*
X8650000Y-30737500D01*
X8648856Y-30760779D01*
X8645437Y-30783834D01*
X8639773Y-30806443D01*
X8631921Y-30828387D01*
X8621956Y-30849457D01*
X8609974Y-30869448D01*
X8596090Y-30888168D01*
X8580438Y-30905438D01*
X8563168Y-30921090D01*
X8544448Y-30934974D01*
X8524457Y-30946956D01*
X8503387Y-30956921D01*
X8481443Y-30964773D01*
X8458834Y-30970437D01*
X8435779Y-30973856D01*
X8412500Y-30975000D01*
X7837500Y-30975000D01*
X7814221Y-30973856D01*
X7791166Y-30970437D01*
X7768557Y-30964773D01*
X7746613Y-30956921D01*
X7725543Y-30946956D01*
X7705552Y-30934974D01*
X7686832Y-30921090D01*
X7669562Y-30905438D01*
X7653910Y-30888168D01*
X7640026Y-30869448D01*
X7628044Y-30849457D01*
X7618079Y-30828387D01*
X7610227Y-30806443D01*
X7604563Y-30783834D01*
X7601144Y-30760779D01*
X7600000Y-30737500D01*
X7600000Y-30262500D01*
X7601144Y-30239221D01*
X7604563Y-30216166D01*
X7610227Y-30193557D01*
X7618079Y-30171613D01*
X7628044Y-30150543D01*
X7640026Y-30130552D01*
X7653910Y-30111832D01*
X7669562Y-30094562D01*
X7686832Y-30078910D01*
X7705552Y-30065026D01*
X7725543Y-30053044D01*
X7746613Y-30043079D01*
X7768557Y-30035227D01*
X7791166Y-30029563D01*
X7814221Y-30026144D01*
X7837500Y-30025000D01*
X8412500Y-30025000D01*
X8435779Y-30026144D01*
X8435779Y-30026144D01*
G37*
D16*
X8125000Y-30500000D03*
D15*
G36*
X10185779Y-28026144D02*
G01*
X10208834Y-28029563D01*
X10231443Y-28035227D01*
X10253387Y-28043079D01*
X10274457Y-28053044D01*
X10294448Y-28065026D01*
X10313168Y-28078910D01*
X10330438Y-28094562D01*
X10346090Y-28111832D01*
X10359974Y-28130552D01*
X10371956Y-28150543D01*
X10381921Y-28171613D01*
X10389773Y-28193557D01*
X10395437Y-28216166D01*
X10398856Y-28239221D01*
X10400000Y-28262500D01*
X10400000Y-28737500D01*
X10398856Y-28760779D01*
X10395437Y-28783834D01*
X10389773Y-28806443D01*
X10381921Y-28828387D01*
X10371956Y-28849457D01*
X10359974Y-28869448D01*
X10346090Y-28888168D01*
X10330438Y-28905438D01*
X10313168Y-28921090D01*
X10294448Y-28934974D01*
X10274457Y-28946956D01*
X10253387Y-28956921D01*
X10231443Y-28964773D01*
X10208834Y-28970437D01*
X10185779Y-28973856D01*
X10162500Y-28975000D01*
X9587500Y-28975000D01*
X9564221Y-28973856D01*
X9541166Y-28970437D01*
X9518557Y-28964773D01*
X9496613Y-28956921D01*
X9475543Y-28946956D01*
X9455552Y-28934974D01*
X9436832Y-28921090D01*
X9419562Y-28905438D01*
X9403910Y-28888168D01*
X9390026Y-28869448D01*
X9378044Y-28849457D01*
X9368079Y-28828387D01*
X9360227Y-28806443D01*
X9354563Y-28783834D01*
X9351144Y-28760779D01*
X9350000Y-28737500D01*
X9350000Y-28262500D01*
X9351144Y-28239221D01*
X9354563Y-28216166D01*
X9360227Y-28193557D01*
X9368079Y-28171613D01*
X9378044Y-28150543D01*
X9390026Y-28130552D01*
X9403910Y-28111832D01*
X9419562Y-28094562D01*
X9436832Y-28078910D01*
X9455552Y-28065026D01*
X9475543Y-28053044D01*
X9496613Y-28043079D01*
X9518557Y-28035227D01*
X9541166Y-28029563D01*
X9564221Y-28026144D01*
X9587500Y-28025000D01*
X10162500Y-28025000D01*
X10185779Y-28026144D01*
X10185779Y-28026144D01*
G37*
D16*
X9875000Y-28500000D03*
D15*
G36*
X8435779Y-28026144D02*
G01*
X8458834Y-28029563D01*
X8481443Y-28035227D01*
X8503387Y-28043079D01*
X8524457Y-28053044D01*
X8544448Y-28065026D01*
X8563168Y-28078910D01*
X8580438Y-28094562D01*
X8596090Y-28111832D01*
X8609974Y-28130552D01*
X8621956Y-28150543D01*
X8631921Y-28171613D01*
X8639773Y-28193557D01*
X8645437Y-28216166D01*
X8648856Y-28239221D01*
X8650000Y-28262500D01*
X8650000Y-28737500D01*
X8648856Y-28760779D01*
X8645437Y-28783834D01*
X8639773Y-28806443D01*
X8631921Y-28828387D01*
X8621956Y-28849457D01*
X8609974Y-28869448D01*
X8596090Y-28888168D01*
X8580438Y-28905438D01*
X8563168Y-28921090D01*
X8544448Y-28934974D01*
X8524457Y-28946956D01*
X8503387Y-28956921D01*
X8481443Y-28964773D01*
X8458834Y-28970437D01*
X8435779Y-28973856D01*
X8412500Y-28975000D01*
X7837500Y-28975000D01*
X7814221Y-28973856D01*
X7791166Y-28970437D01*
X7768557Y-28964773D01*
X7746613Y-28956921D01*
X7725543Y-28946956D01*
X7705552Y-28934974D01*
X7686832Y-28921090D01*
X7669562Y-28905438D01*
X7653910Y-28888168D01*
X7640026Y-28869448D01*
X7628044Y-28849457D01*
X7618079Y-28828387D01*
X7610227Y-28806443D01*
X7604563Y-28783834D01*
X7601144Y-28760779D01*
X7600000Y-28737500D01*
X7600000Y-28262500D01*
X7601144Y-28239221D01*
X7604563Y-28216166D01*
X7610227Y-28193557D01*
X7618079Y-28171613D01*
X7628044Y-28150543D01*
X7640026Y-28130552D01*
X7653910Y-28111832D01*
X7669562Y-28094562D01*
X7686832Y-28078910D01*
X7705552Y-28065026D01*
X7725543Y-28053044D01*
X7746613Y-28043079D01*
X7768557Y-28035227D01*
X7791166Y-28029563D01*
X7814221Y-28026144D01*
X7837500Y-28025000D01*
X8412500Y-28025000D01*
X8435779Y-28026144D01*
X8435779Y-28026144D01*
G37*
D16*
X8125000Y-28500000D03*
D15*
G36*
X8435779Y-25526144D02*
G01*
X8458834Y-25529563D01*
X8481443Y-25535227D01*
X8503387Y-25543079D01*
X8524457Y-25553044D01*
X8544448Y-25565026D01*
X8563168Y-25578910D01*
X8580438Y-25594562D01*
X8596090Y-25611832D01*
X8609974Y-25630552D01*
X8621956Y-25650543D01*
X8631921Y-25671613D01*
X8639773Y-25693557D01*
X8645437Y-25716166D01*
X8648856Y-25739221D01*
X8650000Y-25762500D01*
X8650000Y-26237500D01*
X8648856Y-26260779D01*
X8645437Y-26283834D01*
X8639773Y-26306443D01*
X8631921Y-26328387D01*
X8621956Y-26349457D01*
X8609974Y-26369448D01*
X8596090Y-26388168D01*
X8580438Y-26405438D01*
X8563168Y-26421090D01*
X8544448Y-26434974D01*
X8524457Y-26446956D01*
X8503387Y-26456921D01*
X8481443Y-26464773D01*
X8458834Y-26470437D01*
X8435779Y-26473856D01*
X8412500Y-26475000D01*
X7837500Y-26475000D01*
X7814221Y-26473856D01*
X7791166Y-26470437D01*
X7768557Y-26464773D01*
X7746613Y-26456921D01*
X7725543Y-26446956D01*
X7705552Y-26434974D01*
X7686832Y-26421090D01*
X7669562Y-26405438D01*
X7653910Y-26388168D01*
X7640026Y-26369448D01*
X7628044Y-26349457D01*
X7618079Y-26328387D01*
X7610227Y-26306443D01*
X7604563Y-26283834D01*
X7601144Y-26260779D01*
X7600000Y-26237500D01*
X7600000Y-25762500D01*
X7601144Y-25739221D01*
X7604563Y-25716166D01*
X7610227Y-25693557D01*
X7618079Y-25671613D01*
X7628044Y-25650543D01*
X7640026Y-25630552D01*
X7653910Y-25611832D01*
X7669562Y-25594562D01*
X7686832Y-25578910D01*
X7705552Y-25565026D01*
X7725543Y-25553044D01*
X7746613Y-25543079D01*
X7768557Y-25535227D01*
X7791166Y-25529563D01*
X7814221Y-25526144D01*
X7837500Y-25525000D01*
X8412500Y-25525000D01*
X8435779Y-25526144D01*
X8435779Y-25526144D01*
G37*
D16*
X8125000Y-26000000D03*
D15*
G36*
X10185779Y-25526144D02*
G01*
X10208834Y-25529563D01*
X10231443Y-25535227D01*
X10253387Y-25543079D01*
X10274457Y-25553044D01*
X10294448Y-25565026D01*
X10313168Y-25578910D01*
X10330438Y-25594562D01*
X10346090Y-25611832D01*
X10359974Y-25630552D01*
X10371956Y-25650543D01*
X10381921Y-25671613D01*
X10389773Y-25693557D01*
X10395437Y-25716166D01*
X10398856Y-25739221D01*
X10400000Y-25762500D01*
X10400000Y-26237500D01*
X10398856Y-26260779D01*
X10395437Y-26283834D01*
X10389773Y-26306443D01*
X10381921Y-26328387D01*
X10371956Y-26349457D01*
X10359974Y-26369448D01*
X10346090Y-26388168D01*
X10330438Y-26405438D01*
X10313168Y-26421090D01*
X10294448Y-26434974D01*
X10274457Y-26446956D01*
X10253387Y-26456921D01*
X10231443Y-26464773D01*
X10208834Y-26470437D01*
X10185779Y-26473856D01*
X10162500Y-26475000D01*
X9587500Y-26475000D01*
X9564221Y-26473856D01*
X9541166Y-26470437D01*
X9518557Y-26464773D01*
X9496613Y-26456921D01*
X9475543Y-26446956D01*
X9455552Y-26434974D01*
X9436832Y-26421090D01*
X9419562Y-26405438D01*
X9403910Y-26388168D01*
X9390026Y-26369448D01*
X9378044Y-26349457D01*
X9368079Y-26328387D01*
X9360227Y-26306443D01*
X9354563Y-26283834D01*
X9351144Y-26260779D01*
X9350000Y-26237500D01*
X9350000Y-25762500D01*
X9351144Y-25739221D01*
X9354563Y-25716166D01*
X9360227Y-25693557D01*
X9368079Y-25671613D01*
X9378044Y-25650543D01*
X9390026Y-25630552D01*
X9403910Y-25611832D01*
X9419562Y-25594562D01*
X9436832Y-25578910D01*
X9455552Y-25565026D01*
X9475543Y-25553044D01*
X9496613Y-25543079D01*
X9518557Y-25535227D01*
X9541166Y-25529563D01*
X9564221Y-25526144D01*
X9587500Y-25525000D01*
X10162500Y-25525000D01*
X10185779Y-25526144D01*
X10185779Y-25526144D01*
G37*
D16*
X9875000Y-26000000D03*
D15*
G36*
X17060779Y-15526144D02*
G01*
X17083834Y-15529563D01*
X17106443Y-15535227D01*
X17128387Y-15543079D01*
X17149457Y-15553044D01*
X17169448Y-15565026D01*
X17188168Y-15578910D01*
X17205438Y-15594562D01*
X17221090Y-15611832D01*
X17234974Y-15630552D01*
X17246956Y-15650543D01*
X17256921Y-15671613D01*
X17264773Y-15693557D01*
X17270437Y-15716166D01*
X17273856Y-15739221D01*
X17275000Y-15762500D01*
X17275000Y-16237500D01*
X17273856Y-16260779D01*
X17270437Y-16283834D01*
X17264773Y-16306443D01*
X17256921Y-16328387D01*
X17246956Y-16349457D01*
X17234974Y-16369448D01*
X17221090Y-16388168D01*
X17205438Y-16405438D01*
X17188168Y-16421090D01*
X17169448Y-16434974D01*
X17149457Y-16446956D01*
X17128387Y-16456921D01*
X17106443Y-16464773D01*
X17083834Y-16470437D01*
X17060779Y-16473856D01*
X17037500Y-16475000D01*
X16462500Y-16475000D01*
X16439221Y-16473856D01*
X16416166Y-16470437D01*
X16393557Y-16464773D01*
X16371613Y-16456921D01*
X16350543Y-16446956D01*
X16330552Y-16434974D01*
X16311832Y-16421090D01*
X16294562Y-16405438D01*
X16278910Y-16388168D01*
X16265026Y-16369448D01*
X16253044Y-16349457D01*
X16243079Y-16328387D01*
X16235227Y-16306443D01*
X16229563Y-16283834D01*
X16226144Y-16260779D01*
X16225000Y-16237500D01*
X16225000Y-15762500D01*
X16226144Y-15739221D01*
X16229563Y-15716166D01*
X16235227Y-15693557D01*
X16243079Y-15671613D01*
X16253044Y-15650543D01*
X16265026Y-15630552D01*
X16278910Y-15611832D01*
X16294562Y-15594562D01*
X16311832Y-15578910D01*
X16330552Y-15565026D01*
X16350543Y-15553044D01*
X16371613Y-15543079D01*
X16393557Y-15535227D01*
X16416166Y-15529563D01*
X16439221Y-15526144D01*
X16462500Y-15525000D01*
X17037500Y-15525000D01*
X17060779Y-15526144D01*
X17060779Y-15526144D01*
G37*
D16*
X16750000Y-16000000D03*
D15*
G36*
X15310779Y-15526144D02*
G01*
X15333834Y-15529563D01*
X15356443Y-15535227D01*
X15378387Y-15543079D01*
X15399457Y-15553044D01*
X15419448Y-15565026D01*
X15438168Y-15578910D01*
X15455438Y-15594562D01*
X15471090Y-15611832D01*
X15484974Y-15630552D01*
X15496956Y-15650543D01*
X15506921Y-15671613D01*
X15514773Y-15693557D01*
X15520437Y-15716166D01*
X15523856Y-15739221D01*
X15525000Y-15762500D01*
X15525000Y-16237500D01*
X15523856Y-16260779D01*
X15520437Y-16283834D01*
X15514773Y-16306443D01*
X15506921Y-16328387D01*
X15496956Y-16349457D01*
X15484974Y-16369448D01*
X15471090Y-16388168D01*
X15455438Y-16405438D01*
X15438168Y-16421090D01*
X15419448Y-16434974D01*
X15399457Y-16446956D01*
X15378387Y-16456921D01*
X15356443Y-16464773D01*
X15333834Y-16470437D01*
X15310779Y-16473856D01*
X15287500Y-16475000D01*
X14712500Y-16475000D01*
X14689221Y-16473856D01*
X14666166Y-16470437D01*
X14643557Y-16464773D01*
X14621613Y-16456921D01*
X14600543Y-16446956D01*
X14580552Y-16434974D01*
X14561832Y-16421090D01*
X14544562Y-16405438D01*
X14528910Y-16388168D01*
X14515026Y-16369448D01*
X14503044Y-16349457D01*
X14493079Y-16328387D01*
X14485227Y-16306443D01*
X14479563Y-16283834D01*
X14476144Y-16260779D01*
X14475000Y-16237500D01*
X14475000Y-15762500D01*
X14476144Y-15739221D01*
X14479563Y-15716166D01*
X14485227Y-15693557D01*
X14493079Y-15671613D01*
X14503044Y-15650543D01*
X14515026Y-15630552D01*
X14528910Y-15611832D01*
X14544562Y-15594562D01*
X14561832Y-15578910D01*
X14580552Y-15565026D01*
X14600543Y-15553044D01*
X14621613Y-15543079D01*
X14643557Y-15535227D01*
X14666166Y-15529563D01*
X14689221Y-15526144D01*
X14712500Y-15525000D01*
X15287500Y-15525000D01*
X15310779Y-15526144D01*
X15310779Y-15526144D01*
G37*
D16*
X15000000Y-16000000D03*
D15*
G36*
X11435779Y-17526144D02*
G01*
X11458834Y-17529563D01*
X11481443Y-17535227D01*
X11503387Y-17543079D01*
X11524457Y-17553044D01*
X11544448Y-17565026D01*
X11563168Y-17578910D01*
X11580438Y-17594562D01*
X11596090Y-17611832D01*
X11609974Y-17630552D01*
X11621956Y-17650543D01*
X11631921Y-17671613D01*
X11639773Y-17693557D01*
X11645437Y-17716166D01*
X11648856Y-17739221D01*
X11650000Y-17762500D01*
X11650000Y-18237500D01*
X11648856Y-18260779D01*
X11645437Y-18283834D01*
X11639773Y-18306443D01*
X11631921Y-18328387D01*
X11621956Y-18349457D01*
X11609974Y-18369448D01*
X11596090Y-18388168D01*
X11580438Y-18405438D01*
X11563168Y-18421090D01*
X11544448Y-18434974D01*
X11524457Y-18446956D01*
X11503387Y-18456921D01*
X11481443Y-18464773D01*
X11458834Y-18470437D01*
X11435779Y-18473856D01*
X11412500Y-18475000D01*
X10837500Y-18475000D01*
X10814221Y-18473856D01*
X10791166Y-18470437D01*
X10768557Y-18464773D01*
X10746613Y-18456921D01*
X10725543Y-18446956D01*
X10705552Y-18434974D01*
X10686832Y-18421090D01*
X10669562Y-18405438D01*
X10653910Y-18388168D01*
X10640026Y-18369448D01*
X10628044Y-18349457D01*
X10618079Y-18328387D01*
X10610227Y-18306443D01*
X10604563Y-18283834D01*
X10601144Y-18260779D01*
X10600000Y-18237500D01*
X10600000Y-17762500D01*
X10601144Y-17739221D01*
X10604563Y-17716166D01*
X10610227Y-17693557D01*
X10618079Y-17671613D01*
X10628044Y-17650543D01*
X10640026Y-17630552D01*
X10653910Y-17611832D01*
X10669562Y-17594562D01*
X10686832Y-17578910D01*
X10705552Y-17565026D01*
X10725543Y-17553044D01*
X10746613Y-17543079D01*
X10768557Y-17535227D01*
X10791166Y-17529563D01*
X10814221Y-17526144D01*
X10837500Y-17525000D01*
X11412500Y-17525000D01*
X11435779Y-17526144D01*
X11435779Y-17526144D01*
G37*
D16*
X11125000Y-18000000D03*
D15*
G36*
X13185779Y-17526144D02*
G01*
X13208834Y-17529563D01*
X13231443Y-17535227D01*
X13253387Y-17543079D01*
X13274457Y-17553044D01*
X13294448Y-17565026D01*
X13313168Y-17578910D01*
X13330438Y-17594562D01*
X13346090Y-17611832D01*
X13359974Y-17630552D01*
X13371956Y-17650543D01*
X13381921Y-17671613D01*
X13389773Y-17693557D01*
X13395437Y-17716166D01*
X13398856Y-17739221D01*
X13400000Y-17762500D01*
X13400000Y-18237500D01*
X13398856Y-18260779D01*
X13395437Y-18283834D01*
X13389773Y-18306443D01*
X13381921Y-18328387D01*
X13371956Y-18349457D01*
X13359974Y-18369448D01*
X13346090Y-18388168D01*
X13330438Y-18405438D01*
X13313168Y-18421090D01*
X13294448Y-18434974D01*
X13274457Y-18446956D01*
X13253387Y-18456921D01*
X13231443Y-18464773D01*
X13208834Y-18470437D01*
X13185779Y-18473856D01*
X13162500Y-18475000D01*
X12587500Y-18475000D01*
X12564221Y-18473856D01*
X12541166Y-18470437D01*
X12518557Y-18464773D01*
X12496613Y-18456921D01*
X12475543Y-18446956D01*
X12455552Y-18434974D01*
X12436832Y-18421090D01*
X12419562Y-18405438D01*
X12403910Y-18388168D01*
X12390026Y-18369448D01*
X12378044Y-18349457D01*
X12368079Y-18328387D01*
X12360227Y-18306443D01*
X12354563Y-18283834D01*
X12351144Y-18260779D01*
X12350000Y-18237500D01*
X12350000Y-17762500D01*
X12351144Y-17739221D01*
X12354563Y-17716166D01*
X12360227Y-17693557D01*
X12368079Y-17671613D01*
X12378044Y-17650543D01*
X12390026Y-17630552D01*
X12403910Y-17611832D01*
X12419562Y-17594562D01*
X12436832Y-17578910D01*
X12455552Y-17565026D01*
X12475543Y-17553044D01*
X12496613Y-17543079D01*
X12518557Y-17535227D01*
X12541166Y-17529563D01*
X12564221Y-17526144D01*
X12587500Y-17525000D01*
X13162500Y-17525000D01*
X13185779Y-17526144D01*
X13185779Y-17526144D01*
G37*
D16*
X12875000Y-18000000D03*
D15*
G36*
X20260779Y-3351144D02*
G01*
X20283834Y-3354563D01*
X20306443Y-3360227D01*
X20328387Y-3368079D01*
X20349457Y-3378044D01*
X20369448Y-3390026D01*
X20388168Y-3403910D01*
X20405438Y-3419562D01*
X20421090Y-3436832D01*
X20434974Y-3455552D01*
X20446956Y-3475543D01*
X20456921Y-3496613D01*
X20464773Y-3518557D01*
X20470437Y-3541166D01*
X20473856Y-3564221D01*
X20475000Y-3587500D01*
X20475000Y-4162500D01*
X20473856Y-4185779D01*
X20470437Y-4208834D01*
X20464773Y-4231443D01*
X20456921Y-4253387D01*
X20446956Y-4274457D01*
X20434974Y-4294448D01*
X20421090Y-4313168D01*
X20405438Y-4330438D01*
X20388168Y-4346090D01*
X20369448Y-4359974D01*
X20349457Y-4371956D01*
X20328387Y-4381921D01*
X20306443Y-4389773D01*
X20283834Y-4395437D01*
X20260779Y-4398856D01*
X20237500Y-4400000D01*
X19762500Y-4400000D01*
X19739221Y-4398856D01*
X19716166Y-4395437D01*
X19693557Y-4389773D01*
X19671613Y-4381921D01*
X19650543Y-4371956D01*
X19630552Y-4359974D01*
X19611832Y-4346090D01*
X19594562Y-4330438D01*
X19578910Y-4313168D01*
X19565026Y-4294448D01*
X19553044Y-4274457D01*
X19543079Y-4253387D01*
X19535227Y-4231443D01*
X19529563Y-4208834D01*
X19526144Y-4185779D01*
X19525000Y-4162500D01*
X19525000Y-3587500D01*
X19526144Y-3564221D01*
X19529563Y-3541166D01*
X19535227Y-3518557D01*
X19543079Y-3496613D01*
X19553044Y-3475543D01*
X19565026Y-3455552D01*
X19578910Y-3436832D01*
X19594562Y-3419562D01*
X19611832Y-3403910D01*
X19630552Y-3390026D01*
X19650543Y-3378044D01*
X19671613Y-3368079D01*
X19693557Y-3360227D01*
X19716166Y-3354563D01*
X19739221Y-3351144D01*
X19762500Y-3350000D01*
X20237500Y-3350000D01*
X20260779Y-3351144D01*
X20260779Y-3351144D01*
G37*
D16*
X20000000Y-3875000D03*
D15*
G36*
X20260779Y-1601144D02*
G01*
X20283834Y-1604563D01*
X20306443Y-1610227D01*
X20328387Y-1618079D01*
X20349457Y-1628044D01*
X20369448Y-1640026D01*
X20388168Y-1653910D01*
X20405438Y-1669562D01*
X20421090Y-1686832D01*
X20434974Y-1705552D01*
X20446956Y-1725543D01*
X20456921Y-1746613D01*
X20464773Y-1768557D01*
X20470437Y-1791166D01*
X20473856Y-1814221D01*
X20475000Y-1837500D01*
X20475000Y-2412500D01*
X20473856Y-2435779D01*
X20470437Y-2458834D01*
X20464773Y-2481443D01*
X20456921Y-2503387D01*
X20446956Y-2524457D01*
X20434974Y-2544448D01*
X20421090Y-2563168D01*
X20405438Y-2580438D01*
X20388168Y-2596090D01*
X20369448Y-2609974D01*
X20349457Y-2621956D01*
X20328387Y-2631921D01*
X20306443Y-2639773D01*
X20283834Y-2645437D01*
X20260779Y-2648856D01*
X20237500Y-2650000D01*
X19762500Y-2650000D01*
X19739221Y-2648856D01*
X19716166Y-2645437D01*
X19693557Y-2639773D01*
X19671613Y-2631921D01*
X19650543Y-2621956D01*
X19630552Y-2609974D01*
X19611832Y-2596090D01*
X19594562Y-2580438D01*
X19578910Y-2563168D01*
X19565026Y-2544448D01*
X19553044Y-2524457D01*
X19543079Y-2503387D01*
X19535227Y-2481443D01*
X19529563Y-2458834D01*
X19526144Y-2435779D01*
X19525000Y-2412500D01*
X19525000Y-1837500D01*
X19526144Y-1814221D01*
X19529563Y-1791166D01*
X19535227Y-1768557D01*
X19543079Y-1746613D01*
X19553044Y-1725543D01*
X19565026Y-1705552D01*
X19578910Y-1686832D01*
X19594562Y-1669562D01*
X19611832Y-1653910D01*
X19630552Y-1640026D01*
X19650543Y-1628044D01*
X19671613Y-1618079D01*
X19693557Y-1610227D01*
X19716166Y-1604563D01*
X19739221Y-1601144D01*
X19762500Y-1600000D01*
X20237500Y-1600000D01*
X20260779Y-1601144D01*
X20260779Y-1601144D01*
G37*
D16*
X20000000Y-2125000D03*
D15*
G36*
X32435779Y-36026144D02*
G01*
X32458834Y-36029563D01*
X32481443Y-36035227D01*
X32503387Y-36043079D01*
X32524457Y-36053044D01*
X32544448Y-36065026D01*
X32563168Y-36078910D01*
X32580438Y-36094562D01*
X32596090Y-36111832D01*
X32609974Y-36130552D01*
X32621956Y-36150543D01*
X32631921Y-36171613D01*
X32639773Y-36193557D01*
X32645437Y-36216166D01*
X32648856Y-36239221D01*
X32650000Y-36262500D01*
X32650000Y-36737500D01*
X32648856Y-36760779D01*
X32645437Y-36783834D01*
X32639773Y-36806443D01*
X32631921Y-36828387D01*
X32621956Y-36849457D01*
X32609974Y-36869448D01*
X32596090Y-36888168D01*
X32580438Y-36905438D01*
X32563168Y-36921090D01*
X32544448Y-36934974D01*
X32524457Y-36946956D01*
X32503387Y-36956921D01*
X32481443Y-36964773D01*
X32458834Y-36970437D01*
X32435779Y-36973856D01*
X32412500Y-36975000D01*
X31837500Y-36975000D01*
X31814221Y-36973856D01*
X31791166Y-36970437D01*
X31768557Y-36964773D01*
X31746613Y-36956921D01*
X31725543Y-36946956D01*
X31705552Y-36934974D01*
X31686832Y-36921090D01*
X31669562Y-36905438D01*
X31653910Y-36888168D01*
X31640026Y-36869448D01*
X31628044Y-36849457D01*
X31618079Y-36828387D01*
X31610227Y-36806443D01*
X31604563Y-36783834D01*
X31601144Y-36760779D01*
X31600000Y-36737500D01*
X31600000Y-36262500D01*
X31601144Y-36239221D01*
X31604563Y-36216166D01*
X31610227Y-36193557D01*
X31618079Y-36171613D01*
X31628044Y-36150543D01*
X31640026Y-36130552D01*
X31653910Y-36111832D01*
X31669562Y-36094562D01*
X31686832Y-36078910D01*
X31705552Y-36065026D01*
X31725543Y-36053044D01*
X31746613Y-36043079D01*
X31768557Y-36035227D01*
X31791166Y-36029563D01*
X31814221Y-36026144D01*
X31837500Y-36025000D01*
X32412500Y-36025000D01*
X32435779Y-36026144D01*
X32435779Y-36026144D01*
G37*
D16*
X32125000Y-36500000D03*
D15*
G36*
X34185779Y-36026144D02*
G01*
X34208834Y-36029563D01*
X34231443Y-36035227D01*
X34253387Y-36043079D01*
X34274457Y-36053044D01*
X34294448Y-36065026D01*
X34313168Y-36078910D01*
X34330438Y-36094562D01*
X34346090Y-36111832D01*
X34359974Y-36130552D01*
X34371956Y-36150543D01*
X34381921Y-36171613D01*
X34389773Y-36193557D01*
X34395437Y-36216166D01*
X34398856Y-36239221D01*
X34400000Y-36262500D01*
X34400000Y-36737500D01*
X34398856Y-36760779D01*
X34395437Y-36783834D01*
X34389773Y-36806443D01*
X34381921Y-36828387D01*
X34371956Y-36849457D01*
X34359974Y-36869448D01*
X34346090Y-36888168D01*
X34330438Y-36905438D01*
X34313168Y-36921090D01*
X34294448Y-36934974D01*
X34274457Y-36946956D01*
X34253387Y-36956921D01*
X34231443Y-36964773D01*
X34208834Y-36970437D01*
X34185779Y-36973856D01*
X34162500Y-36975000D01*
X33587500Y-36975000D01*
X33564221Y-36973856D01*
X33541166Y-36970437D01*
X33518557Y-36964773D01*
X33496613Y-36956921D01*
X33475543Y-36946956D01*
X33455552Y-36934974D01*
X33436832Y-36921090D01*
X33419562Y-36905438D01*
X33403910Y-36888168D01*
X33390026Y-36869448D01*
X33378044Y-36849457D01*
X33368079Y-36828387D01*
X33360227Y-36806443D01*
X33354563Y-36783834D01*
X33351144Y-36760779D01*
X33350000Y-36737500D01*
X33350000Y-36262500D01*
X33351144Y-36239221D01*
X33354563Y-36216166D01*
X33360227Y-36193557D01*
X33368079Y-36171613D01*
X33378044Y-36150543D01*
X33390026Y-36130552D01*
X33403910Y-36111832D01*
X33419562Y-36094562D01*
X33436832Y-36078910D01*
X33455552Y-36065026D01*
X33475543Y-36053044D01*
X33496613Y-36043079D01*
X33518557Y-36035227D01*
X33541166Y-36029563D01*
X33564221Y-36026144D01*
X33587500Y-36025000D01*
X34162500Y-36025000D01*
X34185779Y-36026144D01*
X34185779Y-36026144D01*
G37*
D16*
X33875000Y-36500000D03*
D15*
G36*
X22585779Y-35926144D02*
G01*
X22608834Y-35929563D01*
X22631443Y-35935227D01*
X22653387Y-35943079D01*
X22674457Y-35953044D01*
X22694448Y-35965026D01*
X22713168Y-35978910D01*
X22730438Y-35994562D01*
X22746090Y-36011832D01*
X22759974Y-36030552D01*
X22771956Y-36050543D01*
X22781921Y-36071613D01*
X22789773Y-36093557D01*
X22795437Y-36116166D01*
X22798856Y-36139221D01*
X22800000Y-36162500D01*
X22800000Y-36637500D01*
X22798856Y-36660779D01*
X22795437Y-36683834D01*
X22789773Y-36706443D01*
X22781921Y-36728387D01*
X22771956Y-36749457D01*
X22759974Y-36769448D01*
X22746090Y-36788168D01*
X22730438Y-36805438D01*
X22713168Y-36821090D01*
X22694448Y-36834974D01*
X22674457Y-36846956D01*
X22653387Y-36856921D01*
X22631443Y-36864773D01*
X22608834Y-36870437D01*
X22585779Y-36873856D01*
X22562500Y-36875000D01*
X21987500Y-36875000D01*
X21964221Y-36873856D01*
X21941166Y-36870437D01*
X21918557Y-36864773D01*
X21896613Y-36856921D01*
X21875543Y-36846956D01*
X21855552Y-36834974D01*
X21836832Y-36821090D01*
X21819562Y-36805438D01*
X21803910Y-36788168D01*
X21790026Y-36769448D01*
X21778044Y-36749457D01*
X21768079Y-36728387D01*
X21760227Y-36706443D01*
X21754563Y-36683834D01*
X21751144Y-36660779D01*
X21750000Y-36637500D01*
X21750000Y-36162500D01*
X21751144Y-36139221D01*
X21754563Y-36116166D01*
X21760227Y-36093557D01*
X21768079Y-36071613D01*
X21778044Y-36050543D01*
X21790026Y-36030552D01*
X21803910Y-36011832D01*
X21819562Y-35994562D01*
X21836832Y-35978910D01*
X21855552Y-35965026D01*
X21875543Y-35953044D01*
X21896613Y-35943079D01*
X21918557Y-35935227D01*
X21941166Y-35929563D01*
X21964221Y-35926144D01*
X21987500Y-35925000D01*
X22562500Y-35925000D01*
X22585779Y-35926144D01*
X22585779Y-35926144D01*
G37*
D16*
X22275000Y-36400000D03*
D15*
G36*
X20835779Y-35926144D02*
G01*
X20858834Y-35929563D01*
X20881443Y-35935227D01*
X20903387Y-35943079D01*
X20924457Y-35953044D01*
X20944448Y-35965026D01*
X20963168Y-35978910D01*
X20980438Y-35994562D01*
X20996090Y-36011832D01*
X21009974Y-36030552D01*
X21021956Y-36050543D01*
X21031921Y-36071613D01*
X21039773Y-36093557D01*
X21045437Y-36116166D01*
X21048856Y-36139221D01*
X21050000Y-36162500D01*
X21050000Y-36637500D01*
X21048856Y-36660779D01*
X21045437Y-36683834D01*
X21039773Y-36706443D01*
X21031921Y-36728387D01*
X21021956Y-36749457D01*
X21009974Y-36769448D01*
X20996090Y-36788168D01*
X20980438Y-36805438D01*
X20963168Y-36821090D01*
X20944448Y-36834974D01*
X20924457Y-36846956D01*
X20903387Y-36856921D01*
X20881443Y-36864773D01*
X20858834Y-36870437D01*
X20835779Y-36873856D01*
X20812500Y-36875000D01*
X20237500Y-36875000D01*
X20214221Y-36873856D01*
X20191166Y-36870437D01*
X20168557Y-36864773D01*
X20146613Y-36856921D01*
X20125543Y-36846956D01*
X20105552Y-36834974D01*
X20086832Y-36821090D01*
X20069562Y-36805438D01*
X20053910Y-36788168D01*
X20040026Y-36769448D01*
X20028044Y-36749457D01*
X20018079Y-36728387D01*
X20010227Y-36706443D01*
X20004563Y-36683834D01*
X20001144Y-36660779D01*
X20000000Y-36637500D01*
X20000000Y-36162500D01*
X20001144Y-36139221D01*
X20004563Y-36116166D01*
X20010227Y-36093557D01*
X20018079Y-36071613D01*
X20028044Y-36050543D01*
X20040026Y-36030552D01*
X20053910Y-36011832D01*
X20069562Y-35994562D01*
X20086832Y-35978910D01*
X20105552Y-35965026D01*
X20125543Y-35953044D01*
X20146613Y-35943079D01*
X20168557Y-35935227D01*
X20191166Y-35929563D01*
X20214221Y-35926144D01*
X20237500Y-35925000D01*
X20812500Y-35925000D01*
X20835779Y-35926144D01*
X20835779Y-35926144D01*
G37*
D16*
X20525000Y-36400000D03*
D15*
G36*
X14935779Y-36026144D02*
G01*
X14958834Y-36029563D01*
X14981443Y-36035227D01*
X15003387Y-36043079D01*
X15024457Y-36053044D01*
X15044448Y-36065026D01*
X15063168Y-36078910D01*
X15080438Y-36094562D01*
X15096090Y-36111832D01*
X15109974Y-36130552D01*
X15121956Y-36150543D01*
X15131921Y-36171613D01*
X15139773Y-36193557D01*
X15145437Y-36216166D01*
X15148856Y-36239221D01*
X15150000Y-36262500D01*
X15150000Y-36737500D01*
X15148856Y-36760779D01*
X15145437Y-36783834D01*
X15139773Y-36806443D01*
X15131921Y-36828387D01*
X15121956Y-36849457D01*
X15109974Y-36869448D01*
X15096090Y-36888168D01*
X15080438Y-36905438D01*
X15063168Y-36921090D01*
X15044448Y-36934974D01*
X15024457Y-36946956D01*
X15003387Y-36956921D01*
X14981443Y-36964773D01*
X14958834Y-36970437D01*
X14935779Y-36973856D01*
X14912500Y-36975000D01*
X14337500Y-36975000D01*
X14314221Y-36973856D01*
X14291166Y-36970437D01*
X14268557Y-36964773D01*
X14246613Y-36956921D01*
X14225543Y-36946956D01*
X14205552Y-36934974D01*
X14186832Y-36921090D01*
X14169562Y-36905438D01*
X14153910Y-36888168D01*
X14140026Y-36869448D01*
X14128044Y-36849457D01*
X14118079Y-36828387D01*
X14110227Y-36806443D01*
X14104563Y-36783834D01*
X14101144Y-36760779D01*
X14100000Y-36737500D01*
X14100000Y-36262500D01*
X14101144Y-36239221D01*
X14104563Y-36216166D01*
X14110227Y-36193557D01*
X14118079Y-36171613D01*
X14128044Y-36150543D01*
X14140026Y-36130552D01*
X14153910Y-36111832D01*
X14169562Y-36094562D01*
X14186832Y-36078910D01*
X14205552Y-36065026D01*
X14225543Y-36053044D01*
X14246613Y-36043079D01*
X14268557Y-36035227D01*
X14291166Y-36029563D01*
X14314221Y-36026144D01*
X14337500Y-36025000D01*
X14912500Y-36025000D01*
X14935779Y-36026144D01*
X14935779Y-36026144D01*
G37*
D16*
X14625000Y-36500000D03*
D15*
G36*
X16685779Y-36026144D02*
G01*
X16708834Y-36029563D01*
X16731443Y-36035227D01*
X16753387Y-36043079D01*
X16774457Y-36053044D01*
X16794448Y-36065026D01*
X16813168Y-36078910D01*
X16830438Y-36094562D01*
X16846090Y-36111832D01*
X16859974Y-36130552D01*
X16871956Y-36150543D01*
X16881921Y-36171613D01*
X16889773Y-36193557D01*
X16895437Y-36216166D01*
X16898856Y-36239221D01*
X16900000Y-36262500D01*
X16900000Y-36737500D01*
X16898856Y-36760779D01*
X16895437Y-36783834D01*
X16889773Y-36806443D01*
X16881921Y-36828387D01*
X16871956Y-36849457D01*
X16859974Y-36869448D01*
X16846090Y-36888168D01*
X16830438Y-36905438D01*
X16813168Y-36921090D01*
X16794448Y-36934974D01*
X16774457Y-36946956D01*
X16753387Y-36956921D01*
X16731443Y-36964773D01*
X16708834Y-36970437D01*
X16685779Y-36973856D01*
X16662500Y-36975000D01*
X16087500Y-36975000D01*
X16064221Y-36973856D01*
X16041166Y-36970437D01*
X16018557Y-36964773D01*
X15996613Y-36956921D01*
X15975543Y-36946956D01*
X15955552Y-36934974D01*
X15936832Y-36921090D01*
X15919562Y-36905438D01*
X15903910Y-36888168D01*
X15890026Y-36869448D01*
X15878044Y-36849457D01*
X15868079Y-36828387D01*
X15860227Y-36806443D01*
X15854563Y-36783834D01*
X15851144Y-36760779D01*
X15850000Y-36737500D01*
X15850000Y-36262500D01*
X15851144Y-36239221D01*
X15854563Y-36216166D01*
X15860227Y-36193557D01*
X15868079Y-36171613D01*
X15878044Y-36150543D01*
X15890026Y-36130552D01*
X15903910Y-36111832D01*
X15919562Y-36094562D01*
X15936832Y-36078910D01*
X15955552Y-36065026D01*
X15975543Y-36053044D01*
X15996613Y-36043079D01*
X16018557Y-36035227D01*
X16041166Y-36029563D01*
X16064221Y-36026144D01*
X16087500Y-36025000D01*
X16662500Y-36025000D01*
X16685779Y-36026144D01*
X16685779Y-36026144D01*
G37*
D16*
X16375000Y-36500000D03*
D15*
G36*
X12685779Y-36026144D02*
G01*
X12708834Y-36029563D01*
X12731443Y-36035227D01*
X12753387Y-36043079D01*
X12774457Y-36053044D01*
X12794448Y-36065026D01*
X12813168Y-36078910D01*
X12830438Y-36094562D01*
X12846090Y-36111832D01*
X12859974Y-36130552D01*
X12871956Y-36150543D01*
X12881921Y-36171613D01*
X12889773Y-36193557D01*
X12895437Y-36216166D01*
X12898856Y-36239221D01*
X12900000Y-36262500D01*
X12900000Y-36737500D01*
X12898856Y-36760779D01*
X12895437Y-36783834D01*
X12889773Y-36806443D01*
X12881921Y-36828387D01*
X12871956Y-36849457D01*
X12859974Y-36869448D01*
X12846090Y-36888168D01*
X12830438Y-36905438D01*
X12813168Y-36921090D01*
X12794448Y-36934974D01*
X12774457Y-36946956D01*
X12753387Y-36956921D01*
X12731443Y-36964773D01*
X12708834Y-36970437D01*
X12685779Y-36973856D01*
X12662500Y-36975000D01*
X12087500Y-36975000D01*
X12064221Y-36973856D01*
X12041166Y-36970437D01*
X12018557Y-36964773D01*
X11996613Y-36956921D01*
X11975543Y-36946956D01*
X11955552Y-36934974D01*
X11936832Y-36921090D01*
X11919562Y-36905438D01*
X11903910Y-36888168D01*
X11890026Y-36869448D01*
X11878044Y-36849457D01*
X11868079Y-36828387D01*
X11860227Y-36806443D01*
X11854563Y-36783834D01*
X11851144Y-36760779D01*
X11850000Y-36737500D01*
X11850000Y-36262500D01*
X11851144Y-36239221D01*
X11854563Y-36216166D01*
X11860227Y-36193557D01*
X11868079Y-36171613D01*
X11878044Y-36150543D01*
X11890026Y-36130552D01*
X11903910Y-36111832D01*
X11919562Y-36094562D01*
X11936832Y-36078910D01*
X11955552Y-36065026D01*
X11975543Y-36053044D01*
X11996613Y-36043079D01*
X12018557Y-36035227D01*
X12041166Y-36029563D01*
X12064221Y-36026144D01*
X12087500Y-36025000D01*
X12662500Y-36025000D01*
X12685779Y-36026144D01*
X12685779Y-36026144D01*
G37*
D16*
X12375000Y-36500000D03*
D15*
G36*
X10935779Y-36026144D02*
G01*
X10958834Y-36029563D01*
X10981443Y-36035227D01*
X11003387Y-36043079D01*
X11024457Y-36053044D01*
X11044448Y-36065026D01*
X11063168Y-36078910D01*
X11080438Y-36094562D01*
X11096090Y-36111832D01*
X11109974Y-36130552D01*
X11121956Y-36150543D01*
X11131921Y-36171613D01*
X11139773Y-36193557D01*
X11145437Y-36216166D01*
X11148856Y-36239221D01*
X11150000Y-36262500D01*
X11150000Y-36737500D01*
X11148856Y-36760779D01*
X11145437Y-36783834D01*
X11139773Y-36806443D01*
X11131921Y-36828387D01*
X11121956Y-36849457D01*
X11109974Y-36869448D01*
X11096090Y-36888168D01*
X11080438Y-36905438D01*
X11063168Y-36921090D01*
X11044448Y-36934974D01*
X11024457Y-36946956D01*
X11003387Y-36956921D01*
X10981443Y-36964773D01*
X10958834Y-36970437D01*
X10935779Y-36973856D01*
X10912500Y-36975000D01*
X10337500Y-36975000D01*
X10314221Y-36973856D01*
X10291166Y-36970437D01*
X10268557Y-36964773D01*
X10246613Y-36956921D01*
X10225543Y-36946956D01*
X10205552Y-36934974D01*
X10186832Y-36921090D01*
X10169562Y-36905438D01*
X10153910Y-36888168D01*
X10140026Y-36869448D01*
X10128044Y-36849457D01*
X10118079Y-36828387D01*
X10110227Y-36806443D01*
X10104563Y-36783834D01*
X10101144Y-36760779D01*
X10100000Y-36737500D01*
X10100000Y-36262500D01*
X10101144Y-36239221D01*
X10104563Y-36216166D01*
X10110227Y-36193557D01*
X10118079Y-36171613D01*
X10128044Y-36150543D01*
X10140026Y-36130552D01*
X10153910Y-36111832D01*
X10169562Y-36094562D01*
X10186832Y-36078910D01*
X10205552Y-36065026D01*
X10225543Y-36053044D01*
X10246613Y-36043079D01*
X10268557Y-36035227D01*
X10291166Y-36029563D01*
X10314221Y-36026144D01*
X10337500Y-36025000D01*
X10912500Y-36025000D01*
X10935779Y-36026144D01*
X10935779Y-36026144D01*
G37*
D16*
X10625000Y-36500000D03*
D15*
G36*
X22185779Y-28026144D02*
G01*
X22208834Y-28029563D01*
X22231443Y-28035227D01*
X22253387Y-28043079D01*
X22274457Y-28053044D01*
X22294448Y-28065026D01*
X22313168Y-28078910D01*
X22330438Y-28094562D01*
X22346090Y-28111832D01*
X22359974Y-28130552D01*
X22371956Y-28150543D01*
X22381921Y-28171613D01*
X22389773Y-28193557D01*
X22395437Y-28216166D01*
X22398856Y-28239221D01*
X22400000Y-28262500D01*
X22400000Y-28737500D01*
X22398856Y-28760779D01*
X22395437Y-28783834D01*
X22389773Y-28806443D01*
X22381921Y-28828387D01*
X22371956Y-28849457D01*
X22359974Y-28869448D01*
X22346090Y-28888168D01*
X22330438Y-28905438D01*
X22313168Y-28921090D01*
X22294448Y-28934974D01*
X22274457Y-28946956D01*
X22253387Y-28956921D01*
X22231443Y-28964773D01*
X22208834Y-28970437D01*
X22185779Y-28973856D01*
X22162500Y-28975000D01*
X21587500Y-28975000D01*
X21564221Y-28973856D01*
X21541166Y-28970437D01*
X21518557Y-28964773D01*
X21496613Y-28956921D01*
X21475543Y-28946956D01*
X21455552Y-28934974D01*
X21436832Y-28921090D01*
X21419562Y-28905438D01*
X21403910Y-28888168D01*
X21390026Y-28869448D01*
X21378044Y-28849457D01*
X21368079Y-28828387D01*
X21360227Y-28806443D01*
X21354563Y-28783834D01*
X21351144Y-28760779D01*
X21350000Y-28737500D01*
X21350000Y-28262500D01*
X21351144Y-28239221D01*
X21354563Y-28216166D01*
X21360227Y-28193557D01*
X21368079Y-28171613D01*
X21378044Y-28150543D01*
X21390026Y-28130552D01*
X21403910Y-28111832D01*
X21419562Y-28094562D01*
X21436832Y-28078910D01*
X21455552Y-28065026D01*
X21475543Y-28053044D01*
X21496613Y-28043079D01*
X21518557Y-28035227D01*
X21541166Y-28029563D01*
X21564221Y-28026144D01*
X21587500Y-28025000D01*
X22162500Y-28025000D01*
X22185779Y-28026144D01*
X22185779Y-28026144D01*
G37*
D16*
X21875000Y-28500000D03*
D15*
G36*
X20435779Y-28026144D02*
G01*
X20458834Y-28029563D01*
X20481443Y-28035227D01*
X20503387Y-28043079D01*
X20524457Y-28053044D01*
X20544448Y-28065026D01*
X20563168Y-28078910D01*
X20580438Y-28094562D01*
X20596090Y-28111832D01*
X20609974Y-28130552D01*
X20621956Y-28150543D01*
X20631921Y-28171613D01*
X20639773Y-28193557D01*
X20645437Y-28216166D01*
X20648856Y-28239221D01*
X20650000Y-28262500D01*
X20650000Y-28737500D01*
X20648856Y-28760779D01*
X20645437Y-28783834D01*
X20639773Y-28806443D01*
X20631921Y-28828387D01*
X20621956Y-28849457D01*
X20609974Y-28869448D01*
X20596090Y-28888168D01*
X20580438Y-28905438D01*
X20563168Y-28921090D01*
X20544448Y-28934974D01*
X20524457Y-28946956D01*
X20503387Y-28956921D01*
X20481443Y-28964773D01*
X20458834Y-28970437D01*
X20435779Y-28973856D01*
X20412500Y-28975000D01*
X19837500Y-28975000D01*
X19814221Y-28973856D01*
X19791166Y-28970437D01*
X19768557Y-28964773D01*
X19746613Y-28956921D01*
X19725543Y-28946956D01*
X19705552Y-28934974D01*
X19686832Y-28921090D01*
X19669562Y-28905438D01*
X19653910Y-28888168D01*
X19640026Y-28869448D01*
X19628044Y-28849457D01*
X19618079Y-28828387D01*
X19610227Y-28806443D01*
X19604563Y-28783834D01*
X19601144Y-28760779D01*
X19600000Y-28737500D01*
X19600000Y-28262500D01*
X19601144Y-28239221D01*
X19604563Y-28216166D01*
X19610227Y-28193557D01*
X19618079Y-28171613D01*
X19628044Y-28150543D01*
X19640026Y-28130552D01*
X19653910Y-28111832D01*
X19669562Y-28094562D01*
X19686832Y-28078910D01*
X19705552Y-28065026D01*
X19725543Y-28053044D01*
X19746613Y-28043079D01*
X19768557Y-28035227D01*
X19791166Y-28029563D01*
X19814221Y-28026144D01*
X19837500Y-28025000D01*
X20412500Y-28025000D01*
X20435779Y-28026144D01*
X20435779Y-28026144D01*
G37*
D16*
X20125000Y-28500000D03*
D15*
G36*
X38310779Y-34026144D02*
G01*
X38333834Y-34029563D01*
X38356443Y-34035227D01*
X38378387Y-34043079D01*
X38399457Y-34053044D01*
X38419448Y-34065026D01*
X38438168Y-34078910D01*
X38455438Y-34094562D01*
X38471090Y-34111832D01*
X38484974Y-34130552D01*
X38496956Y-34150543D01*
X38506921Y-34171613D01*
X38514773Y-34193557D01*
X38520437Y-34216166D01*
X38523856Y-34239221D01*
X38525000Y-34262500D01*
X38525000Y-34737500D01*
X38523856Y-34760779D01*
X38520437Y-34783834D01*
X38514773Y-34806443D01*
X38506921Y-34828387D01*
X38496956Y-34849457D01*
X38484974Y-34869448D01*
X38471090Y-34888168D01*
X38455438Y-34905438D01*
X38438168Y-34921090D01*
X38419448Y-34934974D01*
X38399457Y-34946956D01*
X38378387Y-34956921D01*
X38356443Y-34964773D01*
X38333834Y-34970437D01*
X38310779Y-34973856D01*
X38287500Y-34975000D01*
X37712500Y-34975000D01*
X37689221Y-34973856D01*
X37666166Y-34970437D01*
X37643557Y-34964773D01*
X37621613Y-34956921D01*
X37600543Y-34946956D01*
X37580552Y-34934974D01*
X37561832Y-34921090D01*
X37544562Y-34905438D01*
X37528910Y-34888168D01*
X37515026Y-34869448D01*
X37503044Y-34849457D01*
X37493079Y-34828387D01*
X37485227Y-34806443D01*
X37479563Y-34783834D01*
X37476144Y-34760779D01*
X37475000Y-34737500D01*
X37475000Y-34262500D01*
X37476144Y-34239221D01*
X37479563Y-34216166D01*
X37485227Y-34193557D01*
X37493079Y-34171613D01*
X37503044Y-34150543D01*
X37515026Y-34130552D01*
X37528910Y-34111832D01*
X37544562Y-34094562D01*
X37561832Y-34078910D01*
X37580552Y-34065026D01*
X37600543Y-34053044D01*
X37621613Y-34043079D01*
X37643557Y-34035227D01*
X37666166Y-34029563D01*
X37689221Y-34026144D01*
X37712500Y-34025000D01*
X38287500Y-34025000D01*
X38310779Y-34026144D01*
X38310779Y-34026144D01*
G37*
D16*
X38000000Y-34500000D03*
D15*
G36*
X36560779Y-34026144D02*
G01*
X36583834Y-34029563D01*
X36606443Y-34035227D01*
X36628387Y-34043079D01*
X36649457Y-34053044D01*
X36669448Y-34065026D01*
X36688168Y-34078910D01*
X36705438Y-34094562D01*
X36721090Y-34111832D01*
X36734974Y-34130552D01*
X36746956Y-34150543D01*
X36756921Y-34171613D01*
X36764773Y-34193557D01*
X36770437Y-34216166D01*
X36773856Y-34239221D01*
X36775000Y-34262500D01*
X36775000Y-34737500D01*
X36773856Y-34760779D01*
X36770437Y-34783834D01*
X36764773Y-34806443D01*
X36756921Y-34828387D01*
X36746956Y-34849457D01*
X36734974Y-34869448D01*
X36721090Y-34888168D01*
X36705438Y-34905438D01*
X36688168Y-34921090D01*
X36669448Y-34934974D01*
X36649457Y-34946956D01*
X36628387Y-34956921D01*
X36606443Y-34964773D01*
X36583834Y-34970437D01*
X36560779Y-34973856D01*
X36537500Y-34975000D01*
X35962500Y-34975000D01*
X35939221Y-34973856D01*
X35916166Y-34970437D01*
X35893557Y-34964773D01*
X35871613Y-34956921D01*
X35850543Y-34946956D01*
X35830552Y-34934974D01*
X35811832Y-34921090D01*
X35794562Y-34905438D01*
X35778910Y-34888168D01*
X35765026Y-34869448D01*
X35753044Y-34849457D01*
X35743079Y-34828387D01*
X35735227Y-34806443D01*
X35729563Y-34783834D01*
X35726144Y-34760779D01*
X35725000Y-34737500D01*
X35725000Y-34262500D01*
X35726144Y-34239221D01*
X35729563Y-34216166D01*
X35735227Y-34193557D01*
X35743079Y-34171613D01*
X35753044Y-34150543D01*
X35765026Y-34130552D01*
X35778910Y-34111832D01*
X35794562Y-34094562D01*
X35811832Y-34078910D01*
X35830552Y-34065026D01*
X35850543Y-34053044D01*
X35871613Y-34043079D01*
X35893557Y-34035227D01*
X35916166Y-34029563D01*
X35939221Y-34026144D01*
X35962500Y-34025000D01*
X36537500Y-34025000D01*
X36560779Y-34026144D01*
X36560779Y-34026144D01*
G37*
D16*
X36250000Y-34500000D03*
D15*
G36*
X38310779Y-36026144D02*
G01*
X38333834Y-36029563D01*
X38356443Y-36035227D01*
X38378387Y-36043079D01*
X38399457Y-36053044D01*
X38419448Y-36065026D01*
X38438168Y-36078910D01*
X38455438Y-36094562D01*
X38471090Y-36111832D01*
X38484974Y-36130552D01*
X38496956Y-36150543D01*
X38506921Y-36171613D01*
X38514773Y-36193557D01*
X38520437Y-36216166D01*
X38523856Y-36239221D01*
X38525000Y-36262500D01*
X38525000Y-36737500D01*
X38523856Y-36760779D01*
X38520437Y-36783834D01*
X38514773Y-36806443D01*
X38506921Y-36828387D01*
X38496956Y-36849457D01*
X38484974Y-36869448D01*
X38471090Y-36888168D01*
X38455438Y-36905438D01*
X38438168Y-36921090D01*
X38419448Y-36934974D01*
X38399457Y-36946956D01*
X38378387Y-36956921D01*
X38356443Y-36964773D01*
X38333834Y-36970437D01*
X38310779Y-36973856D01*
X38287500Y-36975000D01*
X37712500Y-36975000D01*
X37689221Y-36973856D01*
X37666166Y-36970437D01*
X37643557Y-36964773D01*
X37621613Y-36956921D01*
X37600543Y-36946956D01*
X37580552Y-36934974D01*
X37561832Y-36921090D01*
X37544562Y-36905438D01*
X37528910Y-36888168D01*
X37515026Y-36869448D01*
X37503044Y-36849457D01*
X37493079Y-36828387D01*
X37485227Y-36806443D01*
X37479563Y-36783834D01*
X37476144Y-36760779D01*
X37475000Y-36737500D01*
X37475000Y-36262500D01*
X37476144Y-36239221D01*
X37479563Y-36216166D01*
X37485227Y-36193557D01*
X37493079Y-36171613D01*
X37503044Y-36150543D01*
X37515026Y-36130552D01*
X37528910Y-36111832D01*
X37544562Y-36094562D01*
X37561832Y-36078910D01*
X37580552Y-36065026D01*
X37600543Y-36053044D01*
X37621613Y-36043079D01*
X37643557Y-36035227D01*
X37666166Y-36029563D01*
X37689221Y-36026144D01*
X37712500Y-36025000D01*
X38287500Y-36025000D01*
X38310779Y-36026144D01*
X38310779Y-36026144D01*
G37*
D16*
X38000000Y-36500000D03*
D15*
G36*
X36560779Y-36026144D02*
G01*
X36583834Y-36029563D01*
X36606443Y-36035227D01*
X36628387Y-36043079D01*
X36649457Y-36053044D01*
X36669448Y-36065026D01*
X36688168Y-36078910D01*
X36705438Y-36094562D01*
X36721090Y-36111832D01*
X36734974Y-36130552D01*
X36746956Y-36150543D01*
X36756921Y-36171613D01*
X36764773Y-36193557D01*
X36770437Y-36216166D01*
X36773856Y-36239221D01*
X36775000Y-36262500D01*
X36775000Y-36737500D01*
X36773856Y-36760779D01*
X36770437Y-36783834D01*
X36764773Y-36806443D01*
X36756921Y-36828387D01*
X36746956Y-36849457D01*
X36734974Y-36869448D01*
X36721090Y-36888168D01*
X36705438Y-36905438D01*
X36688168Y-36921090D01*
X36669448Y-36934974D01*
X36649457Y-36946956D01*
X36628387Y-36956921D01*
X36606443Y-36964773D01*
X36583834Y-36970437D01*
X36560779Y-36973856D01*
X36537500Y-36975000D01*
X35962500Y-36975000D01*
X35939221Y-36973856D01*
X35916166Y-36970437D01*
X35893557Y-36964773D01*
X35871613Y-36956921D01*
X35850543Y-36946956D01*
X35830552Y-36934974D01*
X35811832Y-36921090D01*
X35794562Y-36905438D01*
X35778910Y-36888168D01*
X35765026Y-36869448D01*
X35753044Y-36849457D01*
X35743079Y-36828387D01*
X35735227Y-36806443D01*
X35729563Y-36783834D01*
X35726144Y-36760779D01*
X35725000Y-36737500D01*
X35725000Y-36262500D01*
X35726144Y-36239221D01*
X35729563Y-36216166D01*
X35735227Y-36193557D01*
X35743079Y-36171613D01*
X35753044Y-36150543D01*
X35765026Y-36130552D01*
X35778910Y-36111832D01*
X35794562Y-36094562D01*
X35811832Y-36078910D01*
X35830552Y-36065026D01*
X35850543Y-36053044D01*
X35871613Y-36043079D01*
X35893557Y-36035227D01*
X35916166Y-36029563D01*
X35939221Y-36026144D01*
X35962500Y-36025000D01*
X36537500Y-36025000D01*
X36560779Y-36026144D01*
X36560779Y-36026144D01*
G37*
D16*
X36250000Y-36500000D03*
D15*
G36*
X14185779Y-30026144D02*
G01*
X14208834Y-30029563D01*
X14231443Y-30035227D01*
X14253387Y-30043079D01*
X14274457Y-30053044D01*
X14294448Y-30065026D01*
X14313168Y-30078910D01*
X14330438Y-30094562D01*
X14346090Y-30111832D01*
X14359974Y-30130552D01*
X14371956Y-30150543D01*
X14381921Y-30171613D01*
X14389773Y-30193557D01*
X14395437Y-30216166D01*
X14398856Y-30239221D01*
X14400000Y-30262500D01*
X14400000Y-30737500D01*
X14398856Y-30760779D01*
X14395437Y-30783834D01*
X14389773Y-30806443D01*
X14381921Y-30828387D01*
X14371956Y-30849457D01*
X14359974Y-30869448D01*
X14346090Y-30888168D01*
X14330438Y-30905438D01*
X14313168Y-30921090D01*
X14294448Y-30934974D01*
X14274457Y-30946956D01*
X14253387Y-30956921D01*
X14231443Y-30964773D01*
X14208834Y-30970437D01*
X14185779Y-30973856D01*
X14162500Y-30975000D01*
X13587500Y-30975000D01*
X13564221Y-30973856D01*
X13541166Y-30970437D01*
X13518557Y-30964773D01*
X13496613Y-30956921D01*
X13475543Y-30946956D01*
X13455552Y-30934974D01*
X13436832Y-30921090D01*
X13419562Y-30905438D01*
X13403910Y-30888168D01*
X13390026Y-30869448D01*
X13378044Y-30849457D01*
X13368079Y-30828387D01*
X13360227Y-30806443D01*
X13354563Y-30783834D01*
X13351144Y-30760779D01*
X13350000Y-30737500D01*
X13350000Y-30262500D01*
X13351144Y-30239221D01*
X13354563Y-30216166D01*
X13360227Y-30193557D01*
X13368079Y-30171613D01*
X13378044Y-30150543D01*
X13390026Y-30130552D01*
X13403910Y-30111832D01*
X13419562Y-30094562D01*
X13436832Y-30078910D01*
X13455552Y-30065026D01*
X13475543Y-30053044D01*
X13496613Y-30043079D01*
X13518557Y-30035227D01*
X13541166Y-30029563D01*
X13564221Y-30026144D01*
X13587500Y-30025000D01*
X14162500Y-30025000D01*
X14185779Y-30026144D01*
X14185779Y-30026144D01*
G37*
D16*
X13875000Y-30500000D03*
D15*
G36*
X12435779Y-30026144D02*
G01*
X12458834Y-30029563D01*
X12481443Y-30035227D01*
X12503387Y-30043079D01*
X12524457Y-30053044D01*
X12544448Y-30065026D01*
X12563168Y-30078910D01*
X12580438Y-30094562D01*
X12596090Y-30111832D01*
X12609974Y-30130552D01*
X12621956Y-30150543D01*
X12631921Y-30171613D01*
X12639773Y-30193557D01*
X12645437Y-30216166D01*
X12648856Y-30239221D01*
X12650000Y-30262500D01*
X12650000Y-30737500D01*
X12648856Y-30760779D01*
X12645437Y-30783834D01*
X12639773Y-30806443D01*
X12631921Y-30828387D01*
X12621956Y-30849457D01*
X12609974Y-30869448D01*
X12596090Y-30888168D01*
X12580438Y-30905438D01*
X12563168Y-30921090D01*
X12544448Y-30934974D01*
X12524457Y-30946956D01*
X12503387Y-30956921D01*
X12481443Y-30964773D01*
X12458834Y-30970437D01*
X12435779Y-30973856D01*
X12412500Y-30975000D01*
X11837500Y-30975000D01*
X11814221Y-30973856D01*
X11791166Y-30970437D01*
X11768557Y-30964773D01*
X11746613Y-30956921D01*
X11725543Y-30946956D01*
X11705552Y-30934974D01*
X11686832Y-30921090D01*
X11669562Y-30905438D01*
X11653910Y-30888168D01*
X11640026Y-30869448D01*
X11628044Y-30849457D01*
X11618079Y-30828387D01*
X11610227Y-30806443D01*
X11604563Y-30783834D01*
X11601144Y-30760779D01*
X11600000Y-30737500D01*
X11600000Y-30262500D01*
X11601144Y-30239221D01*
X11604563Y-30216166D01*
X11610227Y-30193557D01*
X11618079Y-30171613D01*
X11628044Y-30150543D01*
X11640026Y-30130552D01*
X11653910Y-30111832D01*
X11669562Y-30094562D01*
X11686832Y-30078910D01*
X11705552Y-30065026D01*
X11725543Y-30053044D01*
X11746613Y-30043079D01*
X11768557Y-30035227D01*
X11791166Y-30029563D01*
X11814221Y-30026144D01*
X11837500Y-30025000D01*
X12412500Y-30025000D01*
X12435779Y-30026144D01*
X12435779Y-30026144D01*
G37*
D16*
X12125000Y-30500000D03*
M02*
